G04 Layer_Color=8150272*
%FSLAX25Y25*%
%MOIN*%
G70*
G01*
G75*
%ADD74R,0.01181X0.03937*%
%ADD202R,0.04300X0.04300*%
%ADD204R,0.06706X0.04737*%
%ADD205C,0.00800*%
%ADD206R,0.06706X0.06706*%
%ADD207C,0.06706*%
%ADD208R,0.04000X0.04000*%
%ADD209C,0.04000*%
%ADD210C,0.04343*%
%ADD211C,0.09400*%
%ADD212C,0.09800*%
%ADD213C,0.08300*%
%ADD214P,0.09483X4X90.0*%
%ADD215R,0.06706X0.06706*%
%ADD216C,0.03900*%
%ADD217R,0.04300X0.04300*%
%ADD218R,0.03162X0.04934*%
%ADD219R,0.05800X0.05800*%
%ADD220R,0.05800X0.05800*%
%ADD221R,0.13398X0.04737*%
%ADD222R,0.02769X0.03162*%
%ADD223R,0.04600X0.04600*%
%ADD224R,0.11430X0.03950*%
%ADD225R,0.06706X0.03556*%
%ADD226R,0.06902X0.04737*%
%ADD227R,0.04737X0.06902*%
%ADD228R,0.06706X0.05918*%
%ADD229R,0.06306X0.05518*%
%ADD230R,0.07290X0.03156*%
%ADD231R,0.06706X0.03950*%
%ADD232R,0.02769X0.02769*%
%ADD233R,0.08674X0.05918*%
D74*
X359984Y468700D02*
D03*
X361953D02*
D03*
X363921D02*
D03*
X365890D02*
D03*
X367858D02*
D03*
X350142D02*
D03*
X352110D02*
D03*
X354079D02*
D03*
X356047D02*
D03*
X358016D02*
D03*
D202*
X294500Y524000D02*
D03*
Y530000D02*
D03*
X232000Y577500D02*
D03*
Y583500D02*
D03*
X286500Y524000D02*
D03*
Y530000D02*
D03*
X560000Y489500D02*
D03*
Y495500D02*
D03*
X568000D02*
D03*
Y489500D02*
D03*
X326000Y482500D02*
D03*
Y488500D02*
D03*
X176000Y437500D02*
D03*
Y431500D02*
D03*
X169000Y437500D02*
D03*
Y431500D02*
D03*
X565500Y445500D02*
D03*
Y439500D02*
D03*
X558000D02*
D03*
Y445500D02*
D03*
X234000Y414500D02*
D03*
Y420500D02*
D03*
X213000Y388000D02*
D03*
Y394000D02*
D03*
X213500Y346500D02*
D03*
Y352500D02*
D03*
X236000Y304500D02*
D03*
Y310500D02*
D03*
X488000Y307500D02*
D03*
Y313500D02*
D03*
X507000Y343500D02*
D03*
Y349500D02*
D03*
X507500Y387000D02*
D03*
Y393000D02*
D03*
X458000Y538000D02*
D03*
Y544000D02*
D03*
X406500Y538000D02*
D03*
Y544000D02*
D03*
X360500Y537500D02*
D03*
Y543500D02*
D03*
X315000Y537500D02*
D03*
Y543500D02*
D03*
X261500Y538000D02*
D03*
Y544000D02*
D03*
D204*
X224865Y420299D02*
D03*
Y407701D02*
D03*
X205573D02*
D03*
Y420299D02*
D03*
D205*
X298500Y458000D02*
D03*
X427000D02*
D03*
X587000Y638500D02*
D03*
X132500Y188000D02*
D03*
Y638500D02*
D03*
X587000Y188000D02*
D03*
D206*
X207500Y583500D02*
D03*
D207*
X197500D02*
D03*
X466142Y484000D02*
D03*
X459071Y491071D02*
D03*
Y476929D02*
D03*
X267500Y444500D02*
D03*
X257500D02*
D03*
X267500Y434500D02*
D03*
X257500D02*
D03*
X267500Y424500D02*
D03*
X257500D02*
D03*
X267500Y414500D02*
D03*
D208*
X286000Y589000D02*
D03*
D209*
X291000D02*
D03*
X286000Y584000D02*
D03*
X291000Y584000D02*
D03*
X286000Y579000D02*
D03*
X291000D02*
D03*
X286000Y574000D02*
D03*
X291000D02*
D03*
X286000Y569000D02*
D03*
X291000Y569000D02*
D03*
D210*
X286500Y513500D02*
D03*
Y463500D02*
D03*
X577000Y352594D02*
D03*
Y364406D02*
D03*
D211*
X463118Y261055D02*
D03*
D212*
Y210661D02*
D03*
X249500Y188000D02*
D03*
D213*
Y135000D02*
D03*
D214*
X452000Y484000D02*
D03*
D215*
X257500Y414500D02*
D03*
D216*
X314500Y503000D02*
D03*
X359500Y604000D02*
D03*
X499854Y399646D02*
D03*
X519000Y387000D02*
D03*
Y343500D02*
D03*
X248000Y304500D02*
D03*
X225000Y346500D02*
D03*
Y388000D02*
D03*
X218732Y245732D02*
D03*
X195232Y223232D02*
D03*
X171732Y245232D02*
D03*
X194732Y266732D02*
D03*
X535732Y234732D02*
D03*
Y226268D02*
D03*
X218732Y237268D02*
D03*
X194732Y258268D02*
D03*
X171232Y236768D02*
D03*
X195232Y214768D02*
D03*
X250292Y152201D02*
D03*
X327292D02*
D03*
X400792D02*
D03*
X477792D02*
D03*
D217*
X562000Y538500D02*
D03*
X556000D02*
D03*
X218500Y583500D02*
D03*
X224500D02*
D03*
X326000Y461000D02*
D03*
X320000D02*
D03*
X207000Y260000D02*
D03*
X213000D02*
D03*
X184000Y238500D02*
D03*
X190000D02*
D03*
X231000Y239500D02*
D03*
X237000D02*
D03*
X207500Y216500D02*
D03*
X213500D02*
D03*
X548000Y228000D02*
D03*
X554000D02*
D03*
X548000Y235000D02*
D03*
X554000D02*
D03*
X207500Y223500D02*
D03*
X213500D02*
D03*
X231000Y246500D02*
D03*
X237000D02*
D03*
X184000Y245500D02*
D03*
X190000D02*
D03*
X207000Y267000D02*
D03*
X213000D02*
D03*
X389000Y586000D02*
D03*
X395000D02*
D03*
X348000Y490000D02*
D03*
X354000D02*
D03*
D218*
X571240Y430315D02*
D03*
X563760D02*
D03*
Y419685D02*
D03*
X567500D02*
D03*
X571240D02*
D03*
D219*
X542000Y492500D02*
D03*
X542000Y500000D02*
D03*
X538500Y430500D02*
D03*
X538500Y423000D02*
D03*
D220*
X567500Y505000D02*
D03*
X560000D02*
D03*
X571500Y410000D02*
D03*
X564000D02*
D03*
D221*
X542000Y512000D02*
D03*
X542000Y520661D02*
D03*
D222*
X556260Y513260D02*
D03*
X563740D02*
D03*
Y520740D02*
D03*
X560000Y520740D02*
D03*
X556260Y520740D02*
D03*
X560000Y513260D02*
D03*
D223*
X326000Y467500D02*
D03*
Y475500D02*
D03*
X318000Y471500D02*
D03*
D224*
X550000Y419488D02*
D03*
Y430512D02*
D03*
D225*
X570110Y355547D02*
D03*
Y349642D02*
D03*
Y367358D02*
D03*
D226*
X546976Y551500D02*
D03*
D227*
X553126Y594500D02*
D03*
D228*
X589000Y550933D02*
D03*
D229*
Y595224D02*
D03*
D230*
X589500Y590500D02*
D03*
Y564516D02*
D03*
Y568847D02*
D03*
Y573177D02*
D03*
Y577508D02*
D03*
Y581839D02*
D03*
Y586169D02*
D03*
Y560185D02*
D03*
D231*
X559031Y550000D02*
D03*
Y596000D02*
D03*
D232*
X367705Y620811D02*
D03*
X354713D02*
D03*
X343886D02*
D03*
X347429Y618646D02*
D03*
X343886Y616480D02*
D03*
X347429Y614315D02*
D03*
X343886Y612150D02*
D03*
X347429Y609984D02*
D03*
X343886Y607819D02*
D03*
X347429Y605654D02*
D03*
X343886Y603488D02*
D03*
X347429Y601323D02*
D03*
X343886Y599157D02*
D03*
X347429Y596992D02*
D03*
X343886Y594827D02*
D03*
X347429Y592661D02*
D03*
X343886Y586165D02*
D03*
Y590496D02*
D03*
X348217Y586165D02*
D03*
X350382Y589709D02*
D03*
X352547Y586165D02*
D03*
X354713Y589709D02*
D03*
X356878Y586165D02*
D03*
X359043Y589709D02*
D03*
X361209Y586165D02*
D03*
X363374Y589709D02*
D03*
X365539Y586165D02*
D03*
X367705Y589709D02*
D03*
X369870Y586165D02*
D03*
X372035Y589709D02*
D03*
X374201Y586165D02*
D03*
X378531Y590496D02*
D03*
X374988Y592661D02*
D03*
X378531Y594827D02*
D03*
X374988Y596992D02*
D03*
X378531Y599157D02*
D03*
X374988Y601323D02*
D03*
X378531Y603488D02*
D03*
X374988Y605654D02*
D03*
X378531Y607819D02*
D03*
X374988Y609984D02*
D03*
X378531Y612150D02*
D03*
X374988Y614315D02*
D03*
X378531Y616480D02*
D03*
X374988Y618646D02*
D03*
X378531Y620811D02*
D03*
Y586165D02*
D03*
D233*
X376913Y458070D02*
D03*
X341087D02*
D03*
M02*
