G04 Layer_Color=7318015*
%FSLAX25Y25*%
%MOIN*%
G70*
G01*
G75*
%ADD11R,0.05906X0.03937*%
%ADD12R,0.04134X0.02559*%
%ADD13R,0.03500X0.03500*%
D11*
X418646Y543799D02*
D03*
Y531201D02*
D03*
X399354D02*
D03*
Y543799D02*
D03*
X372646Y543299D02*
D03*
Y530701D02*
D03*
X353354D02*
D03*
Y543299D02*
D03*
X327146Y543799D02*
D03*
Y531201D02*
D03*
X307854D02*
D03*
Y543799D02*
D03*
X273646D02*
D03*
Y531201D02*
D03*
X254354D02*
D03*
Y543799D02*
D03*
X499646Y313799D02*
D03*
Y301201D02*
D03*
X480354D02*
D03*
Y313799D02*
D03*
X519146Y349299D02*
D03*
Y336701D02*
D03*
X499854D02*
D03*
Y349299D02*
D03*
X519146Y392799D02*
D03*
Y380201D02*
D03*
X499854D02*
D03*
Y392799D02*
D03*
X470146Y543299D02*
D03*
Y530701D02*
D03*
X450854D02*
D03*
Y543299D02*
D03*
X257646Y164799D02*
D03*
Y152201D02*
D03*
X238354D02*
D03*
Y164799D02*
D03*
X334646D02*
D03*
Y152201D02*
D03*
X315354D02*
D03*
Y164799D02*
D03*
X408146D02*
D03*
Y152201D02*
D03*
X388854D02*
D03*
Y164799D02*
D03*
X485146D02*
D03*
Y152201D02*
D03*
X465854D02*
D03*
Y164799D02*
D03*
X225146Y393799D02*
D03*
Y381201D02*
D03*
X205854D02*
D03*
Y393799D02*
D03*
X225146Y352299D02*
D03*
Y339701D02*
D03*
X205854D02*
D03*
Y352299D02*
D03*
X248146Y310299D02*
D03*
Y297701D02*
D03*
X228854D02*
D03*
Y310299D02*
D03*
D12*
X183331Y266732D02*
D03*
X199669D02*
D03*
X183331Y258268D02*
D03*
X199669D02*
D03*
X183331Y223232D02*
D03*
X199669D02*
D03*
X183331Y214768D02*
D03*
X199669D02*
D03*
X159831Y245232D02*
D03*
X176169D02*
D03*
X159831Y236768D02*
D03*
X176169D02*
D03*
X206831Y245732D02*
D03*
X223169D02*
D03*
X206831Y237268D02*
D03*
X223169D02*
D03*
X523831Y234732D02*
D03*
X540169D02*
D03*
X523831Y226268D02*
D03*
X540169D02*
D03*
D13*
X493500Y158000D02*
D03*
Y152000D02*
D03*
X418500Y158000D02*
D03*
Y152000D02*
D03*
X343500Y158000D02*
D03*
Y152000D02*
D03*
X267500Y158000D02*
D03*
Y152000D02*
D03*
M02*
