G04 Layer_Physical_Order=2*
G04 Layer_Color=16711680*
%FSLAX25Y25*%
%MOIN*%
G70*
G01*
G75*
%ADD10C,0.00600*%
%ADD11R,0.05906X0.03937*%
%ADD13R,0.03500X0.03500*%
%ADD14C,0.01000*%
%ADD49R,0.05906X0.05906*%
%ADD50C,0.05906*%
%ADD51C,0.03543*%
%ADD52R,0.05906X0.05906*%
%ADD53C,0.07500*%
%ADD54C,0.09000*%
%ADD55C,0.03600*%
%ADD56R,0.03600X0.03600*%
%ADD57C,0.03100*%
%ADD58R,0.03500X0.03500*%
%ADD59O,0.02362X0.04331*%
%ADD60R,0.02362X0.04331*%
%ADD61R,0.05000X0.05000*%
%ADD62C,0.04000*%
%ADD63R,0.04724X0.02362*%
%ADD64R,0.07874X0.05118*%
%ADD65R,0.01181X0.03937*%
%ADD66R,0.01969X0.01969*%
%ADD67R,0.05906X0.03150*%
%ADD68R,0.06890X0.02756*%
%ADD69R,0.05906X0.05118*%
%ADD70R,0.03937X0.06102*%
%ADD71R,0.06102X0.03937*%
%ADD72R,0.05906X0.02756*%
%ADD73R,0.10630X0.03150*%
%ADD74R,0.05000X0.05000*%
%ADD75R,0.12598X0.03937*%
%ADD76R,0.02362X0.04134*%
%ADD77C,0.01600*%
G36*
X301471Y623000D02*
X301587Y622415D01*
X301919Y621919D01*
X302415Y621587D01*
X303000Y621471D01*
X341901D01*
Y621311D01*
X343886D01*
Y620311D01*
X341901D01*
Y620175D01*
X304646D01*
X304061Y620059D01*
X303565Y619727D01*
X289919Y606081D01*
X289587Y605585D01*
X289471Y605000D01*
Y591698D01*
X289300Y591592D01*
X288800Y591800D01*
Y591800D01*
X283200D01*
Y590529D01*
X281000D01*
X280512Y590432D01*
X280415Y590413D01*
X279919Y590081D01*
X277419Y587581D01*
X277087Y587085D01*
X276971Y586500D01*
Y554045D01*
X276661Y553838D01*
X276455Y553529D01*
X263545D01*
X263338Y553838D01*
X262495Y554402D01*
X261500Y554600D01*
X260505Y554402D01*
X259662Y553838D01*
X259098Y552995D01*
X258900Y552000D01*
X259098Y551005D01*
X259662Y550162D01*
X259971Y549955D01*
Y546750D01*
X258750D01*
Y545529D01*
X244000D01*
X243415Y545413D01*
X242919Y545081D01*
X241491Y543654D01*
X241029Y543846D01*
Y565000D01*
Y566500D01*
X240913Y567085D01*
X240581Y567581D01*
X240085Y567913D01*
X239500Y568029D01*
X149500D01*
X148915Y567913D01*
X148419Y567581D01*
X148087Y567085D01*
X147971Y566500D01*
Y428500D01*
X148087Y427915D01*
X148419Y427419D01*
X148915Y427087D01*
X149500Y426971D01*
X239000D01*
X239585Y427087D01*
X240081Y427419D01*
X240581Y427919D01*
X240913Y428415D01*
X241029Y429000D01*
Y429971D01*
X245500D01*
X246085Y430087D01*
X246581Y430419D01*
X249581Y433419D01*
X249913Y433915D01*
X250029Y434500D01*
Y477867D01*
X254134Y481971D01*
X309955D01*
X310161Y481662D01*
X311005Y481098D01*
X312000Y480900D01*
X312995Y481098D01*
X313839Y481662D01*
X314402Y482505D01*
X314600Y483500D01*
X314402Y484495D01*
X313839Y485338D01*
X312995Y485902D01*
X312000Y486100D01*
X311005Y485902D01*
X310161Y485338D01*
X309955Y485029D01*
X253500D01*
X252915Y484913D01*
X252419Y484581D01*
X247419Y479581D01*
X247087Y479085D01*
X246971Y478500D01*
Y435134D01*
X244866Y433029D01*
X241029D01*
Y437971D01*
X242000D01*
X242585Y438087D01*
X243081Y438419D01*
X245581Y440919D01*
X245913Y441415D01*
X245932Y441512D01*
X246029Y442000D01*
Y484367D01*
X250133Y488471D01*
X309955D01*
X310161Y488162D01*
X311005Y487598D01*
X312000Y487400D01*
X312995Y487598D01*
X313839Y488162D01*
X314402Y489005D01*
X314600Y490000D01*
X314402Y490995D01*
X313839Y491839D01*
X312995Y492402D01*
X312000Y492600D01*
X311005Y492402D01*
X310161Y491839D01*
X309955Y491529D01*
X249500D01*
X248915Y491413D01*
X248419Y491081D01*
X243419Y486081D01*
X243087Y485585D01*
X242971Y485000D01*
Y442633D01*
X241529Y441192D01*
X241029Y441399D01*
Y523699D01*
X241416Y524016D01*
X242000Y523900D01*
X242995Y524098D01*
X243839Y524661D01*
X244402Y525505D01*
X244600Y526500D01*
X244402Y527495D01*
X243839Y528338D01*
X243529Y528545D01*
Y541366D01*
X244634Y542471D01*
X258750D01*
Y541250D01*
X264250D01*
Y546750D01*
X263029D01*
Y549955D01*
X263338Y550162D01*
X263545Y550471D01*
X276455D01*
X276661Y550162D01*
X277505Y549598D01*
X278500Y549400D01*
X279495Y549598D01*
X280339Y550162D01*
X280902Y551005D01*
X281100Y552000D01*
X280902Y552995D01*
X280339Y553838D01*
X280029Y554045D01*
Y585866D01*
X281633Y587471D01*
X283200D01*
Y586200D01*
X283528D01*
X283775Y585700D01*
X283554Y585412D01*
X283272Y584731D01*
X283242Y584500D01*
X286000D01*
Y583500D01*
X283242D01*
X283272Y583269D01*
X283554Y582588D01*
X284003Y582003D01*
X284248Y581815D01*
Y581185D01*
X284003Y580997D01*
X283554Y580412D01*
X283272Y579731D01*
X283242Y579500D01*
X286000D01*
Y578500D01*
X283242D01*
X283272Y578269D01*
X283554Y577588D01*
X284003Y577003D01*
X284248Y576815D01*
Y576185D01*
X284003Y575997D01*
X283554Y575412D01*
X283272Y574731D01*
X283176Y574000D01*
X283272Y573269D01*
X283554Y572588D01*
X284003Y572003D01*
X284248Y571815D01*
Y571185D01*
X284003Y570997D01*
X283554Y570412D01*
X283272Y569731D01*
X283176Y569000D01*
X283272Y568269D01*
X283554Y567588D01*
X284003Y567003D01*
X284588Y566554D01*
X285269Y566272D01*
X286000Y566176D01*
X286731Y566272D01*
X287412Y566554D01*
X287997Y567003D01*
X288185Y567248D01*
X288815D01*
X289003Y567003D01*
X289588Y566554D01*
X290269Y566272D01*
X291000Y566176D01*
X291731Y566272D01*
X292412Y566554D01*
X292997Y567003D01*
X293356Y567471D01*
X299500D01*
X300085Y567587D01*
X300581Y567919D01*
X303081Y570419D01*
X303413Y570915D01*
X303432Y571012D01*
X303529Y571500D01*
Y585366D01*
X306435Y588273D01*
X306978Y588108D01*
X307098Y587505D01*
X307662Y586661D01*
X308505Y586098D01*
X309500Y585900D01*
X310495Y586098D01*
X311338Y586661D01*
X311545Y586971D01*
X320154D01*
X320346Y586509D01*
X319367Y585529D01*
X312000D01*
X311415Y585413D01*
X310919Y585081D01*
X307919Y582081D01*
X307587Y581585D01*
X307471Y581000D01*
Y560634D01*
X304366Y557529D01*
X292500D01*
X291915Y557413D01*
X291419Y557081D01*
X285419Y551081D01*
X285087Y550585D01*
X284971Y550000D01*
Y532750D01*
X283750D01*
Y527250D01*
X289250D01*
Y528471D01*
X291750D01*
Y527250D01*
X297250D01*
Y532750D01*
X291750D01*
Y531529D01*
X289250D01*
Y532750D01*
X288029D01*
Y549367D01*
X293133Y554471D01*
X305000D01*
X305585Y554587D01*
X306081Y554919D01*
X310081Y558919D01*
X310413Y559415D01*
X310432Y559512D01*
X310529Y560000D01*
Y580367D01*
X312633Y582471D01*
X314649D01*
X314916Y581971D01*
X314598Y581495D01*
X314400Y580500D01*
X314598Y579505D01*
X315161Y578661D01*
X316005Y578098D01*
X317000Y577900D01*
X317995Y578098D01*
X318839Y578661D01*
X319045Y578971D01*
X320500D01*
X321085Y579087D01*
X321581Y579419D01*
X327509Y585346D01*
X327971Y585154D01*
Y545000D01*
X328087Y544415D01*
X328419Y543919D01*
X336471Y535866D01*
Y531901D01*
X335971Y531851D01*
X335902Y532196D01*
X335338Y533040D01*
X334495Y533603D01*
X334000Y533702D01*
Y531201D01*
Y528700D01*
X334495Y528799D01*
X335338Y529363D01*
X335902Y530206D01*
X335971Y530551D01*
X336471Y530502D01*
Y524634D01*
X320367Y508529D01*
X312045D01*
X311839Y508839D01*
X310995Y509402D01*
X310000Y509600D01*
X309005Y509402D01*
X308161Y508839D01*
X307598Y507995D01*
X307400Y507000D01*
X307598Y506005D01*
X308161Y505162D01*
X309005Y504598D01*
X310000Y504400D01*
X310995Y504598D01*
X311839Y505162D01*
X312045Y505471D01*
X312708D01*
X312859Y504971D01*
X312662Y504839D01*
X312098Y503995D01*
X311900Y503000D01*
X312098Y502005D01*
X312662Y501161D01*
X313505Y500598D01*
X314500Y500400D01*
X315495Y500598D01*
X316338Y501161D01*
X316545Y501471D01*
X321500D01*
X322085Y501587D01*
X322581Y501919D01*
X342181Y521519D01*
X342513Y522015D01*
X342629Y522600D01*
Y538400D01*
X342513Y538985D01*
X342181Y539481D01*
X333529Y548134D01*
Y554654D01*
X333991Y554846D01*
X339019Y549819D01*
X339515Y549487D01*
X340100Y549371D01*
X372204D01*
X380121Y541454D01*
Y530237D01*
X352413Y502529D01*
X328500D01*
X328012Y502432D01*
X327915Y502413D01*
X327419Y502081D01*
X324919Y499581D01*
X324587Y499085D01*
X324471Y498500D01*
Y491250D01*
X323250D01*
Y485750D01*
X328750D01*
Y491250D01*
X327529D01*
Y497866D01*
X329134Y499471D01*
X353047D01*
X353632Y499587D01*
X354128Y499919D01*
X357993Y503783D01*
X358455Y503592D01*
Y471668D01*
X355608D01*
Y487250D01*
X356750D01*
Y492750D01*
X351250D01*
Y487250D01*
X352550D01*
Y471668D01*
X351610D01*
X351555Y471943D01*
X351223Y472439D01*
X349529Y474133D01*
Y487250D01*
X350750D01*
Y492750D01*
X345250D01*
Y487250D01*
X346471D01*
Y473500D01*
X346587Y472915D01*
X346919Y472419D01*
X348552Y470786D01*
Y465731D01*
X350552D01*
X350569Y465232D01*
X349867Y464529D01*
X332000D01*
X331415Y464413D01*
X330919Y464081D01*
X327867Y461029D01*
X321750D01*
Y462250D01*
X320443D01*
Y469225D01*
X320796Y469579D01*
X322138D01*
X322276Y469579D01*
X322638Y469246D01*
Y468520D01*
X325500D01*
Y470201D01*
X322776D01*
X322638Y470201D01*
X322276Y470533D01*
X322276Y470533D01*
Y472986D01*
X322638Y473319D01*
X322776Y473319D01*
X329362D01*
Y477681D01*
X327529D01*
Y479750D01*
X328750D01*
Y485250D01*
X323250D01*
Y479750D01*
X324471D01*
Y477681D01*
X322638D01*
Y474274D01*
X322638Y474273D01*
X322276Y473941D01*
X322138Y473941D01*
X315551D01*
Y469579D01*
X317384D01*
Y462250D01*
X316250D01*
Y456750D01*
X321750D01*
Y457971D01*
X328500D01*
X329085Y458087D01*
X329581Y458419D01*
X332633Y461471D01*
X336150D01*
Y454511D01*
X346024D01*
Y461471D01*
X350500D01*
X351085Y461587D01*
X351581Y461919D01*
X352009Y462346D01*
X352471Y462154D01*
Y443545D01*
X352162Y443338D01*
X351598Y442495D01*
X351400Y441500D01*
X351598Y440505D01*
X352162Y439662D01*
X353005Y439098D01*
X354000Y438900D01*
X354995Y439098D01*
X355838Y439662D01*
X356402Y440505D01*
X356600Y441500D01*
X356402Y442495D01*
X355838Y443338D01*
X355529Y443545D01*
Y465731D01*
X357638D01*
Y468700D01*
X358393D01*
Y465731D01*
X369448D01*
Y471668D01*
X369387D01*
Y488225D01*
X372634Y491471D01*
X380000D01*
X380585Y491587D01*
X381081Y491919D01*
X394581Y505419D01*
X394913Y505915D01*
X395029Y506500D01*
Y547500D01*
X394913Y548085D01*
X394581Y548581D01*
X378081Y565081D01*
X377585Y565413D01*
X377000Y565529D01*
X366634D01*
X360572Y571591D01*
Y577111D01*
X361034Y577303D01*
X369419Y568919D01*
X369915Y568587D01*
X370500Y568471D01*
X420455D01*
X420661Y568161D01*
X421505Y567598D01*
X422500Y567400D01*
X423495Y567598D01*
X424338Y568161D01*
X424902Y569005D01*
X425100Y570000D01*
X424902Y570995D01*
X424338Y571839D01*
X423495Y572402D01*
X422500Y572600D01*
X421505Y572402D01*
X420661Y571839D01*
X420455Y571529D01*
X411346D01*
X411154Y571991D01*
X417633Y578471D01*
X419955D01*
X420161Y578161D01*
X421005Y577598D01*
X422000Y577400D01*
X422995Y577598D01*
X423839Y578161D01*
X424402Y579005D01*
X424600Y580000D01*
X424402Y580995D01*
X423839Y581839D01*
X422995Y582402D01*
X422000Y582600D01*
X421005Y582402D01*
X420161Y581839D01*
X419955Y581529D01*
X417000D01*
X416512Y581432D01*
X416415Y581413D01*
X415919Y581081D01*
X407967Y573129D01*
X404980D01*
X404722Y573629D01*
X404913Y573915D01*
X405029Y574500D01*
X404913Y575085D01*
X404581Y575581D01*
X404085Y575913D01*
X403500Y576029D01*
X396045D01*
X395838Y576338D01*
X394995Y576902D01*
X394000Y577100D01*
X393005Y576902D01*
X392161Y576338D01*
X391955Y576029D01*
X381200D01*
X381150Y576529D01*
X381495Y576598D01*
X382339Y577162D01*
X382902Y578005D01*
X383100Y579000D01*
X382902Y579995D01*
X382339Y580838D01*
X381495Y581402D01*
X380500Y581600D01*
X379505Y581402D01*
X378661Y580838D01*
X378565Y580694D01*
X378009Y580654D01*
X375730Y582933D01*
Y583811D01*
X376185Y584180D01*
X376366D01*
X376547D01*
X376686Y584180D01*
X378031D01*
Y586165D01*
X378531D01*
Y586665D01*
X380516D01*
Y588012D01*
X380516Y588149D01*
Y588331D01*
Y588512D01*
X380884Y588967D01*
X385840D01*
X386250Y588750D01*
Y583250D01*
X391750D01*
Y588750D01*
X390480D01*
X390413Y589085D01*
X390081Y589581D01*
X388993Y590670D01*
X389185Y591132D01*
X421705D01*
X430971Y581867D01*
Y445634D01*
X417367Y432029D01*
X272133D01*
X271159Y433004D01*
X271351Y433468D01*
X271487Y434500D01*
X271351Y435532D01*
X270953Y436493D01*
X270319Y437319D01*
X269493Y437953D01*
X268532Y438351D01*
X267500Y438487D01*
X266468Y438351D01*
X265507Y437953D01*
X264681Y437319D01*
X264047Y436493D01*
X263649Y435532D01*
X263513Y434500D01*
X263649Y433468D01*
X264047Y432507D01*
X264681Y431681D01*
X265507Y431047D01*
X266468Y430649D01*
X267500Y430513D01*
X268532Y430649D01*
X268996Y430841D01*
X270419Y429419D01*
X270915Y429087D01*
X271012Y429068D01*
X271500Y428971D01*
X418000D01*
X418585Y429087D01*
X419081Y429419D01*
X433471Y443808D01*
X433908Y443671D01*
X433971Y443623D01*
Y440633D01*
X419367Y426029D01*
X271145D01*
X270953Y426493D01*
X270319Y427319D01*
X269493Y427953D01*
X268532Y428351D01*
X267500Y428487D01*
X266468Y428351D01*
X265507Y427953D01*
X264681Y427319D01*
X264047Y426493D01*
X263649Y425532D01*
X263513Y424500D01*
X263649Y423468D01*
X264047Y422507D01*
X264681Y421681D01*
X264878Y421529D01*
X264708Y421029D01*
X263134D01*
X261159Y423004D01*
X261351Y423468D01*
X261487Y424500D01*
X261351Y425532D01*
X260953Y426493D01*
X260319Y427319D01*
X259493Y427953D01*
X258532Y428351D01*
X257500Y428487D01*
X256468Y428351D01*
X255507Y427953D01*
X254681Y427319D01*
X254047Y426493D01*
X253649Y425532D01*
X253513Y424500D01*
X253649Y423468D01*
X254047Y422507D01*
X254681Y421681D01*
X255507Y421047D01*
X256468Y420649D01*
X257500Y420513D01*
X258532Y420649D01*
X258996Y420841D01*
X260922Y418915D01*
X260731Y418453D01*
X253547D01*
Y416029D01*
X247634D01*
X242282Y421380D01*
X241786Y421712D01*
X241201Y421828D01*
X236750D01*
Y423250D01*
X231250D01*
Y421828D01*
X228818D01*
Y423268D01*
X220912D01*
Y421529D01*
X218545D01*
X218338Y421839D01*
X217495Y422402D01*
X216500Y422600D01*
X215505Y422402D01*
X214662Y421839D01*
X214098Y420995D01*
X213900Y420000D01*
X214098Y419005D01*
X214662Y418161D01*
X215505Y417598D01*
X216500Y417400D01*
X217495Y417598D01*
X218338Y418161D01*
X218545Y418471D01*
X220912D01*
Y417331D01*
X228818D01*
Y418770D01*
X231250D01*
Y417750D01*
X236750D01*
Y418770D01*
X240567D01*
X245919Y413419D01*
X246415Y413087D01*
X246512Y413068D01*
X247000Y412971D01*
X253547D01*
Y410547D01*
X261453D01*
Y417865D01*
X261837Y418071D01*
X261953Y418080D01*
X262500Y417971D01*
X264708D01*
X264878Y417471D01*
X264681Y417319D01*
X264047Y416493D01*
X263649Y415532D01*
X263579Y415000D01*
X267500D01*
Y414500D01*
D01*
Y415000D01*
X271421D01*
X271351Y415532D01*
X270953Y416493D01*
X270319Y417319D01*
X270122Y417471D01*
X270291Y417971D01*
X422000D01*
X422585Y418087D01*
X423081Y418419D01*
X439581Y434919D01*
X439913Y435415D01*
X440029Y436000D01*
Y584500D01*
X439913Y585085D01*
X439581Y585581D01*
X427089Y598073D01*
X426593Y598405D01*
X426008Y598521D01*
X380516D01*
Y601142D01*
X380516D01*
Y601459D01*
X380624Y601959D01*
X503378D01*
X511471Y593866D01*
Y592545D01*
X511162Y592339D01*
X510598Y591495D01*
X510400Y590500D01*
X510598Y589505D01*
X511162Y588661D01*
X511854Y588199D01*
X511703Y587699D01*
X503464D01*
X496286Y594876D01*
X495790Y595208D01*
X495205Y595324D01*
X462340D01*
X462133Y595633D01*
X461290Y596197D01*
X460295Y596395D01*
X459300Y596197D01*
X458457Y595633D01*
X457893Y594790D01*
X457695Y593795D01*
X457893Y592800D01*
X458457Y591957D01*
X459300Y591393D01*
X460295Y591195D01*
X461290Y591393D01*
X462133Y591957D01*
X462340Y592266D01*
X463583D01*
X463818Y591825D01*
X463598Y591495D01*
X463400Y590500D01*
X463598Y589505D01*
X463916Y589029D01*
X463649Y588529D01*
X453633D01*
X450581Y591581D01*
X450085Y591913D01*
X449500Y592029D01*
X446045D01*
X445838Y592339D01*
X444995Y592902D01*
X444000Y593100D01*
X443005Y592902D01*
X442162Y592339D01*
X441598Y591495D01*
X441400Y590500D01*
X441598Y589505D01*
X442162Y588661D01*
X443005Y588098D01*
X444000Y587900D01*
X444995Y588098D01*
X445838Y588661D01*
X446045Y588971D01*
X448867D01*
X451919Y585919D01*
X452415Y585587D01*
X453000Y585471D01*
X478649D01*
X478916Y584971D01*
X478598Y584495D01*
X478400Y583500D01*
X478598Y582505D01*
X479162Y581662D01*
X480005Y581098D01*
X481000Y580900D01*
X481995Y581098D01*
X482838Y581662D01*
X483045Y581971D01*
X485366D01*
X495419Y571919D01*
X495915Y571587D01*
X496500Y571471D01*
X538000D01*
X538585Y571587D01*
X539081Y571919D01*
X542471Y575308D01*
X542908Y575171D01*
X542971Y575123D01*
Y561500D01*
X543087Y560915D01*
X543419Y560419D01*
X543915Y560087D01*
X544500Y559971D01*
X555971D01*
Y554000D01*
X556087Y553415D01*
X556314Y553075D01*
X556109Y552592D01*
X556093Y552575D01*
X555079D01*
Y550500D01*
X559031D01*
X562984D01*
Y552471D01*
X573500D01*
X574085Y552587D01*
X574581Y552919D01*
X574913Y553415D01*
X575029Y554000D01*
Y569750D01*
X575529Y569902D01*
X575719Y569619D01*
X581903Y563434D01*
X582399Y563103D01*
X582984Y562986D01*
X585055D01*
Y562138D01*
Y557807D01*
X587000D01*
Y554492D01*
X585047D01*
Y551433D01*
X589000D01*
Y550433D01*
X585047D01*
Y547374D01*
X587000D01*
Y198833D01*
X585305Y198700D01*
X583652Y198303D01*
X582082Y197653D01*
X580632Y196764D01*
X579340Y195660D01*
X578236Y194368D01*
X577347Y192918D01*
X576697Y191348D01*
X576300Y189695D01*
X576167Y188000D01*
X537249D01*
X537057Y188462D01*
X571408Y222812D01*
X571806Y223408D01*
X571945Y224110D01*
Y347264D01*
X574063D01*
Y351136D01*
X574563Y351235D01*
X574579Y351196D01*
X575023Y350617D01*
X575602Y350173D01*
X576276Y349894D01*
X577000Y349799D01*
X577724Y349894D01*
X578398Y350173D01*
X578977Y350617D01*
X579421Y351196D01*
X579700Y351870D01*
X579795Y352594D01*
X579700Y353317D01*
X579421Y353992D01*
X578977Y354571D01*
X578398Y355015D01*
X577724Y355294D01*
X577000Y355389D01*
X576276Y355294D01*
X575602Y355015D01*
X575023Y354571D01*
X574579Y353992D01*
X574563Y353953D01*
X574063Y354052D01*
Y357925D01*
X566157D01*
Y357076D01*
X562586D01*
X560529Y359134D01*
Y360000D01*
Y382455D01*
X560839Y382662D01*
X561402Y383505D01*
X561600Y384500D01*
X561402Y385495D01*
X560839Y386338D01*
X560529Y386545D01*
Y388866D01*
X572321Y400659D01*
X572653Y401155D01*
X572672Y401252D01*
X572769Y401740D01*
Y406500D01*
X575000D01*
Y413500D01*
X572769D01*
Y416618D01*
X573421D01*
Y422752D01*
X572769D01*
Y423260D01*
X572653Y423845D01*
X572321Y424341D01*
X570081Y426581D01*
X569832Y426748D01*
X569984Y427248D01*
X573421D01*
Y433382D01*
X572769D01*
Y438260D01*
X572672Y438748D01*
X572653Y438845D01*
X572321Y439341D01*
X571081Y440581D01*
X570585Y440913D01*
X570000Y441029D01*
X568250D01*
Y442250D01*
X562750D01*
Y441029D01*
X560750D01*
Y442250D01*
X555250D01*
Y436750D01*
X560750D01*
Y437971D01*
X562750D01*
Y436750D01*
X568250D01*
Y437971D01*
X569367D01*
X569711Y437627D01*
Y433382D01*
X569059D01*
Y427512D01*
X569025Y427230D01*
X568650Y427029D01*
X568649Y427029D01*
X566351D01*
X565941Y427248D01*
Y433382D01*
X561579D01*
Y427248D01*
X562231D01*
Y426740D01*
X562347Y426155D01*
X562679Y425659D01*
X563918Y424419D01*
X564415Y424087D01*
X564512Y424068D01*
X565000Y423971D01*
X568366D01*
X569123Y423214D01*
X568932Y422752D01*
X568000D01*
Y419685D01*
Y416618D01*
X569711D01*
Y413500D01*
X568000D01*
Y406500D01*
X569711D01*
Y402374D01*
X557919Y390581D01*
X557587Y390085D01*
X557471Y389500D01*
Y386545D01*
X557162Y386338D01*
X556598Y385495D01*
X556400Y384500D01*
X556598Y383505D01*
X557162Y382662D01*
X557471Y382455D01*
Y361529D01*
X554645D01*
X554453Y361993D01*
X553819Y362819D01*
X552993Y363453D01*
X552032Y363851D01*
X551000Y363987D01*
X549968Y363851D01*
X549007Y363453D01*
X548181Y362819D01*
X547547Y361993D01*
X547149Y361032D01*
X547013Y360000D01*
X547149Y358968D01*
X547547Y358007D01*
X548181Y357181D01*
X549007Y356547D01*
X549968Y356149D01*
X551000Y356013D01*
X552032Y356149D01*
X552993Y356547D01*
X553819Y357181D01*
X554453Y358007D01*
X554645Y358471D01*
X557477D01*
X557587Y357915D01*
X557919Y357419D01*
X560872Y354466D01*
X561368Y354134D01*
X561953Y354018D01*
X566157D01*
Y353169D01*
X573682D01*
X574065Y352789D01*
X574065Y352301D01*
X573776Y352020D01*
X566157D01*
Y351529D01*
X554953D01*
Y353953D01*
X547047D01*
Y346047D01*
X554953D01*
Y348471D01*
X566157D01*
Y347264D01*
X568275D01*
Y264107D01*
X567058Y262890D01*
X468311D01*
X467922Y263829D01*
X467041Y264978D01*
X465892Y265859D01*
X464554Y266413D01*
X463118Y266602D01*
X461682Y266413D01*
X460344Y265859D01*
X459195Y264978D01*
X459003Y264727D01*
X458529Y264887D01*
Y288367D01*
X463133Y292971D01*
X478455D01*
X478661Y292661D01*
X479505Y292098D01*
X480500Y291900D01*
X481495Y292098D01*
X482338Y292661D01*
X482902Y293505D01*
X483100Y294500D01*
X482902Y295495D01*
X482338Y296339D01*
X481495Y296902D01*
X480500Y297100D01*
X479505Y296902D01*
X478661Y296339D01*
X478455Y296029D01*
X462500D01*
X462012Y295932D01*
X461915Y295913D01*
X461418Y295581D01*
X455919Y290081D01*
X455587Y289585D01*
X455529Y289296D01*
X455029Y289345D01*
Y307366D01*
X466780Y319117D01*
X478309D01*
X478515Y318808D01*
X479359Y318244D01*
X480354Y318046D01*
X481349Y318244D01*
X482193Y318808D01*
X482399Y319117D01*
X484721D01*
X485971Y317866D01*
Y316250D01*
X485250D01*
Y310750D01*
X490750D01*
Y316250D01*
X489029D01*
Y318500D01*
X488913Y319085D01*
X488581Y319581D01*
X486435Y321727D01*
X485939Y322059D01*
X485354Y322175D01*
X482399D01*
X482193Y322484D01*
X481349Y323048D01*
X480354Y323246D01*
X479359Y323048D01*
X478515Y322484D01*
X478309Y322175D01*
X466146D01*
X465658Y322078D01*
X465561Y322059D01*
X465064Y321727D01*
X452419Y309081D01*
X452087Y308585D01*
X451971Y308000D01*
Y188000D01*
Y177029D01*
X234500D01*
X233915Y176913D01*
X233419Y176581D01*
X229919Y173081D01*
X229587Y172585D01*
X229471Y172000D01*
Y166844D01*
X229162Y166637D01*
X228598Y165794D01*
X228400Y164799D01*
X228598Y163804D01*
X229162Y162961D01*
X230005Y162397D01*
X231000Y162199D01*
X231995Y162397D01*
X232839Y162961D01*
X233402Y163804D01*
X233600Y164799D01*
X233402Y165794D01*
X232839Y166637D01*
X232529Y166844D01*
Y171367D01*
X235134Y173971D01*
X306471D01*
Y166844D01*
X306161Y166637D01*
X305598Y165794D01*
X305400Y164799D01*
X305598Y163804D01*
X306161Y162961D01*
X307005Y162397D01*
X308000Y162199D01*
X308995Y162397D01*
X309839Y162961D01*
X310402Y163804D01*
X310600Y164799D01*
X310402Y165794D01*
X309839Y166637D01*
X309529Y166844D01*
Y173971D01*
X379971D01*
Y166844D01*
X379661Y166637D01*
X379098Y165794D01*
X378900Y164799D01*
X379098Y163804D01*
X379661Y162961D01*
X380505Y162397D01*
X381500Y162199D01*
X382495Y162397D01*
X383338Y162961D01*
X383902Y163804D01*
X384100Y164799D01*
X383902Y165794D01*
X383338Y166637D01*
X383029Y166844D01*
Y173971D01*
X454366D01*
X456971Y171367D01*
Y166844D01*
X456662Y166637D01*
X456098Y165794D01*
X455900Y164799D01*
X456098Y163804D01*
X456662Y162961D01*
X457505Y162397D01*
X458500Y162199D01*
X459495Y162397D01*
X460338Y162961D01*
X460902Y163804D01*
X461100Y164799D01*
X460902Y165794D01*
X460338Y166637D01*
X460029Y166844D01*
Y172000D01*
X459913Y172585D01*
X459581Y173081D01*
X456081Y176581D01*
X455585Y176913D01*
X455029Y177023D01*
Y188500D01*
X457837D01*
X463919Y182419D01*
X464415Y182087D01*
X465000Y181971D01*
X483867D01*
X488971Y176866D01*
Y166844D01*
X488661Y166637D01*
X488098Y165794D01*
X487900Y164799D01*
X488098Y163804D01*
X488661Y162961D01*
X489505Y162397D01*
X490500Y162199D01*
X491495Y162397D01*
X492339Y162961D01*
X492902Y163804D01*
X493100Y164799D01*
X492902Y165794D01*
X492339Y166637D01*
X492029Y166844D01*
Y177500D01*
X491913Y178085D01*
X491581Y178581D01*
X485581Y184581D01*
X485085Y184913D01*
X484500Y185029D01*
X465633D01*
X462663Y188000D01*
X458529Y192133D01*
Y206828D01*
X459003Y206989D01*
X459195Y206738D01*
X460344Y205857D01*
X461682Y205303D01*
X462618Y205179D01*
Y210661D01*
Y216143D01*
X461682Y216019D01*
X460344Y215465D01*
X459195Y214584D01*
X459003Y214333D01*
X458529Y214493D01*
Y257223D01*
X459003Y257383D01*
X459195Y257132D01*
X460344Y256251D01*
X461682Y255697D01*
X463118Y255507D01*
X464554Y255697D01*
X465892Y256251D01*
X467041Y257132D01*
X467922Y258281D01*
X468311Y259220D01*
X566769D01*
X568275Y257528D01*
Y224870D01*
X531405Y188000D01*
X522500D01*
Y179095D01*
X516202Y172798D01*
X515804Y172202D01*
X515781Y172086D01*
X515665Y171500D01*
Y143260D01*
X511905Y139500D01*
X251048D01*
X250740Y139628D01*
X249500Y139791D01*
X248260Y139628D01*
X247952Y139500D01*
X198500D01*
Y188000D01*
X143333D01*
X143200Y189695D01*
X142803Y191348D01*
X142153Y192918D01*
X141264Y194368D01*
X140160Y195660D01*
X138868Y196764D01*
X137418Y197653D01*
X135848Y198303D01*
X134195Y198700D01*
X132500Y198833D01*
Y627667D01*
X134195Y627800D01*
X135848Y628197D01*
X137418Y628847D01*
X138868Y629736D01*
X140160Y630840D01*
X141264Y632132D01*
X142153Y633582D01*
X142803Y635152D01*
X143200Y636805D01*
X143333Y638500D01*
X301471D01*
Y623000D01*
D02*
G37*
G36*
X576300Y636805D02*
X576697Y635152D01*
X577347Y633582D01*
X578236Y632132D01*
X579340Y630840D01*
X580632Y629736D01*
X582082Y628847D01*
X583652Y628197D01*
X585305Y627800D01*
X587000Y627667D01*
Y598783D01*
X585860D01*
Y601169D01*
X585744Y601755D01*
X585412Y602251D01*
X580081Y607581D01*
X579585Y607913D01*
X579000Y608029D01*
X537500D01*
X536915Y607913D01*
X536419Y607581D01*
X531219Y602381D01*
X530887Y601885D01*
X530771Y601300D01*
Y593414D01*
X530330Y593178D01*
X529995Y593402D01*
X529000Y593600D01*
X528635Y593527D01*
X511097Y611065D01*
X510601Y611397D01*
X510016Y611513D01*
X380516D01*
Y611650D01*
X378531D01*
Y612650D01*
X380516D01*
Y614135D01*
X380516D01*
Y614496D01*
X380516D01*
Y615980D01*
X378531D01*
Y616980D01*
X380516D01*
Y618465D01*
X380516D01*
Y618826D01*
X380516D01*
Y620311D01*
X378531D01*
Y621311D01*
X380516D01*
Y621471D01*
X419500D01*
X420085Y621587D01*
X420581Y621919D01*
X420913Y622415D01*
X421029Y623000D01*
Y638500D01*
X576167D01*
X576300Y636805D01*
D02*
G37*
G36*
X550157Y595000D02*
X553126D01*
Y594500D01*
X553626D01*
Y590449D01*
X555971D01*
Y584529D01*
X544500D01*
X543915Y584413D01*
X543529Y584156D01*
X543143Y584291D01*
X543029Y584377D01*
Y595866D01*
X545534Y598371D01*
X550157D01*
Y595000D01*
D02*
G37*
G36*
X341901Y587718D02*
Y586665D01*
X343886D01*
Y585665D01*
X341901D01*
Y584180D01*
X343669D01*
X343714Y583721D01*
X343716Y583697D01*
X343718Y583683D01*
X343718Y583680D01*
X343632Y583663D01*
X343580Y583653D01*
X343112Y583560D01*
X342891Y583516D01*
X342048Y582952D01*
X341484Y582109D01*
X341386Y581614D01*
X346387D01*
X346288Y582109D01*
X345724Y582952D01*
X344881Y583516D01*
X344660Y583560D01*
X344192Y583653D01*
X344135Y583664D01*
X344054Y583680D01*
X344055Y583683D01*
X344056Y583697D01*
X344058Y583721D01*
X344104Y584180D01*
X345732D01*
X345870Y584180D01*
X346052D01*
X346233D01*
X346371Y584180D01*
X347717D01*
Y586165D01*
X348717D01*
Y584180D01*
X348853D01*
Y563618D01*
X348969Y563033D01*
X349301Y562537D01*
X354846Y556991D01*
X354654Y556529D01*
X343133D01*
X339529Y560134D01*
Y586053D01*
X341402Y587925D01*
X341901Y587718D01*
D02*
G37*
G36*
X522500Y173251D02*
Y139500D01*
X517749D01*
X517557Y139962D01*
X518798Y141202D01*
X519196Y141798D01*
X519335Y142500D01*
Y170740D01*
X522038Y173443D01*
X522500Y173251D01*
D02*
G37*
G36*
X376547Y620631D02*
X375488D01*
Y618646D01*
X374988D01*
Y618146D01*
X373004D01*
Y616662D01*
X373004D01*
Y616299D01*
X373004D01*
Y614815D01*
X374988D01*
Y613815D01*
X373004D01*
Y612330D01*
X373004D01*
Y611969D01*
X373004D01*
Y608000D01*
X373004D01*
Y607639D01*
X373004D01*
Y603670D01*
X373004D01*
Y603307D01*
X373004D01*
Y599338D01*
X373004D01*
Y598977D01*
X373004D01*
Y595008D01*
X373004D01*
Y594646D01*
X373004D01*
Y591693D01*
X372535D01*
Y589709D01*
X371535D01*
Y591693D01*
X370190D01*
X369713Y592034D01*
X369696Y592051D01*
X369699Y592190D01*
X370107Y592800D01*
X370305Y593795D01*
X370107Y594790D01*
X369543Y595633D01*
X368700Y596197D01*
X367705Y596395D01*
X366710Y596197D01*
X365867Y595633D01*
X365303Y594790D01*
X365105Y593795D01*
X365150Y593568D01*
X364679Y593372D01*
X364455Y593707D01*
X362581Y595581D01*
X362085Y595913D01*
X361500Y596029D01*
X360545D01*
X360338Y596339D01*
X359495Y596902D01*
X358500Y597100D01*
X357505Y596902D01*
X356662Y596339D01*
X356098Y595495D01*
X355900Y594500D01*
X356098Y593505D01*
X356662Y592662D01*
X357012Y592428D01*
X357113Y591772D01*
X357059Y591693D01*
X356698D01*
Y591693D01*
X352729D01*
Y591693D01*
X352366D01*
Y591693D01*
X349413D01*
Y594646D01*
X349413D01*
Y595008D01*
X349413D01*
Y598977D01*
X349413D01*
Y599338D01*
X349413D01*
Y603307D01*
X349413D01*
Y603670D01*
X349413D01*
Y607639D01*
X349413D01*
Y608000D01*
X349413D01*
Y611969D01*
X349413D01*
Y612330D01*
X349413D01*
Y616299D01*
X349413D01*
Y616662D01*
X349413D01*
Y620631D01*
X345870D01*
Y621471D01*
X352729D01*
Y621311D01*
X354713D01*
X356698D01*
Y621471D01*
X365721D01*
Y621311D01*
X367705D01*
X369689D01*
Y621471D01*
X376547D01*
Y620631D01*
D02*
G37*
G36*
X570110Y257000D02*
X566500Y261055D01*
X566665D01*
X570110Y264500D01*
Y257000D01*
D02*
G37*
%LPC*%
G36*
X499000Y310501D02*
X498505Y310402D01*
X497661Y309839D01*
X497098Y308995D01*
X497000Y308500D01*
X499000D01*
Y310501D01*
D02*
G37*
G36*
X500000D02*
Y308500D01*
X502001D01*
X501902Y308995D01*
X501338Y309839D01*
X500495Y310402D01*
X500000Y310501D01*
D02*
G37*
G36*
X502001Y307500D02*
X500000D01*
Y305500D01*
X500495Y305598D01*
X501338Y306161D01*
X501902Y307005D01*
X502001Y307500D01*
D02*
G37*
G36*
X499000D02*
X497000D01*
X497098Y307005D01*
X497661Y306161D01*
X498505Y305598D01*
X499000Y305500D01*
Y307500D01*
D02*
G37*
G36*
X228854Y319746D02*
X227859Y319548D01*
X227015Y318985D01*
X226452Y318141D01*
X226254Y317146D01*
X226452Y316151D01*
X227015Y315307D01*
X227859Y314744D01*
X228854Y314546D01*
X229849Y314744D01*
X230693Y315307D01*
X230899Y315617D01*
X233221D01*
X234471Y314367D01*
Y313250D01*
X233250D01*
Y307750D01*
X238750D01*
Y313250D01*
X237529D01*
Y315000D01*
X237413Y315585D01*
X237081Y316081D01*
X234935Y318227D01*
X234439Y318559D01*
X233854Y318675D01*
X230899D01*
X230693Y318985D01*
X229849Y319548D01*
X228854Y319746D01*
D02*
G37*
G36*
X490750Y310250D02*
X488500D01*
Y308000D01*
X490750D01*
Y310250D01*
D02*
G37*
G36*
X487500D02*
X485250D01*
Y308000D01*
X487500D01*
Y310250D01*
D02*
G37*
G36*
X506500Y343000D02*
X504250D01*
Y340750D01*
X506500D01*
Y343000D01*
D02*
G37*
G36*
X224500Y346000D02*
X222499D01*
X222598Y345505D01*
X223162Y344661D01*
X224005Y344098D01*
X224500Y344000D01*
Y346000D01*
D02*
G37*
G36*
X216250D02*
X214000D01*
Y343750D01*
X216250D01*
Y346000D01*
D02*
G37*
G36*
X506500Y346250D02*
X504250D01*
Y344000D01*
X506500D01*
Y346250D01*
D02*
G37*
G36*
X227501Y346000D02*
X225500D01*
Y344000D01*
X225995Y344098D01*
X226838Y344661D01*
X227402Y345505D01*
X227501Y346000D01*
D02*
G37*
G36*
X518500Y343000D02*
X516500D01*
X516598Y342505D01*
X517162Y341662D01*
X518005Y341098D01*
X518500Y341000D01*
Y343000D01*
D02*
G37*
G36*
X509750D02*
X507500D01*
Y340750D01*
X509750D01*
Y343000D01*
D02*
G37*
G36*
X213000Y346000D02*
X210750D01*
Y343750D01*
X213000D01*
Y346000D01*
D02*
G37*
G36*
X521500Y343000D02*
X519500D01*
Y341000D01*
X519995Y341098D01*
X520838Y341662D01*
X521402Y342505D01*
X521500Y343000D01*
D02*
G37*
G36*
X238750Y307250D02*
X236500D01*
Y305000D01*
X238750D01*
Y307250D01*
D02*
G37*
G36*
X209750Y262750D02*
X207500D01*
Y260500D01*
X209750D01*
Y262750D01*
D02*
G37*
G36*
X206500D02*
X204250D01*
Y260500D01*
X206500D01*
Y262750D01*
D02*
G37*
G36*
X235500Y304000D02*
X233250D01*
Y301750D01*
X235500D01*
Y304000D01*
D02*
G37*
G36*
X209750Y269750D02*
X204250D01*
Y268261D01*
X196777D01*
X196571Y268570D01*
X195727Y269134D01*
X194732Y269332D01*
X193737Y269134D01*
X192894Y268570D01*
X192330Y267727D01*
X192132Y266732D01*
X192330Y265737D01*
X192894Y264894D01*
X193737Y264330D01*
X194732Y264132D01*
X195727Y264330D01*
X196571Y264894D01*
X196777Y265203D01*
X204250D01*
Y264250D01*
X209750D01*
Y269750D01*
D02*
G37*
G36*
Y259500D02*
X207500D01*
Y257250D01*
X209750D01*
Y259500D01*
D02*
G37*
G36*
X206500D02*
X204250D01*
Y257250D01*
X206500D01*
Y259500D01*
D02*
G37*
G36*
X195232Y260769D02*
Y258768D01*
X197232D01*
X197134Y259263D01*
X196571Y260106D01*
X195727Y260670D01*
X195232Y260769D01*
D02*
G37*
G36*
X194232D02*
X193737Y260670D01*
X192894Y260106D01*
X192330Y259263D01*
X192232Y258768D01*
X194232D01*
Y260769D01*
D02*
G37*
G36*
X238750Y304000D02*
X236500D01*
Y301750D01*
X238750D01*
Y304000D01*
D02*
G37*
G36*
X235500Y307250D02*
X233250D01*
Y305000D01*
X235500D01*
Y307250D01*
D02*
G37*
G36*
X490750Y307000D02*
X488500D01*
Y304750D01*
X490750D01*
Y307000D01*
D02*
G37*
G36*
X248500Y307000D02*
Y305000D01*
X250500D01*
X250402Y305495D01*
X249838Y306339D01*
X248995Y306902D01*
X248500Y307000D01*
D02*
G37*
G36*
X247500D02*
X247005Y306902D01*
X246162Y306339D01*
X245598Y305495D01*
X245499Y305000D01*
X247500D01*
Y307000D01*
D02*
G37*
G36*
X250500Y304000D02*
X248500D01*
Y301999D01*
X248995Y302098D01*
X249838Y302661D01*
X250402Y303505D01*
X250500Y304000D01*
D02*
G37*
G36*
X247500D02*
X245499D01*
X245598Y303505D01*
X246162Y302661D01*
X247005Y302098D01*
X247500Y301999D01*
Y304000D01*
D02*
G37*
G36*
X487500Y307000D02*
X485250D01*
Y304750D01*
X487500D01*
Y307000D01*
D02*
G37*
G36*
X422500Y322737D02*
X304000D01*
X303415Y322620D01*
X302919Y322289D01*
X302587Y321793D01*
X302471Y321207D01*
Y305207D01*
X302587Y304622D01*
X302919Y304126D01*
X303415Y303794D01*
X304000Y303678D01*
X422500D01*
X423085Y303794D01*
X423581Y304126D01*
X423913Y304622D01*
X424029Y305207D01*
Y321207D01*
X423913Y321793D01*
X423581Y322289D01*
X423085Y322620D01*
X422500Y322737D01*
D02*
G37*
G36*
X212500Y390750D02*
X210250D01*
Y388500D01*
X212500D01*
Y390750D01*
D02*
G37*
G36*
X510250Y389750D02*
X508000D01*
Y387500D01*
X510250D01*
Y389750D01*
D02*
G37*
G36*
X225500Y390500D02*
Y388500D01*
X227501D01*
X227402Y388995D01*
X226838Y389839D01*
X225995Y390402D01*
X225500Y390500D01*
D02*
G37*
G36*
X224500D02*
X224005Y390402D01*
X223162Y389839D01*
X222598Y388995D01*
X222499Y388500D01*
X224500D01*
Y390500D01*
D02*
G37*
G36*
X507000Y389750D02*
X504750D01*
Y387500D01*
X507000D01*
Y389750D01*
D02*
G37*
G36*
X227501Y387500D02*
X225500D01*
Y385500D01*
X225995Y385598D01*
X226838Y386161D01*
X227402Y387005D01*
X227501Y387500D01*
D02*
G37*
G36*
X519500Y389500D02*
Y387500D01*
X521500D01*
X521402Y387995D01*
X520838Y388839D01*
X519995Y389402D01*
X519500Y389500D01*
D02*
G37*
G36*
X518500D02*
X518005Y389402D01*
X517162Y388839D01*
X516598Y387995D01*
X516500Y387500D01*
X518500D01*
Y389500D01*
D02*
G37*
G36*
X215750Y390750D02*
X213500D01*
Y388500D01*
X215750D01*
Y390750D01*
D02*
G37*
G36*
X563500Y409500D02*
X560500D01*
Y406500D01*
X563500D01*
Y409500D01*
D02*
G37*
G36*
X228818Y410670D02*
X220912D01*
Y404733D01*
X228818D01*
Y410670D01*
D02*
G37*
G36*
X205073D02*
X201620D01*
Y408201D01*
X205073D01*
Y410670D01*
D02*
G37*
G36*
X567500Y409500D02*
X564500D01*
Y406500D01*
X567500D01*
Y409500D01*
D02*
G37*
G36*
X205854Y403246D02*
X204859Y403048D01*
X204016Y402485D01*
X203452Y401641D01*
X203254Y400646D01*
X203452Y399651D01*
X204016Y398808D01*
X204859Y398244D01*
X205854Y398046D01*
X206849Y398244D01*
X207693Y398808D01*
X207899Y399117D01*
X210221D01*
X211471Y397867D01*
Y396750D01*
X210250D01*
Y391250D01*
X215750D01*
Y396750D01*
X214529D01*
Y398500D01*
X214413Y399085D01*
X214081Y399581D01*
X211935Y401727D01*
X211439Y402059D01*
X210854Y402175D01*
X207899D01*
X207693Y402485D01*
X206849Y403048D01*
X205854Y403246D01*
D02*
G37*
G36*
X499854Y402246D02*
X498859Y402048D01*
X498015Y401484D01*
X497452Y400641D01*
X497254Y399646D01*
X497452Y398651D01*
X498015Y397808D01*
X498859Y397244D01*
X499854Y397046D01*
X500849Y397244D01*
X501692Y397808D01*
X501899Y398117D01*
X504220D01*
X505471Y396866D01*
Y395750D01*
X504750D01*
Y390250D01*
X510250D01*
Y395750D01*
X508529D01*
Y397500D01*
X508413Y398085D01*
X508081Y398581D01*
X505935Y400727D01*
X505439Y401059D01*
X504854Y401175D01*
X501899D01*
X501692Y401484D01*
X500849Y402048D01*
X499854Y402246D01*
D02*
G37*
G36*
X209526Y407201D02*
X206073D01*
Y404733D01*
X209526D01*
Y407201D01*
D02*
G37*
G36*
X205073D02*
X201620D01*
Y404733D01*
X205073D01*
Y407201D01*
D02*
G37*
G36*
X224500Y387500D02*
X222499D01*
X222598Y387005D01*
X223162Y386161D01*
X224005Y385598D01*
X224500Y385500D01*
Y387500D01*
D02*
G37*
G36*
Y349001D02*
X224005Y348902D01*
X223162Y348339D01*
X222598Y347495D01*
X222499Y347000D01*
X224500D01*
Y349001D01*
D02*
G37*
G36*
X213000Y349250D02*
X210750D01*
Y347000D01*
X213000D01*
Y349250D01*
D02*
G37*
G36*
X216250D02*
X214000D01*
Y347000D01*
X216250D01*
Y349250D01*
D02*
G37*
G36*
X225500Y349001D02*
Y347000D01*
X227501D01*
X227402Y347495D01*
X226838Y348339D01*
X225995Y348902D01*
X225500Y349001D01*
D02*
G37*
G36*
X519500Y346001D02*
Y344000D01*
X521500D01*
X521402Y344495D01*
X520838Y345339D01*
X519995Y345902D01*
X519500Y346001D01*
D02*
G37*
G36*
X518500D02*
X518005Y345902D01*
X517162Y345339D01*
X516598Y344495D01*
X516500Y344000D01*
X518500D01*
Y346001D01*
D02*
G37*
G36*
X499854Y358746D02*
X498859Y358548D01*
X498015Y357984D01*
X497452Y357141D01*
X497254Y356146D01*
X497452Y355151D01*
X498015Y354308D01*
X498859Y353744D01*
X499854Y353546D01*
X500849Y353744D01*
X501692Y354308D01*
X501899Y354617D01*
X504220D01*
X505471Y353366D01*
Y352250D01*
X504250D01*
Y346750D01*
X509750D01*
Y352250D01*
X508529D01*
Y354000D01*
X508413Y354585D01*
X508081Y355081D01*
X505935Y357227D01*
X505439Y357559D01*
X504854Y357675D01*
X501899D01*
X501692Y357984D01*
X500849Y358548D01*
X499854Y358746D01*
D02*
G37*
G36*
X509750Y346250D02*
X507500D01*
Y344000D01*
X509750D01*
Y346250D01*
D02*
G37*
G36*
X205854Y361746D02*
X204859Y361548D01*
X204016Y360984D01*
X203452Y360141D01*
X203254Y359146D01*
X203452Y358151D01*
X204016Y357308D01*
X204859Y356744D01*
X205854Y356546D01*
X206849Y356744D01*
X207693Y357308D01*
X207899Y357617D01*
X210221D01*
X211471Y356366D01*
Y355250D01*
X210750D01*
Y349750D01*
X216250D01*
Y355250D01*
X214529D01*
Y357000D01*
X214413Y357585D01*
X214081Y358081D01*
X211935Y360227D01*
X211439Y360559D01*
X210854Y360675D01*
X207899D01*
X207693Y360984D01*
X206849Y361548D01*
X205854Y361746D01*
D02*
G37*
G36*
X521500Y386500D02*
X519500D01*
Y384500D01*
X519995Y384598D01*
X520838Y385161D01*
X521402Y386005D01*
X521500Y386500D01*
D02*
G37*
G36*
X518500D02*
X516500D01*
X516598Y386005D01*
X517162Y385161D01*
X518005Y384598D01*
X518500Y384500D01*
Y386500D01*
D02*
G37*
G36*
X215750Y387500D02*
X213500D01*
Y385250D01*
X215750D01*
Y387500D01*
D02*
G37*
G36*
X212500D02*
X210250D01*
Y385250D01*
X212500D01*
Y387500D01*
D02*
G37*
G36*
X551000Y373987D02*
X549968Y373851D01*
X549007Y373453D01*
X548181Y372819D01*
X547547Y371993D01*
X547149Y371032D01*
X547013Y370000D01*
X547149Y368968D01*
X547547Y368007D01*
X548181Y367181D01*
X549007Y366547D01*
X549968Y366149D01*
X551000Y366013D01*
X552032Y366149D01*
X552993Y366547D01*
X553819Y367181D01*
X554453Y368007D01*
X554851Y368968D01*
X554987Y370000D01*
X554851Y371032D01*
X554453Y371993D01*
X553819Y372819D01*
X552993Y373453D01*
X552032Y373851D01*
X551000Y373987D01*
D02*
G37*
G36*
X574063Y369736D02*
X566157D01*
Y364980D01*
X573776D01*
X574223Y364546D01*
X574205Y364406D01*
X574300Y363683D01*
X574579Y363008D01*
X575023Y362429D01*
X575602Y361985D01*
X576276Y361706D01*
X577000Y361611D01*
X577724Y361706D01*
X578398Y361985D01*
X578977Y362429D01*
X579421Y363008D01*
X579700Y363683D01*
X579795Y364406D01*
X579700Y365129D01*
X579421Y365804D01*
X578977Y366383D01*
X578398Y366827D01*
X577724Y367106D01*
X577000Y367201D01*
X576276Y367106D01*
X575602Y366827D01*
X575023Y366383D01*
X574579Y365804D01*
X574563Y365765D01*
X574063Y365864D01*
Y369736D01*
D02*
G37*
G36*
X510250Y386500D02*
X508000D01*
Y384250D01*
X510250D01*
Y386500D01*
D02*
G37*
G36*
X507000D02*
X504750D01*
Y384250D01*
X507000D01*
Y386500D01*
D02*
G37*
G36*
X249000Y193482D02*
X248064Y193358D01*
X246726Y192804D01*
X245577Y191923D01*
X244696Y190774D01*
X244142Y189436D01*
X244018Y188500D01*
X249000D01*
Y193482D01*
D02*
G37*
G36*
X254982Y187500D02*
X250000D01*
Y182518D01*
X250936Y182642D01*
X252274Y183196D01*
X253423Y184077D01*
X254304Y185226D01*
X254858Y186564D01*
X254982Y187500D01*
D02*
G37*
G36*
X468600Y210161D02*
X463618D01*
Y205179D01*
X464554Y205303D01*
X465892Y205857D01*
X467041Y206738D01*
X467922Y207887D01*
X468476Y209225D01*
X468600Y210161D01*
D02*
G37*
G36*
X250000Y193482D02*
Y188500D01*
X254982D01*
X254858Y189436D01*
X254304Y190774D01*
X253423Y191923D01*
X252274Y192804D01*
X250936Y193358D01*
X250000Y193482D01*
D02*
G37*
G36*
X477292Y154701D02*
X476797Y154603D01*
X475953Y154040D01*
X475390Y153196D01*
X475291Y152701D01*
X477292D01*
Y154701D01*
D02*
G37*
G36*
X401292D02*
Y152701D01*
X403293D01*
X403194Y153196D01*
X402631Y154040D01*
X401787Y154603D01*
X401292Y154701D01*
D02*
G37*
G36*
X249000Y187500D02*
X244018D01*
X244142Y186564D01*
X244696Y185226D01*
X245577Y184077D01*
X246726Y183196D01*
X248064Y182642D01*
X249000Y182518D01*
Y187500D01*
D02*
G37*
G36*
X478292Y154701D02*
Y152701D01*
X480293D01*
X480194Y153196D01*
X479631Y154040D01*
X478787Y154603D01*
X478292Y154701D01*
D02*
G37*
G36*
X216250Y226250D02*
X210750D01*
Y220750D01*
X211971D01*
Y219250D01*
X210750D01*
Y213750D01*
X211381D01*
X211501Y213574D01*
X211602Y213250D01*
X211098Y212495D01*
X210900Y211500D01*
X211098Y210505D01*
X211662Y209662D01*
X212505Y209098D01*
X213500Y208900D01*
X214495Y209098D01*
X215338Y209662D01*
X215902Y210505D01*
X216100Y211500D01*
X215902Y212495D01*
X215398Y213250D01*
X215499Y213574D01*
X215619Y213750D01*
X216250D01*
Y219250D01*
X215029D01*
Y220750D01*
X216250D01*
Y226250D01*
D02*
G37*
G36*
X194732Y217268D02*
X194237Y217170D01*
X193394Y216606D01*
X192830Y215763D01*
X192731Y215268D01*
X194732D01*
Y217268D01*
D02*
G37*
G36*
X210250Y216000D02*
X208000D01*
Y213750D01*
X210250D01*
Y216000D01*
D02*
G37*
G36*
X207000Y219250D02*
X204750D01*
Y217000D01*
X207000D01*
Y219250D01*
D02*
G37*
G36*
X195732Y217268D02*
Y215268D01*
X197732D01*
X197634Y215763D01*
X197071Y216606D01*
X196227Y217170D01*
X195732Y217268D01*
D02*
G37*
G36*
X194732Y214268D02*
X192731D01*
X192830Y213773D01*
X193394Y212930D01*
X194237Y212366D01*
X194732Y212267D01*
Y214268D01*
D02*
G37*
G36*
X463618Y216143D02*
Y211161D01*
X468600D01*
X468476Y212097D01*
X467922Y213435D01*
X467041Y214584D01*
X465892Y215465D01*
X464554Y216019D01*
X463618Y216143D01*
D02*
G37*
G36*
X207000Y216000D02*
X204750D01*
Y213750D01*
X207000D01*
Y216000D01*
D02*
G37*
G36*
X197732Y214268D02*
X195732D01*
Y212267D01*
X196227Y212366D01*
X197071Y212930D01*
X197634Y213773D01*
X197732Y214268D01*
D02*
G37*
G36*
X252793Y151701D02*
X250792D01*
Y149700D01*
X251287Y149799D01*
X252131Y150363D01*
X252694Y151206D01*
X252793Y151701D01*
D02*
G37*
G36*
X249792D02*
X247792D01*
X247890Y151206D01*
X248453Y150363D01*
X249297Y149799D01*
X249792Y149700D01*
Y151701D01*
D02*
G37*
G36*
X329792D02*
X327792D01*
Y149700D01*
X328287Y149799D01*
X329131Y150363D01*
X329694Y151206D01*
X329792Y151701D01*
D02*
G37*
G36*
X326792D02*
X324792D01*
X324890Y151206D01*
X325453Y150363D01*
X326297Y149799D01*
X326792Y149700D01*
Y151701D01*
D02*
G37*
G36*
X263000Y167399D02*
X262005Y167201D01*
X261161Y166637D01*
X260598Y165794D01*
X260400Y164799D01*
X260598Y163804D01*
X261161Y162961D01*
X262005Y162397D01*
X263000Y162199D01*
X263995Y162397D01*
X264839Y162961D01*
X265045Y163270D01*
X276067D01*
X288218Y151120D01*
X288714Y150788D01*
X289299Y150672D01*
X305254D01*
X305461Y150363D01*
X306304Y149799D01*
X307299Y149601D01*
X308294Y149799D01*
X309137Y150363D01*
X309701Y151206D01*
X309899Y152201D01*
X309701Y153196D01*
X309137Y154040D01*
X308294Y154603D01*
X307299Y154801D01*
X306304Y154603D01*
X305461Y154040D01*
X305254Y153730D01*
X289932D01*
X277782Y165880D01*
X277286Y166212D01*
X276701Y166328D01*
X265045D01*
X264839Y166637D01*
X263995Y167201D01*
X263000Y167399D01*
D02*
G37*
G36*
X249500Y279100D02*
X248505Y278902D01*
X247661Y278339D01*
X247098Y277495D01*
X246900Y276500D01*
X247098Y275505D01*
X247661Y274661D01*
X247971Y274455D01*
Y211633D01*
X224337Y188000D01*
X220919Y184581D01*
X220587Y184085D01*
X220471Y183500D01*
Y156000D01*
X220587Y155415D01*
X220919Y154919D01*
X224718Y151120D01*
X225214Y150788D01*
X225799Y150672D01*
X228955D01*
X229162Y150363D01*
X230005Y149799D01*
X231000Y149601D01*
X231995Y149799D01*
X232839Y150363D01*
X233402Y151206D01*
X233600Y152201D01*
X233402Y153196D01*
X232839Y154040D01*
X231995Y154603D01*
X231000Y154801D01*
X230005Y154603D01*
X229162Y154040D01*
X228955Y153730D01*
X226432D01*
X223529Y156633D01*
Y182867D01*
X229125Y188462D01*
X250581Y209919D01*
X250913Y210415D01*
X251029Y211000D01*
Y274455D01*
X251339Y274661D01*
X251902Y275505D01*
X252100Y276500D01*
X251902Y277495D01*
X251339Y278339D01*
X250495Y278902D01*
X249500Y279100D01*
D02*
G37*
G36*
X413500Y167399D02*
X412505Y167201D01*
X411661Y166637D01*
X411098Y165794D01*
X410900Y164799D01*
X411098Y163804D01*
X411661Y162961D01*
X412505Y162397D01*
X413500Y162199D01*
X414495Y162397D01*
X415339Y162961D01*
X415545Y163270D01*
X428067D01*
X440218Y151120D01*
X440714Y150788D01*
X441299Y150672D01*
X455754D01*
X455961Y150363D01*
X456804Y149799D01*
X457799Y149601D01*
X458794Y149799D01*
X459637Y150363D01*
X460201Y151206D01*
X460399Y152201D01*
X460201Y153196D01*
X459637Y154040D01*
X458794Y154603D01*
X457799Y154801D01*
X456804Y154603D01*
X455961Y154040D01*
X455754Y153730D01*
X441932D01*
X429782Y165880D01*
X429286Y166212D01*
X428701Y166328D01*
X415545D01*
X415339Y166637D01*
X414495Y167201D01*
X413500Y167399D01*
D02*
G37*
G36*
X340000D02*
X339005Y167201D01*
X338161Y166637D01*
X337598Y165794D01*
X337400Y164799D01*
X337598Y163804D01*
X338161Y162961D01*
X339005Y162397D01*
X340000Y162199D01*
X340995Y162397D01*
X341839Y162961D01*
X342045Y163270D01*
X353067D01*
X365218Y151120D01*
X365714Y150788D01*
X366299Y150672D01*
X378754D01*
X378961Y150363D01*
X379804Y149799D01*
X380799Y149601D01*
X381794Y149799D01*
X382637Y150363D01*
X383201Y151206D01*
X383399Y152201D01*
X383201Y153196D01*
X382637Y154040D01*
X381794Y154603D01*
X380799Y154801D01*
X379804Y154603D01*
X378961Y154040D01*
X378754Y153730D01*
X366933D01*
X354782Y165880D01*
X354286Y166212D01*
X353701Y166328D01*
X342045D01*
X341839Y166637D01*
X340995Y167201D01*
X340000Y167399D01*
D02*
G37*
G36*
X400292Y151701D02*
X398291D01*
X398390Y151206D01*
X398954Y150363D01*
X399797Y149799D01*
X400292Y149700D01*
Y151701D01*
D02*
G37*
G36*
X326792Y154701D02*
X326297Y154603D01*
X325453Y154040D01*
X324890Y153196D01*
X324792Y152701D01*
X326792D01*
Y154701D01*
D02*
G37*
G36*
X250792D02*
Y152701D01*
X252793D01*
X252694Y153196D01*
X252131Y154040D01*
X251287Y154603D01*
X250792Y154701D01*
D02*
G37*
G36*
X400292D02*
X399797Y154603D01*
X398954Y154040D01*
X398390Y153196D01*
X398291Y152701D01*
X400292D01*
Y154701D01*
D02*
G37*
G36*
X327792D02*
Y152701D01*
X329792D01*
X329694Y153196D01*
X329131Y154040D01*
X328287Y154603D01*
X327792Y154701D01*
D02*
G37*
G36*
X477292Y151701D02*
X475291D01*
X475390Y151206D01*
X475953Y150363D01*
X476797Y149799D01*
X477292Y149700D01*
Y151701D01*
D02*
G37*
G36*
X403293D02*
X401292D01*
Y149700D01*
X401787Y149799D01*
X402631Y150363D01*
X403194Y151206D01*
X403293Y151701D01*
D02*
G37*
G36*
X249792Y154701D02*
X249297Y154603D01*
X248453Y154040D01*
X247890Y153196D01*
X247792Y152701D01*
X249792D01*
Y154701D01*
D02*
G37*
G36*
X480293Y151701D02*
X478292D01*
Y149700D01*
X478787Y149799D01*
X479631Y150363D01*
X480194Y151206D01*
X480293Y151701D01*
D02*
G37*
G36*
X210250Y219250D02*
X208000D01*
Y217000D01*
X210250D01*
Y219250D01*
D02*
G37*
G36*
X171732Y239268D02*
Y237268D01*
X173732D01*
X173634Y237763D01*
X173071Y238606D01*
X172227Y239170D01*
X171732Y239268D01*
D02*
G37*
G36*
X170732D02*
X170237Y239170D01*
X169394Y238606D01*
X168830Y237763D01*
X168731Y237268D01*
X170732D01*
Y239268D01*
D02*
G37*
G36*
X219232Y239769D02*
Y237768D01*
X221233D01*
X221134Y238263D01*
X220570Y239106D01*
X219727Y239670D01*
X219232Y239769D01*
D02*
G37*
G36*
X218232D02*
X217737Y239670D01*
X216894Y239106D01*
X216330Y238263D01*
X216231Y237768D01*
X218232D01*
Y239769D01*
D02*
G37*
G36*
X550750Y237750D02*
X545250D01*
Y236261D01*
X537777D01*
X537570Y236570D01*
X536727Y237134D01*
X535732Y237332D01*
X534737Y237134D01*
X533893Y236570D01*
X533330Y235727D01*
X533132Y234732D01*
X533330Y233737D01*
X533893Y232894D01*
X534737Y232330D01*
X535732Y232132D01*
X536727Y232330D01*
X537570Y232894D01*
X537777Y233203D01*
X545250D01*
Y232250D01*
X550750D01*
Y237750D01*
D02*
G37*
G36*
X186750Y238000D02*
X184500D01*
Y235750D01*
X186750D01*
Y238000D01*
D02*
G37*
G36*
X233750Y239000D02*
X231500D01*
Y236750D01*
X233750D01*
Y239000D01*
D02*
G37*
G36*
X230500D02*
X228250D01*
Y236750D01*
X230500D01*
Y239000D01*
D02*
G37*
G36*
X183500Y241250D02*
X181250D01*
Y239000D01*
X183500D01*
Y241250D01*
D02*
G37*
G36*
X215750Y269750D02*
X210250D01*
Y264250D01*
X211471D01*
Y262750D01*
X210250D01*
Y257250D01*
X211471D01*
Y256545D01*
X211161Y256339D01*
X210598Y255495D01*
X210400Y254500D01*
X210598Y253505D01*
X211161Y252661D01*
X212005Y252098D01*
X213000Y251900D01*
X213995Y252098D01*
X214839Y252661D01*
X215402Y253505D01*
X215600Y254500D01*
X215402Y255495D01*
X214839Y256339D01*
X214529Y256545D01*
Y257250D01*
X215750D01*
Y262750D01*
X214529D01*
Y264250D01*
X215750D01*
Y269750D01*
D02*
G37*
G36*
X233750Y249250D02*
X228250D01*
Y247261D01*
X220777D01*
X220570Y247570D01*
X219727Y248134D01*
X218732Y248332D01*
X217737Y248134D01*
X216894Y247570D01*
X216330Y246727D01*
X216132Y245732D01*
X216330Y244737D01*
X216894Y243894D01*
X217737Y243330D01*
X218732Y243132D01*
X219727Y243330D01*
X220570Y243894D01*
X220777Y244203D01*
X228250D01*
Y243750D01*
X233750D01*
Y249250D01*
D02*
G37*
G36*
X197232Y257768D02*
X195232D01*
Y255767D01*
X195727Y255866D01*
X196571Y256430D01*
X197134Y257273D01*
X197232Y257768D01*
D02*
G37*
G36*
X194232D02*
X192232D01*
X192330Y257273D01*
X192894Y256430D01*
X193737Y255866D01*
X194232Y255767D01*
Y257768D01*
D02*
G37*
G36*
X230500Y242250D02*
X228250D01*
Y240000D01*
X230500D01*
Y242250D01*
D02*
G37*
G36*
X186750Y241250D02*
X184500D01*
Y239000D01*
X186750D01*
Y241250D01*
D02*
G37*
G36*
Y248250D02*
X181250D01*
Y246761D01*
X173777D01*
X173571Y247070D01*
X172727Y247634D01*
X171732Y247832D01*
X170737Y247634D01*
X169894Y247070D01*
X169330Y246227D01*
X169132Y245232D01*
X169330Y244237D01*
X169894Y243394D01*
X170737Y242830D01*
X171732Y242632D01*
X172727Y242830D01*
X173571Y243394D01*
X173777Y243703D01*
X181250D01*
Y242750D01*
X186750D01*
Y248250D01*
D02*
G37*
G36*
X233750Y242250D02*
X231500D01*
Y240000D01*
X233750D01*
Y242250D01*
D02*
G37*
G36*
X550750Y227500D02*
X548500D01*
Y225250D01*
X550750D01*
Y227500D01*
D02*
G37*
G36*
X547500D02*
X545250D01*
Y225250D01*
X547500D01*
Y227500D01*
D02*
G37*
G36*
X536232Y228768D02*
Y226768D01*
X538233D01*
X538134Y227263D01*
X537570Y228106D01*
X536727Y228670D01*
X536232Y228768D01*
D02*
G37*
G36*
X535232D02*
X534737Y228670D01*
X533893Y228106D01*
X533330Y227263D01*
X533231Y226768D01*
X535232D01*
Y228768D01*
D02*
G37*
G36*
Y225768D02*
X533231D01*
X533330Y225273D01*
X533893Y224430D01*
X534737Y223866D01*
X535232Y223767D01*
Y225768D01*
D02*
G37*
G36*
X556750Y237750D02*
X551250D01*
Y232250D01*
X552471D01*
Y230750D01*
X551250D01*
Y225250D01*
X552471D01*
Y224545D01*
X552162Y224339D01*
X551598Y223495D01*
X551400Y222500D01*
X551598Y221505D01*
X552162Y220661D01*
X553005Y220098D01*
X554000Y219900D01*
X554995Y220098D01*
X555838Y220661D01*
X556402Y221505D01*
X556600Y222500D01*
X556402Y223495D01*
X555838Y224339D01*
X555529Y224545D01*
Y225250D01*
X556750D01*
Y230750D01*
X555529D01*
Y232250D01*
X556750D01*
Y237750D01*
D02*
G37*
G36*
X210250Y226250D02*
X204750D01*
Y224761D01*
X197277D01*
X197071Y225070D01*
X196227Y225634D01*
X195232Y225832D01*
X194237Y225634D01*
X193394Y225070D01*
X192830Y224227D01*
X192632Y223232D01*
X192830Y222237D01*
X193394Y221394D01*
X194237Y220830D01*
X195232Y220632D01*
X196227Y220830D01*
X197071Y221394D01*
X197277Y221703D01*
X204750D01*
Y220750D01*
X210250D01*
Y226250D01*
D02*
G37*
G36*
X538233Y225768D02*
X536232D01*
Y223767D01*
X536727Y223866D01*
X537570Y224430D01*
X538134Y225273D01*
X538233Y225768D01*
D02*
G37*
G36*
X547500Y230750D02*
X545250D01*
Y228500D01*
X547500D01*
Y230750D01*
D02*
G37*
G36*
X218232Y236768D02*
X216231D01*
X216330Y236273D01*
X216894Y235430D01*
X217737Y234866D01*
X218232Y234768D01*
Y236768D01*
D02*
G37*
G36*
X173732Y236268D02*
X171732D01*
Y234267D01*
X172227Y234366D01*
X173071Y234930D01*
X173634Y235773D01*
X173732Y236268D01*
D02*
G37*
G36*
X183500Y238000D02*
X181250D01*
Y235750D01*
X183500D01*
Y238000D01*
D02*
G37*
G36*
X221233Y236768D02*
X219232D01*
Y234768D01*
X219727Y234866D01*
X220570Y235430D01*
X221134Y236273D01*
X221233Y236768D01*
D02*
G37*
G36*
X192750Y248250D02*
X187250D01*
Y242750D01*
X188471D01*
Y241250D01*
X187250D01*
Y235750D01*
X187881D01*
X188001Y235574D01*
X188102Y235250D01*
X187598Y234495D01*
X187400Y233500D01*
X187598Y232505D01*
X188162Y231662D01*
X189005Y231098D01*
X190000Y230900D01*
X190995Y231098D01*
X191838Y231662D01*
X192402Y232505D01*
X192600Y233500D01*
X192402Y234495D01*
X191898Y235250D01*
X191999Y235574D01*
X192119Y235750D01*
X192750D01*
Y241250D01*
X191529D01*
Y242750D01*
X192750D01*
Y248250D01*
D02*
G37*
G36*
X550750Y230750D02*
X548500D01*
Y228500D01*
X550750D01*
Y230750D01*
D02*
G37*
G36*
X170732Y236268D02*
X168731D01*
X168830Y235773D01*
X169394Y234930D01*
X170237Y234366D01*
X170732Y234267D01*
Y236268D01*
D02*
G37*
G36*
X239750Y249250D02*
X234250D01*
Y243750D01*
X235471D01*
Y242250D01*
X234250D01*
Y236750D01*
X235471D01*
Y235545D01*
X235161Y235338D01*
X234598Y234495D01*
X234400Y233500D01*
X234598Y232505D01*
X235161Y231662D01*
X236005Y231098D01*
X237000Y230900D01*
X237995Y231098D01*
X238839Y231662D01*
X239402Y232505D01*
X239600Y233500D01*
X239402Y234495D01*
X238839Y235338D01*
X238529Y235545D01*
Y236750D01*
X239750D01*
Y242250D01*
X238529D01*
Y243750D01*
X239750D01*
Y249250D01*
D02*
G37*
G36*
X314500Y540250D02*
X312250D01*
Y538000D01*
X314500D01*
Y540250D01*
D02*
G37*
G36*
X564750Y538000D02*
X562500D01*
Y535750D01*
X564750D01*
Y538000D01*
D02*
G37*
G36*
X317750Y540250D02*
X315500D01*
Y538000D01*
X317750D01*
Y540250D01*
D02*
G37*
G36*
X360000D02*
X357750D01*
Y538000D01*
X360000D01*
Y540250D01*
D02*
G37*
G36*
X457500Y537500D02*
X455250D01*
Y535250D01*
X457500D01*
Y537500D01*
D02*
G37*
G36*
X409250D02*
X407000D01*
Y535250D01*
X409250D01*
Y537500D01*
D02*
G37*
G36*
X561500Y538000D02*
X559250D01*
Y535750D01*
X561500D01*
Y538000D01*
D02*
G37*
G36*
X460750Y537500D02*
X458500D01*
Y535250D01*
X460750D01*
Y537500D01*
D02*
G37*
G36*
X363250Y540250D02*
X361000D01*
Y538000D01*
X363250D01*
Y540250D01*
D02*
G37*
G36*
X460750Y540750D02*
X458500D01*
Y538500D01*
X460750D01*
Y540750D01*
D02*
G37*
G36*
X409250D02*
X407000D01*
Y538500D01*
X409250D01*
Y540750D01*
D02*
G37*
G36*
X564750Y541250D02*
X562500D01*
Y539000D01*
X564750D01*
Y541250D01*
D02*
G37*
G36*
X561500D02*
X559250D01*
Y539000D01*
X561500D01*
Y541250D01*
D02*
G37*
G36*
X406000Y540750D02*
X403750D01*
Y538500D01*
X406000D01*
Y540750D01*
D02*
G37*
G36*
X261000D02*
X258750D01*
Y538500D01*
X261000D01*
Y540750D01*
D02*
G37*
G36*
X264250D02*
X262000D01*
Y538500D01*
X264250D01*
Y540750D01*
D02*
G37*
G36*
X457500D02*
X455250D01*
Y538500D01*
X457500D01*
Y540750D01*
D02*
G37*
G36*
X406000Y537500D02*
X403750D01*
Y535250D01*
X406000D01*
Y537500D01*
D02*
G37*
G36*
X477146Y533202D02*
Y531201D01*
X479146D01*
X479048Y531696D01*
X478484Y532540D01*
X477641Y533103D01*
X477146Y533202D01*
D02*
G37*
G36*
X476146D02*
X475651Y533103D01*
X474808Y532540D01*
X474244Y531696D01*
X474146Y531201D01*
X476146D01*
Y533202D01*
D02*
G37*
G36*
X280500Y533702D02*
Y531701D01*
X282501D01*
X282402Y532196D01*
X281838Y533040D01*
X280995Y533603D01*
X280500Y533702D01*
D02*
G37*
G36*
X279500D02*
X279005Y533603D01*
X278162Y533040D01*
X277598Y532196D01*
X277500Y531701D01*
X279500D01*
Y533702D01*
D02*
G37*
G36*
X427500Y530701D02*
X425500D01*
Y528700D01*
X425995Y528799D01*
X426838Y529363D01*
X427402Y530206D01*
X427500Y530701D01*
D02*
G37*
G36*
X424500D02*
X422500D01*
X422598Y530206D01*
X423162Y529363D01*
X424005Y528799D01*
X424500Y528700D01*
Y530701D01*
D02*
G37*
G36*
X367500Y533202D02*
Y531201D01*
X369500D01*
X369402Y531696D01*
X368839Y532540D01*
X367995Y533103D01*
X367500Y533202D01*
D02*
G37*
G36*
X366500D02*
X366005Y533103D01*
X365161Y532540D01*
X364598Y531696D01*
X364499Y531201D01*
X366500D01*
Y533202D01*
D02*
G37*
G36*
X333000Y533702D02*
X332505Y533603D01*
X331662Y533040D01*
X331098Y532196D01*
X330999Y531701D01*
X333000D01*
Y533702D01*
D02*
G37*
G36*
X363250Y537000D02*
X361000D01*
Y534750D01*
X363250D01*
Y537000D01*
D02*
G37*
G36*
X360000D02*
X357750D01*
Y534750D01*
X360000D01*
Y537000D01*
D02*
G37*
G36*
X264250Y537500D02*
X262000D01*
Y535250D01*
X264250D01*
Y537500D01*
D02*
G37*
G36*
X261000D02*
X258750D01*
Y535250D01*
X261000D01*
Y537500D01*
D02*
G37*
G36*
X425500Y533702D02*
Y531701D01*
X427500D01*
X427402Y532196D01*
X426838Y533040D01*
X425995Y533603D01*
X425500Y533702D01*
D02*
G37*
G36*
X424500D02*
X424005Y533603D01*
X423162Y533040D01*
X422598Y532196D01*
X422500Y531701D01*
X424500D01*
Y533702D01*
D02*
G37*
G36*
X317750Y537000D02*
X315500D01*
Y534750D01*
X317750D01*
Y537000D01*
D02*
G37*
G36*
X314500D02*
X312250D01*
Y534750D01*
X314500D01*
Y537000D01*
D02*
G37*
G36*
X274000Y586501D02*
Y584500D01*
X276000D01*
X275902Y584995D01*
X275339Y585839D01*
X274495Y586402D01*
X274000Y586501D01*
D02*
G37*
G36*
X273000D02*
X272505Y586402D01*
X271661Y585839D01*
X271098Y584995D01*
X271000Y584500D01*
X273000D01*
Y586501D01*
D02*
G37*
G36*
X552626Y594000D02*
X550157D01*
Y590449D01*
X552626D01*
Y594000D01*
D02*
G37*
G36*
X234750Y586250D02*
X229250D01*
Y585029D01*
X227250D01*
Y586250D01*
X221750D01*
Y580750D01*
X227250D01*
Y581971D01*
X229250D01*
Y580750D01*
X234750D01*
Y581971D01*
X240955D01*
X241161Y581662D01*
X242005Y581098D01*
X243000Y580900D01*
X243995Y581098D01*
X244839Y581662D01*
X245402Y582505D01*
X245600Y583500D01*
X245402Y584495D01*
X244839Y585338D01*
X243995Y585902D01*
X243000Y586100D01*
X242005Y585902D01*
X241161Y585338D01*
X240955Y585029D01*
X234750D01*
Y586250D01*
D02*
G37*
G36*
X197000Y587421D02*
X196468Y587351D01*
X195507Y586953D01*
X194681Y586319D01*
X194047Y585493D01*
X193649Y584532D01*
X193579Y584000D01*
X197000D01*
Y587421D01*
D02*
G37*
G36*
X397750Y588750D02*
X392250D01*
Y583250D01*
X397750D01*
Y584471D01*
X398455D01*
X398661Y584162D01*
X399505Y583598D01*
X400500Y583400D01*
X401495Y583598D01*
X402339Y584162D01*
X402902Y585005D01*
X403100Y586000D01*
X402902Y586995D01*
X402339Y587839D01*
X401495Y588402D01*
X400500Y588600D01*
X399505Y588402D01*
X398661Y587839D01*
X398455Y587529D01*
X397750D01*
Y588750D01*
D02*
G37*
G36*
X380516Y585665D02*
X379031D01*
Y584180D01*
X380516D01*
Y585665D01*
D02*
G37*
G36*
X198000Y587421D02*
Y584000D01*
X201421D01*
X201351Y584532D01*
X200953Y585493D01*
X200319Y586319D01*
X199493Y586953D01*
X198532Y587351D01*
X198000Y587421D01*
D02*
G37*
G36*
X359000Y603500D02*
X356999D01*
X357098Y603005D01*
X357662Y602162D01*
X358505Y601598D01*
X359000Y601500D01*
Y603500D01*
D02*
G37*
G36*
X367205Y620311D02*
X365721D01*
Y618826D01*
X367205D01*
Y620311D01*
D02*
G37*
G36*
X356698D02*
X355213D01*
Y618826D01*
X356698D01*
Y620311D01*
D02*
G37*
G36*
X374488Y620631D02*
X373004D01*
Y619146D01*
X374488D01*
Y620631D01*
D02*
G37*
G36*
X369689Y620311D02*
X368205D01*
Y618826D01*
X369689D01*
Y620311D01*
D02*
G37*
G36*
X359000Y606500D02*
X358505Y606402D01*
X357662Y605838D01*
X357098Y604995D01*
X356999Y604500D01*
X359000D01*
Y606500D01*
D02*
G37*
G36*
X362000Y603500D02*
X360000D01*
Y601500D01*
X360495Y601598D01*
X361338Y602162D01*
X361902Y603005D01*
X362000Y603500D01*
D02*
G37*
G36*
X354213Y620311D02*
X352729D01*
Y618826D01*
X354213D01*
Y620311D01*
D02*
G37*
G36*
X360000Y606500D02*
Y604500D01*
X362000D01*
X361902Y604995D01*
X361338Y605838D01*
X360495Y606402D01*
X360000Y606500D01*
D02*
G37*
G36*
X276000Y583500D02*
X274000D01*
Y581499D01*
X274495Y581598D01*
X275339Y582162D01*
X275902Y583005D01*
X276000Y583500D01*
D02*
G37*
G36*
X562984Y549500D02*
X559531D01*
Y547425D01*
X562984D01*
Y549500D01*
D02*
G37*
G36*
X558532D02*
X555079D01*
Y547425D01*
X558532D01*
Y549500D01*
D02*
G37*
G36*
X231500Y577000D02*
X229250D01*
Y574750D01*
X231500D01*
Y577000D01*
D02*
G37*
G36*
X475500Y577600D02*
X474505Y577402D01*
X473662Y576838D01*
X473098Y575995D01*
X472900Y575000D01*
X473098Y574005D01*
X473662Y573162D01*
X474505Y572598D01*
X475500Y572400D01*
X476495Y572598D01*
X477339Y573162D01*
X477545Y573471D01*
X486367D01*
X492419Y567419D01*
X492915Y567087D01*
X493500Y566971D01*
X534367D01*
X538471Y562866D01*
Y554500D01*
X538587Y553915D01*
X538919Y553419D01*
X541919Y550419D01*
X542415Y550087D01*
X542925Y549986D01*
Y548531D01*
X551028D01*
Y554468D01*
X542925D01*
Y554391D01*
X542463Y554200D01*
X541529Y555133D01*
Y563500D01*
X541413Y564085D01*
X541081Y564581D01*
X536081Y569581D01*
X535585Y569913D01*
X535000Y570029D01*
X494134D01*
X488081Y576081D01*
X487585Y576413D01*
X487000Y576529D01*
X477545D01*
X477339Y576838D01*
X476495Y577402D01*
X475500Y577600D01*
D02*
G37*
G36*
X363250Y546250D02*
X357750D01*
Y544828D01*
X348545D01*
X348339Y545137D01*
X347495Y545701D01*
X346500Y545899D01*
X345505Y545701D01*
X344661Y545137D01*
X344098Y544294D01*
X343900Y543299D01*
X344098Y542304D01*
X344661Y541461D01*
X345505Y540897D01*
X346500Y540699D01*
X347495Y540897D01*
X348339Y541461D01*
X348545Y541770D01*
X357750D01*
Y540750D01*
X363250D01*
Y546250D01*
D02*
G37*
G36*
X406500Y552100D02*
X405505Y551902D01*
X404662Y551338D01*
X404098Y550495D01*
X403900Y549500D01*
X404098Y548505D01*
X404662Y547661D01*
X404971Y547455D01*
Y546750D01*
X403750D01*
Y541250D01*
X409250D01*
Y546750D01*
X408029D01*
Y547455D01*
X408338Y547661D01*
X408902Y548505D01*
X409100Y549500D01*
X408902Y550495D01*
X408338Y551338D01*
X407495Y551902D01*
X406500Y552100D01*
D02*
G37*
G36*
X317750Y546250D02*
X312250D01*
Y545029D01*
X300045D01*
X299838Y545338D01*
X298995Y545902D01*
X298000Y546100D01*
X297005Y545902D01*
X296162Y545338D01*
X295598Y544495D01*
X295400Y543500D01*
X295598Y542505D01*
X296162Y541662D01*
X297005Y541098D01*
X298000Y540900D01*
X298995Y541098D01*
X299838Y541662D01*
X300045Y541971D01*
X312250D01*
Y540750D01*
X317750D01*
Y546250D01*
D02*
G37*
G36*
X460750Y546750D02*
X455250D01*
Y544828D01*
X445545D01*
X445338Y545137D01*
X444495Y545701D01*
X443500Y545899D01*
X442505Y545701D01*
X441662Y545137D01*
X441098Y544294D01*
X440900Y543299D01*
X441098Y542304D01*
X441662Y541461D01*
X441971Y541254D01*
Y523045D01*
X441662Y522838D01*
X441098Y521995D01*
X440900Y521000D01*
X441098Y520005D01*
X441662Y519162D01*
X442505Y518598D01*
X443500Y518400D01*
X444495Y518598D01*
X445338Y519162D01*
X445902Y520005D01*
X446100Y521000D01*
X445902Y521995D01*
X445338Y522838D01*
X445029Y523045D01*
Y541254D01*
X445338Y541461D01*
X445545Y541770D01*
X455250D01*
Y541250D01*
X460750D01*
Y541770D01*
X503568D01*
X507919Y537419D01*
X508415Y537087D01*
X509000Y536971D01*
X547955D01*
X548162Y536661D01*
X549005Y536098D01*
X550000Y535900D01*
X550995Y536098D01*
X551838Y536661D01*
X552045Y536971D01*
X553250D01*
Y535750D01*
X558750D01*
Y541250D01*
X553250D01*
Y540029D01*
X552045D01*
X551838Y540339D01*
X550995Y540902D01*
X550000Y541100D01*
X549005Y540902D01*
X548162Y540339D01*
X547955Y540029D01*
X509633D01*
X505282Y544380D01*
X504786Y544712D01*
X504201Y544828D01*
X460750D01*
Y546750D01*
D02*
G37*
G36*
X234750Y577000D02*
X232500D01*
Y574750D01*
X234750D01*
Y577000D01*
D02*
G37*
G36*
X201421Y583000D02*
X198000D01*
Y579579D01*
X198532Y579649D01*
X199493Y580047D01*
X200319Y580681D01*
X200953Y581507D01*
X201351Y582468D01*
X201421Y583000D01*
D02*
G37*
G36*
X197000D02*
X193579D01*
X193649Y582468D01*
X194047Y581507D01*
X194681Y580681D01*
X195507Y580047D01*
X196468Y579649D01*
X197000Y579579D01*
Y583000D01*
D02*
G37*
G36*
X273000Y583500D02*
X271000D01*
X271098Y583005D01*
X271661Y582162D01*
X272505Y581598D01*
X273000Y581499D01*
Y583500D01*
D02*
G37*
G36*
X211453Y587453D02*
X203547D01*
Y579547D01*
X211453D01*
Y581971D01*
X215750D01*
Y580750D01*
X221250D01*
Y586250D01*
X215750D01*
Y585029D01*
X211453D01*
Y587453D01*
D02*
G37*
G36*
X234750Y580250D02*
X232500D01*
Y578000D01*
X234750D01*
Y580250D01*
D02*
G37*
G36*
X231500D02*
X229250D01*
Y578000D01*
X231500D01*
Y580250D01*
D02*
G37*
G36*
X346387Y580614D02*
X344386D01*
Y578614D01*
X344881Y578712D01*
X345724Y579276D01*
X346288Y580119D01*
X346387Y580614D01*
D02*
G37*
G36*
X343386D02*
X341386D01*
X341484Y580119D01*
X342048Y579276D01*
X342891Y578712D01*
X343386Y578614D01*
Y580614D01*
D02*
G37*
G36*
X268000Y448421D02*
Y445000D01*
X271421D01*
X271351Y445532D01*
X270953Y446493D01*
X270319Y447319D01*
X269493Y447953D01*
X268532Y448351D01*
X268000Y448421D01*
D02*
G37*
G36*
X267000D02*
X266468Y448351D01*
X265507Y447953D01*
X264681Y447319D01*
X264047Y446493D01*
X263649Y445532D01*
X263579Y445000D01*
X267000D01*
Y448421D01*
D02*
G37*
G36*
X568250Y448250D02*
X566000D01*
Y446000D01*
X568250D01*
Y448250D01*
D02*
G37*
G36*
X565000D02*
X562750D01*
Y446000D01*
X565000D01*
Y448250D01*
D02*
G37*
G36*
X552750Y456250D02*
X547250D01*
Y450750D01*
X548471D01*
Y445500D01*
Y433087D01*
X543685D01*
Y432029D01*
X542000D01*
Y434000D01*
X535000D01*
Y427000D01*
X542000D01*
Y428971D01*
X543685D01*
Y427937D01*
X556315D01*
Y433087D01*
X551529D01*
Y443971D01*
X555250D01*
Y442750D01*
X560750D01*
Y448250D01*
X555250D01*
Y447029D01*
X551529D01*
Y450750D01*
X552750D01*
Y456250D01*
D02*
G37*
G36*
X271421Y444000D02*
X268000D01*
Y440579D01*
X268532Y440649D01*
X269493Y441047D01*
X270319Y441681D01*
X270953Y442507D01*
X271351Y443468D01*
X271421Y444000D01*
D02*
G37*
G36*
X568250Y445000D02*
X566000D01*
Y442750D01*
X568250D01*
Y445000D01*
D02*
G37*
G36*
X565000D02*
X562750D01*
Y442750D01*
X565000D01*
Y445000D01*
D02*
G37*
G36*
X318500Y453000D02*
X316250D01*
Y450750D01*
X318500D01*
Y453000D01*
D02*
G37*
G36*
X427000Y460549D02*
X426024Y460355D01*
X425198Y459802D01*
X424645Y458976D01*
X424451Y458000D01*
X424645Y457024D01*
X425198Y456198D01*
X426024Y455645D01*
X427000Y455451D01*
X427976Y455645D01*
X428802Y456198D01*
X429355Y457024D01*
X429549Y458000D01*
X429355Y458976D01*
X428802Y459802D01*
X427976Y460355D01*
X427000Y460549D01*
D02*
G37*
G36*
X298500D02*
X297524Y460355D01*
X296698Y459802D01*
X296145Y458976D01*
X295951Y458000D01*
X296145Y457024D01*
X296698Y456198D01*
X297524Y455645D01*
X298500Y455451D01*
X299476Y455645D01*
X300302Y456198D01*
X300855Y457024D01*
X301049Y458000D01*
X300855Y458976D01*
X300302Y459802D01*
X299476Y460355D01*
X298500Y460549D01*
D02*
G37*
G36*
X286000Y463000D02*
X283770D01*
X283800Y462777D01*
X284079Y462102D01*
X284523Y461523D01*
X285102Y461079D01*
X285776Y460800D01*
X286000Y460770D01*
Y463000D01*
D02*
G37*
G36*
X457500Y465708D02*
X456649Y465539D01*
X455928Y465057D01*
X455445Y464335D01*
X455276Y463484D01*
Y461516D01*
X455445Y460665D01*
X455928Y459943D01*
X456649Y459461D01*
X457500Y459292D01*
X458351Y459461D01*
X458618Y459640D01*
X459059Y459404D01*
Y459335D01*
X460740D01*
Y462500D01*
Y465665D01*
X459059D01*
Y465596D01*
X458618Y465360D01*
X458351Y465539D01*
X457500Y465708D01*
D02*
G37*
G36*
X318500Y456250D02*
X316250D01*
Y454000D01*
X318500D01*
Y456250D01*
D02*
G37*
G36*
X321750Y453000D02*
X319500D01*
Y450750D01*
X321750D01*
Y453000D01*
D02*
G37*
G36*
X381850Y461629D02*
X371976D01*
Y454511D01*
X381850D01*
Y461629D01*
D02*
G37*
G36*
X321750Y456250D02*
X319500D01*
Y454000D01*
X321750D01*
Y456250D01*
D02*
G37*
G36*
X267000Y444000D02*
X263579D01*
X263649Y443468D01*
X264047Y442507D01*
X264681Y441681D01*
X265507Y441047D01*
X266468Y440649D01*
X267000Y440579D01*
Y444000D01*
D02*
G37*
G36*
X233500Y414000D02*
X231250D01*
Y411750D01*
X233500D01*
Y414000D01*
D02*
G37*
G36*
X271421D02*
X268000D01*
Y410579D01*
X268532Y410649D01*
X269493Y411047D01*
X270319Y411681D01*
X270953Y412507D01*
X271351Y413468D01*
X271421Y414000D01*
D02*
G37*
G36*
X233500Y417250D02*
X231250D01*
Y415000D01*
X233500D01*
Y417250D01*
D02*
G37*
G36*
X236750Y414000D02*
X234500D01*
Y411750D01*
X236750D01*
Y414000D01*
D02*
G37*
G36*
X563500Y413500D02*
X560500D01*
Y410500D01*
X563500D01*
Y413500D01*
D02*
G37*
G36*
X209526Y410670D02*
X206073D01*
Y408201D01*
X209526D01*
Y410670D01*
D02*
G37*
G36*
X267000Y414000D02*
X263579D01*
X263649Y413468D01*
X264047Y412507D01*
X264681Y411681D01*
X265507Y411047D01*
X266468Y410649D01*
X267000Y410579D01*
Y414000D01*
D02*
G37*
G36*
X567500Y413500D02*
X564500D01*
Y410500D01*
X567500D01*
Y413500D01*
D02*
G37*
G36*
X236750Y417250D02*
X234500D01*
Y415000D01*
X236750D01*
Y417250D01*
D02*
G37*
G36*
X542000Y426500D02*
X539000D01*
Y423500D01*
X542000D01*
Y426500D01*
D02*
G37*
G36*
X538000D02*
X535000D01*
Y423500D01*
X538000D01*
Y426500D01*
D02*
G37*
G36*
X257500Y448487D02*
X256468Y448351D01*
X255507Y447953D01*
X254681Y447319D01*
X254047Y446493D01*
X253649Y445532D01*
X253513Y444500D01*
X253649Y443468D01*
X254047Y442507D01*
X254681Y441681D01*
X255507Y441047D01*
X256468Y440649D01*
X257500Y440513D01*
X258532Y440649D01*
X259493Y441047D01*
X260319Y441681D01*
X260953Y442507D01*
X261351Y443468D01*
X261487Y444500D01*
X261351Y445532D01*
X260953Y446493D01*
X260319Y447319D01*
X259493Y447953D01*
X258532Y448351D01*
X257500Y448487D01*
D02*
G37*
G36*
Y438487D02*
X256468Y438351D01*
X255507Y437953D01*
X254681Y437319D01*
X254047Y436493D01*
X253649Y435532D01*
X253513Y434500D01*
X253649Y433468D01*
X254047Y432507D01*
X254681Y431681D01*
X255507Y431047D01*
X256468Y430649D01*
X257500Y430513D01*
X258532Y430649D01*
X259493Y431047D01*
X260319Y431681D01*
X260953Y432507D01*
X261351Y433468D01*
X261487Y434500D01*
X261351Y435532D01*
X260953Y436493D01*
X260319Y437319D01*
X259493Y437953D01*
X258532Y438351D01*
X257500Y438487D01*
D02*
G37*
G36*
X542000Y422500D02*
X539000D01*
Y419500D01*
X542000D01*
Y422500D01*
D02*
G37*
G36*
X538000D02*
X535000D01*
Y419500D01*
X538000D01*
Y422500D01*
D02*
G37*
G36*
X209526Y423268D02*
X201620D01*
Y422029D01*
X199045D01*
X198838Y422338D01*
X197995Y422902D01*
X197000Y423100D01*
X196005Y422902D01*
X195162Y422338D01*
X194598Y421495D01*
X194400Y420500D01*
X194598Y419505D01*
X195162Y418661D01*
X196005Y418098D01*
X197000Y417900D01*
X197995Y418098D01*
X198838Y418661D01*
X199045Y418971D01*
X201620D01*
Y417331D01*
X209526D01*
Y423268D01*
D02*
G37*
G36*
X567000Y422752D02*
X561579D01*
Y421214D01*
X556315D01*
Y422063D01*
X543685D01*
Y416913D01*
X556315D01*
Y418156D01*
X561579D01*
Y416618D01*
X567000D01*
Y419685D01*
Y422752D01*
D02*
G37*
G36*
X294000Y523500D02*
X291750D01*
Y521250D01*
X294000D01*
Y523500D01*
D02*
G37*
G36*
X568161Y527665D02*
X562740D01*
Y524500D01*
Y521335D01*
X563518D01*
X563710Y520873D01*
X563367Y520529D01*
X561500D01*
X560915Y520413D01*
X560419Y520081D01*
X557678Y517341D01*
X557347Y516845D01*
X557306Y516642D01*
X556319D01*
Y515006D01*
X555157D01*
X553581Y516581D01*
X553085Y516913D01*
X552500Y517029D01*
X551799D01*
Y518469D01*
X537201D01*
Y517029D01*
X533500D01*
X532915Y516913D01*
X532419Y516581D01*
X530919Y515081D01*
X530587Y514585D01*
X530471Y514000D01*
Y512545D01*
X530162Y512338D01*
X529598Y511495D01*
X529400Y510500D01*
X529598Y509505D01*
X530162Y508662D01*
X530471Y508455D01*
Y505500D01*
X530587Y504915D01*
X530919Y504419D01*
X536418Y498919D01*
X536915Y498587D01*
X537012Y498568D01*
X537500Y498471D01*
X538500D01*
Y496500D01*
X545500D01*
Y503500D01*
X538500D01*
Y501852D01*
X538000Y501663D01*
X533529Y506134D01*
Y508455D01*
X533839Y508662D01*
X534402Y509505D01*
X534600Y510500D01*
X534402Y511495D01*
X533839Y512338D01*
X533529Y512545D01*
Y513367D01*
X534133Y513971D01*
X537201D01*
Y512532D01*
X551799D01*
Y513331D01*
X552299Y513538D01*
X553442Y512395D01*
X553938Y512063D01*
X554036Y512044D01*
X554524Y511947D01*
X556319D01*
Y510311D01*
X560681D01*
X560971Y509931D01*
Y508500D01*
X559000D01*
Y501500D01*
X560971D01*
Y498250D01*
X559750D01*
Y497029D01*
X557750D01*
Y498250D01*
X552250D01*
Y497554D01*
X551750Y497398D01*
X550995Y497902D01*
X550000Y498100D01*
X549005Y497902D01*
X548162Y497338D01*
X547598Y496495D01*
X547400Y495500D01*
X547598Y494505D01*
X548162Y493661D01*
X548471Y493455D01*
Y489500D01*
Y462250D01*
X547250D01*
Y456750D01*
X552750D01*
Y462250D01*
X551529D01*
Y487971D01*
X552250D01*
Y486750D01*
X557750D01*
Y492250D01*
X552250D01*
Y491029D01*
X551529D01*
Y493185D01*
X551750Y493343D01*
X552250Y493087D01*
Y492750D01*
X557750D01*
Y493971D01*
X559750D01*
Y492750D01*
X565250D01*
Y498250D01*
X564029D01*
Y501500D01*
X566000D01*
Y508500D01*
X564029D01*
Y510311D01*
X568161D01*
Y511730D01*
X573107D01*
X574971Y509867D01*
Y491634D01*
X574367Y491029D01*
X573250D01*
Y492250D01*
X567750D01*
Y491029D01*
X565250D01*
Y492250D01*
X559750D01*
Y486750D01*
X565250D01*
Y487971D01*
X567750D01*
Y486750D01*
X573250D01*
Y487971D01*
X575000D01*
X575585Y488087D01*
X576081Y488419D01*
X577581Y489919D01*
X577913Y490415D01*
X578029Y491000D01*
Y497341D01*
X578441Y497598D01*
X578529Y497593D01*
X579000Y497500D01*
Y500000D01*
Y502500D01*
X578529Y502407D01*
X578441Y502402D01*
X578029Y502659D01*
Y510500D01*
X577913Y511085D01*
X577581Y511581D01*
X574822Y514341D01*
X574325Y514673D01*
X573740Y514789D01*
X568161D01*
Y516642D01*
X561958D01*
X561767Y517104D01*
X562134Y517471D01*
X564000D01*
X564585Y517587D01*
X565081Y517919D01*
X567062Y519899D01*
X567393Y520395D01*
X567510Y520980D01*
Y521335D01*
X568161D01*
Y527665D01*
D02*
G37*
G36*
X294000Y526750D02*
X291750D01*
Y524500D01*
X294000D01*
Y526750D01*
D02*
G37*
G36*
X297250Y523500D02*
X295000D01*
Y521250D01*
X297250D01*
Y523500D01*
D02*
G37*
G36*
X569500Y508500D02*
X566500D01*
Y505500D01*
X569500D01*
Y508500D01*
D02*
G37*
G36*
X580000Y502500D02*
Y500500D01*
X582000D01*
X581902Y500995D01*
X581339Y501838D01*
X580495Y502402D01*
X580000Y502500D01*
D02*
G37*
G36*
X289250Y526750D02*
X283750D01*
Y521250D01*
X284971D01*
Y515820D01*
X284523Y515477D01*
X284079Y514898D01*
X283800Y514223D01*
X283705Y513500D01*
X283800Y512777D01*
X284079Y512102D01*
X284523Y511523D01*
X285102Y511079D01*
X285776Y510800D01*
X286500Y510705D01*
X287224Y510800D01*
X287898Y511079D01*
X288477Y511523D01*
X288921Y512102D01*
X289200Y512777D01*
X289295Y513500D01*
X289200Y514223D01*
X288921Y514898D01*
X288477Y515477D01*
X288029Y515820D01*
Y521250D01*
X289250D01*
Y526750D01*
D02*
G37*
G36*
X573500Y508500D02*
X570500D01*
Y505500D01*
X573500D01*
Y508500D01*
D02*
G37*
G36*
X297250Y526750D02*
X295000D01*
Y524500D01*
X297250D01*
Y526750D01*
D02*
G37*
G36*
X279500Y530701D02*
X277500D01*
X277598Y530206D01*
X278162Y529363D01*
X279005Y528799D01*
X279500Y528700D01*
Y530701D01*
D02*
G37*
G36*
X479146Y530201D02*
X477146D01*
Y528200D01*
X477641Y528299D01*
X478484Y528863D01*
X479048Y529706D01*
X479146Y530201D01*
D02*
G37*
G36*
X333000Y530701D02*
X330999D01*
X331098Y530206D01*
X331662Y529363D01*
X332505Y528799D01*
X333000Y528700D01*
Y530701D01*
D02*
G37*
G36*
X282501D02*
X280500D01*
Y528700D01*
X280995Y528799D01*
X281838Y529363D01*
X282402Y530206D01*
X282501Y530701D01*
D02*
G37*
G36*
X366500Y530201D02*
X364499D01*
X364598Y529706D01*
X365161Y528863D01*
X366005Y528299D01*
X366500Y528200D01*
Y530201D01*
D02*
G37*
G36*
X558500Y527708D02*
X557649Y527539D01*
X556927Y527057D01*
X556445Y526335D01*
X556385Y526029D01*
X551799D01*
Y527130D01*
X537201D01*
Y521193D01*
X551799D01*
Y522971D01*
X556385D01*
X556445Y522665D01*
X556927Y521943D01*
X557649Y521461D01*
X558500Y521292D01*
X559351Y521461D01*
X559618Y521640D01*
X560059Y521404D01*
Y521335D01*
X561740D01*
Y524500D01*
Y527665D01*
X560059D01*
Y527596D01*
X559618Y527360D01*
X559351Y527539D01*
X558500Y527708D01*
D02*
G37*
G36*
X476146Y530201D02*
X474146D01*
X474244Y529706D01*
X474808Y528863D01*
X475651Y528299D01*
X476146Y528200D01*
Y530201D01*
D02*
G37*
G36*
X369500D02*
X367500D01*
Y528200D01*
X367995Y528299D01*
X368839Y528863D01*
X369402Y529706D01*
X369500Y530201D01*
D02*
G37*
G36*
X573500Y504500D02*
X566500D01*
Y501500D01*
X567905D01*
X568141Y501059D01*
X568098Y500995D01*
X568000Y500500D01*
X573000D01*
X572902Y500995D01*
X572859Y501059D01*
X573095Y501500D01*
X573500D01*
Y504500D01*
D02*
G37*
G36*
X326500Y470201D02*
Y468520D01*
X329362D01*
Y470201D01*
X326500D01*
D02*
G37*
G36*
X329362Y467520D02*
X326500D01*
Y465839D01*
X329362D01*
Y467520D01*
D02*
G37*
G36*
X454500Y483921D02*
X453968Y483851D01*
X453007Y483453D01*
X452181Y482819D01*
X451547Y481993D01*
X451149Y481032D01*
X451079Y480500D01*
X454500D01*
Y483921D01*
D02*
G37*
G36*
Y479500D02*
X451079D01*
X451149Y478968D01*
X451547Y478007D01*
X452181Y477181D01*
X453007Y476547D01*
X453968Y476149D01*
X454500Y476079D01*
Y479500D01*
D02*
G37*
G36*
X286000Y466230D02*
X285776Y466200D01*
X285102Y465921D01*
X284523Y465477D01*
X284079Y464898D01*
X283800Y464223D01*
X283770Y464000D01*
X286000D01*
Y466230D01*
D02*
G37*
G36*
X289230Y463000D02*
X287000D01*
Y460770D01*
X287224Y460800D01*
X287898Y461079D01*
X288477Y461523D01*
X288921Y462102D01*
X289200Y462777D01*
X289230Y463000D01*
D02*
G37*
G36*
X325500Y467520D02*
X322638D01*
Y465839D01*
X325500D01*
Y467520D01*
D02*
G37*
G36*
X287000Y466230D02*
Y464000D01*
X289230D01*
X289200Y464223D01*
X288921Y464898D01*
X288477Y465477D01*
X287898Y465921D01*
X287224Y466200D01*
X287000Y466230D01*
D02*
G37*
G36*
X541500Y492000D02*
X538500D01*
Y489000D01*
X541500D01*
Y492000D01*
D02*
G37*
G36*
X486750Y501250D02*
X481250D01*
Y495750D01*
X482471D01*
Y485000D01*
Y472750D01*
X481250D01*
Y467250D01*
X482471D01*
Y448633D01*
X475867Y442029D01*
X462770D01*
Y443240D01*
Y448311D01*
X467161D01*
Y449947D01*
X471976D01*
X472562Y450063D01*
X473058Y450395D01*
X479081Y456419D01*
X479413Y456915D01*
X479529Y457500D01*
Y467250D01*
X480750D01*
Y472750D01*
X479529D01*
Y476000D01*
X479432Y476488D01*
X479413Y476585D01*
X479081Y477081D01*
X475081Y481081D01*
X474585Y481413D01*
X474000Y481529D01*
X468645D01*
X468453Y481993D01*
X467819Y482819D01*
X466993Y483453D01*
X466032Y483851D01*
X465000Y483987D01*
X463968Y483851D01*
X463007Y483453D01*
X462181Y482819D01*
X462029Y482622D01*
X461529Y482792D01*
Y484367D01*
X463504Y486341D01*
X463968Y486149D01*
X465000Y486013D01*
X466032Y486149D01*
X466993Y486547D01*
X467819Y487181D01*
X468453Y488007D01*
X468851Y488968D01*
X468987Y490000D01*
X468851Y491032D01*
X468453Y491993D01*
X467819Y492819D01*
X466993Y493453D01*
X466529Y493645D01*
Y495866D01*
X467633Y496971D01*
X475250D01*
Y495750D01*
X480750D01*
Y501250D01*
X475250D01*
Y500029D01*
X467000D01*
X466415Y499913D01*
X465919Y499581D01*
X463919Y497581D01*
X463587Y497085D01*
X463471Y496500D01*
Y493645D01*
X463007Y493453D01*
X462181Y492819D01*
X461547Y491993D01*
X461149Y491032D01*
X461013Y490000D01*
X461149Y488968D01*
X461341Y488504D01*
X459415Y486578D01*
X458953Y486769D01*
Y493953D01*
X451047D01*
Y491529D01*
X449000D01*
X448415Y491413D01*
X447919Y491081D01*
X444419Y487581D01*
X444087Y487085D01*
X443971Y486500D01*
Y469500D01*
X442000D01*
Y462500D01*
X449000D01*
Y469500D01*
X447029D01*
Y485866D01*
X449634Y488471D01*
X451047D01*
Y486047D01*
X458365D01*
X458571Y485663D01*
X458579Y485547D01*
X458471Y485000D01*
Y482792D01*
X457971Y482622D01*
X457819Y482819D01*
X456993Y483453D01*
X456032Y483851D01*
X455500Y483921D01*
Y480000D01*
Y476079D01*
X456032Y476149D01*
X456993Y476547D01*
X457819Y477181D01*
X457971Y477378D01*
X458471Y477209D01*
Y474000D01*
X458587Y473415D01*
X458919Y472919D01*
X463451Y468386D01*
Y465665D01*
X461740D01*
Y462500D01*
Y459335D01*
X467161D01*
Y465665D01*
X466510D01*
Y469020D01*
X466393Y469605D01*
X466062Y470101D01*
X461529Y474634D01*
Y477209D01*
X462029Y477378D01*
X462181Y477181D01*
X463007Y476547D01*
X463968Y476149D01*
X465000Y476013D01*
X466032Y476149D01*
X466993Y476547D01*
X467819Y477181D01*
X468453Y478007D01*
X468645Y478471D01*
X473366D01*
X476471Y475366D01*
Y472750D01*
X475250D01*
Y467250D01*
X476471D01*
Y458134D01*
X471343Y453006D01*
X467161D01*
Y454642D01*
X459059D01*
Y454642D01*
X455319D01*
Y448311D01*
X459681D01*
X459711Y447823D01*
Y443240D01*
Y442029D01*
X451133D01*
X447029Y446134D01*
Y455000D01*
X449000D01*
Y462000D01*
X442000D01*
Y455000D01*
X443971D01*
Y445500D01*
X444087Y444915D01*
X444419Y444419D01*
X449419Y439419D01*
X449915Y439087D01*
X450500Y438971D01*
X476500D01*
X477085Y439087D01*
X477581Y439419D01*
X485081Y446919D01*
X485413Y447415D01*
X485529Y448000D01*
Y467250D01*
X486750D01*
Y472750D01*
X485529D01*
Y483471D01*
X487955D01*
X488162Y483161D01*
X489005Y482598D01*
X490000Y482400D01*
X490995Y482598D01*
X491839Y483161D01*
X492402Y484005D01*
X492600Y485000D01*
X492402Y485995D01*
X491839Y486838D01*
X490995Y487402D01*
X490000Y487600D01*
X489005Y487402D01*
X488162Y486838D01*
X487955Y486529D01*
X485529D01*
Y495750D01*
X486750D01*
Y501250D01*
D02*
G37*
G36*
X545500Y496000D02*
X542500D01*
Y493000D01*
X545500D01*
Y496000D01*
D02*
G37*
G36*
X582000Y499500D02*
X580000D01*
Y497500D01*
X580495Y497598D01*
X581339Y498162D01*
X581902Y499005D01*
X582000Y499500D01*
D02*
G37*
G36*
X573000D02*
X568000D01*
X568098Y499005D01*
X568308Y498691D01*
X568072Y498250D01*
X567750D01*
Y496000D01*
X570500D01*
X573250D01*
Y498250D01*
X572928D01*
X572692Y498691D01*
X572902Y499005D01*
X573000Y499500D01*
D02*
G37*
G36*
X570000Y495000D02*
X567750D01*
Y492750D01*
X570000D01*
Y495000D01*
D02*
G37*
G36*
X545500Y492000D02*
X542500D01*
Y489000D01*
X545500D01*
Y492000D01*
D02*
G37*
G36*
X541500Y496000D02*
X538500D01*
Y493000D01*
X541500D01*
Y496000D01*
D02*
G37*
G36*
X573250Y495000D02*
X571000D01*
Y492750D01*
X573250D01*
Y495000D01*
D02*
G37*
%LPD*%
D10*
X244500Y192500D02*
X249000Y188000D01*
X249500D02*
X254000Y192500D01*
D11*
X205573Y420299D02*
D03*
Y407701D02*
D03*
X224865D02*
D03*
Y420299D02*
D03*
D13*
X550000Y453500D02*
D03*
Y459500D02*
D03*
X555000Y495500D02*
D03*
Y489500D02*
D03*
X261500Y544000D02*
D03*
Y538000D02*
D03*
X315000Y543500D02*
D03*
Y537500D02*
D03*
X360500Y543500D02*
D03*
Y537500D02*
D03*
X406500Y544000D02*
D03*
Y538000D02*
D03*
X458000Y544000D02*
D03*
Y538000D02*
D03*
X507500Y393000D02*
D03*
Y387000D02*
D03*
X507000Y349500D02*
D03*
Y343500D02*
D03*
X488000Y313500D02*
D03*
Y307500D02*
D03*
X236000Y310500D02*
D03*
Y304500D02*
D03*
X213500Y352500D02*
D03*
Y346500D02*
D03*
X213000Y394000D02*
D03*
Y388000D02*
D03*
X234000Y420500D02*
D03*
Y414500D02*
D03*
X558000Y445500D02*
D03*
Y439500D02*
D03*
X565500D02*
D03*
Y445500D02*
D03*
X169000Y431500D02*
D03*
Y437500D02*
D03*
X176000Y431500D02*
D03*
Y437500D02*
D03*
X326000Y488500D02*
D03*
Y482500D02*
D03*
X319000Y453500D02*
D03*
Y459500D02*
D03*
X570500Y489500D02*
D03*
Y495500D02*
D03*
X562500D02*
D03*
Y489500D02*
D03*
X286500Y530000D02*
D03*
Y524000D02*
D03*
X232000Y583500D02*
D03*
Y577500D02*
D03*
X294500Y530000D02*
D03*
Y524000D02*
D03*
D14*
X334400Y556600D02*
Y587612D01*
Y556600D02*
X340100Y550900D01*
X334400Y587612D02*
X341615Y594827D01*
X332000Y587474D02*
X341517Y596992D01*
X329500Y587237D02*
X341420Y599157D01*
X320500Y580500D02*
X341323Y601323D01*
X320000Y584000D02*
X339488Y603488D01*
X321000Y588500D02*
X338154Y605654D01*
X341517Y596992D02*
X347429D01*
X341712Y592661D02*
X347429D01*
X341323Y601323D02*
X347429D01*
X336000Y586949D02*
X341712Y592661D01*
X338154Y605654D02*
X347429D01*
X533500Y515500D02*
X544500D01*
X552500D01*
X559000Y360000D02*
Y384500D01*
Y358500D02*
Y360000D01*
X551000D02*
X559000D01*
X551000Y350000D02*
X569752D01*
X461240Y462500D02*
Y466760D01*
X455000Y473000D02*
X461240Y466760D01*
X455000Y473000D02*
Y480000D01*
X461240Y443240D02*
Y451476D01*
Y440740D02*
Y443240D01*
X458500Y440500D02*
X476500D01*
X450500D02*
X458500D01*
X445500Y445500D02*
Y458500D01*
Y445500D02*
X450500Y440500D01*
X476500D02*
X484000Y448000D01*
Y470000D01*
Y485000D02*
Y498500D01*
Y470000D02*
Y485000D01*
X490000D01*
X449000Y490000D02*
X455000D01*
X445500Y486500D02*
X449000Y490000D01*
X445500Y466000D02*
Y486500D01*
X460000Y485000D02*
X465000Y490000D01*
X460000Y474000D02*
Y485000D01*
Y474000D02*
X464980Y469020D01*
Y462500D02*
Y469020D01*
X465000Y480000D02*
X474000D01*
X478000Y476000D01*
Y470000D02*
Y476000D01*
Y457500D02*
Y470000D01*
X471976Y451476D02*
X478000Y457500D01*
X464980Y451476D02*
X471976D01*
X465000Y490000D02*
Y496500D01*
X467000Y498500D01*
X478000D01*
X550000Y459500D02*
Y489500D01*
Y445500D02*
Y453653D01*
Y489500D02*
Y495500D01*
Y489500D02*
X555000D01*
Y495500D02*
X562500D01*
X532000Y514000D02*
X533500Y515500D01*
X532000Y510500D02*
Y514000D01*
X544839Y524500D02*
X558500D01*
X558760Y513476D02*
Y516260D01*
X552500Y515500D02*
X554524Y513476D01*
X558500D01*
X561500Y519000D02*
X564000D01*
X565980Y520980D01*
Y524500D01*
X558760Y516260D02*
X561500Y519000D01*
X358000Y462000D02*
X358016Y462016D01*
Y468700D01*
X326000Y468020D02*
X335020D01*
X338500Y471500D01*
Y494500D01*
X340500Y496500D01*
X355000D01*
X358016Y493484D01*
Y468700D02*
Y493484D01*
X328500Y501000D02*
X353047D01*
X326000Y498500D02*
X328500Y501000D01*
X326000Y488500D02*
Y498500D01*
X328500Y459500D02*
X332000Y463000D01*
X319000Y459500D02*
X328500D01*
X318913Y459587D02*
X319000Y459500D01*
X318913Y459587D02*
Y471760D01*
X291000Y589000D02*
Y605000D01*
X291000Y584000D02*
X295000D01*
X291000Y605000D02*
X304646Y618646D01*
X347429D01*
X307980Y616480D02*
X343886D01*
X458500Y164799D02*
Y172000D01*
X455000Y175500D02*
X458500Y172000D01*
X231000D02*
X234500Y175500D01*
X231000Y164799D02*
Y172000D01*
X289299Y152201D02*
X307299D01*
X276701Y164799D02*
X289299Y152201D01*
X263000Y164799D02*
X276701D01*
X225799Y152201D02*
X231000D01*
X222000Y156000D02*
X225799Y152201D01*
X340000Y164799D02*
X353701D01*
X366299Y152201D01*
X380799D01*
X381500Y164799D02*
Y175500D01*
X234500D02*
X381500D01*
X308000Y164799D02*
Y175000D01*
X428701Y164799D02*
X441299Y152201D01*
X457799D01*
X343886Y586165D02*
X348217D01*
X343886Y581114D02*
Y586165D01*
X378531Y607819D02*
X508181D01*
X374988Y605654D02*
X505346D01*
X519500Y591500D01*
X378531Y603488D02*
X504012D01*
X513000Y594500D01*
Y590500D02*
Y594500D01*
X508181Y607819D02*
X524500Y591500D01*
X249500Y211000D02*
Y276500D01*
X535732Y226268D02*
X539768D01*
X194732Y258268D02*
X198768D01*
X171732Y236768D02*
X175768D01*
X195232Y214768D02*
X199268D01*
X218732Y237268D02*
X222768D01*
X225000Y239500D01*
X231000D01*
X205854Y400646D02*
X210854D01*
X213000Y398500D01*
Y394000D02*
Y398500D01*
Y388000D02*
X225000D01*
X213000Y346500D02*
X225000D01*
X213000Y352500D02*
Y357000D01*
X210854Y359146D02*
X213000Y357000D01*
X205854Y359146D02*
X210854D01*
X236000Y304500D02*
X248000D01*
X236000Y310500D02*
Y315000D01*
X233854Y317146D02*
X236000Y315000D01*
X228854Y317146D02*
X233854D01*
X487500Y308000D02*
X499500D01*
X487500Y314000D02*
Y318500D01*
X485354Y320646D02*
X487500Y318500D01*
X480354Y320646D02*
X485354D01*
X507000Y343500D02*
X519000D01*
X507000Y349500D02*
Y354000D01*
X504854Y356146D02*
X507000Y354000D01*
X499854Y356146D02*
X504854D01*
X507000Y387000D02*
X519000D01*
X507000Y393000D02*
Y397500D01*
X504854Y399646D02*
X507000Y397500D01*
X499854Y399646D02*
X504854D01*
X453500Y175500D02*
Y308000D01*
X466146Y320646D01*
X480354D01*
X381500Y175500D02*
X453500D01*
X455000D01*
X264299Y531201D02*
X280000D01*
X261500Y534000D02*
X264299Y531201D01*
X261500Y534000D02*
Y538000D01*
X360500Y533500D02*
Y537500D01*
Y533500D02*
X363299Y530701D01*
X367000D01*
X346500Y543299D02*
X360299D01*
X406500Y534000D02*
Y538000D01*
Y534000D02*
X409299Y531201D01*
X425000D01*
X460945Y530701D02*
X476646D01*
X458146Y533500D02*
X460945Y530701D01*
X458146Y533500D02*
Y537500D01*
X372035Y589709D02*
X374987D01*
X378531Y586165D01*
X374201Y582299D02*
Y586165D01*
X343886Y620811D02*
X354713D01*
X367705D01*
X378531D01*
Y612150D02*
Y616480D01*
Y620811D01*
X374989Y616480D02*
X378531D01*
X374988Y616480D02*
X374989Y616480D01*
X374988Y614315D02*
Y616480D01*
Y618646D01*
X363981Y616480D02*
X374988D01*
X359500Y612000D02*
X363981Y616480D01*
X359500Y604000D02*
Y612000D01*
X352547Y564953D02*
Y586165D01*
X406500Y544000D02*
Y549500D01*
X366500Y604000D02*
X372035Y598465D01*
X359500Y604000D02*
X366500D01*
X372035Y589709D02*
Y598465D01*
X367705Y589709D02*
Y593795D01*
X363374Y589709D02*
Y592626D01*
X361500Y594500D02*
X363374Y592626D01*
X358500Y594500D02*
X361500D01*
X395000Y586000D02*
X400500D01*
X378531Y590496D02*
X387004D01*
X389000Y588500D01*
Y586000D02*
Y588500D01*
X359043Y570957D02*
Y589709D01*
Y570957D02*
X366000Y564000D01*
X361209Y579291D02*
Y586165D01*
X365539Y579461D02*
Y586165D01*
X369870Y578630D02*
Y586165D01*
X374201Y582299D02*
X377500Y579000D01*
X380500D01*
X302000Y571500D02*
Y586000D01*
X318150Y612150D02*
X343886D01*
X281000Y589000D02*
X286000D01*
X278500Y586500D02*
X281000Y589000D01*
X156000Y437000D02*
Y440000D01*
Y437000D02*
X161500Y431500D01*
X169000D01*
X176000D01*
X162500Y440000D02*
X165000Y437500D01*
X162500Y440000D02*
Y448000D01*
X165000Y437500D02*
X169000D01*
X176000D01*
X375263Y558500D02*
X388050Y545713D01*
X381650Y529603D02*
Y542087D01*
X326000Y475500D02*
Y481000D01*
X350142Y468700D02*
Y471358D01*
X348000Y473500D02*
X350142Y471358D01*
X348000Y473500D02*
Y490000D01*
X354079Y468700D02*
Y489921D01*
Y468700D02*
X356047D01*
X309000Y560000D02*
Y581000D01*
X484500Y183500D02*
X490500Y177500D01*
X465000Y183500D02*
X484500D01*
X457000Y191500D02*
X465000Y183500D01*
X457000Y191500D02*
Y289000D01*
X462500Y294500D01*
X480500D01*
X490500Y164799D02*
Y177500D01*
X374988Y609984D02*
X510016D01*
X495205Y593795D02*
X502831Y586169D01*
X460295Y593795D02*
X495205D01*
X466000Y590500D02*
X491288D01*
X449500D02*
X453000Y587000D01*
X444000Y590500D02*
X449500D01*
X369870Y578630D02*
X374000Y574500D01*
X403500D01*
X598000Y596000D02*
X601500Y592500D01*
Y553500D02*
Y592500D01*
X598933Y550933D02*
X601500Y553500D01*
X589000Y550933D02*
X598933D01*
X589000Y596000D02*
X598000D01*
X589500Y581839D02*
X601339D01*
X561953Y355547D02*
X570110D01*
X559000Y358500D02*
X561953Y355547D01*
X559000Y389500D02*
X571240Y401740D01*
Y419685D02*
Y423260D01*
X569000Y425500D02*
X571240Y423260D01*
X565000Y425500D02*
X569000D01*
X563760Y426740D02*
X565000Y425500D01*
X563760Y426740D02*
Y430315D01*
X571240Y401740D02*
Y419685D01*
Y430315D02*
Y438260D01*
X570000Y439500D02*
X571240Y438260D01*
X558000Y439500D02*
X565500D01*
X570000D01*
X550197Y419685D02*
X563760D01*
X564000Y410000D02*
Y413000D01*
X567500Y416500D01*
Y419685D01*
X538500Y430500D02*
X549988D01*
X562500Y505000D02*
Y513260D01*
X566240Y513260D02*
X573740D01*
X576500Y510500D01*
Y491000D02*
Y510500D01*
X575000Y489500D02*
X576500Y491000D01*
X562500Y489500D02*
X570500D01*
X575000D01*
X562500Y495500D02*
Y505000D01*
X559000Y384500D02*
Y389500D01*
X504201Y543299D02*
X509000Y538500D01*
X550000D01*
X443500Y521000D02*
Y543299D01*
X257500Y424500D02*
X262500Y419500D01*
X278500Y552000D02*
Y586500D01*
X286500Y550000D02*
X292500Y556000D01*
X305000D01*
X309000Y560000D01*
X298000Y543500D02*
X315000D01*
X443500Y543299D02*
X504201D01*
X222000Y156000D02*
Y183500D01*
X249500Y211000D01*
X250292Y146208D02*
X253000Y143500D01*
X250292Y146208D02*
Y152201D01*
X327292Y143792D02*
Y152201D01*
X400792Y143708D02*
Y152201D01*
X477792Y143500D02*
Y152201D01*
X253000Y143500D02*
X477792D01*
X197000Y420500D02*
X205372D01*
X550000Y445500D02*
X558000D01*
X550000Y430512D02*
Y445500D01*
X336000Y558500D02*
X342000Y552500D01*
X317799Y531201D02*
X333500D01*
X315000Y534000D02*
Y538000D01*
Y534000D02*
X317799Y531201D01*
X336000Y558500D02*
Y586949D01*
X338000Y559500D02*
Y586686D01*
X341810Y590496D01*
X343886D01*
X374988Y596992D02*
X426008D01*
X309000Y581000D02*
X312000Y584000D01*
X335319Y607819D02*
X343886D01*
X315500Y601500D02*
X323984Y609984D01*
X347429D01*
X309500Y588500D02*
X321000D01*
X312000Y584000D02*
X320000D01*
X339488Y603488D02*
X343886D01*
X247000Y414500D02*
X257500D01*
X241201Y420299D02*
X247000Y414500D01*
X216500Y420000D02*
X224566D01*
X224865Y420299D02*
X241201D01*
X190000Y238500D02*
Y245500D01*
X171732Y245232D02*
X183732D01*
X213000Y260500D02*
Y267000D01*
X194732Y266732D02*
X206732D01*
X218732Y245732D02*
X230232D01*
X237000Y239500D02*
Y246500D01*
X195232Y223232D02*
X207232D01*
X213500Y216500D02*
Y223500D01*
X535732Y234732D02*
X547732D01*
X554000Y228000D02*
Y235000D01*
Y227500D02*
X555000Y228500D01*
X554000Y222500D02*
Y227500D01*
X213500Y216000D02*
X214500Y217000D01*
X213500Y211500D02*
Y216000D01*
X190000Y238000D02*
X191000Y239000D01*
X190000Y233500D02*
Y238000D01*
X213000Y259500D02*
X214000Y260500D01*
X213000Y254500D02*
Y259500D01*
X237000Y238500D02*
X238000Y239500D01*
X237000Y233500D02*
Y238500D01*
X200500Y260000D02*
X207000D01*
X198768Y258268D02*
X200500Y260000D01*
X201000Y216500D02*
X207500D01*
X199268Y214768D02*
X201000Y216500D01*
X177500Y238500D02*
X184000D01*
X175768Y236768D02*
X177500Y238500D01*
X541500Y228000D02*
X548000D01*
X539768Y226268D02*
X541500Y228000D01*
X291000Y569000D02*
X299500D01*
X302000Y571500D01*
X305500Y594500D02*
Y599500D01*
X318150Y612150D01*
X315500Y595000D02*
Y601500D01*
X302000Y586000D02*
X307500Y591500D01*
X319000D01*
X335319Y607819D01*
X570500Y495500D02*
Y500000D01*
Y504500D01*
X413500Y164799D02*
X428701D01*
X584331Y586169D02*
X589500D01*
X583992Y577508D02*
X589500D01*
X491288Y590500D02*
X498788Y583000D01*
X583823Y573177D02*
X589500D01*
X584331Y586169D02*
Y601169D01*
X582000Y579500D02*
X583992Y577508D01*
X580000Y577000D02*
X583823Y573177D01*
X582000Y579500D02*
Y601000D01*
X584154Y568847D02*
X589500D01*
X578400Y574600D02*
X584154Y568847D01*
X580000Y577000D02*
Y599000D01*
X578400Y574600D02*
Y597600D01*
X582984Y564516D02*
X589500D01*
X576800Y570700D02*
X582984Y564516D01*
X579000Y606500D02*
X584331Y601169D01*
X532300Y601300D02*
X537500Y606500D01*
X578100Y604900D02*
X582000Y601000D01*
X533900Y599637D02*
X539163Y604900D01*
X575700Y603300D02*
X580000Y599000D01*
X535500Y598000D02*
X540800Y603300D01*
X574500Y601500D02*
X578400Y597600D01*
X537500Y606500D02*
X579000D01*
X539163Y604900D02*
X578100D01*
X540800Y603300D02*
X575700D01*
X543000Y601500D02*
X574500D01*
X576800Y570700D02*
Y596700D01*
X573600Y599900D02*
X576800Y596700D01*
X544900Y599900D02*
X573600D01*
X453000Y587000D02*
X487500D01*
X498500Y576000D01*
X550000Y538500D02*
X556000D01*
X286500Y530000D02*
X294500D01*
X286500Y513500D02*
Y524000D01*
Y530000D02*
Y550000D01*
X378531Y594827D02*
X424673D01*
X374988Y592661D02*
X422339D01*
X267500Y434500D02*
X271500Y430500D01*
X341420Y599157D02*
X343886D01*
X329500Y545000D02*
Y587237D01*
X341615Y594827D02*
X343886D01*
X310000Y507000D02*
X321000D01*
X388050Y525762D02*
Y545713D01*
X386450Y526425D02*
Y545050D01*
X384850Y527087D02*
Y544150D01*
X383250Y527750D02*
Y542750D01*
X361953Y468700D02*
Y504190D01*
X384850Y527087D01*
X338000Y559500D02*
X342500Y555000D01*
X352547Y564953D02*
X359000Y558500D01*
X375263D01*
X354713Y565787D02*
Y589709D01*
X372837Y550900D02*
X381650Y542087D01*
X340100Y550900D02*
X372837D01*
X373500Y552500D02*
X383250Y542750D01*
X342000Y552500D02*
X373500D01*
X374000Y555000D02*
X384850Y544150D01*
X374900Y556600D02*
X386450Y545050D01*
X342500Y555000D02*
X374000D01*
X357400Y556600D02*
X374900D01*
X350382Y563618D02*
X357400Y556600D01*
X350382Y563618D02*
Y589709D01*
X356878Y566622D02*
Y586165D01*
Y566622D02*
X361800Y561700D01*
X363921Y503896D02*
X386450Y526425D01*
X365890Y503602D02*
X388050Y525762D01*
X363921Y468700D02*
Y503896D01*
X365890Y468700D02*
Y503602D01*
X176000Y437500D02*
X203000D01*
X244500Y442000D02*
Y485000D01*
X249500Y490000D01*
X312000D01*
X245500Y431500D02*
X248500Y434500D01*
X242000Y439500D02*
X244500Y442000D01*
X203000Y437500D02*
X205000Y439500D01*
X311815Y614315D02*
X347429D01*
X207500Y583500D02*
X218500D01*
X224500D02*
X232000D01*
X243000D01*
X317000Y580500D02*
X320500D01*
X361209Y579291D02*
X370500Y570000D01*
X365539Y579461D02*
X373400Y571600D01*
X370500Y570000D02*
X422500D01*
X373400Y571600D02*
X408600D01*
X417000Y580000D02*
X422000D01*
X408600Y571600D02*
X417000Y580000D01*
X486000Y583500D02*
X496500Y573000D01*
X481000Y583500D02*
X486000D01*
X532000Y505500D02*
Y510500D01*
Y505500D02*
X537500Y500000D01*
X542000D01*
X353047Y501000D02*
X381650Y529603D01*
X359984Y468700D02*
Y504484D01*
X383250Y527750D01*
X367858Y468700D02*
Y488858D01*
X262500Y419500D02*
X422000D01*
X267500Y424500D02*
X420000D01*
X271500Y430500D02*
X418000D01*
X422000Y419500D02*
X438500Y436000D01*
Y584500D01*
X426008Y596992D02*
X438500Y584500D01*
X420000Y424500D02*
X435500Y440000D01*
Y584000D01*
X424673Y594827D02*
X435500Y584000D01*
X418000Y430500D02*
X432500Y445000D01*
Y582500D01*
X422339Y592661D02*
X432500Y582500D01*
X354713Y565787D02*
X360400Y560100D01*
X375925D01*
X389650Y546376D01*
X361800Y561700D02*
X376588D01*
X377000Y564000D02*
X393500Y547500D01*
X366000Y564000D02*
X377000D01*
X391250Y512750D02*
Y547038D01*
X376588Y561700D02*
X391250Y547038D01*
X376500Y498000D02*
X391250Y512750D01*
X375000Y504500D02*
X389650Y519150D01*
Y546376D01*
X367858Y488858D02*
X372000Y493000D01*
X380000D01*
X393500Y506500D01*
Y547500D01*
X295000Y584000D02*
X296000Y585000D01*
Y604500D01*
X307980Y616480D01*
X299500Y602000D02*
X311815Y614315D01*
X298000Y574000D02*
Y579000D01*
X299500Y580500D01*
Y602000D01*
X487000Y575000D02*
X493500Y568500D01*
X535000D02*
X540000Y563500D01*
Y554500D02*
Y563500D01*
Y554500D02*
X543000Y551500D01*
X546976D01*
X475500Y575000D02*
X487000D01*
X493500Y568500D02*
X535000D01*
X248500Y434500D02*
Y478500D01*
X253500Y483500D01*
X312000D01*
X261500Y544000D02*
Y552000D01*
X278500D01*
X244000Y544000D02*
X261500D01*
X242000Y542000D02*
X244000Y544000D01*
X205000Y439500D02*
X242000D01*
X176000Y431500D02*
X245500D01*
X242000Y526500D02*
Y542000D01*
X321000Y507000D02*
X338000Y524000D01*
Y536500D01*
X329500Y545000D02*
X338000Y536500D01*
X332000Y547500D02*
Y587474D01*
Y547500D02*
X341100Y538400D01*
X314500Y503000D02*
X321500D01*
X341100Y522600D01*
Y538400D01*
X510016Y609984D02*
X529000Y591000D01*
X535500Y582000D02*
Y598000D01*
X533900Y588637D02*
Y599637D01*
X498788Y583000D02*
X528263D01*
X532300Y589300D02*
Y601300D01*
X502831Y586169D02*
X529169D01*
X528263Y583000D02*
X533900Y588637D01*
X529169Y586169D02*
X532300Y589300D01*
X541500Y596500D02*
X544900Y599900D01*
X539000Y597500D02*
X543000Y601500D01*
X541500Y576500D02*
Y596500D01*
X496500Y573000D02*
X538000D01*
X541500Y576500D01*
X539000Y579000D02*
Y597500D01*
X498500Y576000D02*
X536000D01*
X539000Y579000D01*
X509000Y150500D02*
Y193000D01*
X502000Y143500D02*
X509000Y150500D01*
X477792Y143500D02*
X502000D01*
X354000Y441500D02*
Y468621D01*
X352110Y464610D02*
Y468700D01*
X350500Y463000D02*
X352110Y464610D01*
X332000Y463000D02*
X350500D01*
D49*
X551000Y350000D02*
D03*
X257500Y414500D02*
D03*
D50*
X551000Y360000D02*
D03*
Y370000D02*
D03*
X267500Y414500D02*
D03*
X257500Y424500D02*
D03*
X267500D02*
D03*
X257500Y434500D02*
D03*
X267500D02*
D03*
X257500Y444500D02*
D03*
X267500D02*
D03*
X455000Y480000D02*
D03*
X465000Y490000D02*
D03*
Y480000D02*
D03*
X197500Y583500D02*
D03*
D51*
X577000Y364406D02*
D03*
Y352594D02*
D03*
X286500Y463500D02*
D03*
Y513500D02*
D03*
D52*
X455000Y490000D02*
D03*
X207500Y583500D02*
D03*
D53*
X249500Y135000D02*
D03*
D54*
Y188000D02*
D03*
X463118Y210661D02*
D03*
Y261055D02*
D03*
D55*
X291000Y569000D02*
D03*
X286000Y569000D02*
D03*
X291000Y574000D02*
D03*
X286000D02*
D03*
X291000Y579000D02*
D03*
X286000D02*
D03*
X291000Y584000D02*
D03*
X286000Y584000D02*
D03*
X291000Y589000D02*
D03*
D56*
X286000D02*
D03*
D57*
X490000Y485000D02*
D03*
X490500Y164799D02*
D03*
X457799Y152201D02*
D03*
X380799D02*
D03*
X307299D02*
D03*
X340000Y164799D02*
D03*
X231000Y152201D02*
D03*
X263000Y164799D02*
D03*
X231000D02*
D03*
X308000D02*
D03*
X381500D02*
D03*
X458500D02*
D03*
X477792Y152201D02*
D03*
X400792D02*
D03*
X327292D02*
D03*
X250292D02*
D03*
X343886Y581114D02*
D03*
X309500Y588500D02*
D03*
X519500Y591500D02*
D03*
X513000Y590500D02*
D03*
X195232Y214768D02*
D03*
X171232Y236768D02*
D03*
X194732Y258268D02*
D03*
X218732Y237268D02*
D03*
X535732Y226268D02*
D03*
X249500Y276500D02*
D03*
X535732Y234732D02*
D03*
X194732Y266732D02*
D03*
X171732Y245232D02*
D03*
X195232Y223232D02*
D03*
X218732Y245732D02*
D03*
X205854Y400646D02*
D03*
X225000Y388000D02*
D03*
Y346500D02*
D03*
X205854Y359146D02*
D03*
X248000Y304500D02*
D03*
X228854Y317146D02*
D03*
X499500Y308000D02*
D03*
X480354Y320646D02*
D03*
X519000Y343500D02*
D03*
X499854Y356146D02*
D03*
X519000Y387000D02*
D03*
X499854Y399646D02*
D03*
X280000Y531201D02*
D03*
X333500D02*
D03*
X346500Y543299D02*
D03*
X425000Y531201D02*
D03*
X443500Y543299D02*
D03*
X476646Y530701D02*
D03*
X443500Y521000D02*
D03*
X359500Y604000D02*
D03*
X406500Y549500D02*
D03*
X367705Y593795D02*
D03*
X358500Y594500D02*
D03*
X400500Y586000D02*
D03*
X380500Y579000D02*
D03*
X162500Y448000D02*
D03*
X156000Y440000D02*
D03*
X367000Y530701D02*
D03*
X480500Y294500D02*
D03*
X460295Y593795D02*
D03*
X444000Y590500D02*
D03*
X422500Y570000D02*
D03*
X466000Y590500D02*
D03*
X570500Y500000D02*
D03*
X550000Y495500D02*
D03*
X559000Y384500D02*
D03*
X550000Y538500D02*
D03*
X298000Y543500D02*
D03*
X197000Y420500D02*
D03*
X216500Y420000D02*
D03*
X554000Y222500D02*
D03*
X213500Y211500D02*
D03*
X190000Y233500D02*
D03*
X213000Y254500D02*
D03*
X237000Y233500D02*
D03*
X305500Y594500D02*
D03*
X315500Y595000D02*
D03*
X579500Y500000D02*
D03*
X413500Y164799D02*
D03*
X535500Y582000D02*
D03*
X310000Y507000D02*
D03*
X314500Y503000D02*
D03*
X375000Y504500D02*
D03*
X376500Y498000D02*
D03*
X312000Y490000D02*
D03*
Y483500D02*
D03*
X298000Y574000D02*
D03*
X243000Y583500D02*
D03*
X317000Y580500D02*
D03*
X273500Y584000D02*
D03*
X394000Y574500D02*
D03*
X422000Y580000D02*
D03*
X481000Y583500D02*
D03*
X475500Y575000D02*
D03*
X532000Y510500D02*
D03*
X261500Y552000D02*
D03*
X242000Y526500D02*
D03*
X278500Y552000D02*
D03*
X529000Y591000D02*
D03*
X524000Y591500D02*
D03*
X354000Y441500D02*
D03*
D58*
X484000Y498500D02*
D03*
X478000D02*
D03*
X484000Y470000D02*
D03*
X478000D02*
D03*
X354000Y490000D02*
D03*
X348000D02*
D03*
X395000Y586000D02*
D03*
X389000D02*
D03*
X213000Y267000D02*
D03*
X207000D02*
D03*
X190000Y245500D02*
D03*
X184000D02*
D03*
X237000Y246500D02*
D03*
X231000D02*
D03*
X213500Y223500D02*
D03*
X207500D02*
D03*
X554000Y235000D02*
D03*
X548000D02*
D03*
X554000Y228000D02*
D03*
X548000D02*
D03*
X213500Y216500D02*
D03*
X207500D02*
D03*
X237000Y239500D02*
D03*
X231000D02*
D03*
X190000Y238500D02*
D03*
X184000D02*
D03*
X213000Y260000D02*
D03*
X207000D02*
D03*
X224500Y583500D02*
D03*
X218500D02*
D03*
X556000Y538500D02*
D03*
X562000D02*
D03*
D59*
X457500Y462500D02*
D03*
X558500Y524500D02*
D03*
D60*
X461240Y462500D02*
D03*
X464980D02*
D03*
Y451476D02*
D03*
X457500Y451476D02*
D03*
X461240Y451476D02*
D03*
X562240Y524500D02*
D03*
X565980D02*
D03*
Y513476D02*
D03*
X558500Y513476D02*
D03*
X562240Y513476D02*
D03*
D61*
X445500Y466000D02*
D03*
Y458500D02*
D03*
X538500Y423000D02*
D03*
X538500Y430500D02*
D03*
X542000Y500000D02*
D03*
X542000Y492500D02*
D03*
D62*
X533500Y105000D02*
D03*
X528500Y658500D02*
D03*
X186000Y105000D02*
D03*
D63*
X318913Y471760D02*
D03*
X326000Y468020D02*
D03*
Y475500D02*
D03*
D64*
X341087Y458070D02*
D03*
X376913D02*
D03*
D65*
X358016Y468700D02*
D03*
X356047D02*
D03*
X354079D02*
D03*
X352110D02*
D03*
X350142D02*
D03*
X367858D02*
D03*
X365890D02*
D03*
X363921D02*
D03*
X361953D02*
D03*
X359984D02*
D03*
D66*
X378531Y586165D02*
D03*
Y620811D02*
D03*
X374988Y618646D02*
D03*
X378531Y616480D02*
D03*
X374988Y614315D02*
D03*
X378531Y612150D02*
D03*
X374988Y609984D02*
D03*
X378531Y607819D02*
D03*
X374988Y605654D02*
D03*
X378531Y603488D02*
D03*
X374988Y601323D02*
D03*
X378531Y599157D02*
D03*
X374988Y596992D02*
D03*
X378531Y594827D02*
D03*
X374988Y592661D02*
D03*
X378531Y590496D02*
D03*
X374201Y586165D02*
D03*
X372035Y589709D02*
D03*
X369870Y586165D02*
D03*
X367705Y589709D02*
D03*
X365539Y586165D02*
D03*
X363374Y589709D02*
D03*
X361209Y586165D02*
D03*
X359043Y589709D02*
D03*
X356878Y586165D02*
D03*
X354713Y589709D02*
D03*
X352547Y586165D02*
D03*
X350382Y589709D02*
D03*
X348217Y586165D02*
D03*
X343886Y590496D02*
D03*
Y586165D02*
D03*
X347429Y592661D02*
D03*
X343886Y594827D02*
D03*
X347429Y596992D02*
D03*
X343886Y599157D02*
D03*
X347429Y601323D02*
D03*
X343886Y603488D02*
D03*
X347429Y605654D02*
D03*
X343886Y607819D02*
D03*
X347429Y609984D02*
D03*
X343886Y612150D02*
D03*
X347429Y614315D02*
D03*
X343886Y616480D02*
D03*
X347429Y618646D02*
D03*
X343886Y620811D02*
D03*
X354713D02*
D03*
X367705D02*
D03*
D67*
X559031Y596000D02*
D03*
Y550000D02*
D03*
D68*
X589500Y560185D02*
D03*
Y586169D02*
D03*
Y581839D02*
D03*
Y577508D02*
D03*
Y573177D02*
D03*
Y568847D02*
D03*
Y564516D02*
D03*
Y590500D02*
D03*
D69*
X589000Y595224D02*
D03*
Y550933D02*
D03*
D70*
X553126Y594500D02*
D03*
D71*
X546976Y551500D02*
D03*
D72*
X570110Y367358D02*
D03*
Y349642D02*
D03*
Y355547D02*
D03*
D73*
X550000Y430512D02*
D03*
Y419488D02*
D03*
D74*
X564000Y410000D02*
D03*
X571500D02*
D03*
X562500Y505000D02*
D03*
X570000D02*
D03*
D75*
X544500Y524161D02*
D03*
X544500Y515500D02*
D03*
D76*
X571240Y419685D02*
D03*
X567500D02*
D03*
X563760D02*
D03*
Y430315D02*
D03*
X571240D02*
D03*
D77*
X249500Y135000D02*
X510000D01*
X517500Y142500D01*
Y171500D01*
X465118Y261055D02*
X570055D01*
X570110Y224110D02*
Y349642D01*
X517500Y171500D02*
X570110Y224110D01*
M02*
