G04 Layer_Physical_Order=1*
G04 Layer_Color=255*
%FSLAX25Y25*%
%MOIN*%
G70*
G01*
G75*
%ADD10C,0.00600*%
%ADD11R,0.03500X0.03500*%
%ADD12R,0.04134X0.02559*%
%ADD13R,0.05906X0.03937*%
%ADD14C,0.01000*%
%ADD15C,0.00800*%
%ADD16R,0.33304X0.18634*%
%ADD17R,0.31757X0.06743*%
%ADD18R,0.41500X0.11000*%
%ADD19R,0.21000X0.07500*%
%ADD20R,0.32279X0.24334*%
%ADD21R,0.11053X0.23035*%
%ADD22R,0.15500X0.26500*%
%ADD23R,0.28000X0.23500*%
%ADD24R,0.31757X0.24500*%
%ADD25R,0.05500X0.13500*%
%ADD26R,0.48617X0.00736*%
%ADD27R,0.31647X3.71680*%
%ADD28R,0.30282X0.58000*%
%ADD29R,0.31944X3.65051*%
%ADD30R,0.68304X0.40000*%
%ADD31R,0.63489X0.08000*%
%ADD32R,0.41500X0.12135*%
%ADD33R,0.02427X0.57635*%
%ADD34R,0.25666X0.25671*%
%ADD35R,0.27859X0.27171*%
%ADD36R,0.25219X0.25000*%
%ADD37R,2.00847X0.26513*%
%ADD38R,2.72777X0.05671*%
%ADD39R,0.03501X0.37546*%
%ADD40R,0.22437X0.38201*%
%ADD41R,0.05830X0.36112*%
%ADD42R,0.21000X0.39000*%
%ADD43R,0.41855X0.52514*%
%ADD44R,2.46500X0.09000*%
%ADD45R,0.45000X0.52500*%
%ADD46R,1.09500X0.08000*%
%ADD47R,0.05906X0.05906*%
%ADD48C,0.05906*%
%ADD49R,0.03600X0.03600*%
%ADD50C,0.03600*%
%ADD51C,0.03543*%
%ADD52C,0.09000*%
%ADD53C,0.07500*%
%ADD54P,0.08352X4X90.0*%
%ADD55R,0.05906X0.05906*%
%ADD56C,0.03100*%
G36*
X260719Y170738D02*
X260653Y170671D01*
X224723D01*
Y177987D01*
X224937Y178201D01*
X235000Y179000D01*
X235500Y179500D01*
X237000D01*
X237512Y180012D01*
X239012D01*
X239500Y180500D01*
X240000D01*
Y180439D01*
X240897Y181013D01*
X242419Y181657D01*
X243068D01*
X244178Y182766D01*
X245121D01*
X246127Y183772D01*
X246822D01*
X248318Y185268D01*
X249091D01*
X250788Y186965D01*
X251485D01*
X254521Y190000D01*
X255000D01*
Y190381D01*
X257324Y192705D01*
Y192920D01*
X258808Y194403D01*
Y194918D01*
X260719Y196829D01*
Y170738D01*
D02*
G37*
G36*
X518705Y178500D02*
X500677D01*
X501592Y179415D01*
X504840D01*
X505283Y179858D01*
X507295D01*
X507939Y180502D01*
X509973D01*
X510328Y180856D01*
X518705Y184098D01*
Y178500D01*
D02*
G37*
G36*
X581908Y218908D02*
X582500Y218000D01*
X584908Y205908D01*
X585500Y198504D01*
Y199000D01*
X613716Y199339D01*
Y199126D01*
X613426Y198835D01*
Y196912D01*
X612676Y196162D01*
Y194823D01*
X612200Y194347D01*
Y193439D01*
X611296Y192536D01*
Y191484D01*
X610107Y190295D01*
Y189389D01*
X609066Y188348D01*
Y187594D01*
X607167Y185695D01*
Y185098D01*
X603701Y181632D01*
Y181379D01*
X603532D01*
X599878Y177726D01*
X599572D01*
X598987Y177141D01*
X598723D01*
X597560Y175978D01*
X597107D01*
X595957Y174829D01*
X595383D01*
X594363Y173809D01*
X593811D01*
X592918Y172916D01*
X592280D01*
X591402Y172038D01*
X590478D01*
X589195Y170755D01*
X588123D01*
X587705Y170336D01*
X587598Y170443D01*
X587612Y170244D01*
X581000Y167476D01*
X580343D01*
X579611Y166744D01*
X577935D01*
X577062Y165871D01*
X575622D01*
X575000Y165249D01*
X573131D01*
X572538Y164656D01*
X570860D01*
X570190Y163986D01*
X568399D01*
X568082Y163669D01*
X566951D01*
X566450Y163168D01*
X564061D01*
X563507Y162615D01*
X560498D01*
X559999Y162116D01*
X557223D01*
X556647Y161539D01*
X552655D01*
X552136Y161020D01*
X548358D01*
Y161016D01*
X547797D01*
X547659Y160879D01*
X547522Y161016D01*
X546657D01*
X546527Y160886D01*
X546449Y160965D01*
X544500D01*
X537459Y184253D01*
X538173Y184365D01*
X541516Y184883D01*
X542043Y185410D01*
X543346D01*
X543788Y185852D01*
X544779D01*
X545315Y186388D01*
X546631D01*
Y186559D01*
X546960D01*
X547238Y186838D01*
X547486Y186590D01*
X548359Y187463D01*
X549516D01*
X550218Y188164D01*
X551371D01*
X552157Y188951D01*
X553135D01*
X554324Y190140D01*
X555444D01*
X556447Y191143D01*
X557383D01*
X558487Y192247D01*
X559395D01*
X560817Y193669D01*
X561832D01*
X563171Y195009D01*
X563997D01*
X565453Y196464D01*
X566105D01*
X567741Y198100D01*
X568448D01*
X569919Y199571D01*
X570049D01*
X571524Y201046D01*
Y201170D01*
X573112Y202757D01*
Y203165D01*
X574425Y204478D01*
Y205166D01*
X575749Y206490D01*
Y207254D01*
X576881Y208386D01*
Y209190D01*
X577780Y210089D01*
Y211143D01*
X578598Y211962D01*
Y213369D01*
X579523Y214294D01*
Y215701D01*
X579881Y216059D01*
X580785Y219043D01*
X581772D01*
X581908Y218908D01*
D02*
G37*
G36*
X491500Y356146D02*
X490000Y354292D01*
Y358292D01*
X491500Y356146D01*
D02*
G37*
G36*
X136527Y221473D02*
X138089D01*
Y219379D01*
X139000Y218468D01*
Y217173D01*
X139681Y216492D01*
Y215290D01*
X140293Y214678D01*
Y213379D01*
X141113Y212559D01*
Y211581D01*
X141688Y211006D01*
Y210231D01*
X142470Y209450D01*
Y208782D01*
X143185Y208067D01*
Y207302D01*
X144061Y206426D01*
Y205966D01*
X144689Y205338D01*
Y204949D01*
X145583Y204055D01*
Y203747D01*
X146443Y202887D01*
Y202677D01*
X146945Y202176D01*
Y202138D01*
X147516Y201567D01*
Y201457D01*
X149780Y199193D01*
X149924D01*
Y198076D01*
X149500Y198500D01*
X134500D01*
X136500Y221500D01*
X136527Y221473D01*
D02*
G37*
G36*
X543402Y160707D02*
X543179Y160485D01*
X533236D01*
X533216Y160465D01*
X533448Y160965D01*
X543144D01*
X543402Y160707D01*
D02*
G37*
G36*
X152090Y197359D02*
X152833D01*
X153952Y196241D01*
X154688D01*
X155995Y194934D01*
X156762D01*
X157499Y194196D01*
X157849D01*
X158552Y193493D01*
X159086D01*
X159971Y192607D01*
X160698D01*
X161325Y191981D01*
X162161D01*
X162947Y191195D01*
X163798D01*
X164705Y190288D01*
X165306D01*
X165561Y190032D01*
X165728D01*
X165977Y189782D01*
X166363D01*
X166684Y189461D01*
X167072D01*
X167380Y189153D01*
X167769D01*
X168210Y188712D01*
X168988D01*
X169535Y188165D01*
X170313D01*
X170934Y187545D01*
X171903D01*
X172457Y186991D01*
X173717D01*
X174388Y186320D01*
X175514D01*
X176000Y185835D01*
X177552D01*
X178139Y185249D01*
X179649D01*
X180068Y184829D01*
X181196D01*
X181503Y184522D01*
X182955D01*
X183202Y184275D01*
X184947D01*
X185124Y184098D01*
X186196D01*
Y159916D01*
X186073Y159792D01*
X168186Y160597D01*
X168101Y160682D01*
X166277D01*
X165999Y160959D01*
X165367D01*
X165301Y160894D01*
X165170Y161025D01*
X163196D01*
X162914Y161307D01*
X161023D01*
X160715Y161614D01*
X158905D01*
X158573Y161947D01*
X157268D01*
X157092Y162123D01*
X155833D01*
X155463Y162492D01*
X153851D01*
X153358Y162986D01*
X151450D01*
X151030Y163406D01*
X150094D01*
X150000Y163500D01*
X165236D01*
Y190000D01*
X150000D01*
Y199000D01*
X150449D01*
X152090Y197359D01*
D02*
G37*
G36*
X122000Y175500D02*
X150000D01*
Y163475D01*
X149169D01*
X148684Y163961D01*
X147332D01*
X146865Y164427D01*
X145275D01*
X144665Y165038D01*
X143183D01*
X142412Y165809D01*
X140859D01*
X140323Y166344D01*
X139306D01*
X138754Y166896D01*
X137799D01*
X137232Y167463D01*
X136339D01*
X135560Y168243D01*
X134463D01*
X133761Y168945D01*
X132768D01*
X131840Y169872D01*
X130947D01*
X130314Y170505D01*
X129707D01*
X129063Y171149D01*
X128509D01*
X127635Y172022D01*
X126824D01*
X125710Y173136D01*
X125158D01*
X124423Y173871D01*
X123981D01*
X123123Y174729D01*
X122867D01*
X122290Y175305D01*
X122173D01*
Y175327D01*
X122000Y175500D01*
X121615Y175885D01*
X121117D01*
X118773Y178229D01*
X118467D01*
Y178249D01*
X113323Y183393D01*
Y183609D01*
X112355Y184578D01*
Y184894D01*
X111352Y185897D01*
Y186160D01*
X110743Y186769D01*
Y187065D01*
X109914Y187894D01*
Y188565D01*
X109181Y189298D01*
Y189856D01*
X108391Y190646D01*
Y191340D01*
X107651Y192079D01*
Y193059D01*
X107140Y193570D01*
Y194244D01*
X106583Y194800D01*
Y195919D01*
X106096Y196407D01*
Y197912D01*
X105743Y198265D01*
Y199000D01*
X122000D01*
Y175500D01*
D02*
G37*
G36*
X207549Y182000D02*
X207839D01*
X208517Y181322D01*
X209474D01*
X210041Y180755D01*
X211453D01*
X212075Y180132D01*
X213537D01*
X214066Y179603D01*
X215728D01*
X216148Y179183D01*
X217312D01*
X217669Y178825D01*
X218856D01*
X219198Y178483D01*
X222380D01*
X222538Y178325D01*
X221760Y177546D01*
X202386D01*
Y185139D01*
X207549Y182000D01*
D02*
G37*
G36*
X464136Y194661D02*
Y194613D01*
X464249D01*
X468361Y190500D01*
X469163D01*
X471265Y188399D01*
X471954D01*
X473373Y186980D01*
X474054D01*
X475210Y185824D01*
X475947D01*
X477227Y184543D01*
X478286D01*
X479402Y183427D01*
X480637D01*
X481668Y182397D01*
X483123D01*
X483827Y181692D01*
X485170D01*
X486054Y180808D01*
X487669D01*
X488146Y180331D01*
X488824D01*
X497500Y179000D01*
X497636Y178864D01*
Y170671D01*
X460829D01*
X460000Y171500D01*
X461000Y172500D01*
Y197292D01*
X461505D01*
X464136Y194661D01*
D02*
G37*
G36*
X491500Y399500D02*
X490000Y397646D01*
Y401646D01*
X491500Y399500D01*
D02*
G37*
G36*
X121000Y634000D02*
Y621500D01*
X117979Y602521D01*
X110500Y594000D01*
X105743D01*
Y595167D01*
X105764Y596981D01*
X105829Y597045D01*
Y600219D01*
X106017Y600407D01*
Y604664D01*
X106471Y605118D01*
Y608523D01*
X106722Y608774D01*
Y611029D01*
X107245Y611552D01*
Y614069D01*
X107589Y614413D01*
Y616358D01*
X108266Y617035D01*
Y619190D01*
X108695Y619619D01*
Y621270D01*
X109271Y621846D01*
Y623075D01*
X109891Y623695D01*
Y625118D01*
X110552Y625779D01*
Y627081D01*
X111109Y627639D01*
Y628595D01*
X111741Y629227D01*
Y630039D01*
X112142Y630441D01*
Y631258D01*
X112764Y631880D01*
Y632386D01*
X113407Y633029D01*
Y633949D01*
X114296Y634838D01*
Y635451D01*
X115219Y636374D01*
Y636922D01*
X115455Y637158D01*
Y637527D01*
X116357Y638429D01*
Y638968D01*
X116972Y639583D01*
Y639891D01*
X117979Y640898D01*
X121000Y634000D01*
D02*
G37*
G36*
X172842Y600342D02*
X170803D01*
X170188Y599727D01*
X168624D01*
X168148Y599252D01*
X166650D01*
X166065Y598666D01*
X164655D01*
X164101Y598112D01*
X163053D01*
X162360Y597420D01*
X161243D01*
X160608Y596785D01*
X159789D01*
X158977Y595973D01*
X158435D01*
X157761Y595299D01*
X157226D01*
X156324Y594398D01*
X155720D01*
X154099Y592777D01*
X153730D01*
Y592730D01*
X152500Y591500D01*
X152000D01*
X150500Y590000D01*
Y589932D01*
X148568Y588000D01*
X148500D01*
Y587420D01*
X146707Y585627D01*
Y585041D01*
X144979Y583313D01*
Y582491D01*
X143857Y581370D01*
Y580300D01*
X142943Y579386D01*
Y578780D01*
X142594Y578431D01*
Y578215D01*
X141785D01*
X141500Y578500D01*
X142500Y591500D01*
X152000D01*
Y601000D01*
X173500D01*
X172842Y600342D01*
D02*
G37*
G36*
X528427Y599000D02*
X527500Y598629D01*
X526344Y597986D01*
X526000Y601000D01*
X528427D01*
Y599000D01*
D02*
G37*
G36*
X153507Y658812D02*
X153500Y641000D01*
X153310Y641190D01*
X117979D01*
Y641456D01*
X119600Y643078D01*
Y643401D01*
X121071Y644872D01*
Y645068D01*
X122231Y646228D01*
X123719Y647745D01*
X123859D01*
X125867Y649753D01*
X126253D01*
X127500Y651000D01*
X128000D01*
X129500Y652500D01*
X130500D01*
X132000Y654000D01*
X133000D01*
X134000Y655000D01*
X134818D01*
X135318Y655500D01*
X136290D01*
X136653Y655863D01*
X139906Y656999D01*
X140499D01*
X141120Y657620D01*
X143120D01*
X143500Y658000D01*
X145000D01*
X145539Y658539D01*
X147995D01*
X148227Y658770D01*
X150343D01*
X150423Y658850D01*
X153469D01*
X153507Y658812D01*
D02*
G37*
G36*
X193431Y650931D02*
Y600069D01*
X193500Y600000D01*
X193000Y599500D01*
Y598005D01*
X191854Y600069D01*
X192000Y651000D01*
X193500D01*
X193431Y650931D01*
D02*
G37*
G36*
X346500Y550500D02*
X344646Y552000D01*
X348646D01*
X346500Y550500D01*
D02*
G37*
G36*
X307854D02*
X306000Y552000D01*
X310000D01*
X307854Y550500D01*
D02*
G37*
G36*
X382354Y552000D02*
X378354D01*
X380500Y553500D01*
X382354Y552000D01*
D02*
G37*
G36*
X567957Y658568D02*
X569578D01*
X569625Y658522D01*
X570796D01*
X571134Y658184D01*
X573844D01*
X574528Y657500D01*
X577000D01*
X577500Y657000D01*
X579000D01*
X579500Y656500D01*
X580382D01*
X580882Y656000D01*
X581965D01*
X582465Y655500D01*
X583486D01*
X584486Y654500D01*
X585536D01*
X586536Y653500D01*
X587500D01*
X588000Y653000D01*
X588500D01*
X589500Y652000D01*
X590000D01*
X591000Y651000D01*
X591500D01*
X593000Y649500D01*
X593500D01*
X595458Y647542D01*
Y647536D01*
X595499D01*
X596978Y646057D01*
Y645975D01*
X598736Y644217D01*
Y643969D01*
X600119Y642586D01*
Y642358D01*
X600893Y641584D01*
Y641318D01*
X601654Y640557D01*
Y640115D01*
X602584Y639185D01*
Y638677D01*
X603786Y637476D01*
Y636697D01*
X604770Y635713D01*
Y634935D01*
X605661Y634043D01*
Y633383D01*
X606307Y632737D01*
Y631752D01*
X606931Y631128D01*
Y630307D01*
X607730Y629509D01*
Y628383D01*
X608555Y627558D01*
Y626055D01*
X609221Y625389D01*
Y624291D01*
X609725Y623788D01*
Y622305D01*
X610259Y621771D01*
Y620163D01*
X611019Y619403D01*
Y616933D01*
X611506Y616446D01*
Y614521D01*
X612106Y613922D01*
Y611430D01*
X612473Y611062D01*
Y607896D01*
X612897Y607471D01*
Y603499D01*
X613312Y603084D01*
Y598147D01*
X613482Y597977D01*
Y595013D01*
X582128D01*
X583000Y557500D01*
X581678D01*
X581451Y557727D01*
Y560138D01*
X581119Y560469D01*
Y563401D01*
X580758Y563762D01*
Y565756D01*
X580330Y566185D01*
Y568009D01*
X579923Y568416D01*
Y569809D01*
X579377Y570355D01*
Y571880D01*
X578665Y572592D01*
Y574384D01*
X577876Y575173D01*
Y576220D01*
X577267Y576828D01*
Y577976D01*
X576579Y578664D01*
Y579270D01*
X575945Y579905D01*
Y580619D01*
X575039Y581524D01*
Y582237D01*
X574290Y582987D01*
Y583451D01*
X573139Y584602D01*
Y585188D01*
X571076Y587250D01*
Y587694D01*
X569723Y589047D01*
Y589277D01*
X568500Y590500D01*
X568000D01*
X565839Y592661D01*
X565422D01*
X563801Y594282D01*
X563197D01*
X562296Y595184D01*
X561760D01*
X561087Y595857D01*
X560545D01*
X559993Y596410D01*
X559173D01*
X557735Y597304D01*
X556710Y597501D01*
X555927Y598284D01*
X554582D01*
X554067Y598799D01*
X552619D01*
X552079Y599339D01*
X550552D01*
X550116Y599774D01*
X548533D01*
X548192Y600115D01*
X546251D01*
X546000Y600366D01*
Y601500D01*
X568956D01*
X563000Y604500D01*
Y658000D01*
X563542Y658542D01*
X567895D01*
X567939Y658586D01*
X567957Y658568D01*
D02*
G37*
G36*
X142500Y577433D02*
X141528Y576461D01*
Y574962D01*
X140750Y574184D01*
Y572601D01*
X140241Y572092D01*
Y571093D01*
X139685Y570537D01*
Y568905D01*
X139349Y568569D01*
Y567390D01*
X138899Y566940D01*
Y564357D01*
X138515Y563974D01*
Y562567D01*
X138155Y562207D01*
Y558751D01*
X137895Y558490D01*
Y557247D01*
X136753D01*
X135500Y558500D01*
X137000Y578000D01*
X142500D01*
Y577433D01*
D02*
G37*
D10*
X137688Y551100D02*
G03*
X137687Y550770I107291J-329D01*
G01*
X506041Y179858D02*
G03*
X506868Y180016I-7785J42980D01*
G01*
X506041Y179858D02*
G03*
X506868Y180016I-7785J42980D01*
G01*
X121071Y645020D02*
G03*
X120532Y644412I32748J-29551D01*
G01*
X121615Y645611D02*
G03*
X121071Y645020I31865J-29836D01*
G01*
X122231Y646257D02*
G03*
X121615Y645611I30927J-30181D01*
G01*
X122923Y646949D02*
G03*
X122231Y646257I29922J-30566D01*
G01*
X123759Y647745D02*
G03*
X122923Y646949I28776J-31047D01*
G01*
X124743Y648630D02*
G03*
X123759Y647745I27496J-31611D01*
G01*
X126092Y649753D02*
G03*
X124743Y648630I25868J-32414D01*
G01*
X134975Y655157D02*
G03*
X126092Y649753I16716J-37480D01*
G01*
X136653Y655863D02*
G03*
X134975Y655157I15415J-38984D01*
G01*
X138232Y656452D02*
G03*
X136653Y655863I13998J-39979D01*
G01*
X139906Y656999D02*
G03*
X138232Y656452I12468J-40940D01*
G01*
X142160Y657620D02*
G03*
X139906Y656999I10346J-41996D01*
G01*
X146316Y658431D02*
G03*
X142160Y657620I6245J-43019D01*
G01*
X147108Y658539D02*
G03*
X146316Y658431I5352J-42464D01*
G01*
X574013Y658015D02*
G03*
X572928Y658184I-7126J-42127D01*
G01*
X580486Y656396D02*
G03*
X574013Y658015I-13651J-40830D01*
G01*
X582174Y655791D02*
G03*
X580486Y656396I-15105J-39492D01*
G01*
X583899Y655087D02*
G03*
X582174Y655791I-16676J-38381D01*
G01*
X585866Y654170D02*
G03*
X583899Y655087I-18469J-37066D01*
G01*
X594479Y648414D02*
G03*
X585866Y654170I-26860J-30871D01*
G01*
X595458Y647536D02*
G03*
X594479Y648414I-28424J-30696D01*
G01*
X596290Y646744D02*
G03*
X595458Y647536I-29553J-30226D01*
G01*
X596978Y646057D02*
G03*
X596290Y646744I-30550J-29855D01*
G01*
X597591Y645416D02*
G03*
X596978Y646057I-31478J-29522D01*
G01*
X598200Y644753D02*
G03*
X597591Y645416I-32428J-29179D01*
G01*
X598736Y644147D02*
G03*
X598200Y644753I-33327J-28900D01*
G01*
X533218Y183983D02*
G03*
X581834Y221838I5381J43236D01*
G01*
X579973Y216151D02*
G03*
X580705Y218521I-54286J18071D01*
G01*
X572815Y585371D02*
G03*
X572431Y585895I-29687J-21294D01*
G01*
D02*
G03*
X572042Y586408I-28986J-21581D01*
G01*
X572042Y586408D02*
G03*
X571592Y586979I-28293J-21859D01*
G01*
X571592D02*
G03*
X571076Y587604I-27541J-22188D01*
G01*
D02*
G03*
X570494Y588276I-26741J-22572D01*
G01*
X570494D02*
G03*
X569723Y589115I-25884J-22999D01*
G01*
D02*
G03*
X565791Y592661I-24691J-23428D01*
G01*
X565791Y592661D02*
G03*
X564421Y593662I-20880J-27135D01*
G01*
X564421D02*
G03*
X563495Y594282I-19717J-28433D01*
G01*
D02*
G03*
X562695Y594785I-18988J-29358D01*
G01*
Y594785D02*
G03*
X562023Y595184I-18378J-30172D01*
G01*
Y595184D02*
G03*
X561416Y595528I-17886J-30880D01*
G01*
Y595528D02*
G03*
X560807Y595857I-17459J-31550D01*
G01*
X137687Y221953D02*
G03*
X186304Y184098I43236J5381D01*
G01*
X138801Y218667D02*
G03*
X139349Y216823I58285J16327D01*
G01*
X147090Y586010D02*
G03*
X146707Y585486I29304J-21818D01*
G01*
X147479Y586523D02*
G03*
X147090Y586010I28597J-22094D01*
G01*
X147930Y587094D02*
G03*
X147479Y586523I27842J-22430D01*
G01*
X148445Y587719D02*
G03*
X147930Y587094I27026J-22813D01*
G01*
X149027Y588391D02*
G03*
X148445Y587719I26160J-23244D01*
G01*
X149798Y589230D02*
G03*
X149027Y588391I25113J-23838D01*
G01*
X153730Y592777D02*
G03*
X149798Y589230I20759J-26974D01*
G01*
X155100Y593778D02*
G03*
X153730Y592777I19510J-28136D01*
G01*
X156026Y594398D02*
G03*
X155100Y593778I18791J-29054D01*
G01*
X156827Y594900D02*
G03*
X156026Y594398I18188J-29860D01*
G01*
X157498Y595299D02*
G03*
X156827Y594900I17706J-30571D01*
G01*
X158105Y595643D02*
G03*
X157498Y595299I17278J-31224D01*
G01*
X158715Y595973D02*
G03*
X158105Y595643I16849J-31879D01*
G01*
X226321Y178190D02*
G03*
X227088Y178202I-322J42532D01*
G01*
X227088D02*
G03*
X227845Y178228I-1077J42059D01*
G01*
Y178228D02*
G03*
X228677Y178273I-1815J41590D01*
G01*
X228677Y178273D02*
G03*
X229579Y178340I-2618J41108D01*
G01*
Y178340D02*
G03*
X230628Y178444I-3482J40603D01*
G01*
D02*
G03*
X231815Y178595I-4483J40069D01*
G01*
Y178595D02*
G03*
X233285Y178832I-5612J39507D01*
G01*
D02*
G03*
X238086Y180012I-6981J38743D01*
G01*
D02*
G03*
X240897Y181013I-11814J37649D01*
G01*
D02*
G03*
X242419Y181657I-14785J37052D01*
G01*
Y181657D02*
G03*
X243639Y182228I-16476J36786D01*
G01*
Y182228D02*
G03*
X244702Y182766I-17882J36595D01*
G01*
Y182766D02*
G03*
X245617Y183262I-19139J36429D01*
G01*
Y183262D02*
G03*
X246504Y183772I-20260J36302D01*
G01*
Y183772D02*
G03*
X247312Y184262I-21366J36162D01*
G01*
D02*
G03*
X248096Y184761I-22399J36034D01*
G01*
Y184761D02*
G03*
X248855Y185268I-23418J35896D01*
G01*
X248855Y185268D02*
G03*
X249639Y185816I-24428J35755D01*
G01*
Y185816D02*
G03*
X250396Y186371I-25473J35570D01*
G01*
X250396D02*
G03*
X251171Y186965I-26494J35369D01*
G01*
D02*
G03*
X252001Y187631I-27544J35126D01*
G01*
D02*
G03*
X252994Y188474I-28669J34818D01*
G01*
D02*
G03*
X255347Y190679I-30056J34422D01*
G01*
X255347D02*
G03*
X256482Y191862I-32361J32173D01*
G01*
X466502Y192383D02*
G03*
X469464Y189916I39338J44214D01*
G01*
Y189916D02*
G03*
X470641Y189022I36142J46379D01*
G01*
X470641Y189022D02*
G03*
X471500Y188399I34600J46780D01*
G01*
X487105Y180777D02*
G03*
X487921Y180556I11981J42575D01*
G01*
X487921Y180556D02*
G03*
X488824Y180331I11044J42337D01*
G01*
D02*
G03*
X489739Y180123I10035J42115D01*
G01*
D02*
G03*
X490822Y179904I9025J41881D01*
G01*
Y179904D02*
G03*
X492080Y179687I7857J41649D01*
G01*
Y179687D02*
G03*
X493682Y179466I6529J41418D01*
G01*
Y179466D02*
G03*
X498680Y179179I4864J41070D01*
G01*
X498680Y179179D02*
G03*
X501459Y179281I-139J41454D01*
G01*
Y179281D02*
G03*
X502965Y179415I-2948J41805D01*
G01*
X502965Y179415D02*
G03*
X504132Y179556I-4500J42101D01*
G01*
D02*
G03*
X505128Y179702I-5724J42389D01*
G01*
D02*
G03*
X506041Y179858I-6790J42684D01*
G01*
X226321Y178190D02*
G03*
X227088Y178202I-322J42532D01*
G01*
X227088D02*
G03*
X227845Y178228I-1077J42059D01*
G01*
Y178228D02*
G03*
X228677Y178273I-1815J41590D01*
G01*
X228677Y178273D02*
G03*
X229579Y178340I-2618J41108D01*
G01*
Y178340D02*
G03*
X230628Y178444I-3482J40603D01*
G01*
D02*
G03*
X231815Y178595I-4483J40069D01*
G01*
Y178595D02*
G03*
X233285Y178832I-5612J39507D01*
G01*
D02*
G03*
X238086Y180012I-6981J38743D01*
G01*
D02*
G03*
X240897Y181013I-11814J37649D01*
G01*
D02*
G03*
X242419Y181657I-14785J37052D01*
G01*
Y181657D02*
G03*
X243639Y182228I-16476J36786D01*
G01*
Y182228D02*
G03*
X244702Y182766I-17882J36595D01*
G01*
Y182766D02*
G03*
X245617Y183262I-19139J36429D01*
G01*
Y183262D02*
G03*
X246504Y183772I-20260J36302D01*
G01*
Y183772D02*
G03*
X247312Y184262I-21366J36162D01*
G01*
D02*
G03*
X248096Y184761I-22399J36034D01*
G01*
Y184761D02*
G03*
X248855Y185268I-23418J35896D01*
G01*
X248855Y185268D02*
G03*
X249639Y185816I-24428J35755D01*
G01*
Y185816D02*
G03*
X250396Y186371I-25473J35570D01*
G01*
X250396D02*
G03*
X251171Y186965I-26494J35369D01*
G01*
D02*
G03*
X252001Y187631I-27544J35126D01*
G01*
D02*
G03*
X252994Y188474I-28669J34818D01*
G01*
D02*
G03*
X255347Y190679I-30056J34422D01*
G01*
X255347D02*
G03*
X256482Y191862I-32361J32173D01*
G01*
X466502Y192383D02*
G03*
X469464Y189916I39338J44214D01*
G01*
Y189916D02*
G03*
X470641Y189022I36142J46379D01*
G01*
X470641Y189022D02*
G03*
X471500Y188399I34600J46780D01*
G01*
X487105Y180777D02*
G03*
X487921Y180556I11981J42575D01*
G01*
X487921Y180556D02*
G03*
X488824Y180331I11044J42337D01*
G01*
D02*
G03*
X489739Y180123I10035J42115D01*
G01*
D02*
G03*
X490822Y179904I9025J41881D01*
G01*
Y179904D02*
G03*
X492080Y179687I7857J41649D01*
G01*
Y179687D02*
G03*
X493682Y179466I6529J41418D01*
G01*
Y179466D02*
G03*
X498680Y179179I4864J41070D01*
G01*
X498680Y179179D02*
G03*
X501459Y179281I-139J41454D01*
G01*
Y179281D02*
G03*
X502965Y179415I-2948J41805D01*
G01*
X502965Y179415D02*
G03*
X504132Y179556I-4500J42101D01*
G01*
D02*
G03*
X505128Y179702I-5724J42389D01*
G01*
D02*
G03*
X506041Y179858I-6790J42684D01*
G01*
X506868Y180016D02*
X507609Y180171D01*
X186304Y600764D02*
Y658634D01*
X186265Y600765D02*
X186304Y600764D01*
X153766Y658793D02*
X186304D01*
X105743Y199144D02*
Y594243D01*
X105747Y594866D01*
X105755Y595484D01*
X105764Y596099D01*
X105777Y596710D01*
X105792Y597317D01*
X105809Y597920D01*
X105829Y598519D01*
X105851Y599115D01*
X105876Y599706D01*
X105903Y600293D01*
X105933Y600877D01*
X105965Y601456D01*
X105999Y602032D01*
X106036Y602604D01*
X106075Y603172D01*
X106116Y603736D01*
X106160Y604296D01*
X106206Y604853D01*
X106255Y605406D01*
X106305Y605955D01*
X106358Y606500D01*
X106413Y607042D01*
X106471Y607580D01*
X106530Y608114D01*
X106592Y608644D01*
X106656Y609171D01*
X106722Y609694D01*
X106791Y610213D01*
X106861Y610729D01*
X106934Y611241D01*
X107008Y611749D01*
X107085Y612254D01*
X107164Y612755D01*
X107245Y613253D01*
X107328Y613747D01*
X107413Y614237D01*
X107500Y614724D01*
X107589Y615208D01*
X107680Y615688D01*
X107773Y616164D01*
X107867Y616637D01*
X107964Y617106D01*
X108063Y617572D01*
X108164Y618034D01*
X108266Y618493D01*
X108370Y618949D01*
X108477Y619401D01*
X108585Y619849D01*
X108695Y620295D01*
X108807Y620737D01*
X108920Y621175D01*
X109035Y621610D01*
X109152Y622042D01*
X109271Y622471D01*
X109392Y622896D01*
X109514Y623318D01*
X109638Y623736D01*
X109764Y624152D01*
X109891Y624564D01*
X110020Y624972D01*
X110151Y625378D01*
X110283Y625780D01*
X110417Y626179D01*
X110552Y626575D01*
X110689Y626967D01*
X110828Y627357D01*
X110968Y627743D01*
X111109Y628126D01*
X111252Y628507D01*
X111397Y628883D01*
X111543Y629257D01*
X111741Y629751D01*
X111940Y630239D01*
X112142Y630721D01*
X112347Y631198D01*
X112554Y631670D01*
X112764Y632137D01*
X112976Y632598D01*
X113190Y633053D01*
X113407Y633504D01*
X113626Y633949D01*
X113847Y634389D01*
X114071Y634824D01*
X114296Y635254D01*
X114524Y635678D01*
X114754Y636098D01*
X114986Y636512D01*
X115219Y636922D01*
X115455Y637326D01*
X115753Y637825D01*
X116053Y638315D01*
X116357Y638799D01*
X116663Y639274D01*
X116972Y639742D01*
X117284Y640203D01*
X117598Y640656D01*
X117979Y641190D01*
X118363Y641714D01*
X118750Y642227D01*
X119141Y642730D01*
X119600Y643304D01*
X120064Y643865D01*
X120532Y644412D01*
X147108Y658539D02*
X147667Y658605D01*
X148109Y658653D01*
X148492Y658690D01*
X148818Y658719D01*
X149135Y658744D01*
X149400Y658764D01*
X149616Y658778D01*
X149827Y658791D01*
X150033Y658803D01*
X150235Y658813D01*
X150393Y658820D01*
X150548Y658827D01*
X150700Y658833D01*
X150849Y658838D01*
X150994Y658842D01*
X151101Y658845D01*
X151206Y658848D01*
X151309Y658850D01*
X151410Y658851D01*
X151510Y658853D01*
X151607Y658854D01*
X151703Y658855D01*
X151796Y658855D01*
X151888Y658856D01*
X151948Y658856D01*
X152007Y658856D01*
X152065Y658856D01*
X152122Y658855D01*
X152179Y658855D01*
X152234Y658854D01*
X152289Y658854D01*
X152343Y658853D01*
X152395Y658852D01*
X152447Y658852D01*
X152498Y658851D01*
X152548Y658850D01*
X152597Y658849D01*
X152646Y658848D01*
X152693Y658847D01*
X152739Y658845D01*
X152784Y658844D01*
X152829Y658843D01*
X152872Y658841D01*
X152914Y658840D01*
X152956Y658839D01*
X152996Y658837D01*
X153016Y658836D01*
X153036Y658836D01*
X153055Y658835D01*
X153074Y658834D01*
X153093Y658833D01*
X153112Y658832D01*
X153130Y658832D01*
X153148Y658831D01*
X153166Y658830D01*
X153184Y658829D01*
X153201Y658828D01*
X153218Y658828D01*
X153235Y658827D01*
X153252Y658826D01*
X153268Y658825D01*
X153284Y658824D01*
X153300Y658823D01*
X153316Y658823D01*
X153331Y658822D01*
X153346Y658821D01*
X153361Y658820D01*
X153376Y658819D01*
X153390Y658819D01*
X153404Y658818D01*
X153418Y658817D01*
X153432Y658816D01*
X153445Y658815D01*
X153458Y658815D01*
X153471Y658814D01*
X153483Y658813D01*
X153495Y658812D01*
X153507Y658812D01*
X153519Y658811D01*
X153531Y658810D01*
X153542Y658809D01*
X153553Y658809D01*
X153563Y658808D01*
X153574Y658807D01*
X153584Y658807D01*
X153594Y658806D01*
X153603Y658805D01*
X153613Y658804D01*
X153622Y658804D01*
X153631Y658803D01*
X153639Y658803D01*
X153647Y658802D01*
X153655Y658801D01*
X153663Y658801D01*
X153671Y658800D01*
X153678Y658800D01*
X153684Y658799D01*
X153691Y658799D01*
X153698Y658798D01*
X153703Y658798D01*
X153709Y658797D01*
X153715Y658797D01*
X153720Y658796D01*
X153725Y658796D01*
X153730Y658795D01*
X153734Y658795D01*
X153738Y658795D01*
X153742Y658794D01*
X153746Y658794D01*
X153749Y658794D01*
X153752Y658793D01*
X153755Y658793D01*
X153757Y658793D01*
X153759Y658793D01*
X153761Y658793D01*
X153763Y658792D01*
X153764Y658792D01*
X153765Y658792D01*
X153766Y658792D01*
X153766Y658792D01*
X153766Y658792D01*
X549481Y658519D02*
X565782D01*
X549481D02*
X613500Y594500D01*
Y198083D02*
Y594500D01*
Y198083D02*
X613674Y199084D01*
X533218Y658519D02*
X549481D01*
X565795Y658532D02*
X565795Y658532D01*
X565796Y658532D01*
X565797Y658532D01*
X565798Y658532D01*
X565800Y658532D01*
X565802Y658532D01*
X565804Y658533D01*
X565806Y658533D01*
X565809Y658533D01*
X565812Y658533D01*
X565815Y658534D01*
X565819Y658534D01*
X565823Y658534D01*
X565827Y658535D01*
X565831Y658535D01*
X565836Y658535D01*
X565841Y658536D01*
X565846Y658536D01*
X565851Y658536D01*
X565857Y658537D01*
X565863Y658537D01*
X565869Y658538D01*
X565876Y658538D01*
X565883Y658539D01*
X565890Y658539D01*
X565897Y658540D01*
X565905Y658541D01*
X565913Y658541D01*
X565921Y658542D01*
X565930Y658542D01*
X565938Y658543D01*
X565947Y658544D01*
X565956Y658544D01*
X565966Y658545D01*
X565976Y658545D01*
X565986Y658546D01*
X565996Y658547D01*
X566007Y658547D01*
X566018Y658548D01*
X566029Y658549D01*
X566040Y658550D01*
X566052Y658550D01*
X566064Y658551D01*
X566076Y658552D01*
X566088Y658553D01*
X566101Y658553D01*
X566114Y658554D01*
X566127Y658555D01*
X566141Y658555D01*
X566154Y658556D01*
X566168Y658557D01*
X566183Y658558D01*
X566197Y658558D01*
X566212Y658559D01*
X566227Y658560D01*
X566242Y658561D01*
X566258Y658562D01*
X566273Y658562D01*
X566289Y658563D01*
X566306Y658564D01*
X566322Y658565D01*
X566339Y658565D01*
X566356Y658566D01*
X566373Y658567D01*
X566391Y658567D01*
X566408Y658568D01*
X566427Y658569D01*
X566445Y658570D01*
X566463Y658570D01*
X566482Y658571D01*
X566501Y658572D01*
X566520Y658572D01*
X566540Y658573D01*
X566560Y658574D01*
X566600Y658575D01*
X566641Y658576D01*
X566683Y658578D01*
X566726Y658579D01*
X566770Y658580D01*
X566815Y658581D01*
X566861Y658582D01*
X566908Y658583D01*
X566956Y658584D01*
X567004Y658585D01*
X567054Y658586D01*
X567105Y658587D01*
X567156Y658587D01*
X567209Y658588D01*
X567262Y658588D01*
X567316Y658589D01*
X567372Y658589D01*
X567427Y658589D01*
X567484Y658589D01*
X567542Y658589D01*
X567601Y658589D01*
X567661Y658589D01*
X567752Y658588D01*
X567844Y658587D01*
X567939Y658586D01*
X568036Y658584D01*
X568135Y658582D01*
X568235Y658580D01*
X568338Y658578D01*
X568442Y658575D01*
X568548Y658572D01*
X568656Y658568D01*
X568803Y658563D01*
X568953Y658557D01*
X569106Y658550D01*
X569262Y658542D01*
X569421Y658534D01*
X569625Y658522D01*
X569833Y658509D01*
X570045Y658494D01*
X570306Y658474D01*
X570574Y658453D01*
X570894Y658424D01*
X571270Y658388D01*
X571705Y658341D01*
X572255Y658275D01*
X572928Y658184D01*
X598736Y644147D02*
X599201Y643602D01*
X599662Y643043D01*
X600119Y642471D01*
X600508Y641969D01*
X600893Y641458D01*
X601275Y640936D01*
X601654Y640403D01*
X601966Y639952D01*
X602276Y639493D01*
X602584Y639026D01*
X602888Y638552D01*
X603190Y638071D01*
X603489Y637582D01*
X603786Y637085D01*
X604079Y636581D01*
X604311Y636171D01*
X604541Y635757D01*
X604770Y635338D01*
X604996Y634914D01*
X605220Y634484D01*
X605442Y634050D01*
X605661Y633610D01*
X605879Y633165D01*
X606094Y632715D01*
X606307Y632260D01*
X606518Y631799D02*
X606726Y631333D01*
X606931Y630862D01*
X607135Y630385D01*
X607336Y629903D01*
X607534Y629416D01*
X607730Y628923D01*
X607923Y628425D01*
X608066Y628047D01*
X608208Y627667D01*
X608348Y627283D01*
X608487Y626896D01*
X608624Y626506D01*
X608759Y626113D01*
X608893Y625716D01*
X609026Y625317D01*
X609157Y624914D01*
X609286Y624508D01*
X609413Y624099D02*
X609539Y623687D01*
X609663Y623271D01*
X609786Y622852D01*
X609907Y622430D01*
X610026Y622004D01*
X610143Y621575D01*
X610259Y621143D01*
X610373Y620707D01*
X610485Y620268D01*
X610596Y619826D01*
X610704Y619381D01*
X610811Y618932D01*
X610916Y618479D01*
X611019Y618023D01*
X611120Y617564D01*
X611219Y617101D01*
X611317Y616635D01*
X611412Y616166D01*
X611506Y615693D01*
X611597Y615216D01*
X611687Y614736D01*
X611775Y614252D01*
X611861Y613765D01*
X611944Y613275D01*
X612026Y612780D01*
X612106Y612283D01*
X612183Y611781D01*
X612259Y611276D01*
X612332Y610768D01*
X612404Y610256D01*
X612473Y609740D01*
X612540Y609220D01*
X612605Y608697D01*
X612668Y608171D01*
X612729Y607640D01*
X612787Y607106D01*
X612843Y606568D01*
X612897Y606027D01*
X612949Y605481D01*
X612999Y604932D01*
X613046Y604379D01*
X613091Y603823D01*
X613134Y603263D01*
X613174Y602698D01*
X613212Y602131D01*
X613248Y601559D01*
X613281Y600983D01*
X613312Y600404D01*
X613341Y599820D01*
X613367Y599233D01*
X613391Y598642D01*
X613412Y598047D01*
X613431Y597448D01*
X613447Y596845D01*
X613461Y596239D01*
X613473Y595628D01*
X613482Y595013D01*
X613488Y594395D01*
X533218Y160465D02*
Y183983D01*
X533216Y160465D02*
X533448Y160465D01*
X534139Y160467D01*
X534826Y160471D01*
X535509Y160477D01*
X536188Y160485D01*
X536863Y160495D01*
X537534Y160507D01*
X538202Y160521D01*
X538865Y160538D01*
X539525Y160556D01*
X540181Y160576D01*
X540833Y160598D01*
X541481Y160623D01*
X542125Y160649D01*
X542765Y160677D01*
X543402Y160707D01*
X544034Y160739D01*
X544663Y160773D01*
X545288Y160809D01*
X545910Y160847D01*
X546527Y160886D01*
X547141Y160928D01*
X547751Y160971D01*
X548358Y161016D01*
X548960Y161064D01*
X549559Y161112D01*
X550155Y161163D01*
X550746Y161215D01*
X551334Y161270D01*
X551919Y161326D01*
X552499Y161383D01*
X553076Y161443D01*
X553650Y161504D01*
X554219Y161567D01*
X554785Y161631D01*
X555348Y161698D01*
X555907Y161766D01*
X556462Y161835D01*
X557014Y161907D01*
X557562Y161979D01*
X558107Y162054D01*
X558648Y162130D01*
X559186Y162208D01*
X559721Y162287D01*
X560251Y162368D01*
X560779Y162451D01*
X561302Y162535D01*
X561823Y162620D01*
X562340Y162707D01*
X562853Y162796D01*
X563363Y162886D01*
X563870Y162977D01*
X564373Y163070D01*
X564873Y163165D01*
X565369Y163261D01*
X565863Y163358D01*
X566352Y163457D01*
X566839Y163557D01*
X567322Y163659D01*
X567802Y163762D01*
X568278Y163866D01*
X568751Y163972D01*
X569221Y164079D01*
X569688Y164187D01*
X570151Y164297D01*
X570611Y164408D01*
X571068Y164520D01*
X571522Y164633D01*
X571973Y164748D01*
X572420Y164864D01*
X572864Y164982D01*
X573305Y165100D01*
X573742Y165220D01*
X574177Y165341D01*
X574608Y165463D01*
X575037Y165586D01*
X575462Y165711D01*
X575884Y165836D01*
X576303Y165963D01*
X576719Y166091D01*
X577131Y166220D01*
X577541Y166350D01*
X577948Y166481D01*
X578485Y166658D01*
X579017Y166837D01*
X579544Y167017D01*
X580065Y167199D01*
X580582Y167383D01*
X581092Y167569D01*
X581598Y167756D01*
X582098Y167945D01*
X582593Y168136D01*
X583083Y168328D01*
X583568Y168523D01*
X584048Y168718D01*
X584522Y168915D01*
X584992Y169114D01*
X585457Y169314D01*
X585916Y169516D01*
X586371Y169719D01*
X586820Y169923D01*
X587265Y170129D01*
X587705Y170336D01*
X588140Y170545D01*
X588570Y170755D01*
X588995Y170966D01*
X589416Y171178D01*
X589831Y171391D01*
X590242Y171606D01*
X590649Y171822D01*
X591050Y172038D01*
X591447Y172256D01*
X591839Y172475D01*
X592227Y172695D01*
X592610Y172916D01*
X592989Y173138D01*
X593363Y173361D01*
X593732Y173584D01*
X594097Y173809D01*
X594458Y174034D01*
X594814Y174260D01*
X595253Y174544D01*
X595686Y174829D01*
X596111Y175114D01*
X596530Y175401D01*
X596942Y175689D01*
X597348Y175978D01*
X597747Y176268D01*
X598140Y176558D01*
X598526Y176849D01*
X598906Y177141D01*
X599279Y177433D01*
X599647Y177726D01*
X600008Y178019D01*
X600363Y178313D01*
X600711Y178607D01*
X601054Y178902D01*
X601457Y179256D01*
X601852Y179610D01*
X602238Y179964D01*
X602616Y180318D01*
X602986Y180672D01*
X603347Y181026D01*
X603701Y181379D01*
X604046Y181733D01*
X604383Y182086D01*
X604767Y182497D01*
X605140Y182907D01*
X605503Y183316D01*
X605856Y183723D01*
X606198Y184130D01*
X606531Y184535D01*
X606853Y184938D01*
X607167Y185339D01*
X607513Y185794D01*
X607847Y186247D01*
X608169Y186697D01*
X608479Y187144D01*
X608778Y187586D01*
X609066Y188025D01*
X609342Y188460D01*
X609608Y188890D01*
X609862Y189316D01*
X610107Y189736D01*
X610341Y190152D01*
X610565Y190562D01*
X610779Y190967D01*
X610958Y191316D01*
X611131Y191661D01*
X611296Y192001D01*
X611454Y192336D01*
X611606Y192666D01*
X611751Y192991D01*
X611870Y193265D01*
X611984Y193534D01*
X612094Y193800D01*
X612200Y194061D01*
X612301Y194318D01*
X612382Y194529D01*
X612459Y194736D01*
X612534Y194941D01*
X612606Y195141D01*
X612676Y195339D01*
X612743Y195533D01*
X612794Y195686D01*
X612844Y195837D01*
X612892Y195985D01*
X612938Y196131D01*
X612983Y196274D01*
X613026Y196415D01*
X613068Y196554D01*
X613108Y196691D01*
X613137Y196791D01*
X613166Y196890D01*
X613193Y196988D01*
X613220Y197085D01*
X613246Y197180D01*
X613271Y197273D01*
X613295Y197365D01*
X613319Y197456D01*
X613342Y197545D01*
X613364Y197632D01*
X613385Y197719D01*
X613406Y197803D01*
X613426Y197886D01*
X613445Y197967D01*
X613457Y198021D01*
X613470Y198073D01*
X613482Y198126D01*
X613493Y198177D01*
X613504Y198227D01*
X613515Y198277D01*
X613526Y198326D01*
X613536Y198375D01*
X613547Y198423D01*
X613556Y198469D01*
X613566Y198516D01*
X613575Y198561D01*
X613585Y198606D01*
X613593Y198650D01*
X613602Y198693D01*
X613610Y198736D01*
X613618Y198777D01*
X613626Y198818D01*
X613634Y198859D01*
X613641Y198898D01*
X613648Y198937D01*
X613655Y198975D01*
X613662Y199012D01*
X613668Y199048D01*
X613674Y199084D02*
X613680Y199118D01*
X613683Y199135D01*
X613686Y199152D01*
X613689Y199169D01*
X613692Y199186D01*
X613694Y199202D01*
X613697Y199218D01*
X613699Y199234D01*
X613702Y199249D01*
X613704Y199265D01*
X613707Y199280D01*
X613709Y199295D01*
X613712Y199310D01*
X613714Y199325D01*
X613716Y199339D01*
X613719Y199354D01*
X613721Y199367D01*
X613723Y199381D01*
X613725Y199395D01*
X613727Y199408D01*
X613729Y199422D01*
X613731Y199435D01*
X613732Y199447D01*
X613734Y199460D01*
X613736Y199472D01*
X613738Y199485D01*
X613740Y199496D01*
X613741Y199508D01*
X613743Y199520D01*
X613744Y199531D01*
X613746Y199542D01*
X613748Y199553D01*
X613749Y199564D01*
X613750Y199574D01*
X613752Y199584D01*
X613753Y199595D01*
X613754Y199604D01*
X613756Y199614D01*
X613757Y199623D01*
X613758Y199633D01*
X613759Y199642D01*
X613760Y199650D01*
X613761Y199659D01*
X613762Y199667D01*
X613763Y199675D01*
X613764Y199683D01*
X613765Y199691D01*
X613766Y199698D01*
X613767Y199705D01*
X613768Y199712D01*
X613768Y199719D01*
X613769Y199726D01*
X613770Y199732D01*
X613771Y199738D01*
X613771Y199744D01*
X613772Y199750D01*
X613773Y199755D01*
X613773Y199760D01*
X613774Y199765D01*
X613774Y199770D01*
X613775Y199774D01*
X613775Y199779D01*
X613775Y199783D01*
X613776Y199786D01*
X613776Y199790D01*
X613777Y199794D01*
X613777Y199797D01*
X613777Y199800D01*
X613777Y199802D01*
X613778Y199805D01*
X613778Y199807D01*
X613778Y199809D01*
X613778Y199811D01*
X613778Y199812D01*
X613779Y199813D01*
X613779Y199814D01*
X613779Y199815D01*
X613779Y199816D01*
X613779Y199816D01*
X581834Y221838D02*
Y223334D01*
Y221838D02*
Y550655D01*
X533218Y183983D02*
X533218D01*
X533218Y183983D01*
X533218Y183983D01*
X533218Y183982D01*
X533219Y183982D01*
X533219Y183982D01*
X533220Y183982D01*
X533220Y183982D01*
X533221Y183982D01*
X533221Y183982D01*
X533222Y183982D01*
X533223Y183982D01*
X533224Y183982D01*
X533225Y183982D01*
X533226Y183982D01*
X533227Y183982D01*
X533229Y183982D01*
X533230Y183982D01*
X533231Y183981D01*
X533233Y183981D01*
X533234Y183981D01*
X533236Y183981D01*
X533238Y183981D01*
X533240Y183981D01*
X533241Y183981D01*
X533243Y183980D01*
X533245Y183980D01*
X533247Y183980D01*
X533250Y183980D01*
X533252Y183980D01*
X533254Y183980D01*
X533256Y183979D01*
X533259Y183979D01*
X533261Y183979D01*
X533264Y183979D01*
X533267Y183979D01*
X533269Y183979D01*
X533272Y183978D01*
X533275Y183978D01*
X533278Y183978D01*
X533281Y183978D01*
X533284Y183978D01*
X533287Y183977D01*
X533291Y183977D01*
X533294Y183977D01*
X533298Y183977D01*
X533301Y183977D01*
X533305Y183976D01*
X533308Y183976D01*
X533312Y183976D01*
X533316Y183976D01*
X533320Y183976D01*
X533324Y183975D01*
X533328Y183975D01*
X533332Y183975D01*
X533336Y183975D01*
X533340Y183974D01*
X533345Y183974D01*
X533349Y183974D01*
X533353Y183974D01*
X533358Y183973D01*
X533363Y183973D01*
X533367Y183973D01*
X533372Y183973D01*
X533377Y183973D01*
X533382Y183972D01*
X533387Y183972D01*
X533392Y183972D01*
X533397Y183972D01*
X533402Y183971D01*
X533407Y183971D01*
X533413Y183971D01*
X533418Y183971D01*
X533424Y183970D01*
X533429Y183970D01*
X533435Y183970D01*
X533441Y183970D01*
X533447Y183969D01*
X533453Y183969D01*
X533459Y183969D01*
X533464Y183969D01*
X533471Y183968D01*
X533477Y183968D01*
X533483Y183968D01*
X533489Y183968D01*
X533496Y183968D01*
X533502Y183967D01*
X533509Y183967D01*
X533515Y183967D01*
X533522Y183967D01*
X533529Y183967D01*
X533536Y183966D01*
X533543Y183966D01*
X533550Y183966D01*
X533557Y183966D01*
X533564Y183966D01*
X533578Y183965D01*
X533593Y183965D01*
X533608Y183965D01*
X533624Y183964D01*
X533639Y183964D01*
X533655Y183964D01*
X533672Y183963D01*
X533688Y183963D01*
X533705Y183963D01*
X533722Y183962D01*
X533740Y183962D01*
X533757Y183962D01*
X533775Y183962D01*
X533794Y183962D01*
X533812Y183961D01*
X533831Y183961D01*
X533850Y183961D01*
X533870Y183961D01*
X533890Y183961D01*
X533910Y183961D01*
X533930Y183961D01*
X533951Y183961D01*
X533972Y183961D01*
X533993Y183961D01*
X534015Y183962D01*
X534036Y183962D01*
X534058Y183962D01*
X534081Y183962D01*
X534103Y183963D01*
X534127Y183963D01*
X534150Y183963D01*
X534173Y183964D01*
X534197Y183964D01*
X534221Y183964D01*
X534246Y183965D01*
X534270Y183966D01*
X534296Y183966D01*
X534321Y183967D01*
X534346Y183967D01*
X534372Y183968D01*
X534398Y183969D01*
X534425Y183970D01*
X534452Y183970D01*
X534479Y183971D01*
X534506Y183972D01*
X534534Y183973D01*
X534576Y183975D01*
X534618Y183976D01*
X534661Y183978D01*
X534705Y183980D01*
X534750Y183982D01*
X534795Y183984D01*
X534841Y183987D01*
X534887Y183989D01*
X534934Y183992D01*
X534982Y183994D01*
X535030Y183997D01*
X535079Y184000D01*
X535129Y184003D01*
X535179Y184007D01*
X535230Y184010D01*
X535282Y184014D01*
X535334Y184018D01*
X535387Y184021D01*
X535440Y184026D01*
X535494Y184030D01*
X535549Y184034D01*
X535604Y184039D01*
X535661Y184043D01*
X535717Y184048D01*
X535774Y184053D01*
X535832Y184059D01*
X535891Y184064D01*
X535950Y184070D01*
X536010Y184075D01*
X536070Y184081D01*
X536131Y184088D01*
X536193Y184094D01*
X536276Y184103D01*
X536361Y184112D01*
X536446Y184122D01*
X536532Y184132D01*
X536620Y184142D01*
X536709Y184153D01*
X536799Y184164D01*
X536890Y184176D01*
X536982Y184187D01*
X537075Y184200D01*
X537169Y184213D01*
X537265Y184226D01*
X537361Y184239D01*
X537459Y184253D01*
X537558Y184268D01*
X537657Y184283D01*
X537758Y184298D01*
X537860Y184314D01*
X537963Y184331D01*
X538067Y184348D01*
X538173Y184365D01*
X538279Y184383D01*
X538386Y184401D01*
X538495Y184420D01*
X538604Y184439D01*
X538715Y184459D01*
X538827Y184480D01*
X538940Y184501D01*
X539082Y184528D01*
X539226Y184555D01*
X539372Y184584D01*
X539520Y184614D01*
X539669Y184644D01*
X539820Y184675D01*
X539972Y184708D01*
X540127Y184741D01*
X540283Y184775D01*
X540440Y184810D01*
X540599Y184846D01*
X540760Y184883D01*
X540923Y184921D01*
X541087Y184960D01*
X541253Y185001D01*
X541420Y185042D01*
X541589Y185084D01*
X541760Y185127D01*
X541932Y185171D01*
X542106Y185217D01*
X542282Y185263D01*
X542459Y185311D01*
X542638Y185360D01*
X542819Y185410D01*
X543001Y185461D01*
X543185Y185513D01*
X543370Y185566D01*
X543557Y185621D01*
X543746Y185677D01*
X543936Y185734D01*
X544128Y185792D01*
X544321Y185852D01*
X544516Y185912D01*
X544752Y185987D01*
X544990Y186063D01*
X545231Y186142D01*
X545474Y186222D01*
X545719Y186304D01*
X545967Y186388D01*
X546216Y186474D01*
X546469Y186562D01*
X546723Y186652D01*
X546979Y186744D01*
X547238Y186838D01*
X547499Y186934D01*
X547762Y187032D01*
X548028Y187132D01*
X548296Y187235D01*
X548566Y187339D01*
X548838Y187446D01*
X549112Y187555D01*
X549389Y187666D01*
X549668Y187780D01*
X549949Y187896D01*
X550232Y188014D01*
X550518Y188134D01*
X550805Y188257D01*
X551095Y188382D01*
X551387Y188509D01*
X551681Y188639D01*
X551978Y188771D01*
X552276Y188906D01*
X552577Y189043D01*
X552880Y189183D01*
X553185Y189325D01*
X553492Y189470D01*
X553801Y189617D01*
X554112Y189767D01*
X554426Y189919D01*
X554742Y190074D01*
X555059Y190232D01*
X555379Y190392D01*
X555701Y190556D01*
X556026Y190721D01*
X556352Y190890D01*
X556680Y191061D01*
X557011Y191235D01*
X557343Y191412D01*
X557678Y191592D01*
X558015Y191775D01*
X558354Y191960D01*
X558694Y192148D01*
X559037Y192340D01*
X559382Y192534D01*
X559729Y192731D01*
X560079Y192931D01*
X560430Y193134D01*
X560783Y193340D01*
X561138Y193550D01*
X561496Y193762D01*
X561855Y193977D01*
X562216Y194196D01*
X562580Y194417D01*
X562945Y194642D01*
X563313Y194870D01*
X563682Y195101D01*
X564053Y195335D01*
X564427Y195573D01*
X564802Y195814D01*
X565180Y196058D01*
X565559Y196306D01*
X565941Y196556D01*
X566324Y196811D01*
X566709Y197068D01*
X567097Y197329D01*
X567551Y197638D01*
X567620Y197685D01*
X567858Y197851D01*
X568093Y198020D01*
X568327Y198192D01*
X568557Y198367D01*
X568785Y198545D01*
X568979Y198699D01*
X569171Y198855D01*
X569361Y199013D01*
X569549Y199173D01*
X569736Y199335D01*
X569921Y199498D01*
X570104Y199663D01*
X570285Y199830D01*
X570464Y199999D01*
X570642Y200169D01*
X570818Y200341D01*
X570992Y200514D01*
X571165Y200689D01*
X571335Y200866D01*
X571476Y201014D01*
X571616Y201163D01*
X571755Y201313D01*
X571892Y201464D01*
X572029Y201616D01*
X572164Y201768D01*
X572298Y201922D01*
X572431Y202077D01*
X572563Y202232D01*
X572693Y202388D01*
X572823Y202545D01*
X572951Y202703D01*
X573078Y202861D01*
X573204Y203020D01*
X573329Y203180D01*
X573453Y203341D01*
X573575Y203502D01*
X573697Y203664D01*
X573817Y203827D01*
X573937Y203990D01*
X574055Y204154D01*
X574172Y204318D01*
X574288Y204483D01*
X574403Y204648D01*
X574517Y204814D01*
X574630Y204980D01*
X574742Y205147D01*
X574852Y205314D01*
X574962Y205482D01*
X575092Y205684D01*
X575221Y205886D01*
X575348Y206089D01*
X575474Y206292D01*
X575598Y206496D01*
X575720Y206700D01*
X575842Y206904D01*
X575961Y207109D01*
X576079Y207314D01*
X576196Y207519D01*
X576311Y207725D01*
X576425Y207930D01*
X576538Y208136D01*
X576649Y208342D01*
X576758Y208548D01*
X576866Y208754D01*
X576973Y208960D01*
X577079Y209166D01*
X577183Y209371D01*
X577302Y209611D01*
X577420Y209851D01*
X577536Y210090D01*
X577650Y210330D01*
X577762Y210568D01*
X577872Y210806D01*
X577981Y211044D01*
X578102Y211315D01*
X578222Y211585D01*
X578339Y211855D01*
X578454Y212123D01*
X578566Y212390D01*
X578690Y212690D01*
X578811Y212987D01*
X578930Y213283D01*
X579058Y213610D01*
X579195Y213966D01*
X579328Y214319D01*
X579468Y214701D01*
X579615Y215109D01*
X579777Y215574D01*
X579973Y216151D01*
X580705Y218521D02*
X580877Y219135D01*
X580976Y219503D01*
X581051Y219788D01*
X581110Y220018D01*
X581162Y220220D01*
X581206Y220395D01*
X581243Y220545D01*
X581278Y220692D01*
X581308Y220815D01*
X581337Y220936D01*
X581364Y221054D01*
X581387Y221150D01*
X581409Y221245D01*
X581430Y221338D01*
X581451Y221429D01*
X581467Y221501D01*
X581483Y221571D01*
X581498Y221640D01*
X581513Y221708D01*
X581528Y221775D01*
X581542Y221840D01*
X581556Y221905D01*
X581566Y221952D01*
X581576Y221999D01*
X581586Y222044D01*
X581595Y222090D01*
X581605Y222134D01*
X581614Y222178D01*
X581623Y222221D01*
X581632Y222263D01*
X581640Y222305D01*
X581648Y222345D01*
X581657Y222385D01*
X581665Y222425D01*
X581670Y222450D01*
X581675Y222476D01*
X581680Y222501D01*
X581685Y222526D01*
X581690Y222550D01*
X581695Y222574D01*
X581699Y222598D01*
X581704Y222621D01*
X581708Y222644D01*
X581713Y222667D01*
X581717Y222689D01*
X581721Y222711D01*
X581726Y222732D01*
X581730Y222754D01*
X581734Y222775D01*
X581738Y222795D01*
X581741Y222815D01*
X581745Y222835D01*
X581749Y222854D01*
X581752Y222874D01*
X581756Y222892D01*
X581759Y222911D01*
X581763Y222929D01*
X581766Y222946D01*
X581769Y222963D01*
X581772Y222980D01*
X581775Y222997D01*
X581777Y223005D01*
X581778Y223013D01*
X581780Y223021D01*
X581781Y223028D01*
X581783Y223036D01*
X581784Y223044D01*
X581785Y223051D01*
X581787Y223059D01*
X581788Y223066D01*
X581789Y223073D01*
X581791Y223080D01*
X581792Y223088D01*
X581793Y223095D01*
X581794Y223101D01*
X581796Y223108D01*
X581797Y223115D01*
X581798Y223121D01*
X581799Y223128D01*
X581800Y223134D01*
X581801Y223141D01*
X581802Y223147D01*
X581804Y223153D01*
X581805Y223159D01*
X581806Y223165D01*
X581807Y223170D01*
X581808Y223176D01*
X581809Y223182D01*
X581810Y223187D01*
X581811Y223193D01*
X581811Y223198D01*
X581812Y223203D01*
X581813Y223208D01*
X581814Y223213D01*
X581815Y223218D01*
X581816Y223223D01*
X581817Y223228D01*
X581817Y223232D01*
X581818Y223237D01*
X581819Y223241D01*
X581820Y223246D01*
X581820Y223250D01*
X581821Y223254D01*
X581822Y223258D01*
X581822Y223262D01*
X581823Y223266D01*
X581824Y223269D01*
X581824Y223273D01*
X581825Y223276D01*
X581825Y223280D01*
X581826Y223283D01*
X581827Y223286D01*
X581827Y223289D01*
X581828Y223292D01*
X581828Y223295D01*
X581828Y223298D01*
X581829Y223301D01*
X581829Y223303D01*
X581830Y223306D01*
X581830Y223308D01*
X581831Y223310D01*
X581831Y223313D01*
X581831Y223315D01*
X581832Y223317D01*
X581832Y223319D01*
X581832Y223320D01*
X581833Y223322D01*
X581833Y223323D01*
X581833Y223325D01*
X581833Y223326D01*
X581833Y223327D01*
X581834Y223329D01*
X581834Y223330D01*
X581834Y223330D01*
X581834Y223331D01*
X581834Y223332D01*
X581834Y223333D01*
X581834Y223333D01*
X581834Y223333D01*
X581834Y223334D01*
X581834Y223334D01*
X533218Y600649D02*
Y658519D01*
X581834Y550984D02*
X581834Y550655D01*
X581831Y551476D02*
X581834Y550984D01*
X581826Y551965D02*
X581831Y551476D01*
X581819Y552451D02*
X581826Y551965D01*
X581810Y552933D02*
X581819Y552451D01*
X581798Y553412D02*
X581810Y552933D01*
X581784Y553888D02*
X581798Y553412D01*
X581768Y554361D02*
X581784Y553888D01*
X581750Y554831D02*
X581768Y554361D01*
X581730Y555297D02*
X581750Y554831D01*
X581707Y555760D02*
X581730Y555297D01*
X581683Y556220D02*
X581707Y555760D01*
X581656Y556677D02*
X581683Y556220D01*
X581627Y557131D02*
X581656Y556677D01*
X581596Y557582D02*
X581627Y557131D01*
X581563Y558030D02*
X581596Y557582D01*
X581528Y558474D02*
X581563Y558030D01*
X581490Y558916D02*
X581528Y558474D01*
X581451Y559354D02*
X581490Y558916D01*
X581410Y559790D02*
X581451Y559354D01*
X581366Y560222D02*
X581410Y559790D01*
X581321Y560652D02*
X581366Y560222D01*
X581273Y561078D02*
X581321Y560652D01*
X581224Y561501D02*
X581273Y561078D01*
X581172Y561922D02*
X581224Y561501D01*
X581119Y562339D02*
X581172Y561922D01*
X581064Y562753D02*
X581119Y562339D01*
X581006Y563165D02*
X581064Y562753D01*
X580947Y563573D02*
X581006Y563165D01*
X580886Y563979D02*
X580947Y563573D01*
X580823Y564381D02*
X580886Y563979D01*
X580758Y564781D02*
X580823Y564381D01*
X580691Y565178D02*
X580758Y564781D01*
X580623Y565571D02*
X580691Y565178D01*
X580552Y565962D02*
X580623Y565571D01*
X580480Y566350D02*
X580552Y565962D01*
X580406Y566736D02*
X580480Y566350D01*
X580330Y567118D02*
X580406Y566736D01*
X580252Y567497D02*
X580330Y567118D01*
X580172Y567874D02*
X580252Y567497D01*
X580091Y568248D02*
X580172Y567874D01*
X580008Y568619D02*
X580091Y568248D01*
X579923Y568987D02*
X580008Y568619D01*
X579836Y569352D02*
X579923Y568987D01*
X579748Y569715D02*
X579836Y569352D01*
X579658Y570075D02*
X579748Y569715D01*
X579566Y570432D02*
X579658Y570075D01*
X579472Y570786D02*
X579566Y570432D01*
X579377Y571137D02*
X579472Y570786D01*
X579280Y571486D02*
X579377Y571137D01*
X579182Y571832D02*
X579280Y571486D01*
X579082Y572176D02*
X579182Y571832D01*
X578980Y572516D02*
X579082Y572176D01*
X578877Y572854D02*
X578980Y572516D01*
X578772Y573189D02*
X578877Y572854D01*
X578665Y573522D02*
X578772Y573189D01*
X578557Y573852D02*
X578665Y573522D01*
X578447Y574179D02*
X578557Y573852D01*
X578336Y574504D02*
X578447Y574179D01*
X578223Y574826D02*
X578336Y574504D01*
X578109Y575145D02*
X578223Y574826D01*
X577993Y575462D02*
X578109Y575145D01*
X577876Y575776D02*
X577993Y575462D01*
X577757Y576088D02*
X577876Y575776D01*
X577596Y576499D02*
X577757Y576088D01*
X577433Y576906D02*
X577596Y576499D01*
X577267Y577309D02*
X577433Y576906D01*
X577099Y577706D02*
X577267Y577309D01*
X576928Y578100D02*
X577099Y577706D01*
X576755Y578489D02*
X576928Y578100D01*
X576579Y578873D02*
X576755Y578489D01*
X576401Y579253D02*
X576579Y578873D01*
X576220Y579629D02*
X576401Y579253D01*
X576037Y580000D02*
X576220Y579629D01*
X575852Y580368D02*
X576037Y580000D01*
X575664Y580730D02*
X575852Y580368D01*
X575474Y581089D02*
X575664Y580730D01*
X575282Y581443D02*
X575474Y581089D01*
X575039Y581880D02*
X575282Y581443D01*
X574793Y582310D02*
X575039Y581880D01*
X574543Y582734D02*
X574793Y582310D01*
X574290Y583151D02*
X574543Y582734D01*
X574033Y583562D02*
X574290Y583151D01*
X573774Y583966D02*
X574033Y583562D01*
X573458Y584443D02*
X573774Y583966D01*
X573139Y584911D02*
X573458Y584443D01*
X572815Y585371D02*
X573139Y584911D01*
X560263Y596139D02*
X560807Y595857D01*
X559719Y596410D02*
X560263Y596139D01*
X559172Y596670D02*
X559719Y596410D01*
X558694Y596889D02*
X559172Y596670D01*
X558215Y597100D02*
X558694Y596889D01*
X557735Y597304D02*
X558215Y597100D01*
X557256Y597501D02*
X557735Y597304D01*
X556776Y597690D02*
X557256Y597501D01*
X556365Y597846D02*
X556776Y597690D01*
X555954Y597997D02*
X556365Y597846D01*
X555544Y598143D02*
X555954Y597997D01*
X555134Y598284D02*
X555544Y598143D01*
X554724Y598420D02*
X555134Y598284D01*
X554315Y598551D02*
X554724Y598420D01*
X553906Y598677D02*
X554315Y598551D01*
X553499Y598799D02*
X553906Y598677D01*
X553092Y598916D02*
X553499Y598799D01*
X552686Y599028D02*
X553092Y598916D01*
X552282Y599136D02*
X552686Y599028D01*
X551878Y599240D02*
X552282Y599136D01*
X551476Y599339D02*
X551878Y599240D01*
X551075Y599434D02*
X551476Y599339D01*
X550676Y599525D02*
X551075Y599434D01*
X550279Y599612D02*
X550676Y599525D01*
X549883Y599695D02*
X550279Y599612D01*
X549488Y599774D02*
X549883Y599695D01*
X549096Y599850D02*
X549488Y599774D01*
X548706Y599921D02*
X549096Y599850D01*
X548318Y599989D02*
X548706Y599921D01*
X547932Y600054D02*
X548318Y599989D01*
X547548Y600115D02*
X547932Y600054D01*
X547167Y600173D02*
X547548Y600115D01*
X546789Y600227D02*
X547167Y600173D01*
X546413Y600278D02*
X546789Y600227D01*
X546039Y600326D02*
X546413Y600278D01*
X545669Y600372D02*
X546039Y600326D01*
X545301Y600414D02*
X545669Y600372D01*
X544937Y600453D02*
X545301Y600414D01*
X544575Y600490D02*
X544937Y600453D01*
X544217Y600524D02*
X544575Y600490D01*
X543862Y600555D02*
X544217Y600524D01*
X543511Y600584D02*
X543862Y600555D01*
X543163Y600610D02*
X543511Y600584D01*
X542818Y600634D02*
X543163Y600610D01*
X542478Y600656D02*
X542818Y600634D01*
X542197Y600673D02*
X542478Y600656D01*
X541919Y600688D02*
X542197Y600673D01*
X541643Y600702D02*
X541919Y600688D01*
X541371Y600714D02*
X541643Y600702D01*
X541101Y600725D02*
X541371Y600714D01*
X540834Y600734D02*
X541101Y600725D01*
X540570Y600743D02*
X540834Y600734D01*
X540310Y600750D02*
X540570Y600743D01*
X540103Y600755D02*
X540310Y600750D01*
X539899Y600760D02*
X540103Y600755D01*
X539697Y600763D02*
X539899Y600760D01*
X539497Y600766D02*
X539697Y600763D01*
X539299Y600769D02*
X539497Y600766D01*
X539103Y600771D02*
X539299Y600769D01*
X538909Y600772D02*
X539103Y600771D01*
X538766Y600773D02*
X538909Y600772D01*
X538623Y600773D02*
X538766Y600773D01*
X538482Y600773D02*
X538623Y600773D01*
X538342Y600773D02*
X538482Y600773D01*
X538203Y600772D02*
X538342Y600773D01*
X538066Y600772D02*
X538203Y600772D01*
X537930Y600771D02*
X538066Y600772D01*
X537795Y600769D02*
X537930Y600771D01*
X537706Y600769D02*
X537795Y600769D01*
X537617Y600768D02*
X537706Y600769D01*
X537530Y600766D02*
X537617Y600768D01*
X537442Y600765D02*
X537530Y600766D01*
X537356Y600764D02*
X537442Y600765D01*
X537270Y600763D02*
X537356Y600764D01*
X537184Y600761D02*
X537270Y600763D01*
X537100Y600760D02*
X537184Y600761D01*
X537015Y600758D02*
X537100Y600760D01*
X536932Y600756D02*
X537015Y600758D01*
X536849Y600755D02*
X536932Y600756D01*
X536767Y600753D02*
X536849Y600755D01*
X536685Y600751D02*
X536767Y600753D01*
X536604Y600749D02*
X536685Y600751D01*
X536564Y600748D02*
X536604Y600749D01*
X536524Y600747D02*
X536564Y600748D01*
X536484Y600746D02*
X536524Y600747D01*
X536444Y600745D02*
X536484Y600746D01*
X536405Y600744D02*
X536444Y600745D01*
X536365Y600743D02*
X536405Y600744D01*
X536326Y600742D02*
X536365Y600743D01*
X536287Y600741D02*
X536326Y600742D01*
X536248Y600740D02*
X536287Y600741D01*
X536209Y600739D02*
X536248Y600740D01*
X536171Y600738D02*
X536209Y600739D01*
X536132Y600737D02*
X536171Y600738D01*
X536094Y600736D02*
X536132Y600737D01*
X536056Y600734D02*
X536094Y600736D01*
X536018Y600733D02*
X536056Y600734D01*
X535980Y600732D02*
X536018Y600733D01*
X535943Y600731D02*
X535980Y600732D01*
X535905Y600730D02*
X535943Y600731D01*
X535868Y600729D02*
X535905Y600730D01*
X535831Y600728D02*
X535868Y600729D01*
X535794Y600726D02*
X535831Y600728D01*
X535757Y600725D02*
X535794Y600726D01*
X535721Y600724D02*
X535757Y600725D01*
X535684Y600723D02*
X535721Y600724D01*
X535648Y600722D02*
X535684Y600723D01*
X535612Y600721D02*
X535648Y600722D01*
X535576Y600719D02*
X535612Y600721D01*
X535541Y600718D02*
X535576Y600719D01*
X535505Y600717D02*
X535541Y600718D01*
X535470Y600716D02*
X535505Y600717D01*
X535435Y600715D02*
X535470Y600716D01*
X535400Y600713D02*
X535435Y600715D01*
X535365Y600712D02*
X535400Y600713D01*
X535330Y600711D02*
X535365Y600712D01*
X535296Y600710D02*
X535330Y600711D01*
X535262Y600709D02*
X535296Y600710D01*
X535228Y600707D02*
X535262Y600709D01*
X535194Y600706D02*
X535228Y600707D01*
X535160Y600705D02*
X535194Y600706D01*
X535126Y600704D02*
X535160Y600705D01*
X535093Y600703D02*
X535126Y600704D01*
X535060Y600702D02*
X535093Y600703D01*
X535027Y600700D02*
X535060Y600702D01*
X534994Y600699D02*
X535027Y600700D01*
X534962Y600698D02*
X534994Y600699D01*
X534929Y600697D02*
X534962Y600698D01*
X534897Y600696D02*
X534929Y600697D01*
X534865Y600695D02*
X534897Y600696D01*
X534833Y600693D02*
X534865Y600695D01*
X534801Y600692D02*
X534833Y600693D01*
X534770Y600691D02*
X534801Y600692D01*
X534738Y600690D02*
X534770Y600691D01*
X534707Y600689D02*
X534738Y600690D01*
X534676Y600688D02*
X534707Y600689D01*
X534646Y600687D02*
X534676Y600688D01*
X534615Y600686D02*
X534646Y600687D01*
X534585Y600684D02*
X534615Y600686D01*
X534554Y600683D02*
X534585Y600684D01*
X534524Y600682D02*
X534554Y600683D01*
X534494Y600681D02*
X534524Y600682D01*
X534465Y600680D02*
X534494Y600681D01*
X534436Y600679D02*
X534465Y600680D01*
X534406Y600678D02*
X534436Y600679D01*
X534377Y600677D02*
X534406Y600678D01*
X534348Y600676D02*
X534377Y600677D01*
X534320Y600675D02*
X534348Y600676D01*
X534291Y600674D02*
X534320Y600675D01*
X534263Y600673D02*
X534291Y600674D01*
X534235Y600672D02*
X534263Y600673D01*
X534207Y600671D02*
X534235Y600672D01*
X534179Y600670D02*
X534207Y600671D01*
X534152Y600669D02*
X534179Y600670D01*
X534124Y600668D02*
X534152Y600669D01*
X534097Y600668D02*
X534124Y600668D01*
X534070Y600667D02*
X534097Y600668D01*
X534044Y600666D02*
X534070Y600667D01*
X534017Y600665D02*
X534044Y600666D01*
X533991Y600664D02*
X534017Y600665D01*
X533965Y600663D02*
X533991Y600664D01*
X533939Y600663D02*
X533965Y600663D01*
X533913Y600662D02*
X533939Y600663D01*
X533888Y600661D02*
X533913Y600662D01*
X533862Y600660D02*
X533888Y600661D01*
X533837Y600660D02*
X533862Y600660D01*
X533812Y600659D02*
X533837Y600660D01*
X533788Y600658D02*
X533812Y600659D01*
X533763Y600658D02*
X533788Y600658D01*
X533739Y600657D02*
X533763Y600658D01*
X533715Y600656D02*
X533739Y600657D01*
X533691Y600656D02*
X533715Y600656D01*
X533667Y600655D02*
X533691Y600656D01*
X533644Y600655D02*
X533667Y600655D01*
X533620Y600654D02*
X533644Y600655D01*
X533597Y600654D02*
X533620Y600654D01*
X533574Y600653D02*
X533597Y600654D01*
X533552Y600653D02*
X533574Y600653D01*
X533529Y600652D02*
X533552Y600653D01*
X533507Y600652D02*
X533529Y600652D01*
X533485Y600652D02*
X533507Y600652D01*
X533463Y600651D02*
X533485Y600652D01*
X533442Y600651D02*
X533463Y600651D01*
X533420Y600651D02*
X533442Y600651D01*
X533399Y600650D02*
X533420Y600651D01*
X533378Y600650D02*
X533399Y600650D01*
X533357Y600650D02*
X533378Y600650D01*
X533337Y600650D02*
X533357Y600650D01*
X533316Y600649D02*
X533337Y600650D01*
X533296Y600649D02*
X533316Y600649D01*
X533276Y600649D02*
X533296Y600649D01*
X533256Y600649D02*
X533276Y600649D01*
X533218Y600649D02*
X533256Y600649D01*
X186304Y159792D02*
Y184098D01*
X137687Y221953D02*
Y223449D01*
Y221953D02*
Y550770D01*
X186304Y184098D02*
X186304D01*
X186304D02*
X186304D01*
X186303Y184098D02*
X186304Y184098D01*
X186303Y184098D02*
X186303D01*
X186303Y184098D02*
X186303Y184098D01*
X186302Y184098D02*
X186303D01*
X186302Y184098D02*
X186302Y184098D01*
X186301Y184098D02*
X186302Y184098D01*
X186301Y184098D02*
X186301Y184098D01*
X186300Y184098D02*
X186301Y184098D01*
X186299Y184098D02*
X186300Y184098D01*
X186298Y184098D02*
X186299Y184098D01*
X186297Y184098D02*
X186298Y184098D01*
X186296Y184098D02*
X186297Y184098D01*
X186295Y184098D02*
X186296Y184098D01*
X186293Y184098D02*
X186295Y184098D01*
X186292Y184098D02*
X186293Y184098D01*
X186291Y184098D02*
X186292Y184098D01*
X186289Y184098D02*
X186291Y184098D01*
X186288Y184098D02*
X186289Y184098D01*
X186286Y184098D02*
X186288Y184098D01*
X186284Y184098D02*
X186286Y184098D01*
X186283Y184098D02*
X186284Y184098D01*
X186281Y184098D02*
X186283Y184098D01*
X186279Y184098D02*
X186281Y184098D01*
X186277Y184098D02*
X186279Y184098D01*
X186275Y184098D02*
X186277Y184098D01*
X186273Y184098D02*
X186275Y184098D01*
X186270Y184098D02*
X186273D01*
X186268Y184098D02*
X186270Y184098D01*
X186265Y184098D02*
X186268D01*
X186263Y184098D02*
X186265Y184098D01*
X186260Y184098D02*
X186263D01*
X186258D02*
X186260D01*
X186255D02*
X186258D01*
X186252Y184098D02*
X186255Y184098D01*
X186249Y184098D02*
X186252D01*
X186246Y184098D02*
X186249Y184098D01*
X186243Y184098D02*
X186246Y184098D01*
X186240Y184098D02*
X186243Y184098D01*
X186237Y184098D02*
X186240Y184098D01*
X186233Y184098D02*
X186237Y184098D01*
X186230Y184098D02*
X186233Y184098D01*
X186227Y184098D02*
X186230Y184098D01*
X186223Y184098D02*
X186227Y184098D01*
X186220Y184098D02*
X186223Y184098D01*
X186216Y184098D02*
X186220Y184098D01*
X186212Y184098D02*
X186216Y184098D01*
X186208Y184098D02*
X186212Y184098D01*
X186204Y184098D02*
X186208Y184098D01*
X186200Y184098D02*
X186204Y184098D01*
X186196Y184098D02*
X186200Y184098D01*
X186192Y184098D02*
X186196Y184098D01*
X186188Y184098D02*
X186192Y184098D01*
X186184Y184098D02*
X186188Y184098D01*
X186179Y184098D02*
X186184Y184098D01*
X186175Y184098D02*
X186179Y184098D01*
X186170Y184098D02*
X186175Y184098D01*
X186165Y184098D02*
X186170Y184098D01*
X186161Y184098D02*
X186165Y184098D01*
X186156Y184098D02*
X186161Y184098D01*
X186151Y184098D02*
X186156Y184098D01*
X186146Y184098D02*
X186151Y184098D01*
X186141Y184099D02*
X186146Y184098D01*
X186136Y184099D02*
X186141Y184099D01*
X186131Y184099D02*
X186136Y184099D01*
X186126Y184099D02*
X186131Y184099D01*
X186120Y184099D02*
X186126Y184099D01*
X186115Y184099D02*
X186120Y184099D01*
X186109Y184099D02*
X186115Y184099D01*
X186104Y184099D02*
X186109Y184099D01*
X186098Y184099D02*
X186104Y184099D01*
X186092Y184100D02*
X186098Y184099D01*
X186087Y184100D02*
X186092Y184100D01*
X186081Y184100D02*
X186087Y184100D01*
X186075Y184100D02*
X186081Y184100D01*
X186069Y184100D02*
X186075Y184100D01*
X186063Y184100D02*
X186069Y184100D01*
X186056Y184100D02*
X186063Y184100D01*
X186050Y184101D02*
X186056Y184100D01*
X186044Y184101D02*
X186050Y184101D01*
X186038Y184101D02*
X186044Y184101D01*
X186031Y184101D02*
X186038Y184101D01*
X186024Y184101D02*
X186031Y184101D01*
X186018Y184101D02*
X186024Y184101D01*
X186011Y184102D02*
X186018Y184101D01*
X186004Y184102D02*
X186011Y184102D01*
X185997Y184102D02*
X186004Y184102D01*
X185990Y184102D02*
X185997Y184102D01*
X185983Y184102D02*
X185990Y184102D01*
X185976Y184103D02*
X185983Y184102D01*
X185969Y184103D02*
X185976Y184103D01*
X185962Y184103D02*
X185969Y184103D01*
X185954Y184103D02*
X185962Y184103D01*
X185940Y184104D02*
X185954Y184103D01*
X185924Y184105D02*
X185940Y184104D01*
X185909Y184105D02*
X185924Y184105D01*
X185893Y184106D02*
X185909Y184105D01*
X185877Y184106D02*
X185893Y184106D01*
X185860Y184107D02*
X185877Y184106D01*
X185844Y184108D02*
X185860Y184107D01*
X185826Y184108D02*
X185844Y184108D01*
X185809Y184109D02*
X185826Y184108D01*
X185791Y184110D02*
X185809Y184109D01*
X185773Y184111D02*
X185791Y184110D01*
X185755Y184112D02*
X185773Y184111D01*
X185736Y184112D02*
X185755Y184112D01*
X185717Y184113D02*
X185736Y184112D01*
X185698Y184114D02*
X185717Y184113D01*
X185679Y184115D02*
X185698Y184114D01*
X185659Y184116D02*
X185679Y184115D01*
X185639Y184117D02*
X185659Y184116D01*
X185618Y184119D02*
X185639Y184117D01*
X185598Y184120D02*
X185618Y184119D01*
X185577Y184121D02*
X185598Y184120D01*
X185555Y184122D02*
X185577Y184121D01*
X185534Y184124D02*
X185555Y184122D01*
X185512Y184125D02*
X185534Y184124D01*
X185489Y184126D02*
X185512Y184125D01*
X185467Y184128D02*
X185489Y184126D01*
X185444Y184129D02*
X185467Y184128D01*
X185421Y184131D02*
X185444Y184129D01*
X185398Y184132D02*
X185421Y184131D01*
X185374Y184134D02*
X185398Y184132D01*
X185350Y184135D02*
X185374Y184134D01*
X185325Y184137D02*
X185350Y184135D01*
X185301Y184139D02*
X185325Y184137D01*
X185276Y184141D02*
X185301Y184139D01*
X185250Y184142D02*
X185276Y184141D01*
X185225Y184144D02*
X185250Y184142D01*
X185199Y184146D02*
X185225Y184144D01*
X185173Y184148D02*
X185199Y184146D01*
X185146Y184150D02*
X185173Y184148D01*
X185120Y184152D02*
X185146Y184150D01*
X185093Y184155D02*
X185120Y184152D01*
X185065Y184157D02*
X185093Y184155D01*
X185038Y184159D02*
X185065Y184157D01*
X185010Y184161D02*
X185038Y184159D01*
X184967Y184165D02*
X185010Y184161D01*
X184924Y184169D02*
X184967Y184165D01*
X184880Y184173D02*
X184924Y184169D01*
X184836Y184177D02*
X184880Y184173D01*
X184791Y184181D02*
X184836Y184177D01*
X184745Y184185D02*
X184791Y184181D01*
X184698Y184190D02*
X184745Y184185D01*
X184651Y184194D02*
X184698Y184190D01*
X184604Y184199D02*
X184651Y184194D01*
X184555Y184204D02*
X184604Y184199D01*
X184506Y184209D02*
X184555Y184204D01*
X184456Y184214D02*
X184506Y184209D01*
X184406Y184220D02*
X184456Y184214D01*
X184355Y184225D02*
X184406Y184220D01*
X184303Y184231D02*
X184355Y184225D01*
X184250Y184237D02*
X184303Y184231D01*
X184197Y184243D02*
X184250Y184237D01*
X184144Y184249D02*
X184197Y184243D01*
X184089Y184255D02*
X184144Y184249D01*
X184034Y184262D02*
X184089Y184255D01*
X183979Y184269D02*
X184034Y184262D01*
X183922Y184275D02*
X183979Y184269D01*
X183865Y184283D02*
X183922Y184275D01*
X183808Y184290D02*
X183865Y184283D01*
X183750Y184297D02*
X183808Y184290D01*
X183691Y184305D02*
X183750Y184297D01*
X183631Y184313D02*
X183691Y184305D01*
X183571Y184321D02*
X183631Y184313D01*
X183510Y184329D02*
X183571Y184321D01*
X183428Y184340D02*
X183510Y184329D01*
X183345Y184352D02*
X183428Y184340D01*
X183260Y184364D02*
X183345Y184352D01*
X183175Y184376D02*
X183260Y184364D01*
X183088Y184389D02*
X183175Y184376D01*
X183000Y184402D02*
X183088Y184389D01*
X182911Y184416D02*
X183000Y184402D01*
X182821Y184430D02*
X182911Y184416D01*
X182730Y184444D02*
X182821Y184430D01*
X182638Y184459D02*
X182730Y184444D01*
X182544Y184474D02*
X182638Y184459D01*
X182450Y184490D02*
X182544Y184474D01*
X182354Y184505D02*
X182450Y184490D01*
X182257Y184522D02*
X182354Y184505D01*
X182159Y184539D02*
X182257Y184522D01*
X182060Y184556D02*
X182159Y184539D01*
X181960Y184574D02*
X182060Y184556D01*
X181859Y184592D02*
X181960Y184574D01*
X181756Y184611D02*
X181859Y184592D01*
X181653Y184630D02*
X181756Y184611D01*
X181548Y184649D02*
X181653Y184630D01*
X181442Y184669D02*
X181548Y184649D01*
X181336Y184690D02*
X181442Y184669D01*
X181201Y184716D02*
X181336Y184690D01*
X181064Y184743D02*
X181201Y184716D01*
X180926Y184771D02*
X181064Y184743D01*
X180785Y184800D02*
X180926Y184771D01*
X180643Y184829D02*
X180785Y184800D01*
X180500Y184859D02*
X180643Y184829D01*
X180355Y184890D02*
X180500Y184859D01*
X180208Y184922D02*
X180355Y184890D01*
X180059Y184955D02*
X180208Y184922D01*
X179909Y184989D02*
X180059Y184955D01*
X179757Y185023D02*
X179909Y184989D01*
X179603Y185058D02*
X179757Y185023D01*
X179448Y185095D02*
X179603Y185058D01*
X179291Y185132D02*
X179448Y185095D01*
X179132Y185170D02*
X179291Y185132D01*
X178972Y185209D02*
X179132Y185170D01*
X178810Y185249D02*
X178972Y185209D01*
X178647Y185289D02*
X178810Y185249D01*
X178481Y185331D02*
X178647Y185289D01*
X178314Y185374D02*
X178481Y185331D01*
X178112Y185426D02*
X178314Y185374D01*
X177907Y185480D02*
X178112Y185426D01*
X177700Y185536D02*
X177907Y185480D01*
X177491Y185593D02*
X177700Y185536D01*
X177279Y185651D02*
X177491Y185593D01*
X177065Y185711D02*
X177279Y185651D01*
X176849Y185772D02*
X177065Y185711D01*
X176630Y185835D02*
X176849Y185772D01*
X176409Y185900D02*
X176630Y185835D01*
X176186Y185966D02*
X176409Y185900D01*
X175960Y186033D02*
X176186Y185966D01*
X175732Y186103D02*
X175960Y186033D01*
X175502Y186174D02*
X175732Y186103D01*
X175270Y186246D02*
X175502Y186174D01*
X175035Y186320D02*
X175270Y186246D01*
X174798Y186396D02*
X175035Y186320D01*
X174559Y186474D02*
X174798Y186396D01*
X174317Y186553D02*
X174559Y186474D01*
X174074Y186634D02*
X174317Y186553D01*
X173828Y186717D02*
X174074Y186634D01*
X173580Y186802D02*
X173828Y186717D01*
X173330Y186888D02*
X173580Y186802D01*
X173035Y186991D02*
X173330Y186888D01*
X172737Y187097D02*
X173035Y186991D01*
X172436Y187205D02*
X172737Y187097D01*
X172133Y187316D02*
X172436Y187205D01*
X171826Y187429D02*
X172133Y187316D01*
X171516Y187545D02*
X171826Y187429D01*
X171204Y187664D02*
X171516Y187545D01*
X170888Y187785D02*
X171204Y187664D01*
X170570Y187909D02*
X170888Y187785D01*
X170248Y188036D02*
X170570Y187909D01*
X169924Y188165D02*
X170248Y188036D01*
X169597Y188298D02*
X169924Y188165D01*
X169267Y188433D02*
X169597Y188298D01*
X168934Y188571D02*
X169267Y188433D01*
X168599Y188712D02*
X168934Y188571D01*
X168260Y188856D02*
X168599Y188712D01*
X167919Y189003D02*
X168260Y188856D01*
X167575Y189153D02*
X167919Y189003D01*
X167228Y189305D02*
X167575Y189153D01*
X166878Y189461D02*
X167228Y189305D01*
X166525Y189620D02*
X166878Y189461D01*
X166170Y189782D02*
X166525Y189620D01*
X165812Y189948D02*
X166170Y189782D01*
X165451Y190116D02*
X165812Y189948D01*
X165087Y190288D02*
X165451Y190116D01*
X164721Y190463D02*
X165087Y190288D01*
X164352Y190641D02*
X164721Y190463D01*
X163980Y190822D02*
X164352Y190641D01*
X163606Y191007D02*
X163980Y190822D01*
X163229Y191195D02*
X163606Y191007D01*
X162849Y191386D02*
X163229Y191195D01*
X162467Y191581D02*
X162849Y191386D01*
X162082Y191779D02*
X162467Y191581D01*
X161694Y191981D02*
X162082Y191779D01*
X161303Y192186D02*
X161694Y191981D01*
X160910Y192395D02*
X161303Y192186D01*
X160515Y192607D02*
X160910Y192395D01*
X160117Y192824D02*
X160515Y192607D01*
X159716Y193043D02*
X160117Y192824D01*
X159312Y193266D02*
X159716Y193043D01*
X158907Y193493D02*
X159312Y193266D01*
X158498Y193724D02*
X158907Y193493D01*
X158087Y193958D02*
X158498Y193724D01*
X157674Y194196D02*
X158087Y193958D01*
X157257Y194438D02*
X157674Y194196D01*
X156839Y194684D02*
X157257Y194438D01*
X156418Y194934D02*
X156839Y194684D01*
X155994Y195187D02*
X156418Y194934D01*
X155568Y195445D02*
X155994Y195187D01*
X155140Y195706D02*
X155568Y195445D01*
X154708Y195971D02*
X155140Y195706D01*
X154275Y196241D02*
X154708Y195971D01*
X153839Y196514D02*
X154275Y196241D01*
X153401Y196792D02*
X153839Y196514D01*
X152960Y197073D02*
X153401Y196792D01*
X152517Y197359D02*
X152960Y197073D01*
X152071Y197649D02*
X152517Y197359D01*
X151559Y197985D02*
X152071Y197649D01*
X151462Y198050D02*
X151559Y197985D01*
X151267Y198182D02*
X151462Y198050D01*
X151075Y198316D02*
X151267Y198182D01*
X150884Y198453D02*
X151075Y198316D01*
X150694Y198591D02*
X150884Y198453D01*
X150538Y198709D02*
X150694Y198591D01*
X150383Y198828D02*
X150538Y198709D01*
X150229Y198948D02*
X150383Y198828D01*
X150076Y199070D02*
X150229Y198948D01*
X149924Y199193D02*
X150076Y199070D01*
X149773Y199318D02*
X149924Y199193D01*
X149624Y199444D02*
X149773Y199318D01*
X149475Y199571D02*
X149624Y199444D01*
X149328Y199700D02*
X149475Y199571D01*
X149182Y199830D02*
X149328Y199700D01*
X149037Y199962D02*
X149182Y199830D01*
X148893Y200095D02*
X149037Y199962D01*
X148751Y200229D02*
X148893Y200095D01*
X148609Y200364D02*
X148751Y200229D01*
X148468Y200501D02*
X148609Y200364D01*
X148329Y200638D02*
X148468Y200501D01*
X148191Y200777D02*
X148329Y200638D01*
X148054Y200918D02*
X148191Y200777D01*
X147918Y201059D02*
X148054Y200918D01*
X147783Y201201D02*
X147918Y201059D01*
X147649Y201345D02*
X147783Y201201D01*
X147516Y201489D02*
X147649Y201345D01*
X147384Y201635D02*
X147516Y201489D01*
X147254Y201782D02*
X147384Y201635D01*
X147150Y201900D02*
X147254Y201782D01*
X147047Y202019D02*
X147150Y201900D01*
X146945Y202138D02*
X147047Y202019D01*
X146843Y202258D02*
X146945Y202138D01*
X146742Y202379D02*
X146843Y202258D01*
X146642Y202500D02*
X146742Y202379D01*
X146542Y202622D02*
X146642Y202500D01*
X146443Y202744D02*
X146542Y202622D01*
X146345Y202867D02*
X146443Y202744D01*
X146247Y202990D02*
X146345Y202867D01*
X146150Y203114D02*
X146247Y202990D01*
X146054Y203239D02*
X146150Y203114D01*
X145935Y203395D02*
X146054Y203239D01*
X145816Y203552D02*
X145935Y203395D01*
X145699Y203710D02*
X145816Y203552D01*
X145583Y203869D02*
X145699Y203710D01*
X145468Y204028D02*
X145583Y203869D01*
X145353Y204188D02*
X145468Y204028D01*
X145240Y204349D02*
X145353Y204188D01*
X145128Y204510D02*
X145240Y204349D01*
X145017Y204672D02*
X145128Y204510D01*
X144907Y204835D02*
X145017Y204672D01*
X144798Y204998D02*
X144907Y204835D01*
X144689Y205162D02*
X144798Y204998D01*
X144582Y205326D02*
X144689Y205162D01*
X144476Y205491D02*
X144582Y205326D01*
X144371Y205656D02*
X144476Y205491D01*
X144267Y205822D02*
X144371Y205656D01*
X144163Y205988D02*
X144267Y205822D01*
X144061Y206155D02*
X144163Y205988D01*
X143960Y206322D02*
X144061Y206155D01*
X143860Y206489D02*
X143960Y206322D01*
X143760Y206657D02*
X143860Y206489D01*
X143662Y206825D02*
X143760Y206657D01*
X143565Y206994D02*
X143662Y206825D01*
X143468Y207162D02*
X143565Y206994D01*
X143373Y207331D02*
X143468Y207162D01*
X143278Y207501D02*
X143373Y207331D01*
X143185Y207670D02*
X143278Y207501D01*
X143092Y207840D02*
X143185Y207670D01*
X143000Y208010D02*
X143092Y207840D01*
X142910Y208180D02*
X143000Y208010D01*
X142820Y208350D02*
X142910Y208180D01*
X142731Y208521D02*
X142820Y208350D01*
X142643Y208691D02*
X142731Y208521D01*
X142556Y208861D02*
X142643Y208691D01*
X142470Y209032D02*
X142556Y208861D01*
X142367Y209237D02*
X142470Y209032D01*
X142266Y209441D02*
X142367Y209237D01*
X142167Y209646D02*
X142266Y209441D01*
X142069Y209851D02*
X142167Y209646D01*
X141972Y210055D02*
X142069Y209851D01*
X141876Y210260D02*
X141972Y210055D01*
X141782Y210464D02*
X141876Y210260D01*
X141688Y210668D02*
X141782Y210464D01*
X141597Y210872D02*
X141688Y210668D01*
X141506Y211075D02*
X141597Y210872D01*
X141417Y211278D02*
X141506Y211075D01*
X141314Y211515D02*
X141417Y211278D01*
X141213Y211751D02*
X141314Y211515D01*
X141113Y211986D02*
X141213Y211751D01*
X141016Y212221D02*
X141113Y211986D01*
X140920Y212455D02*
X141016Y212221D01*
X140825Y212687D02*
X140920Y212455D01*
X140720Y212953D02*
X140825Y212687D01*
X140616Y213217D02*
X140720Y212953D01*
X140514Y213480D02*
X140616Y213217D01*
X140402Y213774D02*
X140514Y213480D01*
X140293Y214066D02*
X140402Y213774D01*
X140186Y214356D02*
X140293Y214066D01*
X140071Y214675D02*
X140186Y214356D01*
X139948Y215024D02*
X140071Y214675D01*
X139817Y215399D02*
X139948Y215024D01*
X139681Y215801D02*
X139817Y215399D01*
X139530Y216258D02*
X139681Y215801D01*
X139349Y216823D02*
X139530Y216258D01*
X138605Y219383D02*
X138801Y218667D01*
X138503Y219772D02*
X138605Y219383D01*
X138430Y220054D02*
X138503Y219772D01*
X138373Y220282D02*
X138430Y220054D01*
X138323Y220482D02*
X138373Y220282D01*
X138281Y220655D02*
X138323Y220482D01*
X138245Y220803D02*
X138281Y220655D01*
X138210Y220948D02*
X138245Y220803D01*
X138182Y221069D02*
X138210Y220948D01*
X138154Y221187D02*
X138182Y221069D01*
X138132Y221284D02*
X138154Y221187D01*
X138110Y221380D02*
X138132Y221284D01*
X138089Y221473D02*
X138110Y221380D01*
X138068Y221564D02*
X138089Y221473D01*
X138052Y221636D02*
X138068Y221564D01*
X138036Y221707D02*
X138052Y221636D01*
X138021Y221776D02*
X138036Y221707D01*
X138006Y221844D02*
X138021Y221776D01*
X137991Y221911D02*
X138006Y221844D01*
X137977Y221977D02*
X137991Y221911D01*
X137963Y222041D02*
X137977Y221977D01*
X137953Y222089D02*
X137963Y222041D01*
X137943Y222135D02*
X137953Y222089D01*
X137933Y222181D02*
X137943Y222135D01*
X137924Y222227D02*
X137933Y222181D01*
X137914Y222271D02*
X137924Y222227D01*
X137905Y222315D02*
X137914Y222271D01*
X137896Y222358D02*
X137905Y222315D01*
X137887Y222400D02*
X137896Y222358D01*
X137879Y222442D02*
X137887Y222400D01*
X137870Y222482D02*
X137879Y222442D01*
X137862Y222522D02*
X137870Y222482D01*
X137854Y222562D02*
X137862Y222522D01*
X137849Y222587D02*
X137854Y222562D01*
X137844Y222613D02*
X137849Y222587D01*
X137839Y222638D02*
X137844Y222613D01*
X137834Y222662D02*
X137839Y222638D01*
X137829Y222687D02*
X137834Y222662D01*
X137824Y222711D02*
X137829Y222687D01*
X137820Y222734D02*
X137824Y222711D01*
X137815Y222757D02*
X137820Y222734D01*
X137811Y222780D02*
X137815Y222757D01*
X137806Y222803D02*
X137811Y222780D01*
X137802Y222825D02*
X137806Y222803D01*
X137798Y222847D02*
X137802Y222825D01*
X137794Y222868D02*
X137798Y222847D01*
X137789Y222889D02*
X137794Y222868D01*
X137785Y222910D02*
X137789Y222889D01*
X137782Y222930D02*
X137785Y222910D01*
X137778Y222950D02*
X137782Y222930D01*
X137774Y222970D02*
X137778Y222950D01*
X137770Y222989D02*
X137774Y222970D01*
X137767Y223008D02*
X137770Y222989D01*
X137763Y223027D02*
X137767Y223008D01*
X137760Y223045D02*
X137763Y223027D01*
X137756Y223062D02*
X137760Y223045D01*
X137753Y223080D02*
X137756Y223062D01*
X137750Y223097D02*
X137753Y223080D01*
X137747Y223113D02*
X137750Y223097D01*
X137745Y223122D02*
X137747Y223113D01*
X137744Y223130D02*
X137745Y223122D01*
X137742Y223138D02*
X137744Y223130D01*
X137741Y223146D02*
X137742Y223138D01*
X137740Y223153D02*
X137741Y223146D01*
X137738Y223161D02*
X137740Y223153D01*
X137737Y223168D02*
X137738Y223161D01*
X137735Y223176D02*
X137737Y223168D01*
X137734Y223183D02*
X137735Y223176D01*
X137733Y223191D02*
X137734Y223183D01*
X137731Y223198D02*
X137733Y223191D01*
X137730Y223205D02*
X137731Y223198D01*
X137729Y223212D02*
X137730Y223205D01*
X137727Y223219D02*
X137729Y223212D01*
X137726Y223226D02*
X137727Y223219D01*
X137725Y223232D02*
X137726Y223226D01*
X137724Y223239D02*
X137725Y223232D01*
X137723Y223246D02*
X137724Y223239D01*
X137722Y223252D02*
X137723Y223246D01*
X137720Y223258D02*
X137722Y223252D01*
X137719Y223264D02*
X137720Y223258D01*
X137718Y223271D02*
X137719Y223264D01*
X137717Y223276D02*
X137718Y223271D01*
X137716Y223283D02*
X137717Y223276D01*
X137715Y223288D02*
X137716Y223283D01*
X137714Y223294D02*
X137715Y223288D01*
X137713Y223300D02*
X137714Y223294D01*
X137712Y223305D02*
X137713Y223300D01*
X137711Y223310D02*
X137712Y223305D01*
X137710Y223316D02*
X137711Y223310D01*
X137709Y223321D02*
X137710Y223316D01*
X137708Y223326D02*
X137709Y223321D01*
X137707Y223331D02*
X137708Y223326D01*
X137706Y223336D02*
X137707Y223331D01*
X137706Y223341D02*
X137706Y223336D01*
X137705Y223346D02*
X137706Y223341D01*
X137704Y223350D02*
X137705Y223346D01*
X137703Y223355D02*
X137704Y223350D01*
X137703Y223359D02*
X137703Y223355D01*
X137702Y223363D02*
X137703Y223359D01*
X137701Y223368D02*
X137702Y223363D01*
X137700Y223372D02*
X137701Y223368D01*
X137700Y223376D02*
X137700Y223372D01*
X137699Y223379D02*
X137700Y223376D01*
X137698Y223383D02*
X137699Y223379D01*
X137698Y223387D02*
X137698Y223383D01*
X137697Y223391D02*
X137698Y223387D01*
X137697Y223394D02*
X137697Y223391D01*
X137696Y223397D02*
X137697Y223394D01*
X137695Y223401D02*
X137696Y223397D01*
X137695Y223404D02*
X137695Y223401D01*
X137694Y223407D02*
X137695Y223404D01*
X137694Y223410D02*
X137694Y223407D01*
X137693Y223413D02*
X137694Y223410D01*
X137693Y223415D02*
X137693Y223413D01*
X137692Y223418D02*
X137693Y223415D01*
X137692Y223421D02*
X137692Y223418D01*
X137691Y223423D02*
X137692Y223421D01*
X137691Y223425D02*
X137691Y223423D01*
X137691Y223428D02*
X137691Y223425D01*
X137690Y223430D02*
X137691Y223428D01*
X137690Y223432D02*
X137690Y223430D01*
X137690Y223433D02*
X137690Y223432D01*
X137689Y223435D02*
X137690Y223433D01*
X137689Y223437D02*
X137689Y223435D01*
X137689Y223439D02*
X137689Y223437D01*
X137689Y223440D02*
X137689Y223439D01*
X137688Y223441D02*
X137689Y223440D01*
X137688Y223443D02*
X137688Y223441D01*
X137688Y223444D02*
X137688Y223443D01*
X137688Y223445D02*
X137688Y223444D01*
X137688Y223446D02*
X137688Y223445D01*
X137688Y223446D02*
X137688Y223446D01*
X137687Y223447D02*
X137688Y223446D01*
X137687Y223448D02*
X137687Y223447D01*
X137687Y223448D02*
X137687Y223448D01*
X137687Y223449D02*
X137687Y223448D01*
X137687Y223449D02*
X137687Y223449D01*
X137687Y223449D02*
X137687Y223449D01*
X186304Y600764D02*
Y658634D01*
X137688Y551100D02*
X137690Y551592D01*
X137695Y552081D01*
X137702Y552566D01*
X137712Y553048D01*
X137723Y553527D01*
X137737Y554003D01*
X137753Y554476D01*
X137771Y554946D01*
X137792Y555412D01*
X137814Y555875D01*
X137839Y556336D01*
X137866Y556793D01*
X137895Y557247D01*
X137926Y557697D01*
X137959Y558145D01*
X137994Y558590D01*
X138031Y559031D01*
X138071Y559470D01*
X138112Y559905D01*
X138155Y560338D01*
X138201Y560767D01*
X138248Y561193D01*
X138298Y561617D01*
X138349Y562037D01*
X138402Y562454D01*
X138458Y562869D01*
X138515Y563280D01*
X138574Y563689D01*
X138636Y564094D01*
X138698Y564497D01*
X138763Y564896D01*
X138830Y565293D01*
X138899Y565687D01*
X138969Y566078D01*
X139042Y566466D01*
X139116Y566851D01*
X139192Y567233D01*
X139270Y567613D01*
X139349Y567989D01*
X139431Y568363D01*
X139514Y568734D01*
X139599Y569102D01*
X139685Y569467D01*
X139774Y569830D01*
X139864Y570190D01*
X139956Y570547D01*
X140049Y570901D01*
X140144Y571253D01*
X140241Y571601D01*
X140340Y571947D01*
X140440Y572291D01*
X140542Y572631D01*
X140645Y572969D01*
X140750Y573305D01*
X140856Y573637D01*
X140964Y573967D01*
X141074Y574294D01*
X141185Y574619D01*
X141298Y574941D01*
X141412Y575260D01*
X141528Y575577D01*
X141646Y575891D01*
X141764Y576203D01*
X141925Y576615D01*
X142088Y577022D01*
X142254Y577424D01*
X142423Y577822D01*
X142594Y578215D01*
X142767Y578604D01*
X142943Y578989D01*
X143121Y579369D01*
X143301Y579744D01*
X143484Y580116D01*
X143670Y580483D01*
X143857Y580845D01*
X144047Y581204D01*
X144239Y581558D01*
X144482Y581995D01*
X144729Y582425D01*
X144979Y582849D01*
X145232Y583266D01*
X145488Y583677D01*
X145748Y584082D01*
X146063Y584559D01*
X146383Y585027D01*
X146707Y585486D01*
X158715Y595973D02*
X159258Y596254D01*
X159803Y596525D01*
X160349Y596785D01*
X160828Y597004D01*
X161307Y597216D01*
X161786Y597420D01*
X162266Y597616D01*
X162745Y597805D01*
X163156Y597961D01*
X163567Y598112D01*
X163978Y598258D01*
X164388Y598399D01*
X164798Y598535D01*
X165207Y598666D01*
X165615Y598793D01*
X166023Y598914D01*
X166429Y599031D01*
X166835Y599144D01*
X167240Y599252D01*
X167643Y599355D01*
X168045Y599454D01*
X168446Y599549D01*
X168845Y599640D01*
X169243Y599727D01*
X169639Y599810D01*
X170033Y599890D01*
X170425Y599965D01*
X170815Y600036D01*
X171203Y600105D01*
X171589Y600169D01*
X171973Y600230D01*
X172354Y600288D01*
X172733Y600342D01*
X173109Y600394D01*
X173482Y600442D01*
X173853Y600487D01*
X174220Y600529D01*
X174585Y600568D01*
X174946Y600605D01*
X175304Y600639D01*
X175659Y600670D01*
X176011Y600699D01*
X176359Y600726D01*
X176703Y600750D01*
X177044Y600772D01*
X177325Y600788D01*
X177603Y600803D01*
X177878Y600817D01*
X178151Y600829D01*
X178421Y600840D01*
X178687Y600850D01*
X178951Y600858D01*
X179212Y600866D01*
X179418Y600871D01*
X179622Y600875D01*
X179824Y600879D01*
X180025Y600882D01*
X180222Y600884D01*
X180418Y600886D01*
X180612Y600887D01*
X180756Y600888D01*
X180898Y600888D01*
X181040Y600888D01*
X181180Y600888D01*
X181318Y600888D01*
X181456Y600887D01*
X181592Y600886D01*
X181726Y600885D01*
X181816Y600884D01*
X181904Y600883D01*
X181992Y600882D01*
X182079Y600880D01*
X182166Y600879D01*
X182252Y600878D01*
X182337Y600876D01*
X182422Y600875D01*
X182506Y600873D01*
X182590Y600872D01*
X182673Y600870D01*
X182755Y600868D01*
X182836Y600866D01*
X182917Y600864D01*
X182957Y600863D01*
X182998Y600862D01*
X183037Y600861D01*
X183077Y600860D01*
X183117Y600859D01*
X183156Y600858D01*
X183195Y600857D01*
X183235Y600856D01*
X183273Y600855D01*
X183312Y600854D01*
X183351Y600853D01*
X183389Y600852D01*
X183428Y600851D01*
X183466Y600850D01*
X183503Y600848D01*
X183541Y600847D01*
X183579Y600846D01*
X183616Y600845D01*
X183653Y600844D01*
X183691Y600843D01*
X183727Y600842D01*
X183764Y600841D01*
X183801Y600839D01*
X183837Y600838D01*
X183873Y600837D01*
X183909Y600836D01*
X183945Y600835D01*
X183981Y600834D01*
X184016Y600832D01*
X184052Y600831D01*
X184087Y600830D01*
X184122Y600829D01*
X184157Y600828D01*
X184191Y600826D01*
X184225Y600825D01*
X184260Y600824D01*
X184294Y600823D01*
X184328Y600822D01*
X184361Y600820D01*
X184395Y600819D01*
X184428Y600818D01*
X184461Y600817D01*
X184494Y600816D01*
X184527Y600814D01*
X184560Y600813D01*
X184592Y600812D01*
X184625Y600811D01*
X184657Y600810D01*
X184689Y600809D01*
X184720Y600808D01*
X184752Y600806D01*
X184783Y600805D01*
X184814Y600804D01*
X184845Y600803D01*
X184876Y600802D01*
X184906Y600801D01*
X184937Y600800D01*
X184967Y600799D01*
X184997Y600798D01*
X185027Y600797D01*
X185056Y600796D01*
X185086Y600794D01*
X185115Y600793D01*
X185144Y600792D01*
X185173Y600791D01*
X185202Y600790D01*
X185230Y600789D01*
X185259Y600788D01*
X185287Y600787D01*
X185315Y600786D01*
X185342Y600786D01*
X185370Y600785D01*
X185397Y600784D01*
X185424Y600783D01*
X185451Y600782D01*
X185478Y600781D01*
X185504Y600780D01*
X185531Y600779D01*
X185557Y600779D01*
X185583Y600778D01*
X185608Y600777D01*
X185634Y600776D01*
X185659Y600776D01*
X185684Y600775D01*
X185709Y600774D01*
X185734Y600774D01*
X185758Y600773D01*
X185783Y600772D01*
X185807Y600772D01*
X185831Y600771D01*
X185854Y600771D01*
X185878Y600770D01*
X185901Y600770D01*
X185924Y600769D01*
X185947Y600769D01*
X185970Y600768D01*
X185992Y600768D01*
X186014Y600767D01*
X186037Y600767D01*
X186058Y600767D01*
X186080Y600766D01*
X186101Y600766D01*
X186123Y600766D01*
X186144Y600765D01*
X186164Y600765D01*
X186185Y600765D01*
X186205Y600765D01*
X186225Y600765D01*
X186245Y600765D01*
X186265Y600765D01*
X186304Y600764D01*
X186073Y159792D02*
X186304Y159792D01*
X185381Y159794D02*
X186073Y159792D01*
X184695Y159798D02*
X185381Y159794D01*
X184011Y159804D02*
X184695Y159798D01*
X183332Y159812D02*
X184011Y159804D01*
X182657Y159822D02*
X183332Y159812D01*
X181986Y159834D02*
X182657Y159822D01*
X181318Y159848D02*
X181986Y159834D01*
X180655Y159865D02*
X181318Y159848D01*
X179995Y159883D02*
X180655Y159865D01*
X179340Y159903D02*
X179995Y159883D01*
X178688Y159926D02*
X179340Y159903D01*
X178040Y159950D02*
X178688Y159926D01*
X177395Y159976D02*
X178040Y159950D01*
X176755Y160004D02*
X177395Y159976D01*
X176119Y160034D02*
X176755Y160004D01*
X175486Y160066D02*
X176119Y160034D01*
X174857Y160100D02*
X175486Y160066D01*
X174232Y160136D02*
X174857Y160100D01*
X173610Y160174D02*
X174232Y160136D01*
X172993Y160214D02*
X173610Y160174D01*
X172379Y160255D02*
X172993Y160214D01*
X171769Y160299D02*
X172379Y160255D01*
X171163Y160344D02*
X171769Y160299D01*
X170560Y160391D02*
X171163Y160344D01*
X169961Y160440D02*
X170560Y160391D01*
X169366Y160490D02*
X169961Y160440D01*
X168774Y160543D02*
X169366Y160490D01*
X168186Y160597D02*
X168774Y160543D01*
X167602Y160653D02*
X168186Y160597D01*
X167021Y160711D02*
X167602Y160653D01*
X166444Y160770D02*
X167021Y160711D01*
X165871Y160831D02*
X166444Y160770D01*
X165301Y160894D02*
X165871Y160831D01*
X164735Y160959D02*
X165301Y160894D01*
X164173Y161025D02*
X164735Y160959D01*
X163614Y161093D02*
X164173Y161025D01*
X163058Y161162D02*
X163614Y161093D01*
X162506Y161234D02*
X163058Y161162D01*
X161958Y161307D02*
X162506Y161234D01*
X161413Y161381D02*
X161958Y161307D01*
X160872Y161457D02*
X161413Y161381D01*
X160334Y161535D02*
X160872Y161457D01*
X159800Y161614D02*
X160334Y161535D01*
X159269Y161695D02*
X159800Y161614D01*
X158742Y161778D02*
X159269Y161695D01*
X158218Y161862D02*
X158742Y161778D01*
X157698Y161947D02*
X158218Y161862D01*
X157181Y162034D02*
X157698Y161947D01*
X156668Y162123D02*
X157181Y162034D01*
X156158Y162213D02*
X156668Y162123D01*
X155651Y162304D02*
X156158Y162213D01*
X155148Y162398D02*
X155651Y162304D01*
X154648Y162492D02*
X155148Y162398D01*
X154151Y162588D02*
X154648Y162492D01*
X153658Y162685D02*
X154151Y162588D01*
X153168Y162784D02*
X153658Y162685D01*
X152682Y162884D02*
X153168Y162784D01*
X152199Y162986D02*
X152682Y162884D01*
X151719Y163089D02*
X152199Y162986D01*
X151243Y163193D02*
X151719Y163089D01*
X150769Y163299D02*
X151243Y163193D01*
X150300Y163406D02*
X150769Y163299D01*
X149833Y163514D02*
X150300Y163406D01*
X149370Y163624D02*
X149833Y163514D01*
X148909Y163735D02*
X149370Y163624D01*
X148452Y163847D02*
X148909Y163735D01*
X147999Y163961D02*
X148452Y163847D01*
X147548Y164075D02*
X147999Y163961D01*
X147101Y164191D02*
X147548Y164075D01*
X146657Y164309D02*
X147101Y164191D01*
X146216Y164427D02*
X146657Y164309D01*
X145778Y164547D02*
X146216Y164427D01*
X145344Y164668D02*
X145778Y164547D01*
X144913Y164790D02*
X145344Y164668D01*
X144484Y164913D02*
X144913Y164790D01*
X144059Y165038D02*
X144484Y164913D01*
X143637Y165164D02*
X144059Y165038D01*
X143218Y165290D02*
X143637Y165164D01*
X142802Y165418D02*
X143218Y165290D01*
X142390Y165547D02*
X142802Y165418D01*
X141980Y165677D02*
X142390Y165547D01*
X141573Y165809D02*
X141980Y165677D01*
X141036Y165985D02*
X141573Y165809D01*
X140504Y166164D02*
X141036Y165985D01*
X139977Y166344D02*
X140504Y166164D01*
X139455Y166526D02*
X139977Y166344D01*
X138939Y166710D02*
X139455Y166526D01*
X138429Y166896D02*
X138939Y166710D01*
X137923Y167083D02*
X138429Y166896D01*
X137423Y167272D02*
X137923Y167083D01*
X136928Y167463D02*
X137423Y167272D01*
X136438Y167656D02*
X136928Y167463D01*
X135953Y167850D02*
X136438Y167656D01*
X135473Y168045D02*
X135953Y167850D01*
X134999Y168243D02*
X135473Y168045D01*
X134529Y168441D02*
X134999Y168243D01*
X134064Y168641D02*
X134529Y168441D01*
X133605Y168843D02*
X134064Y168641D01*
X133150Y169046D02*
X133605Y168843D01*
X132701Y169251D02*
X133150Y169046D01*
X132256Y169457D02*
X132701Y169251D01*
X131816Y169664D02*
X132256Y169457D01*
X131381Y169872D02*
X131816Y169664D01*
X130951Y170082D02*
X131381Y169872D01*
X130526Y170293D02*
X130951Y170082D01*
X130106Y170505D02*
X130526Y170293D01*
X129690Y170719D02*
X130106Y170505D01*
X129279Y170933D02*
X129690Y170719D01*
X128873Y171149D02*
X129279Y170933D01*
X128471Y171366D02*
X128873Y171149D01*
X128074Y171584D02*
X128471Y171366D01*
X127682Y171802D02*
X128074Y171584D01*
X127294Y172022D02*
X127682Y171802D01*
X126911Y172243D02*
X127294Y172022D01*
X126532Y172465D02*
X126911Y172243D01*
X126158Y172688D02*
X126532Y172465D01*
X125789Y172911D02*
X126158Y172688D01*
X125424Y173136D02*
X125789Y172911D01*
X125063Y173361D02*
X125424Y173136D01*
X124707Y173587D02*
X125063Y173361D01*
X124268Y173871D02*
X124707Y173587D01*
X123836Y174156D02*
X124268Y173871D01*
X123410Y174442D02*
X123836Y174156D01*
X122991Y174729D02*
X123410Y174442D01*
X122579Y175016D02*
X122991Y174729D01*
X122173Y175305D02*
X122579Y175016D01*
X121774Y175595D02*
X122173Y175305D01*
X121381Y175885D02*
X121774Y175595D01*
X120995Y176176D02*
X121381Y175885D01*
X120615Y176468D02*
X120995Y176176D01*
X120242Y176760D02*
X120615Y176468D01*
X119875Y177053D02*
X120242Y176760D01*
X119514Y177347D02*
X119875Y177053D01*
X119159Y177640D02*
X119514Y177347D01*
X118810Y177935D02*
X119159Y177640D01*
X118467Y178229D02*
X118810Y177935D01*
X118064Y178583D02*
X118467Y178229D01*
X117669Y178937D02*
X118064Y178583D01*
X117283Y179291D02*
X117669Y178937D01*
X116905Y179645D02*
X117283Y179291D01*
X116535Y179999D02*
X116905Y179645D01*
X116174Y180353D02*
X116535Y179999D01*
X115821Y180707D02*
X116174Y180353D01*
X115475Y181060D02*
X115821Y180707D01*
X115138Y181413D02*
X115475Y181060D01*
X114754Y181824D02*
X115138Y181413D01*
X114381Y182234D02*
X114754Y181824D01*
X114018Y182643D02*
X114381Y182234D01*
X113666Y183051D02*
X114018Y182643D01*
X113323Y183457D02*
X113666Y183051D01*
X112991Y183862D02*
X113323Y183457D01*
X112668Y184265D02*
X112991Y183862D01*
X112355Y184666D02*
X112668Y184265D01*
X112008Y185122D02*
X112355Y184666D01*
X111674Y185575D02*
X112008Y185122D01*
X111352Y186024D02*
X111674Y185575D01*
X111042Y186471D02*
X111352Y186024D01*
X110743Y186913D02*
X111042Y186471D01*
X110456Y187352D02*
X110743Y186913D01*
X110179Y187787D02*
X110456Y187352D01*
X109914Y188217D02*
X110179Y187787D01*
X109659Y188643D02*
X109914Y188217D01*
X109415Y189064D02*
X109659Y188643D01*
X109181Y189479D02*
X109415Y189064D01*
X108957Y189890D02*
X109181Y189479D01*
X108743Y190294D02*
X108957Y189890D01*
X108563Y190644D02*
X108743Y190294D01*
X108391Y190988D02*
X108563Y190644D01*
X108225Y191328D02*
X108391Y190988D01*
X108067Y191663D02*
X108225Y191328D01*
X107915Y191993D02*
X108067Y191663D01*
X107771Y192318D02*
X107915Y191993D01*
X107651Y192592D02*
X107771Y192318D01*
X107537Y192862D02*
X107651Y192592D01*
X107427Y193127D02*
X107537Y192862D01*
X107322Y193388D02*
X107427Y193127D01*
X107221Y193646D02*
X107322Y193388D01*
X107140Y193856D02*
X107221Y193646D01*
X107062Y194064D02*
X107140Y193856D01*
X106987Y194268D02*
X107062Y194064D01*
X106915Y194469D02*
X106987Y194268D01*
X106845Y194666D02*
X106915Y194469D01*
X106779Y194860D02*
X106845Y194666D01*
X106727Y195013D02*
X106779Y194860D01*
X106678Y195164D02*
X106727Y195013D01*
X106630Y195312D02*
X106678Y195164D01*
X106583Y195458D02*
X106630Y195312D01*
X106538Y195601D02*
X106583Y195458D01*
X106495Y195743D02*
X106538Y195601D01*
X106453Y195881D02*
X106495Y195743D01*
X106413Y196018D02*
X106453Y195881D01*
X106384Y196118D02*
X106413Y196018D01*
X106356Y196218D02*
X106384Y196118D01*
X106328Y196316D02*
X106356Y196218D01*
X106302Y196412D02*
X106328Y196316D01*
X106276Y196507D02*
X106302Y196412D01*
X106251Y196600D02*
X106276Y196507D01*
X106226Y196693D02*
X106251Y196600D01*
X106203Y196783D02*
X106226Y196693D01*
X106180Y196872D02*
X106203Y196783D01*
X106158Y196960D02*
X106180Y196872D01*
X106136Y197046D02*
X106158Y196960D01*
X106116Y197130D02*
X106136Y197046D01*
X106096Y197213D02*
X106116Y197130D01*
X106077Y197295D02*
X106096Y197213D01*
X106064Y197348D02*
X106077Y197295D01*
X106052Y197401D02*
X106064Y197348D01*
X106040Y197453D02*
X106052Y197401D01*
X106028Y197504D02*
X106040Y197453D01*
X106017Y197555D02*
X106028Y197504D01*
X106006Y197605D02*
X106017Y197555D01*
X105996Y197654D02*
X106006Y197605D01*
X105985Y197702D02*
X105996Y197654D01*
X105975Y197750D02*
X105985Y197702D01*
X105965Y197797D02*
X105975Y197750D01*
X105955Y197843D02*
X105965Y197797D01*
X105946Y197888D02*
X105955Y197843D01*
X105937Y197933D02*
X105946Y197888D01*
X105928Y197977D02*
X105937Y197933D01*
X105920Y198020D02*
X105928Y197977D01*
X105911Y198063D02*
X105920Y198020D01*
X105903Y198105D02*
X105911Y198063D01*
X105895Y198146D02*
X105903Y198105D01*
X105888Y198186D02*
X105895Y198146D01*
X105880Y198225D02*
X105888Y198186D01*
X105873Y198264D02*
X105880Y198225D01*
X105867Y198302D02*
X105873Y198264D01*
X105860Y198339D02*
X105867Y198302D01*
X105853Y198375D02*
X105860Y198339D01*
X105847Y198411D02*
X105853Y198375D01*
X105841Y198446D02*
X105847Y198411D01*
X105838Y198463D02*
X105841Y198446D01*
X105835Y198480D02*
X105838Y198463D01*
X105833Y198496D02*
X105835Y198480D01*
X105830Y198513D02*
X105833Y198496D01*
X105827Y198529D02*
X105830Y198513D01*
X105825Y198545D02*
X105827Y198529D01*
X105822Y198561D02*
X105825Y198545D01*
X105819Y198577D02*
X105822Y198561D01*
X105817Y198592D02*
X105819Y198577D01*
X105815Y198607D02*
X105817Y198592D01*
X105812Y198623D02*
X105815Y198607D01*
X105810Y198637D02*
X105812Y198623D01*
X105807Y198652D02*
X105810Y198637D01*
X105805Y198666D02*
X105807Y198652D01*
X105803Y198681D02*
X105805Y198666D01*
X105801Y198695D02*
X105803Y198681D01*
X105799Y198709D02*
X105801Y198695D01*
X105797Y198722D02*
X105799Y198709D01*
X105795Y198736D02*
X105797Y198722D01*
X105793Y198749D02*
X105795Y198736D01*
X105791Y198762D02*
X105793Y198749D01*
X105789Y198775D02*
X105791Y198762D01*
X105787Y198787D02*
X105789Y198775D01*
X105785Y198800D02*
X105787Y198787D01*
X105784Y198812D02*
X105785Y198800D01*
X105782Y198824D02*
X105784Y198812D01*
X105780Y198835D02*
X105782Y198824D01*
X105779Y198847D02*
X105780Y198835D01*
X105777Y198858D02*
X105779Y198847D01*
X105775Y198869D02*
X105777Y198858D01*
X105774Y198880D02*
X105775Y198869D01*
X105773Y198891D02*
X105774Y198880D01*
X105771Y198901D02*
X105773Y198891D01*
X105770Y198912D02*
X105771Y198901D01*
X105769Y198922D02*
X105770Y198912D01*
X105767Y198932D02*
X105769Y198922D01*
X105766Y198941D02*
X105767Y198932D01*
X105765Y198951D02*
X105766Y198941D01*
X105763Y198960D02*
X105765Y198951D01*
X105762Y198969D02*
X105763Y198960D01*
X105761Y198977D02*
X105762Y198969D01*
X105760Y198986D02*
X105761Y198977D01*
X105759Y198994D02*
X105760Y198986D01*
X105758Y199002D02*
X105759Y198994D01*
X105757Y199010D02*
X105758Y199002D01*
X105756Y199018D02*
X105757Y199010D01*
X105755Y199025D02*
X105756Y199018D01*
X105755Y199032D02*
X105755Y199025D01*
X105754Y199039D02*
X105755Y199032D01*
X105753Y199046D02*
X105754Y199039D01*
X105752Y199053D02*
X105753Y199046D01*
X105752Y199059D02*
X105752Y199053D01*
X105751Y199065D02*
X105752Y199059D01*
X105750Y199071D02*
X105751Y199065D01*
X105749Y199077D02*
X105750Y199071D01*
X105749Y199082D02*
X105749Y199077D01*
X105748Y199087D02*
X105749Y199082D01*
X105748Y199092D02*
X105748Y199087D01*
X105747Y199097D02*
X105748Y199092D01*
X105747Y199101D02*
X105747Y199097D01*
X105746Y199106D02*
X105747Y199101D01*
X105746Y199110D02*
X105746Y199106D01*
X105745Y199114D02*
X105746Y199110D01*
X105745Y199117D02*
X105745Y199114D01*
X105745Y199121D02*
X105745Y199117D01*
X105745Y199124D02*
X105745Y199121D01*
X105744Y199127D02*
X105745Y199124D01*
X105744Y199129D02*
X105744Y199127D01*
X105744Y199132D02*
X105744Y199129D01*
X105744Y199134D02*
X105744Y199132D01*
X105743Y199136D02*
X105744Y199134D01*
X105743Y199138D02*
X105743Y199136D01*
X105743Y199139D02*
X105743Y199138D01*
X105743Y199141D02*
X105743Y199139D01*
X105743Y199142D02*
X105743Y199141D01*
X105743Y199143D02*
X105743Y199142D01*
X105743Y199143D02*
X105743Y199143D01*
X105743Y199144D02*
X105743Y199143D01*
X191854Y658635D02*
X301365D01*
X421135D02*
X528427D01*
X533218Y600649D02*
Y658519D01*
X538066Y600772D02*
X538203Y600772D01*
X537930Y600771D02*
X538066Y600772D01*
X537795Y600769D02*
X537930Y600771D01*
X537706Y600769D02*
X537795Y600769D01*
X537617Y600768D02*
X537706Y600769D01*
X537530Y600766D02*
X537617Y600768D01*
X537442Y600765D02*
X537530Y600766D01*
X537356Y600764D02*
X537442Y600765D01*
X537270Y600763D02*
X537356Y600764D01*
X537184Y600761D02*
X537270Y600763D01*
X537100Y600760D02*
X537184Y600761D01*
X537015Y600758D02*
X537100Y600760D01*
X536932Y600756D02*
X537015Y600758D01*
X536849Y600755D02*
X536932Y600756D01*
X536767Y600753D02*
X536849Y600755D01*
X536685Y600751D02*
X536767Y600753D01*
X536604Y600749D02*
X536685Y600751D01*
X536564Y600748D02*
X536604Y600749D01*
X536524Y600747D02*
X536564Y600748D01*
X536484Y600746D02*
X536524Y600747D01*
X536444Y600745D02*
X536484Y600746D01*
X536405Y600744D02*
X536444Y600745D01*
X536365Y600743D02*
X536405Y600744D01*
X536326Y600742D02*
X536365Y600743D01*
X536287Y600741D02*
X536326Y600742D01*
X536248Y600740D02*
X536287Y600741D01*
X536209Y600739D02*
X536248Y600740D01*
X536171Y600738D02*
X536209Y600739D01*
X536132Y600737D02*
X536171Y600738D01*
X536094Y600736D02*
X536132Y600737D01*
X536056Y600734D02*
X536094Y600736D01*
X536018Y600733D02*
X536056Y600734D01*
X535980Y600732D02*
X536018Y600733D01*
X535943Y600731D02*
X535980Y600732D01*
X535905Y600730D02*
X535943Y600731D01*
X535868Y600729D02*
X535905Y600730D01*
X535831Y600728D02*
X535868Y600729D01*
X535794Y600726D02*
X535831Y600728D01*
X535757Y600725D02*
X535794Y600726D01*
X535721Y600724D02*
X535757Y600725D01*
X535684Y600723D02*
X535721Y600724D01*
X535648Y600722D02*
X535684Y600723D01*
X535612Y600721D02*
X535648Y600722D01*
X535576Y600719D02*
X535612Y600721D01*
X535541Y600718D02*
X535576Y600719D01*
X535505Y600717D02*
X535541Y600718D01*
X535470Y600716D02*
X535505Y600717D01*
X535435Y600715D02*
X535470Y600716D01*
X535400Y600713D02*
X535435Y600715D01*
X535365Y600712D02*
X535400Y600713D01*
X535330Y600711D02*
X535365Y600712D01*
X535296Y600710D02*
X535330Y600711D01*
X535262Y600709D02*
X535296Y600710D01*
X535228Y600707D02*
X535262Y600709D01*
X535194Y600706D02*
X535228Y600707D01*
X535160Y600705D02*
X535194Y600706D01*
X535126Y600704D02*
X535160Y600705D01*
X535093Y600703D02*
X535126Y600704D01*
X535060Y600702D02*
X535093Y600703D01*
X535027Y600700D02*
X535060Y600702D01*
X534994Y600699D02*
X535027Y600700D01*
X534962Y600698D02*
X534994Y600699D01*
X534929Y600697D02*
X534962Y600698D01*
X534897Y600696D02*
X534929Y600697D01*
X534865Y600695D02*
X534897Y600696D01*
X534833Y600693D02*
X534865Y600695D01*
X534801Y600692D02*
X534833Y600693D01*
X534770Y600691D02*
X534801Y600692D01*
X534738Y600690D02*
X534770Y600691D01*
X534707Y600689D02*
X534738Y600690D01*
X534676Y600688D02*
X534707Y600689D01*
X534646Y600687D02*
X534676Y600688D01*
X534615Y600686D02*
X534646Y600687D01*
X534585Y600684D02*
X534615Y600686D01*
X534554Y600683D02*
X534585Y600684D01*
X534524Y600682D02*
X534554Y600683D01*
X534494Y600681D02*
X534524Y600682D01*
X534465Y600680D02*
X534494Y600681D01*
X534436Y600679D02*
X534465Y600680D01*
X534406Y600678D02*
X534436Y600679D01*
X534377Y600677D02*
X534406Y600678D01*
X534348Y600676D02*
X534377Y600677D01*
X534320Y600675D02*
X534348Y600676D01*
X534291Y600674D02*
X534320Y600675D01*
X534263Y600673D02*
X534291Y600674D01*
X534235Y600672D02*
X534263Y600673D01*
X534207Y600671D02*
X534235Y600672D01*
X534179Y600670D02*
X534207Y600671D01*
X534152Y600669D02*
X534179Y600670D01*
X534124Y600668D02*
X534152Y600669D01*
X534097Y600668D02*
X534124Y600668D01*
X534070Y600667D02*
X534097Y600668D01*
X534044Y600666D02*
X534070Y600667D01*
X534017Y600665D02*
X534044Y600666D01*
X533991Y600664D02*
X534017Y600665D01*
X533965Y600663D02*
X533991Y600664D01*
X533939Y600663D02*
X533965Y600663D01*
X533913Y600662D02*
X533939Y600663D01*
X533888Y600661D02*
X533913Y600662D01*
X533862Y600660D02*
X533888Y600661D01*
X533837Y600660D02*
X533862Y600660D01*
X533812Y600659D02*
X533837Y600660D01*
X533788Y600658D02*
X533812Y600659D01*
X533763Y600658D02*
X533788Y600658D01*
X533739Y600657D02*
X533763Y600658D01*
X533715Y600656D02*
X533739Y600657D01*
X533691Y600656D02*
X533715Y600656D01*
X533667Y600655D02*
X533691Y600656D01*
X533644Y600655D02*
X533667Y600655D01*
X533620Y600654D02*
X533644Y600655D01*
X533597Y600654D02*
X533620Y600654D01*
X533574Y600653D02*
X533597Y600654D01*
X533552Y600653D02*
X533574Y600653D01*
X533529Y600652D02*
X533552Y600653D01*
X533507Y600652D02*
X533529Y600652D01*
X533485Y600652D02*
X533507Y600652D01*
X533463Y600651D02*
X533485Y600652D01*
X533442Y600651D02*
X533463Y600651D01*
X533420Y600651D02*
X533442Y600651D01*
X533399Y600650D02*
X533420Y600651D01*
X533378Y600650D02*
X533399Y600650D01*
X533357Y600650D02*
X533378Y600650D01*
X533337Y600650D02*
X533357Y600650D01*
X533316Y600649D02*
X533337Y600650D01*
X533296Y600649D02*
X533316Y600649D01*
X533276Y600649D02*
X533296Y600649D01*
X533256Y600649D02*
X533276Y600649D01*
X533218Y600649D02*
X533256Y600649D01*
X528427Y601922D02*
Y658635D01*
Y599144D02*
Y601922D01*
X526344Y597986D02*
X528427Y599144D01*
X194399Y597986D02*
X526344D01*
X184494Y600816D02*
X184527Y600814D01*
X184560Y600813D01*
X184592Y600812D01*
X184625Y600811D01*
X184657Y600810D01*
X184689Y600809D01*
X184720Y600808D01*
X184752Y600806D01*
X184783Y600805D01*
X184814Y600804D01*
X184845Y600803D01*
X184876Y600802D01*
X184906Y600801D01*
X184937Y600800D01*
X184967Y600799D01*
X184997Y600798D01*
X185027Y600797D01*
X185056Y600796D01*
X185086Y600794D01*
X185115Y600793D01*
X185144Y600792D01*
X185173Y600791D01*
X185202Y600790D01*
X185230Y600789D01*
X185259Y600788D01*
X185287Y600787D01*
X185315Y600786D01*
X185342Y600786D01*
X185370Y600785D01*
X185397Y600784D01*
X185424Y600783D01*
X185451Y600782D01*
X185478Y600781D01*
X185504Y600780D01*
X185531Y600779D01*
X185557Y600779D01*
X185583Y600778D01*
X185608Y600777D01*
X185634Y600776D01*
X185659Y600776D01*
X185684Y600775D01*
X185709Y600774D01*
X185734Y600774D01*
X185758Y600773D01*
X185783Y600772D01*
X185807Y600772D01*
X185831Y600771D01*
X185854Y600771D01*
X185878Y600770D01*
X185901Y600770D01*
X185924Y600769D01*
X185947Y600769D01*
X185970Y600768D01*
X185992Y600768D01*
X186014Y600767D01*
X186037Y600767D01*
X186058Y600767D01*
X186080Y600766D01*
X186101Y600766D01*
X186123Y600766D01*
X186144Y600765D01*
X186164Y600765D01*
X186185Y600765D01*
X186205Y600765D01*
X186225Y600765D01*
X186245Y600765D01*
X186265Y600765D01*
X193011Y597986D02*
X194399D01*
X191854Y600069D02*
X193011Y597986D01*
X191854Y600069D02*
Y658635D01*
X347641Y145671D02*
Y170671D01*
X299030D02*
X347641D01*
X299030Y145671D02*
Y170671D01*
Y145671D02*
X347641D01*
X423805D02*
Y170671D01*
X375194D02*
X423805D01*
X375194Y145671D02*
Y170671D01*
Y145671D02*
X423805D01*
X497636D02*
Y170671D01*
X449024D02*
X497636D01*
X449024Y145671D02*
Y170671D01*
Y145671D02*
X497636D01*
X273334D02*
Y170671D01*
X224723D02*
X273334D01*
X224723Y145671D02*
X273334D01*
X224723D02*
Y170671D01*
X199000Y140000D02*
X521830D01*
X260719Y197292D02*
X461665D01*
X202386Y185139D02*
X208288Y181551D01*
X208501Y181473D01*
X208924Y181322D01*
X209345Y181174D01*
X209765Y181030D01*
X210183Y180891D01*
X210599Y180755D01*
X211014Y180623D01*
X211426Y180494D01*
X211837Y180370D01*
X212246Y180249D01*
X212654Y180132D01*
X213059Y180019D01*
X213463Y179910D01*
X213865Y179804D01*
X214265Y179702D01*
X214664Y179603D01*
X215061Y179508D01*
X215554Y179394D01*
X216045Y179286D01*
X216533Y179183D01*
X217019Y179086D01*
X217501Y178993D01*
X217981Y178907D01*
X218458Y178825D01*
X218932Y178749D01*
X219404Y178677D01*
X219873Y178611D01*
X220339Y178550D01*
X220895Y178483D01*
X221446Y178424D01*
X221994Y178371D01*
X222538Y178325D01*
X223078Y178286D01*
X223703Y178249D01*
X224323Y178221D01*
X224937Y178201D01*
X225633Y178190D01*
X226321Y178190D01*
X256482Y191862D02*
X256971Y192400D01*
X257324Y192799D01*
X257610Y193128D01*
X257834Y193392D01*
X258026Y193621D01*
X258188Y193818D01*
X258346Y194011D01*
X258477Y194173D01*
X258604Y194332D01*
X258707Y194462D01*
X258808Y194590D01*
X258906Y194716D01*
X259001Y194840D01*
X259076Y194937D01*
X259148Y195032D01*
X259220Y195126D01*
X259289Y195218D01*
X259357Y195309D01*
X259423Y195398D01*
X259472Y195464D01*
X259519Y195528D01*
X259566Y195592D01*
X259612Y195655D01*
X259657Y195717D01*
X259700Y195777D01*
X259743Y195837D01*
X259785Y195896D01*
X259826Y195954D01*
X259867Y196010D01*
X259906Y196066D01*
X259932Y196102D01*
X259957Y196138D01*
X259982Y196174D01*
X260006Y196209D01*
X260030Y196243D01*
X260054Y196277D01*
X260077Y196311D01*
X260100Y196344D01*
X260122Y196376D01*
X260144Y196408D01*
X260165Y196440D01*
X260187Y196471D01*
X260207Y196501D01*
X260227Y196531D01*
X260247Y196561D01*
X260267Y196590D01*
X260286Y196618D01*
X260305Y196646D01*
X260323Y196673D01*
X260341Y196700D01*
X260358Y196726D01*
X260375Y196752D01*
X260392Y196777D01*
X260408Y196802D01*
X260416Y196814D01*
X260424Y196826D01*
X260431Y196837D01*
X260439Y196849D01*
X260447Y196861D01*
X260454Y196872D01*
X260461Y196883D01*
X260468Y196894D01*
X260476Y196905D01*
X260483Y196916D01*
X260490Y196927D01*
X260496Y196937D01*
X260503Y196948D01*
X260510Y196958D01*
X260516Y196968D01*
X260523Y196978D01*
X260529Y196988D01*
X260535Y196997D01*
X260541Y197007D01*
X260547Y197016D01*
X260553Y197025D01*
X260559Y197035D01*
X260564Y197043D01*
X260570Y197052D01*
X260576Y197061D01*
X260581Y197069D01*
X260586Y197078D01*
X260591Y197086D01*
X260596Y197094D01*
X260601Y197102D01*
X260606Y197109D01*
X260611Y197117D01*
X260615Y197124D01*
X260620Y197132D01*
X260625Y197139D01*
X260629Y197145D01*
X260633Y197152D01*
X260637Y197159D01*
X260641Y197165D01*
X260645Y197172D01*
X260649Y197178D01*
X260653Y197184D01*
X260656Y197190D01*
X260660Y197195D01*
X260663Y197201D01*
X260667Y197206D01*
X260670Y197212D01*
X260673Y197217D01*
X260676Y197222D01*
X260679Y197226D01*
X260682Y197231D01*
X260684Y197235D01*
X260687Y197239D01*
X260690Y197244D01*
X260692Y197248D01*
X260694Y197251D01*
X260697Y197255D01*
X260699Y197258D01*
X260701Y197262D01*
X260702Y197265D01*
X260704Y197268D01*
X260706Y197270D01*
X260707Y197273D01*
X260709Y197275D01*
X260710Y197278D01*
X260712Y197280D01*
X260713Y197282D01*
X260714Y197284D01*
X260715Y197285D01*
X260716Y197287D01*
X260717Y197288D01*
X260717Y197289D01*
X260718Y197290D01*
X260718Y197291D01*
X260719Y197291D01*
X260719Y197292D01*
X260719Y197292D01*
X518705Y176112D02*
Y184098D01*
Y176112D02*
X521830D01*
Y169167D02*
Y176112D01*
Y140000D02*
Y169167D01*
X199000Y140000D02*
Y177546D01*
X202386D01*
Y185139D01*
X208288Y181551D01*
X461665Y197292D02*
X461665Y197292D01*
X461665Y197292D01*
X461665Y197291D01*
X461666Y197291D01*
X461667Y197290D01*
X461667Y197289D01*
X461668Y197288D01*
X461669Y197287D01*
X461671Y197285D01*
X461672Y197283D01*
X461673Y197282D01*
X461675Y197280D01*
X461677Y197277D01*
X461679Y197275D01*
X461681Y197273D01*
X461683Y197270D01*
X461685Y197267D01*
X461688Y197264D01*
X461690Y197261D01*
X461693Y197257D01*
X461696Y197254D01*
X461699Y197250D01*
X461702Y197246D01*
X461706Y197242D01*
X461709Y197238D01*
X461713Y197234D01*
X461716Y197229D01*
X461720Y197224D01*
X461724Y197220D01*
X461728Y197215D01*
X461733Y197209D01*
X461737Y197204D01*
X461742Y197198D01*
X461747Y197193D01*
X461751Y197187D01*
X461756Y197181D01*
X461762Y197175D01*
X461767Y197169D01*
X461772Y197162D01*
X461778Y197155D01*
X461783Y197149D01*
X461789Y197142D01*
X461795Y197134D01*
X461801Y197127D01*
X461808Y197120D01*
X461814Y197112D01*
X461821Y197104D01*
X461827Y197097D01*
X461834Y197089D01*
X461841Y197080D01*
X461848Y197072D01*
X461855Y197063D01*
X461863Y197055D01*
X461870Y197046D01*
X461878Y197037D01*
X461885Y197028D01*
X461893Y197019D01*
X461901Y197009D01*
X461909Y197000D01*
X461918Y196990D01*
X461926Y196980D01*
X461935Y196970D01*
X461944Y196960D01*
X461952Y196949D01*
X461961Y196939D01*
X461971Y196928D01*
X461980Y196917D01*
X461989Y196906D01*
X461999Y196895D01*
X462008Y196884D01*
X462018Y196873D01*
X462028Y196861D01*
X462038Y196850D01*
X462049Y196838D01*
X462059Y196826D01*
X462069Y196814D01*
X462080Y196802D01*
X462102Y196777D01*
X462124Y196751D01*
X462147Y196725D01*
X462170Y196699D01*
X462194Y196672D01*
X462218Y196644D01*
X462243Y196616D01*
X462269Y196587D01*
X462295Y196558D01*
X462321Y196528D01*
X462348Y196497D01*
X462376Y196467D01*
X462404Y196435D01*
X462433Y196403D01*
X462462Y196371D01*
X462492Y196338D01*
X462522Y196304D01*
X462553Y196270D01*
X462584Y196236D01*
X462616Y196201D01*
X462648Y196165D01*
X462681Y196129D01*
X462715Y196093D01*
X462749Y196056D01*
X462783Y196019D01*
X462836Y195961D01*
X462890Y195903D01*
X462945Y195844D01*
X463001Y195784D01*
X463059Y195723D01*
X463117Y195660D01*
X463177Y195597D01*
X463238Y195533D01*
X463300Y195467D01*
X463363Y195401D01*
X463428Y195334D01*
X463516Y195243D01*
X463605Y195150D01*
X463697Y195056D01*
X463791Y194960D01*
X463887Y194863D01*
X464010Y194739D01*
X464136Y194613D01*
X464265Y194484D01*
X464397Y194353D01*
X464560Y194193D01*
X464727Y194031D01*
X464928Y193837D01*
X465135Y193640D01*
X465379Y193409D01*
X465662Y193145D01*
X466022Y192815D01*
X466502Y192383D01*
X471500Y188399D02*
X472243Y187878D01*
X472959Y187394D01*
X473589Y186980D01*
X474234Y186569D01*
X474839Y186195D01*
X475457Y185824D01*
X476029Y185490D01*
X476611Y185159D01*
X477204Y184833D01*
X477746Y184543D01*
X478296Y184257D01*
X478854Y183976D01*
X479420Y183699D01*
X479993Y183427D01*
X480575Y183161D01*
X481165Y182900D01*
X481762Y182645D01*
X482367Y182397D01*
X482979Y182155D01*
X483599Y181920D01*
X484227Y181692D01*
X484933Y181448D01*
X485648Y181214D01*
X486372Y180990D01*
X487105Y180777D01*
X507609Y180171D02*
X508353Y180341D01*
X509008Y180502D01*
X509666Y180673D01*
X510328Y180856D01*
X510897Y181023D01*
X511469Y181197D01*
X512043Y181381D01*
X512619Y181573D01*
X513102Y181740D01*
X513585Y181913D01*
X514070Y182093D01*
X514557Y182279D01*
X515045Y182471D01*
X515535Y182669D01*
X516026Y182875D01*
X516519Y183087D01*
X517014Y183305D01*
X517410Y183484D01*
X517807Y183668D01*
X518206Y183856D01*
X518705Y184098D01*
X208288Y181551D02*
X208501Y181473D01*
X208924Y181322D01*
X209345Y181174D01*
X209765Y181030D01*
X210183Y180891D01*
X210599Y180755D01*
X211014Y180623D01*
X211426Y180494D01*
X211837Y180370D01*
X212246Y180249D01*
X212654Y180132D01*
X213059Y180019D01*
X213463Y179910D01*
X213865Y179804D01*
X214265Y179702D01*
X214664Y179603D01*
X215061Y179508D01*
X215554Y179394D01*
X216045Y179286D01*
X216533Y179183D01*
X217019Y179086D01*
X217501Y178993D01*
X217981Y178907D01*
X218458Y178825D01*
X218932Y178749D01*
X219404Y178677D01*
X219873Y178611D01*
X220339Y178550D01*
X220895Y178483D01*
X221446Y178424D01*
X221994Y178371D01*
X222538Y178325D01*
X223078Y178286D01*
X223703Y178249D01*
X224323Y178221D01*
X224937Y178201D01*
X225633Y178190D01*
X226321Y178190D01*
X256482Y191862D02*
X256971Y192400D01*
X257324Y192799D01*
X257610Y193128D01*
X257834Y193392D01*
X258026Y193621D01*
X258188Y193818D01*
X258346Y194011D01*
X258477Y194173D01*
X258604Y194332D01*
X258707Y194462D01*
X258808Y194590D01*
X258906Y194716D01*
X259001Y194840D01*
X259076Y194937D01*
X259148Y195032D01*
X259220Y195126D01*
X259289Y195218D01*
X259357Y195309D01*
X259423Y195398D01*
X259472Y195464D01*
X259519Y195528D01*
X259566Y195592D01*
X259612Y195655D01*
X259657Y195717D01*
X259700Y195777D01*
X259743Y195837D01*
X259785Y195896D01*
X259826Y195954D01*
X259867Y196010D01*
X259906Y196066D01*
X259932Y196102D01*
X259957Y196138D01*
X259982Y196174D01*
X260006Y196209D01*
X260030Y196243D01*
X260054Y196277D01*
X260077Y196311D01*
X260100Y196344D01*
X260122Y196376D01*
X260144Y196408D01*
X260165Y196440D01*
X260187Y196471D01*
X260207Y196501D01*
X260227Y196531D01*
X260247Y196561D01*
X260267Y196590D01*
X260286Y196618D01*
X260305Y196646D01*
X260323Y196673D01*
X260341Y196700D01*
X260358Y196726D01*
X260375Y196752D01*
X260392Y196777D01*
X260408Y196802D01*
X260416Y196814D01*
X260424Y196826D01*
X260431Y196837D01*
X260439Y196849D01*
X260447Y196861D01*
X260454Y196872D01*
X260461Y196883D01*
X260468Y196894D01*
X260476Y196905D01*
X260483Y196916D01*
X260490Y196927D01*
X260496Y196937D01*
X260503Y196948D01*
X260510Y196958D01*
X260516Y196968D01*
X260523Y196978D01*
X260529Y196988D01*
X260535Y196997D01*
X260541Y197007D01*
X260547Y197016D01*
X260553Y197025D01*
X260559Y197035D01*
X260564Y197043D01*
X260570Y197052D01*
X260576Y197061D01*
X260581Y197069D01*
X260586Y197078D01*
X260591Y197086D01*
X260596Y197094D01*
X260601Y197102D01*
X260606Y197109D01*
X260611Y197117D01*
X260615Y197124D01*
X260620Y197132D01*
X260625Y197139D01*
X260629Y197145D01*
X260633Y197152D01*
X260637Y197159D01*
X260641Y197165D01*
X260645Y197172D01*
X260649Y197178D01*
X260653Y197184D01*
X260656Y197190D01*
X260660Y197195D01*
X260663Y197201D01*
X260667Y197206D01*
X260670Y197212D01*
X260673Y197217D01*
X260676Y197222D01*
X260679Y197226D01*
X260682Y197231D01*
X260684Y197235D01*
X260687Y197239D01*
X260690Y197244D01*
X260692Y197248D01*
X260694Y197251D01*
X260697Y197255D01*
X260699Y197258D01*
X260701Y197262D01*
X260702Y197265D01*
X260704Y197268D01*
X260706Y197270D01*
X260707Y197273D01*
X260709Y197275D01*
X260710Y197278D01*
X260712Y197280D01*
X260713Y197282D01*
X260714Y197284D01*
X260715Y197285D01*
X260716Y197287D01*
X260717Y197288D01*
X260717Y197289D01*
X260718Y197290D01*
X260718Y197291D01*
X260719Y197291D01*
X260719Y197292D01*
X260719Y197292D01*
X518705Y176112D02*
Y184098D01*
Y176112D02*
X521830D01*
Y169167D02*
Y176112D01*
Y140000D02*
Y169167D01*
X199000Y140000D02*
Y177546D01*
X202386D01*
Y185139D01*
X461665Y197292D02*
X461665Y197292D01*
X461665Y197292D01*
X461665Y197291D01*
X461666Y197291D01*
X461667Y197290D01*
X461667Y197289D01*
X461668Y197288D01*
X461669Y197287D01*
X461671Y197285D01*
X461672Y197283D01*
X461673Y197282D01*
X461675Y197280D01*
X461677Y197277D01*
X461679Y197275D01*
X461681Y197273D01*
X461683Y197270D01*
X461685Y197267D01*
X461688Y197264D01*
X461690Y197261D01*
X461693Y197257D01*
X461696Y197254D01*
X461699Y197250D01*
X461702Y197246D01*
X461706Y197242D01*
X461709Y197238D01*
X461713Y197234D01*
X461716Y197229D01*
X461720Y197224D01*
X461724Y197220D01*
X461728Y197215D01*
X461733Y197209D01*
X461737Y197204D01*
X461742Y197198D01*
X461747Y197193D01*
X461751Y197187D01*
X461756Y197181D01*
X461762Y197175D01*
X461767Y197169D01*
X461772Y197162D01*
X461778Y197155D01*
X461783Y197149D01*
X461789Y197142D01*
X461795Y197134D01*
X461801Y197127D01*
X461808Y197120D01*
X461814Y197112D01*
X461821Y197104D01*
X461827Y197097D01*
X461834Y197089D01*
X461841Y197080D01*
X461848Y197072D01*
X461855Y197063D01*
X461863Y197055D01*
X461870Y197046D01*
X461878Y197037D01*
X461885Y197028D01*
X461893Y197019D01*
X461901Y197009D01*
X461909Y197000D01*
X461918Y196990D01*
X461926Y196980D01*
X461935Y196970D01*
X461944Y196960D01*
X461952Y196949D01*
X461961Y196939D01*
X461971Y196928D01*
X461980Y196917D01*
X461989Y196906D01*
X461999Y196895D01*
X462008Y196884D01*
X462018Y196873D01*
X462028Y196861D01*
X462038Y196850D01*
X462049Y196838D01*
X462059Y196826D01*
X462069Y196814D01*
X462080Y196802D01*
X462102Y196777D01*
X462124Y196751D01*
X462147Y196725D01*
X462170Y196699D01*
X462194Y196672D01*
X462218Y196644D01*
X462243Y196616D01*
X462269Y196587D01*
X462295Y196558D01*
X462321Y196528D01*
X462348Y196497D01*
X462376Y196467D01*
X462404Y196435D01*
X462433Y196403D01*
X462462Y196371D01*
X462492Y196338D01*
X462522Y196304D01*
X462553Y196270D01*
X462584Y196236D01*
X462616Y196201D01*
X462648Y196165D01*
X462681Y196129D01*
X462715Y196093D01*
X462749Y196056D01*
X462783Y196019D01*
X462836Y195961D01*
X462890Y195903D01*
X462945Y195844D01*
X463001Y195784D01*
X463059Y195723D01*
X463117Y195660D01*
X463177Y195597D01*
X463238Y195533D01*
X463300Y195467D01*
X463363Y195401D01*
X463428Y195334D01*
X463516Y195243D01*
X463605Y195150D01*
X463697Y195056D01*
X463791Y194960D01*
X463887Y194863D01*
X464010Y194739D01*
X464136Y194613D01*
X464265Y194484D01*
X464397Y194353D01*
X464560Y194193D01*
X464727Y194031D01*
X464928Y193837D01*
X465135Y193640D01*
X465379Y193409D01*
X465662Y193145D01*
X466022Y192815D01*
X466502Y192383D01*
X471500Y188399D02*
X472243Y187878D01*
X472959Y187394D01*
X473589Y186980D01*
X474234Y186569D01*
X474839Y186195D01*
X475457Y185824D01*
X476029Y185490D01*
X476611Y185159D01*
X477204Y184833D01*
X477746Y184543D01*
X478296Y184257D01*
X478854Y183976D01*
X479420Y183699D01*
X479993Y183427D01*
X480575Y183161D01*
X481165Y182900D01*
X481762Y182645D01*
X482367Y182397D01*
X482979Y182155D01*
X483599Y181920D01*
X484227Y181692D01*
X484933Y181448D01*
X485648Y181214D01*
X486372Y180990D01*
X487105Y180777D01*
X507609Y180171D02*
X508353Y180341D01*
X509008Y180502D01*
X509666Y180673D01*
X510328Y180856D01*
X510897Y181023D01*
X511469Y181197D01*
X512043Y181381D01*
X512619Y181573D01*
X513102Y181740D01*
X513585Y181913D01*
X514070Y182093D01*
X514557Y182279D01*
X515045Y182471D01*
X515535Y182669D01*
X516026Y182875D01*
X516519Y183087D01*
X517014Y183305D01*
X517410Y183484D01*
X517807Y183668D01*
X518206Y183856D01*
X518705Y184098D01*
D11*
X267500Y152000D02*
D03*
Y158000D02*
D03*
X343500Y152000D02*
D03*
Y158000D02*
D03*
X418500Y152000D02*
D03*
Y158000D02*
D03*
X493500Y152000D02*
D03*
Y158000D02*
D03*
D12*
X540169Y226268D02*
D03*
X523831D02*
D03*
X540169Y234732D02*
D03*
X523831D02*
D03*
X223169Y237268D02*
D03*
X206831D02*
D03*
X223169Y245732D02*
D03*
X206831D02*
D03*
X176169Y236768D02*
D03*
X159831D02*
D03*
X176169Y245232D02*
D03*
X159831D02*
D03*
X199669Y214768D02*
D03*
X183331D02*
D03*
X199669Y223232D02*
D03*
X183331D02*
D03*
X199669Y258268D02*
D03*
X183331D02*
D03*
X199669Y266732D02*
D03*
X183331D02*
D03*
D13*
X228854Y310299D02*
D03*
Y297701D02*
D03*
X248146D02*
D03*
Y310299D02*
D03*
X205854Y352299D02*
D03*
Y339701D02*
D03*
X225146D02*
D03*
Y352299D02*
D03*
X205854Y393799D02*
D03*
Y381201D02*
D03*
X225146D02*
D03*
Y393799D02*
D03*
X465854Y164799D02*
D03*
Y152201D02*
D03*
X485146D02*
D03*
Y164799D02*
D03*
X388854D02*
D03*
Y152201D02*
D03*
X408146D02*
D03*
Y164799D02*
D03*
X315354D02*
D03*
Y152201D02*
D03*
X334646D02*
D03*
Y164799D02*
D03*
X238354D02*
D03*
Y152201D02*
D03*
X257646D02*
D03*
Y164799D02*
D03*
X450854Y543299D02*
D03*
Y530701D02*
D03*
X470146D02*
D03*
Y543299D02*
D03*
X499854Y392799D02*
D03*
Y380201D02*
D03*
X519146D02*
D03*
Y392799D02*
D03*
X499854Y349299D02*
D03*
Y336701D02*
D03*
X519146D02*
D03*
Y349299D02*
D03*
X480354Y313799D02*
D03*
Y301201D02*
D03*
X499646D02*
D03*
Y313799D02*
D03*
X254354Y543799D02*
D03*
Y531201D02*
D03*
X273646D02*
D03*
Y543799D02*
D03*
X307854D02*
D03*
Y531201D02*
D03*
X327146D02*
D03*
Y543799D02*
D03*
X353354Y543299D02*
D03*
Y530701D02*
D03*
X372646D02*
D03*
Y543299D02*
D03*
X399354Y543799D02*
D03*
Y531201D02*
D03*
X418646D02*
D03*
Y543799D02*
D03*
D14*
X278500Y552000D02*
X346500D01*
X272000Y407000D02*
X279000Y414000D01*
Y440500D01*
X287500Y449000D01*
X346000D01*
X354079Y457079D01*
Y462079D01*
X466142Y484000D02*
Y495858D01*
X458000Y504000D02*
X466142Y495858D01*
X449000Y504000D02*
X458000D01*
X432000Y521000D02*
X449000Y504000D01*
X253500Y521000D02*
X432000D01*
X424500Y517000D02*
X437500Y504000D01*
X250500Y517000D02*
X424500D01*
X245500Y522000D02*
X250500Y517000D01*
X245500Y522000D02*
Y555500D01*
X248500Y526000D02*
X253500Y521000D01*
X248500Y526000D02*
Y553000D01*
X245500Y555500D02*
X251600Y561600D01*
X314600D01*
X254000Y558500D02*
X319000D01*
X248500Y553000D02*
X254000Y558500D01*
X242000Y423500D02*
Y526500D01*
X437500Y482500D02*
Y504000D01*
Y482500D02*
X443071Y476929D01*
X459071D01*
X256500Y552000D02*
X261500D01*
X254354Y549854D02*
X256500Y552000D01*
X254354Y543799D02*
Y549854D01*
X242000Y423500D02*
X251000Y414500D01*
X261000Y407000D02*
X272000D01*
X559000Y384500D02*
Y467500D01*
X532000Y494500D02*
X559000Y467500D01*
X532000Y494500D02*
Y510500D01*
X528850Y417650D02*
Y590850D01*
Y417650D02*
X539000Y407500D01*
X528850Y590850D02*
X529000Y591000D01*
X394500Y575000D02*
X475500D01*
X394000Y574500D02*
X394500Y575000D01*
X465000Y590500D02*
X466000D01*
X454500Y580000D02*
X465000Y590500D01*
X481000Y573000D02*
Y583500D01*
X478000Y570000D02*
X481000Y573000D01*
X422500Y570000D02*
X478000D01*
X422000Y580000D02*
X454500D01*
X277000Y579000D02*
X286000D01*
X273500Y582500D02*
X277000Y579000D01*
X273500Y582500D02*
Y584000D01*
X292500Y580500D02*
X317000D01*
X291000Y579000D02*
X292500Y580500D01*
X243000Y568500D02*
X246000Y565500D01*
X243000Y568500D02*
Y583500D01*
X246000Y565500D02*
X296500D01*
X298000Y567000D01*
Y574000D01*
X251000Y492000D02*
X266000Y507000D01*
X251000Y436500D02*
Y492000D01*
Y436500D02*
X253000Y434500D01*
X312000Y483500D02*
X322000D01*
X336500Y498000D01*
X376500D01*
X333500Y504500D02*
X375000D01*
X319000Y490000D02*
X333500Y504500D01*
X312000Y490000D02*
X319000D01*
X268500Y503000D02*
X314500D01*
X253000Y434500D02*
X257500D01*
X266000Y507000D02*
X310000D01*
X257500Y492000D02*
X268500Y503000D01*
X286000Y579000D02*
Y584000D01*
X550000Y538500D02*
Y563000D01*
X535500Y577500D02*
X550000Y563000D01*
X535500Y577500D02*
Y582000D01*
X218500Y350000D02*
X220799Y352299D01*
X218500Y332000D02*
Y350000D01*
Y332000D02*
X221000Y329500D01*
X220799Y352299D02*
X225146D01*
X253701Y310299D02*
X255500Y308500D01*
Y278500D02*
Y308500D01*
X253500Y276500D02*
X255500Y278500D01*
X249500Y276500D02*
X253500D01*
X248146Y310299D02*
X253701D01*
X192500Y254500D02*
X213000D01*
X185000Y247000D02*
X192500Y254500D01*
X185000Y233500D02*
Y247000D01*
X175000Y227000D02*
X178000Y230000D01*
X175000Y211500D02*
Y227000D01*
Y211500D02*
X181250Y205250D01*
X178000Y230000D02*
X181500D01*
X550500Y214500D02*
X554000Y218000D01*
X417500Y214500D02*
X550500D01*
X405650Y202650D02*
X417500Y214500D01*
X490500Y220500D02*
X539000Y269000D01*
X413237Y220500D02*
X490500D01*
X397987Y205250D02*
X413237Y220500D01*
X534500Y273500D02*
Y407500D01*
X487000Y226000D02*
X534500Y273500D01*
X248000Y226000D02*
X487000D01*
X539000Y269000D02*
Y407500D01*
X408146Y164799D02*
X413500D01*
X568000Y500000D02*
X577000D01*
X327500Y567000D02*
Y587500D01*
X320000Y595000D02*
X327500Y587500D01*
X315500Y595000D02*
X320000D01*
X312500Y591000D02*
X319500D01*
X309000Y594500D02*
X312500Y591000D01*
X305500Y594500D02*
X309000D01*
X298000D02*
X304000Y588500D01*
X174000Y594500D02*
X298000D01*
X145000Y565500D02*
X174000Y594500D01*
X304000Y588500D02*
X309500D01*
X237000Y233500D02*
X486500D01*
X199500D02*
X208000Y225000D01*
X190000Y233500D02*
X199500D01*
X208000Y211000D02*
Y225000D01*
X230000Y219000D02*
Y234500D01*
X222500Y211500D02*
X230000Y219000D01*
X145000Y225500D02*
X167850Y202650D01*
X229850Y207850D02*
X248000Y226000D01*
X208000Y211000D02*
X211150Y207850D01*
X229850D01*
X181250Y205250D02*
X397987D01*
X167850Y202650D02*
X405650D01*
X213500Y211500D02*
X222500D01*
X554000Y218000D02*
Y222500D01*
X216500Y400646D02*
X227854D01*
X214000D02*
X216500D01*
Y420000D01*
X205854Y400646D02*
X214000D01*
X315000Y539000D02*
X319799Y543799D01*
X256500Y539000D02*
X315000D01*
X309000Y536000D02*
X325500D01*
X307854Y534854D02*
X309000Y536000D01*
X307854Y531201D02*
Y534854D01*
X254354Y536854D02*
X256500Y539000D01*
X319799Y543799D02*
X327146D01*
X319500Y591000D02*
X323000Y587500D01*
Y570000D02*
Y587500D01*
X314600Y561600D02*
X323000Y570000D01*
X319000Y558500D02*
X327500Y567000D01*
X363000Y555500D02*
X371000Y563500D01*
X276000Y555500D02*
X363000D01*
X273646Y553146D02*
X276000Y555500D01*
X465854Y164799D02*
X474201D01*
X481000Y158000D01*
X493500D01*
X485347Y152000D02*
X493500D01*
X315354Y164799D02*
X321701D01*
X328500Y158000D01*
X343500D01*
X334847Y152000D02*
X343500D01*
X238354Y164799D02*
X245701D01*
X252500Y158000D01*
X267500D01*
X257646Y152201D02*
X267299D01*
X408347Y152000D02*
X418500D01*
X403500Y158000D02*
X418500D01*
X396701Y164799D02*
X403500Y158000D01*
X388854Y164799D02*
X396701D01*
X145000Y225500D02*
Y565500D01*
X251000Y414500D02*
X257500D01*
Y410500D02*
Y414500D01*
Y410500D02*
X261000Y407000D01*
X197000Y384000D02*
Y420500D01*
Y384000D02*
X199799Y381201D01*
X205854D01*
X214000Y372500D02*
Y400646D01*
X205854Y364354D02*
X214000Y372500D01*
X205854Y359146D02*
Y364354D01*
X181500Y230000D02*
X185000Y233500D01*
X527000Y281500D02*
Y401500D01*
X485000Y239500D02*
X527000Y281500D01*
X235000Y239500D02*
X485000D01*
X230000Y234500D02*
X235000Y239500D01*
X531000Y278000D02*
Y405263D01*
X486500Y233500D02*
X531000Y278000D01*
X519500Y416763D02*
X531000Y405263D01*
X513000Y415500D02*
X527000Y401500D01*
X307854Y543799D02*
Y551854D01*
X380500Y552000D02*
X406500D01*
X346500D02*
X380500D01*
X346500Y543299D02*
Y552000D01*
X406500Y549500D02*
Y552000D01*
X448000D01*
X450854Y543299D02*
Y549146D01*
X448000Y552000D02*
X450854Y549146D01*
X298000Y543500D02*
X307555D01*
X273646Y543799D02*
Y553146D01*
X257500Y444500D02*
Y492000D01*
X490000Y338000D02*
Y508500D01*
X550000Y495500D02*
Y538500D01*
X524000Y418000D02*
Y591500D01*
Y418000D02*
X534500Y407500D01*
X480500Y294500D02*
Y301055D01*
X480354Y301201D02*
X480500Y301055D01*
X513000Y415500D02*
Y590500D01*
X519146Y392799D02*
Y397854D01*
X500500Y416500D02*
X519146Y397854D01*
X500500Y416500D02*
Y515500D01*
X479500Y536500D02*
X500500Y515500D01*
X464500Y536500D02*
X479500D01*
X254354Y531201D02*
Y536854D01*
X325500Y536000D02*
X327500Y538000D01*
X371000D01*
X372646Y539646D01*
Y543299D01*
X343886Y581114D02*
Y599500D01*
X362500Y590500D02*
X444000D01*
X358500Y594500D02*
X362500Y590500D01*
X367705Y593795D02*
X460295D01*
X371000Y563500D02*
Y580500D01*
X376500Y586000D01*
X400500D01*
X380500Y552000D02*
Y579000D01*
X402000Y549500D02*
X406500D01*
X399354Y546854D02*
X402000Y549500D01*
X399354Y543799D02*
Y546854D01*
X443500Y521000D02*
X477500D01*
X346500Y543299D02*
X353354D01*
X444146D02*
X450854D01*
X470292Y530701D02*
X476646D01*
X418646Y531201D02*
X425000D01*
X367000Y530701D02*
X372646D01*
X327146Y531201D02*
X333500D01*
X273646D02*
X280000D01*
X490146Y399646D02*
X499854D01*
X490146Y356146D02*
X499854D01*
X477500Y521000D02*
X490000Y508500D01*
X480354Y328354D02*
X490000Y338000D01*
X480354Y320646D02*
Y328354D01*
X227854Y400646D02*
X236500Y392000D01*
Y330500D02*
Y392000D01*
X228854Y322854D02*
X236500Y330500D01*
X228854Y317146D02*
Y322854D01*
X499854Y392799D02*
Y399646D01*
X519000Y380347D02*
Y387000D01*
X499854Y349299D02*
Y356146D01*
X519000Y336847D02*
Y343500D01*
X480354Y313799D02*
Y320646D01*
X499500Y301347D02*
Y308000D01*
X228854Y310299D02*
Y317146D01*
X248000Y297847D02*
Y304500D01*
X205854Y352299D02*
Y359146D01*
X225000Y339847D02*
Y346500D01*
Y381347D02*
Y388000D01*
X205854Y393799D02*
Y400646D01*
X218732Y245732D02*
X223169D01*
X194732Y266732D02*
X199669D01*
X171732Y245232D02*
X176169D01*
X195232Y223232D02*
X199669D01*
X535732Y234732D02*
X540169D01*
X535732Y226268D02*
X540169D01*
X218732Y237268D02*
X223169D01*
X194732Y258268D02*
X199169D01*
X171232Y236768D02*
X175669D01*
X195232Y214768D02*
X199669D01*
X519500Y416763D02*
Y591500D01*
X250292Y152201D02*
X257646D01*
X327292D02*
X334646D01*
X400792D02*
X408146D01*
X477792D02*
X485146D01*
X308000Y164799D02*
X315354D01*
X381500D02*
X388854D01*
X231000Y152201D02*
X238354D01*
X458500Y164799D02*
X465854D01*
X231000D02*
X238354D01*
X257646D02*
X263000D01*
X334646D02*
X340000D01*
X307299Y152201D02*
X315354D01*
X380799D02*
X388854D01*
X457799D02*
X465854D01*
X485146Y164799D02*
X490500D01*
X220299Y393799D02*
X225146D01*
X219000Y392500D02*
X220299Y393799D01*
X219000Y369000D02*
Y392500D01*
X213500Y363500D02*
X219000Y369000D01*
X213500Y342500D02*
Y363500D01*
X210701Y339701D02*
X213500Y342500D01*
X205854Y339701D02*
X210701D01*
X221000Y300500D02*
Y329500D01*
Y300500D02*
X223799Y297701D01*
X228854D01*
X499854Y314007D02*
Y336701D01*
X519146Y349299D02*
Y363354D01*
X515500Y367000D02*
X519146Y363354D01*
X506500Y367000D02*
X515500D01*
X499854Y373646D02*
X506500Y367000D01*
X499854Y373646D02*
Y380201D01*
X458701Y530701D02*
X464500Y536500D01*
X450854Y530701D02*
X458701D01*
X461799Y543299D02*
X470146D01*
X457000Y538500D02*
X461799Y543299D01*
X416000Y538500D02*
X457000D01*
X408701Y531201D02*
X416000Y538500D01*
X399354Y531201D02*
X408701D01*
X410799Y543799D02*
X418646D01*
X406500Y539500D02*
X410799Y543799D01*
X400000Y539500D02*
X406500D01*
X396000Y535500D02*
X400000Y539500D01*
X354500Y535500D02*
X396000D01*
X353354Y534354D02*
X354500Y535500D01*
X353354Y530701D02*
Y534354D01*
D15*
X162500Y448000D02*
X164344Y446156D01*
X164500D01*
X156000Y559500D02*
X156067Y440000D01*
X156000Y559500D02*
X233063Y559479D01*
X233153Y443101D01*
X157628Y443094D02*
X233153Y443101D01*
X157628Y443094D02*
X157649Y557928D01*
X231500Y557917D01*
X231596Y444626D01*
X159275Y444571D02*
X231596Y444626D01*
X159168Y556332D02*
X159275Y444571D01*
X159168Y556332D02*
X230046D01*
X229972Y446185D02*
X230046Y556332D01*
X164500Y446156D02*
X229972Y446185D01*
D16*
X169652Y649317D02*
D03*
D17*
X121621Y590871D02*
D03*
D18*
X131250Y597000D02*
D03*
D19*
X573500Y603250D02*
D03*
D20*
X597639Y211167D02*
D03*
D21*
X538974Y172483D02*
D03*
D22*
X157750Y176750D02*
D03*
D23*
X136000Y187250D02*
D03*
D24*
X121621Y211250D02*
D03*
D25*
X139750Y584750D02*
D03*
D26*
X161995Y601132D02*
D03*
D27*
X597658Y409174D02*
D03*
D28*
X548359Y629500D02*
D03*
D29*
X121715Y405975D02*
D03*
D30*
X152152Y621500D02*
D03*
D31*
X452745Y654500D02*
D03*
D32*
X505250Y652567D02*
D03*
D33*
X527214Y629817D02*
D03*
D34*
X286167Y157836D02*
D03*
D35*
X361571Y157086D02*
D03*
D36*
X436415Y158171D02*
D03*
D37*
X361076Y183928D02*
D03*
D38*
X361112Y142836D02*
D03*
D39*
X200750Y158773D02*
D03*
D40*
X213719Y159101D02*
D03*
D41*
X518915Y158056D02*
D03*
D42*
X508000Y159500D02*
D03*
D43*
X505417Y624243D02*
D03*
D44*
X361250Y602500D02*
D03*
D45*
X215500Y624250D02*
D03*
D46*
X246750Y654500D02*
D03*
D47*
X207500Y583500D02*
D03*
D48*
X197500D02*
D03*
X466142Y484000D02*
D03*
X459071Y491071D02*
D03*
Y476929D02*
D03*
X267500Y444500D02*
D03*
X257500D02*
D03*
X267500Y434500D02*
D03*
X257500D02*
D03*
X267500Y424500D02*
D03*
X257500D02*
D03*
X267500Y414500D02*
D03*
D49*
X286000Y589000D02*
D03*
D50*
X291000D02*
D03*
X286000Y584000D02*
D03*
X291000Y584000D02*
D03*
X286000Y579000D02*
D03*
X291000D02*
D03*
X286000Y574000D02*
D03*
X291000D02*
D03*
X286000Y569000D02*
D03*
X291000Y569000D02*
D03*
D51*
X286500Y513500D02*
D03*
Y463500D02*
D03*
X577000Y352594D02*
D03*
Y364406D02*
D03*
D52*
X465118Y255555D02*
D03*
Y205161D02*
D03*
X249500Y188000D02*
D03*
D53*
Y135000D02*
D03*
D54*
X452000Y484000D02*
D03*
D55*
X257500Y414500D02*
D03*
D56*
X278500Y552000D02*
D03*
X242000Y526500D02*
D03*
X261500Y552000D02*
D03*
X532000Y510500D02*
D03*
X475500Y575000D02*
D03*
X481000Y583500D02*
D03*
X422000Y580000D02*
D03*
X394000Y574500D02*
D03*
X273500Y584000D02*
D03*
X317000Y580500D02*
D03*
X243000Y583500D02*
D03*
X298000Y574000D02*
D03*
X312000Y483500D02*
D03*
Y490000D02*
D03*
X376500Y498000D02*
D03*
X375000Y504500D02*
D03*
X314500Y503000D02*
D03*
X310000Y507000D02*
D03*
X535500Y582000D02*
D03*
X413500Y164799D02*
D03*
X577000Y500000D02*
D03*
X315500Y595000D02*
D03*
X305500Y594500D02*
D03*
X237000Y233500D02*
D03*
X213000Y254500D02*
D03*
X190000Y233500D02*
D03*
X213500Y211500D02*
D03*
X554000Y222500D02*
D03*
X216500Y420000D02*
D03*
X354079Y462079D02*
D03*
X197000Y420500D02*
D03*
X298000Y543500D02*
D03*
X550000Y538500D02*
D03*
X559000Y384500D02*
D03*
X550000Y495500D02*
D03*
X568000Y500000D02*
D03*
X466000Y590500D02*
D03*
X422500Y570000D02*
D03*
X444000Y590500D02*
D03*
X524000Y591500D02*
D03*
X529000Y591000D02*
D03*
X460295Y593795D02*
D03*
X480500Y294500D02*
D03*
X367000Y530701D02*
D03*
X156000Y440000D02*
D03*
X162500Y448000D02*
D03*
X380500Y579000D02*
D03*
X400500Y586000D02*
D03*
X358500Y594500D02*
D03*
X367705Y593795D02*
D03*
X406500Y549500D02*
D03*
X359500Y604000D02*
D03*
X443500Y521000D02*
D03*
X476646Y530701D02*
D03*
X443500Y543299D02*
D03*
X425000Y531201D02*
D03*
X346500Y543299D02*
D03*
X333500Y531201D02*
D03*
X280000D02*
D03*
X499854Y399646D02*
D03*
X519000Y387000D02*
D03*
X499854Y356146D02*
D03*
X519000Y343500D02*
D03*
X480354Y320646D02*
D03*
X499500Y308000D02*
D03*
X228854Y317146D02*
D03*
X248000Y304500D02*
D03*
X205854Y359146D02*
D03*
X225000Y346500D02*
D03*
Y388000D02*
D03*
X205854Y400646D02*
D03*
X218732Y245732D02*
D03*
X195232Y223232D02*
D03*
X171732Y245232D02*
D03*
X194732Y266732D02*
D03*
X535732Y234732D02*
D03*
X249500Y276500D02*
D03*
X535732Y226268D02*
D03*
X218732Y237268D02*
D03*
X194732Y258268D02*
D03*
X171232Y236768D02*
D03*
X195232Y214768D02*
D03*
X513000Y590500D02*
D03*
X519500Y591500D02*
D03*
X309500Y588500D02*
D03*
X343886Y581114D02*
D03*
X250292Y152201D02*
D03*
X327292D02*
D03*
X400792D02*
D03*
X477792D02*
D03*
X458500Y164799D02*
D03*
X381500D02*
D03*
X308000D02*
D03*
X231000D02*
D03*
X263000D02*
D03*
X231000Y152201D02*
D03*
X340000Y164799D02*
D03*
X307299Y152201D02*
D03*
X380799D02*
D03*
X457799D02*
D03*
X490500Y164799D02*
D03*
M02*
