G04 Layer_Color=11767835*
%FSLAX25Y25*%
%MOIN*%
G70*
G01*
G75*
%ADD11R,0.05906X0.03937*%
%ADD12R,0.04134X0.02559*%
%ADD13R,0.03500X0.03500*%
%ADD49R,0.05906X0.05906*%
%ADD50C,0.05906*%
%ADD51C,0.03543*%
%ADD52R,0.05906X0.05906*%
%ADD53C,0.07500*%
%ADD54C,0.09000*%
%ADD55C,0.03600*%
%ADD56R,0.03600X0.03600*%
D11*
X418646Y543799D02*
D03*
Y531201D02*
D03*
X399354D02*
D03*
Y543799D02*
D03*
X372646Y543299D02*
D03*
Y530701D02*
D03*
X353354D02*
D03*
Y543299D02*
D03*
X327146Y543799D02*
D03*
Y531201D02*
D03*
X307854D02*
D03*
Y543799D02*
D03*
X273646D02*
D03*
Y531201D02*
D03*
X254354D02*
D03*
Y543799D02*
D03*
X499646Y313799D02*
D03*
Y301201D02*
D03*
X480354D02*
D03*
Y313799D02*
D03*
X519146Y349299D02*
D03*
Y336701D02*
D03*
X499854D02*
D03*
Y349299D02*
D03*
X519146Y392799D02*
D03*
Y380201D02*
D03*
X499854D02*
D03*
Y392799D02*
D03*
X470146Y543299D02*
D03*
Y530701D02*
D03*
X450854D02*
D03*
Y543299D02*
D03*
X257646Y164799D02*
D03*
Y152201D02*
D03*
X238354D02*
D03*
Y164799D02*
D03*
X334646D02*
D03*
Y152201D02*
D03*
X315354D02*
D03*
Y164799D02*
D03*
X408146D02*
D03*
Y152201D02*
D03*
X388854D02*
D03*
Y164799D02*
D03*
X485146D02*
D03*
Y152201D02*
D03*
X465854D02*
D03*
Y164799D02*
D03*
X225146Y393799D02*
D03*
Y381201D02*
D03*
X205854D02*
D03*
Y393799D02*
D03*
X225146Y352299D02*
D03*
Y339701D02*
D03*
X205854D02*
D03*
Y352299D02*
D03*
X248146Y310299D02*
D03*
Y297701D02*
D03*
X228854D02*
D03*
Y310299D02*
D03*
D12*
X183331Y266732D02*
D03*
X199669D02*
D03*
X183331Y258268D02*
D03*
X199669D02*
D03*
X183331Y223232D02*
D03*
X199669D02*
D03*
X183331Y214768D02*
D03*
X199669D02*
D03*
X159831Y245232D02*
D03*
X176169D02*
D03*
X159831Y236768D02*
D03*
X176169D02*
D03*
X206831Y245732D02*
D03*
X223169D02*
D03*
X206831Y237268D02*
D03*
X223169D02*
D03*
X523831Y234732D02*
D03*
X540169D02*
D03*
X523831Y226268D02*
D03*
X540169D02*
D03*
D13*
X493500Y158000D02*
D03*
Y152000D02*
D03*
X418500Y158000D02*
D03*
Y152000D02*
D03*
X343500Y158000D02*
D03*
Y152000D02*
D03*
X267500Y158000D02*
D03*
Y152000D02*
D03*
D49*
X551000Y350000D02*
D03*
X257500Y414500D02*
D03*
D50*
X551000Y360000D02*
D03*
Y370000D02*
D03*
X267500Y414500D02*
D03*
X257500Y424500D02*
D03*
X267500D02*
D03*
X257500Y434500D02*
D03*
X267500D02*
D03*
X257500Y444500D02*
D03*
X267500D02*
D03*
X455000Y480000D02*
D03*
X465000Y490000D02*
D03*
Y480000D02*
D03*
X197500Y583500D02*
D03*
D51*
X577000Y364406D02*
D03*
Y352594D02*
D03*
X286500Y463500D02*
D03*
Y513500D02*
D03*
D52*
X455000Y490000D02*
D03*
X207500Y583500D02*
D03*
D53*
X249500Y135000D02*
D03*
D54*
Y188000D02*
D03*
X463118Y210661D02*
D03*
Y261055D02*
D03*
D55*
X291000Y569000D02*
D03*
X286000Y569000D02*
D03*
X291000Y574000D02*
D03*
X286000D02*
D03*
X291000Y579000D02*
D03*
X286000D02*
D03*
X291000Y584000D02*
D03*
X286000Y584000D02*
D03*
X291000Y589000D02*
D03*
D56*
X286000D02*
D03*
M02*
