G04 Layer_Color=16770453*
%FSLAX25Y25*%
%MOIN*%
G70*
G01*
G75*
%ADD11R,0.03500X0.03500*%
%ADD13R,0.05906X0.03937*%
%ADD59R,0.03500X0.03500*%
%ADD60R,0.02362X0.04134*%
%ADD61R,0.05000X0.05000*%
%ADD62R,0.05000X0.05000*%
%ADD63R,0.12598X0.03937*%
%ADD64R,0.01969X0.02362*%
%ADD65R,0.03800X0.03800*%
%ADD66R,0.10630X0.03150*%
%ADD67R,0.05906X0.02756*%
%ADD68R,0.06102X0.03937*%
%ADD69R,0.03937X0.06102*%
%ADD70R,0.05906X0.05118*%
%ADD71R,0.06890X0.02756*%
%ADD72R,0.05906X0.03150*%
%ADD73R,0.01969X0.01969*%
%ADD74R,0.01181X0.03937*%
%ADD75R,0.07874X0.05118*%
D11*
X294500Y524000D02*
D03*
Y530000D02*
D03*
X232000Y577500D02*
D03*
Y583500D02*
D03*
X286500Y524000D02*
D03*
Y530000D02*
D03*
X560000Y489500D02*
D03*
Y495500D02*
D03*
X568000D02*
D03*
Y489500D02*
D03*
X326000Y482500D02*
D03*
Y488500D02*
D03*
X176000Y437500D02*
D03*
Y431500D02*
D03*
X169000Y437500D02*
D03*
Y431500D02*
D03*
X565500Y445500D02*
D03*
Y439500D02*
D03*
X558000D02*
D03*
Y445500D02*
D03*
X234000Y414500D02*
D03*
Y420500D02*
D03*
X213000Y388000D02*
D03*
Y394000D02*
D03*
X213500Y346500D02*
D03*
Y352500D02*
D03*
X236000Y304500D02*
D03*
Y310500D02*
D03*
X488000Y307500D02*
D03*
Y313500D02*
D03*
X507000Y343500D02*
D03*
Y349500D02*
D03*
X507500Y387000D02*
D03*
Y393000D02*
D03*
X458000Y538000D02*
D03*
Y544000D02*
D03*
X406500Y538000D02*
D03*
Y544000D02*
D03*
X360500Y537500D02*
D03*
Y543500D02*
D03*
X315000Y537500D02*
D03*
Y543500D02*
D03*
X261500Y538000D02*
D03*
Y544000D02*
D03*
D13*
X224865Y420299D02*
D03*
Y407701D02*
D03*
X205573D02*
D03*
Y420299D02*
D03*
D59*
X562000Y538500D02*
D03*
X556000D02*
D03*
X218500Y583500D02*
D03*
X224500D02*
D03*
X326000Y461000D02*
D03*
X320000D02*
D03*
X207000Y260000D02*
D03*
X213000D02*
D03*
X184000Y238500D02*
D03*
X190000D02*
D03*
X231000Y239500D02*
D03*
X237000D02*
D03*
X207500Y216500D02*
D03*
X213500D02*
D03*
X548000Y228000D02*
D03*
X554000D02*
D03*
X548000Y235000D02*
D03*
X554000D02*
D03*
X207500Y223500D02*
D03*
X213500D02*
D03*
X231000Y246500D02*
D03*
X237000D02*
D03*
X184000Y245500D02*
D03*
X190000D02*
D03*
X207000Y267000D02*
D03*
X213000D02*
D03*
X389000Y586000D02*
D03*
X395000D02*
D03*
X348000Y490000D02*
D03*
X354000D02*
D03*
D60*
X571240Y430315D02*
D03*
X563760D02*
D03*
Y419685D02*
D03*
X567500D02*
D03*
X571240D02*
D03*
D61*
X542000Y492500D02*
D03*
X542000Y500000D02*
D03*
X538500Y430500D02*
D03*
X538500Y423000D02*
D03*
D62*
X567500Y505000D02*
D03*
X560000D02*
D03*
X571500Y410000D02*
D03*
X564000D02*
D03*
D63*
X542000Y512000D02*
D03*
X542000Y520661D02*
D03*
D64*
X556260Y513260D02*
D03*
X563740D02*
D03*
Y520740D02*
D03*
X560000Y520740D02*
D03*
X556260Y520740D02*
D03*
X560000Y513260D02*
D03*
D65*
X326000Y467500D02*
D03*
Y475500D02*
D03*
X318000Y471500D02*
D03*
D66*
X550000Y419488D02*
D03*
Y430512D02*
D03*
D67*
X570110Y355547D02*
D03*
Y349642D02*
D03*
Y367358D02*
D03*
D68*
X546976Y551500D02*
D03*
D69*
X553126Y594500D02*
D03*
D70*
X589000Y550933D02*
D03*
Y595224D02*
D03*
D71*
X589500Y590500D02*
D03*
Y564516D02*
D03*
Y568847D02*
D03*
Y573177D02*
D03*
Y577508D02*
D03*
Y581839D02*
D03*
Y586169D02*
D03*
Y560185D02*
D03*
D72*
X559031Y550000D02*
D03*
Y596000D02*
D03*
D73*
X367705Y620811D02*
D03*
X354713D02*
D03*
X343886D02*
D03*
X347429Y618646D02*
D03*
X343886Y616480D02*
D03*
X347429Y614315D02*
D03*
X343886Y612150D02*
D03*
X347429Y609984D02*
D03*
X343886Y607819D02*
D03*
X347429Y605654D02*
D03*
X343886Y603488D02*
D03*
X347429Y601323D02*
D03*
X343886Y599157D02*
D03*
X347429Y596992D02*
D03*
X343886Y594827D02*
D03*
X347429Y592661D02*
D03*
X343886Y586165D02*
D03*
Y590496D02*
D03*
X348217Y586165D02*
D03*
X350382Y589709D02*
D03*
X352547Y586165D02*
D03*
X354713Y589709D02*
D03*
X356878Y586165D02*
D03*
X359043Y589709D02*
D03*
X361209Y586165D02*
D03*
X363374Y589709D02*
D03*
X365539Y586165D02*
D03*
X367705Y589709D02*
D03*
X369870Y586165D02*
D03*
X372035Y589709D02*
D03*
X374201Y586165D02*
D03*
X378531Y590496D02*
D03*
X374988Y592661D02*
D03*
X378531Y594827D02*
D03*
X374988Y596992D02*
D03*
X378531Y599157D02*
D03*
X374988Y601323D02*
D03*
X378531Y603488D02*
D03*
X374988Y605654D02*
D03*
X378531Y607819D02*
D03*
X374988Y609984D02*
D03*
X378531Y612150D02*
D03*
X374988Y614315D02*
D03*
X378531Y616480D02*
D03*
X374988Y618646D02*
D03*
X378531Y620811D02*
D03*
Y586165D02*
D03*
D74*
X359984Y468700D02*
D03*
X361953D02*
D03*
X363921D02*
D03*
X365890D02*
D03*
X367858D02*
D03*
X350142D02*
D03*
X352110D02*
D03*
X354079D02*
D03*
X356047D02*
D03*
X358016D02*
D03*
D75*
X376913Y458070D02*
D03*
X341087D02*
D03*
M02*
