G04 Layer_Color=16720538*
%FSLAX25Y25*%
%MOIN*%
G70*
G01*
G75*
%ADD10C,0.00600*%
%ADD14C,0.01000*%
D10*
X115305Y650324D02*
G03*
X114766Y649715I32748J-29551D01*
G01*
X115849Y650915D02*
G03*
X115305Y650324I31865J-29836D01*
G01*
X116465Y651560D02*
G03*
X115849Y650915I30927J-30181D01*
G01*
X117156Y652252D02*
G03*
X116465Y651560I29922J-30566D01*
G01*
X117993Y653049D02*
G03*
X117156Y652252I28776J-31047D01*
G01*
X118977Y653933D02*
G03*
X117993Y653049I27496J-31611D01*
G01*
X120326Y655057D02*
G03*
X118977Y653933I25868J-32414D01*
G01*
X129209Y660461D02*
G03*
X120326Y655057I16716J-37480D01*
G01*
X130887Y661167D02*
G03*
X129209Y660461I15415J-38984D01*
G01*
X132466Y661755D02*
G03*
X130887Y661167I13998J-39979D01*
G01*
X134140Y662303D02*
G03*
X132466Y661755I12468J-40940D01*
G01*
X136394Y662923D02*
G03*
X134140Y662303I10346J-41996D01*
G01*
X140550Y663735D02*
G03*
X136394Y662923I6245J-43019D01*
G01*
X141342Y663842D02*
G03*
X140550Y663735I5352J-42464D01*
G01*
X580100Y663570D02*
G03*
X579015Y663739I-7126J-42127D01*
G01*
X586573Y661951D02*
G03*
X580100Y663570I-13651J-40830D01*
G01*
X588261Y661346D02*
G03*
X586573Y661951I-15105J-39492D01*
G01*
X589987Y660641D02*
G03*
X588261Y661346I-16676J-38381D01*
G01*
X591953Y659725D02*
G03*
X589987Y660641I-18469J-37066D01*
G01*
X600566Y653969D02*
G03*
X591953Y659725I-26860J-30871D01*
G01*
X601545Y653090D02*
G03*
X600566Y653969I-28424J-30696D01*
G01*
X602377Y652299D02*
G03*
X601545Y653090I-29553J-30226D01*
G01*
X603065Y651611D02*
G03*
X602377Y652299I-30550J-29855D01*
G01*
X603678Y650970D02*
G03*
X603065Y651611I-31478J-29522D01*
G01*
X604287Y650308D02*
G03*
X603678Y650970I-32428J-29179D01*
G01*
X604823Y649701D02*
G03*
X604287Y650308I-33327J-28900D01*
G01*
X100300Y200724D02*
G03*
X100300Y200719I4792J-1D01*
G01*
X102979Y189696D02*
G03*
X103275Y189028I34743J15003D01*
G01*
X103275D02*
G03*
X103593Y188347I34823J15843D01*
G01*
D02*
G03*
X103932Y187656I34878J16702D01*
G01*
X103932D02*
G03*
X104294Y186955I34913J17581D01*
G01*
D02*
G03*
X104679Y186245I34930J18483D01*
G01*
X104679D02*
G03*
X105050Y185592I34915J19398D01*
G01*
D02*
G03*
X105441Y184933I34905J20261D01*
G01*
D02*
G03*
X105854Y184267I34887J21147D01*
G01*
X106243Y183663D02*
G03*
X106650Y183056I34813J22885D01*
G01*
X106650D02*
G03*
X107075Y182445I34781J23749D01*
G01*
X99976Y599546D02*
X99981Y600169D01*
X99989Y600788D01*
X99998Y601403D01*
X100011Y602014D01*
X100025Y602621D01*
X100043Y603224D01*
X100063Y603823D01*
X100085Y604418D01*
X100110Y605009D01*
X100137Y605597D01*
X100166Y606180D01*
X100198Y606760D01*
X100233Y607336D01*
X100270Y607907D01*
X100309Y608475D01*
X100350Y609040D01*
X100394Y609600D01*
X100440Y610157D01*
X100488Y610709D01*
X100539Y611259D01*
X100592Y611804D01*
X100647Y612345D01*
X100705Y612883D01*
X100764Y613417D01*
X100826Y613948D01*
X100890Y614474D01*
X100956Y614997D01*
X101024Y615517D01*
X101095Y616033D01*
X101167Y616544D01*
X101242Y617053D01*
X101319Y617558D01*
X101398Y618059D01*
X101479Y618556D01*
X101561Y619051D01*
X101646Y619541D01*
X101734Y620028D01*
X101822Y620511D01*
X101913Y620991D01*
X102006Y621467D01*
X102101Y621940D01*
X102198Y622410D01*
X102297Y622875D01*
X102397Y623338D01*
X102500Y623797D01*
X102604Y624252D01*
X102710Y624705D01*
X102819Y625153D01*
X102928Y625598D01*
X103040Y626040D01*
X103154Y626479D01*
X103269Y626914D01*
X103386Y627346D01*
X103505Y627774D01*
X103626Y628199D01*
X103748Y628621D01*
X103872Y629040D01*
X103997Y629455D01*
X104125Y629867D01*
X104254Y630276D01*
X104384Y630681D01*
X104516Y631084D01*
X104650Y631483D01*
X104786Y631879D01*
X104923Y632271D01*
X105061Y632661D01*
X105201Y633047D01*
X105343Y633430D01*
X105486Y633810D01*
X105631Y634187D01*
X105777Y634561D01*
X105974Y635054D01*
X106174Y635542D01*
X106376Y636025D01*
X106581Y636502D01*
X106788Y636974D01*
X106998Y637440D01*
X107210Y637901D01*
X107424Y638357D01*
X107641Y638808D01*
X107860Y639253D01*
X108081Y639693D01*
X108305Y640128D01*
X108530Y640557D01*
X108758Y640982D01*
X108988Y641401D01*
X109220Y641816D01*
X109453Y642225D01*
X109689Y642630D01*
X109987Y643128D01*
X110287Y643619D01*
X110591Y644102D01*
X110897Y644578D01*
X111206Y645046D01*
X111518Y645507D01*
X111832Y645960D01*
X112212Y646494D01*
X112596Y647018D01*
X112984Y647531D01*
X113374Y648034D01*
X113834Y648608D01*
X114298Y649168D01*
X114766Y649715D01*
X141342Y663842D02*
X141900Y663909D01*
X142343Y663956D01*
X142726Y663994D01*
X143051Y664022D01*
X143369Y664048D01*
X143634Y664067D01*
X143849Y664082D01*
X144061Y664095D01*
X144267Y664107D01*
X144469Y664117D01*
X144627Y664124D01*
X144782Y664131D01*
X144934Y664137D01*
X145082Y664142D01*
X145228Y664146D01*
X145335Y664149D01*
X145440Y664151D01*
X145543Y664153D01*
X145644Y664155D01*
X145743Y664157D01*
X145841Y664158D01*
X145936Y664159D01*
X146030Y664159D01*
X146122Y664159D01*
X146182Y664159D01*
X146241Y664159D01*
X146299Y664159D01*
X146356Y664159D01*
X146413Y664159D01*
X146468Y664158D01*
X146523Y664158D01*
X146576Y664157D01*
X146629Y664156D01*
X146681Y664155D01*
X146732Y664154D01*
X146782Y664153D01*
X146831Y664152D01*
X146879Y664151D01*
X146926Y664150D01*
X146973Y664149D01*
X147018Y664148D01*
X147062Y664146D01*
X147106Y664145D01*
X147148Y664144D01*
X147190Y664142D01*
X147230Y664141D01*
X147250Y664140D01*
X147270Y664139D01*
X147289Y664138D01*
X147308Y664138D01*
X147327Y664137D01*
X147346Y664136D01*
X147364Y664135D01*
X147382Y664135D01*
X147400Y664134D01*
X147418Y664133D01*
X147435Y664132D01*
X147452Y664131D01*
X147469Y664130D01*
X147486Y664130D01*
X147502Y664129D01*
X147518Y664128D01*
X147534Y664127D01*
X147550Y664126D01*
X147565Y664126D01*
X147580Y664125D01*
X147595Y664124D01*
X147610Y664123D01*
X147624Y664122D01*
X147638Y664121D01*
X147652Y664121D01*
X147665Y664120D01*
X147679Y664119D01*
X147692Y664118D01*
X147705Y664118D01*
X147717Y664117D01*
X147729Y664116D01*
X147741Y664115D01*
X147753Y664115D01*
X147764Y664114D01*
X147776Y664113D01*
X147787Y664112D01*
X147797Y664112D01*
X147808Y664111D01*
X147818Y664110D01*
X147828Y664110D01*
X147837Y664109D01*
X147847Y664108D01*
X147856Y664108D01*
X147864Y664107D01*
X147873Y664106D01*
X147881Y664106D01*
X147889Y664105D01*
X147897Y664104D01*
X147904Y664104D01*
X147911Y664103D01*
X147918Y664103D01*
X147925Y664102D01*
X147931Y664102D01*
X147937Y664101D01*
X147943Y664101D01*
X147949Y664100D01*
X147954Y664100D01*
X147959Y664099D01*
X147964Y664099D01*
X147968Y664099D01*
X147972Y664098D01*
X147976Y664098D01*
X147979Y664098D01*
X147983Y664097D01*
X147986Y664097D01*
X147988Y664097D01*
X147991Y664097D01*
X147993Y664096D01*
X147995Y664096D01*
X147996Y664096D01*
X147998Y664096D01*
X147999Y664096D01*
X147999Y664096D01*
X148000Y664096D01*
X148000Y664096D01*
X571882Y664086D02*
X571882Y664086D01*
X571883Y664087D01*
X571884Y664087D01*
X571885Y664087D01*
X571887Y664087D01*
X571889Y664087D01*
X571891Y664087D01*
X571894Y664087D01*
X571896Y664088D01*
X571899Y664088D01*
X571902Y664088D01*
X571906Y664089D01*
X571910Y664089D01*
X571914Y664089D01*
X571918Y664090D01*
X571923Y664090D01*
X571928Y664090D01*
X571933Y664091D01*
X571939Y664091D01*
X571944Y664092D01*
X571950Y664092D01*
X571956Y664093D01*
X571963Y664093D01*
X571970Y664094D01*
X571977Y664094D01*
X571984Y664095D01*
X571992Y664095D01*
X572000Y664096D01*
X572008Y664096D01*
X572017Y664097D01*
X572025Y664098D01*
X572034Y664098D01*
X572044Y664099D01*
X572053Y664100D01*
X572063Y664100D01*
X572073Y664101D01*
X572083Y664102D01*
X572094Y664102D01*
X572105Y664103D01*
X572116Y664104D01*
X572127Y664104D01*
X572139Y664105D01*
X572151Y664106D01*
X572163Y664106D01*
X572176Y664107D01*
X572188Y664108D01*
X572201Y664109D01*
X572214Y664109D01*
X572228Y664110D01*
X572241Y664111D01*
X572256Y664112D01*
X572270Y664112D01*
X572284Y664113D01*
X572299Y664114D01*
X572314Y664115D01*
X572329Y664115D01*
X572345Y664116D01*
X572361Y664117D01*
X572376Y664118D01*
X572393Y664118D01*
X572409Y664119D01*
X572426Y664120D01*
X572443Y664121D01*
X572460Y664121D01*
X572478Y664122D01*
X572496Y664123D01*
X572514Y664124D01*
X572532Y664124D01*
X572550Y664125D01*
X572569Y664126D01*
X572588Y664126D01*
X572607Y664127D01*
X572627Y664128D01*
X572647Y664128D01*
X572687Y664130D01*
X572728Y664131D01*
X572770Y664132D01*
X572813Y664134D01*
X572857Y664135D01*
X572902Y664136D01*
X572948Y664137D01*
X572995Y664138D01*
X573043Y664139D01*
X573092Y664140D01*
X573141Y664140D01*
X573192Y664141D01*
X573243Y664142D01*
X573296Y664142D01*
X573349Y664143D01*
X573403Y664143D01*
X573459Y664143D01*
X573515Y664144D01*
X573571Y664144D01*
X573629Y664144D01*
X573688Y664143D01*
X573748Y664143D01*
X573839Y664143D01*
X573932Y664142D01*
X574026Y664141D01*
X574123Y664139D01*
X574222Y664137D01*
X574322Y664135D01*
X574425Y664132D01*
X574529Y664130D01*
X574635Y664126D01*
X574743Y664123D01*
X574890Y664117D01*
X575040Y664111D01*
X575193Y664105D01*
X575349Y664097D01*
X575508Y664088D01*
X575712Y664077D01*
X575920Y664063D01*
X576132Y664049D01*
X576393Y664029D01*
X576661Y664007D01*
X576981Y663979D01*
X577357Y663942D01*
X577792Y663895D01*
X578342Y663829D01*
X579015Y663739D01*
X604823Y649701D02*
X605288Y649156D01*
X605749Y648597D01*
X606206Y648025D01*
X606595Y647524D01*
X606980Y647012D01*
X607362Y646490D01*
X607741Y645958D01*
X608053Y645506D01*
X608363Y645047D01*
X608671Y644581D01*
X608976Y644107D01*
X609277Y643625D01*
X609577Y643136D01*
X609873Y642640D01*
X610166Y642135D01*
X610398Y641726D01*
X610628Y641312D01*
X610857Y640893D01*
X611083Y640468D01*
X611307Y640039D01*
X611529Y639604D01*
X611748Y639165D01*
X611966Y638720D01*
X612181Y638270D01*
X612394Y637814D01*
X612605Y637354D02*
X612813Y636888D01*
X613019Y636417D01*
X613222Y635940D01*
X613423Y635458D01*
X613621Y634971D01*
X613817Y634478D01*
X614010Y633979D01*
X614153Y633602D01*
X614295Y633221D01*
X614435Y632837D01*
X614574Y632451D01*
X614711Y632061D01*
X614847Y631668D01*
X614981Y631271D01*
X615113Y630872D01*
X615244Y630469D01*
X615373Y630063D01*
X615500Y629654D02*
X615626Y629241D01*
X615751Y628826D01*
X615873Y628406D01*
X615994Y627984D01*
X616113Y627559D01*
X616230Y627130D01*
X616346Y626697D01*
X616460Y626262D01*
X616572Y625823D01*
X616683Y625381D01*
X616791Y624935D01*
X616898Y624486D01*
X617003Y624034D01*
X617106Y623578D01*
X617207Y623119D01*
X617307Y622656D01*
X617404Y622190D01*
X617499Y621720D01*
X617593Y621247D01*
X617685Y620771D01*
X617774Y620291D01*
X617862Y619807D01*
X617948Y619320D01*
X618032Y618829D01*
X618113Y618335D01*
X618193Y617837D01*
X618270Y617336D01*
X618346Y616831D01*
X618419Y616322D01*
X618491Y615810D01*
X618560Y615294D01*
X618627Y614775D01*
X618692Y614252D01*
X618755Y613725D01*
X618816Y613195D01*
X618874Y612661D01*
X618930Y612123D01*
X618984Y611581D01*
X619036Y611036D01*
X619086Y610487D01*
X619133Y609934D01*
X619178Y609377D01*
X619221Y608817D01*
X619261Y608253D01*
X619299Y607685D01*
X619335Y607113D01*
X619368Y606538D01*
X619399Y605958D01*
X619428Y605375D01*
X619454Y604788D01*
X619478Y604197D01*
X619499Y603602D01*
X619518Y603003D01*
X619534Y602400D01*
X619549Y601793D01*
X619560Y601183D01*
X619569Y600568D01*
X619575Y599949D01*
X148000Y664096D02*
X571882D01*
X619288Y199816D02*
X619575Y599949D01*
X99976Y599546D02*
X100300Y200820D01*
X111993Y176643D02*
X112414Y176227D01*
X112846Y175811D01*
X113288Y175396D01*
X113664Y175050D01*
X114047Y174705D01*
X114437Y174361D01*
X114835Y174017D01*
X115240Y173674D01*
X115653Y173332D01*
X116073Y172990D01*
X116500Y172650D01*
X116936Y172310D01*
X117379Y171972D01*
X117830Y171634D01*
X118196Y171365D01*
X118568Y171097D01*
X118944Y170830D01*
X119326Y170564D01*
X119713Y170298D01*
X120105Y170033D01*
X120502Y169770D01*
X120905Y169507D01*
X121313Y169246D01*
X121726Y168985D01*
X122144Y168726D01*
X122569Y168468D01*
X122998Y168211D01*
X123433Y167955D01*
X123873Y167701D01*
X124320Y167448D01*
X124771Y167196D01*
X125228Y166946D01*
X125691Y166697D01*
X126160Y166449D01*
X126634Y166203D01*
X127114Y165958D01*
X127600Y165716D01*
X128092Y165474D01*
X128590Y165234D01*
X129093Y164996D01*
X129475Y164819D01*
X129860Y164642D01*
X130248Y164467D01*
X130640Y164292D01*
X131035Y164119D01*
X131433Y163946D01*
X131835Y163775D01*
X132240Y163605D01*
X132649Y163435D01*
X133061Y163267D01*
X133477Y163100D01*
X133896Y162934D01*
X134319Y162769D01*
X134745Y162606D01*
X135175Y162443D01*
X135608Y162282D01*
X136046Y162122D01*
X136486Y161963D01*
X136930Y161805D01*
X137378Y161649D01*
X137829Y161493D01*
X138285Y161339D01*
X138743Y161187D01*
X139206Y161036D01*
X139672Y160885D01*
X140142Y160737D01*
X140615Y160589D01*
X141093Y160443D01*
X100300Y200763D02*
X100300Y200764D01*
X100300Y200763D02*
X100300Y200763D01*
X100300Y200762D02*
X100300Y200763D01*
X100300Y200760D02*
X100300Y200762D01*
X100300Y200759D02*
X100300Y200760D01*
X100300Y200757D02*
X100300Y200759D01*
X100300Y200755D02*
X100300Y200757D01*
X100300Y200753D02*
X100300Y200755D01*
X100300Y200750D02*
X100300Y200753D01*
X100300Y200747D02*
X100300Y200750D01*
X100300Y200744D02*
X100300Y200747D01*
X100300Y200741D02*
X100300Y200744D01*
X100300Y200737D02*
X100300Y200741D01*
X100300Y200733D02*
X100300Y200737D01*
X100300Y200729D02*
X100300Y200733D01*
X100300Y200724D02*
Y200729D01*
Y200719D02*
X100300Y200714D01*
X100300Y200709D01*
X100300Y200704D01*
X100300Y200698D01*
X100300Y200692D01*
X100300Y200685D01*
X100300Y200678D01*
X100300Y200672D01*
X100300Y200664D01*
X100300Y200657D01*
X100301Y200649D01*
X100301Y200641D01*
X100301Y200633D01*
X100301Y200625D01*
X100301Y200616D01*
X100301Y200607D01*
X100301Y200598D01*
X100301Y200588D01*
X100302Y200578D01*
X100302Y200568D01*
X100302Y200558D01*
X100302Y200548D01*
X100303Y200537D01*
X100303Y200526D01*
X100303Y200515D01*
X100303Y200503D01*
X100304Y200491D01*
X100304Y200479D01*
X100304Y200467D01*
X100305Y200454D01*
X100305Y200441D01*
X100306Y200428D01*
X100306Y200415D01*
X100307Y200401D01*
X100307Y200388D01*
X100308Y200374D01*
X100308Y200359D01*
X100309Y200345D01*
X100309Y200330D01*
X100310Y200315D01*
X100311Y200299D01*
X100311Y200284D01*
X100312Y200268D01*
X100313Y200252D01*
X100314Y200236D01*
X100314Y200219D01*
X100315Y200202D01*
X100316Y200185D01*
X100317Y200168D01*
X100318Y200151D01*
X100319Y200133D01*
X100320Y200115D01*
X100321Y200097D01*
X100322Y200078D01*
X100323Y200060D01*
X100324Y200041D01*
X100325Y200022D01*
X100327Y200002D01*
X100329Y199963D01*
X100332Y199922D01*
X100335Y199881D01*
X100338Y199839D01*
X100341Y199796D01*
X100344Y199751D01*
X100347Y199706D01*
X100351Y199660D01*
X100355Y199614D01*
X100359Y199566D01*
X100363Y199517D01*
X100367Y199468D01*
X100372Y199417D01*
X100377Y199366D01*
X100382Y199314D01*
X100387Y199260D01*
X100393Y199206D01*
X100398Y199152D01*
X100404Y199096D01*
X100410Y199039D01*
X100417Y198982D01*
X100423Y198924D01*
X100430Y198865D01*
X100437Y198805D01*
X100448Y198713D01*
X100460Y198620D01*
X100472Y198525D01*
X100485Y198428D01*
X100498Y198329D01*
X100513Y198228D01*
X100527Y198126D01*
X100543Y198022D01*
X100559Y197916D01*
X100576Y197808D01*
X100593Y197699D01*
X100612Y197588D01*
X100637Y197437D01*
X100664Y197283D01*
X100692Y197126D01*
X100722Y196966D01*
X100753Y196804D01*
X100786Y196638D01*
X100820Y196470D01*
X100865Y196256D01*
X100912Y196038D01*
X100962Y195815D01*
X101015Y195588D01*
X101082Y195311D01*
X101152Y195027D01*
X101227Y194739D01*
X101306Y194444D01*
X101404Y194094D01*
X101508Y193737D01*
X101635Y193321D01*
X101770Y192895D01*
X101914Y192461D01*
X102087Y191963D01*
X102272Y191456D01*
X102492Y190880D01*
X102727Y190294D01*
X102979Y189696D01*
X105854Y184267D02*
X106243Y183663D01*
X107075Y182445D02*
X107469Y181899D01*
X107877Y181351D01*
X108301Y180801D01*
X108740Y180249D01*
X109138Y179765D01*
X109547Y179281D01*
X109969Y178795D01*
X110404Y178310D01*
X110787Y177893D01*
X111179Y177476D01*
X111581Y177060D01*
X111993Y176643D01*
X619288Y199816D02*
X619288Y199816D01*
X619288Y199815D01*
X619288Y199814D01*
X619288Y199813D01*
X619288Y199812D01*
X619288Y199810D01*
X619288Y199808D01*
X619288Y199806D01*
X619288Y199803D01*
X619288Y199800D01*
X619288Y199797D01*
X619288Y199794D01*
X619288Y199791D01*
X619289Y199787D01*
X619289Y199783D01*
Y199778D02*
Y199783D01*
Y199774D02*
Y199778D01*
X619289Y199769D02*
X619289Y199774D01*
X619288Y199764D02*
X619289Y199769D01*
X619288Y199758D02*
X619288Y199764D01*
X619288Y199753D02*
X619288Y199758D01*
X619288Y199747D02*
X619288Y199753D01*
X619288Y199741D02*
X619288Y199747D01*
X619288Y199734D02*
X619288Y199741D01*
X619288Y199728D02*
X619288Y199734D01*
X619288Y199721D02*
X619288Y199728D01*
X619288Y199714D02*
X619288Y199721D01*
X619288Y199706D02*
X619288Y199714D01*
X619288Y199699D02*
X619288Y199706D01*
X619288Y199691D02*
X619288Y199699D01*
X619288Y199682D02*
X619288Y199691D01*
X619288Y199674D02*
X619288Y199682D01*
X619287Y199665D02*
X619288Y199674D01*
X619287Y199656D02*
X619287Y199665D01*
X619287Y199647D02*
X619287Y199656D01*
X619287Y199638D02*
X619287Y199647D01*
X619287Y199628D02*
X619287Y199638D01*
X619286Y199618D02*
X619287Y199628D01*
X619286Y199608D02*
X619286Y199618D01*
X619286Y199598D02*
X619286Y199608D01*
X619286Y199587D02*
X619286Y199598D01*
X619285Y199576D02*
X619286Y199587D01*
X619285Y199565D02*
X619285Y199576D01*
X619285Y199554D02*
X619285Y199565D01*
X619284Y199542D02*
X619285Y199554D01*
X619284Y199530D02*
X619284Y199542D01*
X619284Y199518D02*
X619284Y199530D01*
X619283Y199506D02*
X619284Y199518D01*
X619283Y199494D02*
X619283Y199506D01*
X619282Y199481D02*
X619283Y199494D01*
X619282Y199468D02*
X619282Y199481D01*
X619281Y199454D02*
X619282Y199468D01*
X619281Y199441D02*
X619281Y199454D01*
X619280Y199427D02*
X619281Y199441D01*
X619280Y199413D02*
X619280Y199427D01*
X619279Y199399D02*
X619280Y199413D01*
X619278Y199384D02*
X619279Y199399D01*
X619278Y199370D02*
X619278Y199384D01*
X619277Y199355D02*
X619278Y199370D01*
X619277Y199339D02*
X619277Y199355D01*
X619276Y199324D02*
X619277Y199339D01*
X619275Y199308D02*
X619276Y199324D01*
X619274Y199293D02*
X619275Y199308D01*
X619273Y199276D02*
X619274Y199293D01*
X619273Y199260D02*
X619273Y199276D01*
X619272Y199243D02*
X619273Y199260D01*
X619271Y199227D02*
X619272Y199243D01*
X619270Y199209D02*
X619271Y199227D01*
X619269Y199192D02*
X619270Y199209D01*
X619268Y199175D02*
X619269Y199192D01*
X619267Y199157D02*
X619268Y199175D01*
X619266Y199139D02*
X619267Y199157D01*
X619264Y199121D02*
X619266Y199139D01*
X619263Y199102D02*
X619264Y199121D01*
X619262Y199084D02*
X619263Y199102D01*
X619261Y199065D02*
X619262Y199084D01*
X619258Y199026D02*
X619261Y199065D01*
X619255Y198987D02*
X619258Y199026D01*
X619253Y198947D02*
X619255Y198987D01*
X619249Y198906D02*
X619253Y198947D01*
X619246Y198864D02*
X619249Y198906D01*
X619243Y198821D02*
X619246Y198864D01*
X619239Y198777D02*
X619243Y198821D01*
X619236Y198732D02*
X619239Y198777D01*
X619232Y198687D02*
X619236Y198732D01*
X619228Y198641D02*
X619232Y198687D01*
X619223Y198593D02*
X619228Y198641D01*
X619219Y198545D02*
X619223Y198593D01*
X619214Y198496D02*
X619219Y198545D01*
X619209Y198446D02*
X619214Y198496D01*
X619204Y198396D02*
X619209Y198446D01*
X619199Y198344D02*
X619204Y198396D01*
X619193Y198292D02*
X619199Y198344D01*
X619187Y198239D02*
X619193Y198292D01*
X619181Y198185D02*
X619187Y198239D01*
X619175Y198130D02*
X619181Y198185D01*
X619169Y198074D02*
X619175Y198130D01*
X619162Y198018D02*
X619169Y198074D01*
X619155Y197961D02*
X619162Y198018D01*
X619148Y197903D02*
X619155Y197961D01*
X619136Y197814D02*
X619148Y197903D01*
X619125Y197724D02*
X619136Y197814D01*
X619112Y197632D02*
X619125Y197724D01*
X619099Y197538D02*
X619112Y197632D01*
X619085Y197442D02*
X619099Y197538D01*
X619071Y197345D02*
X619085Y197442D01*
X619056Y197246D02*
X619071Y197345D01*
X619040Y197145D02*
X619056Y197246D01*
X619024Y197042D02*
X619040Y197145D01*
X619007Y196938D02*
X619024Y197042D01*
X618989Y196832D02*
X619007Y196938D01*
X618971Y196725D02*
X618989Y196832D01*
X618945Y196579D02*
X618971Y196725D01*
X618918Y196430D02*
X618945Y196579D01*
X618889Y196279D02*
X618918Y196430D01*
X618859Y196124D02*
X618889Y196279D01*
X618827Y195967D02*
X618859Y196124D01*
X618794Y195808D02*
X618827Y195967D01*
X618760Y195645D02*
X618794Y195808D01*
X618714Y195438D02*
X618760Y195645D01*
X618667Y195227D02*
X618714Y195438D01*
X618616Y195012D02*
X618667Y195227D01*
X618563Y194793D02*
X618616Y195012D01*
X618507Y194571D02*
X618563Y194793D01*
X618436Y194298D02*
X618507Y194571D01*
X618361Y194020D02*
X618436Y194298D01*
X618282Y193737D02*
X618361Y194020D01*
X618199Y193449D02*
X618282Y193737D01*
X618095Y193106D02*
X618199Y193449D01*
X617986Y192757D02*
X618095Y193106D01*
X617870Y192401D02*
X617986Y192757D01*
X617730Y191987D02*
X617870Y192401D01*
X617580Y191564D02*
X617730Y191987D01*
X617421Y191134D02*
X617580Y191564D01*
X617252Y190697D02*
X617421Y191134D01*
X617051Y190196D02*
X617252Y190697D01*
X616837Y189687D02*
X617051Y190196D01*
X616610Y189169D02*
X616837Y189687D01*
X616369Y188644D02*
X616610Y189169D01*
X616114Y188111D02*
X616369Y188644D01*
X615844Y187571D02*
X616114Y188111D01*
X615560Y187024D02*
X615844Y187571D01*
X615260Y186471D02*
X615560Y187024D01*
X614945Y185912D02*
X615260Y186471D01*
X614614Y185347D02*
X614945Y185912D01*
X614266Y184778D02*
X614614Y185347D01*
X613943Y184267D02*
X614266Y184778D01*
X613607Y183753D02*
X613943Y184267D01*
X613257Y183236D02*
X613607Y183753D01*
X612892Y182716D02*
X613257Y183236D01*
X612561Y182259D02*
X612892Y182716D01*
X612219Y181800D02*
X612561Y182259D01*
X611866Y181339D02*
X612219Y181800D01*
X611501Y180877D02*
X611866Y181339D01*
X611124Y180413D02*
X611501Y180877D01*
X610792Y180015D02*
X611124Y180413D01*
X610451Y179616D02*
X610792Y180015D01*
X610101Y179216D02*
X610451Y179616D01*
X609741Y178816D02*
X610101Y179216D01*
X609372Y178416D02*
X609741Y178816D01*
X608994Y178015D02*
X609372Y178416D01*
X608607Y177614D02*
X608994Y178015D01*
X608277Y177280D02*
X608607Y177614D01*
X607939Y176946D02*
X608277Y177280D01*
X607596Y176613D02*
X607939Y176946D01*
X607245Y176279D02*
X607596Y176613D01*
X606887Y175945D02*
X607245Y176279D01*
X606523Y175612D02*
X606887Y175945D01*
X606151Y175280D02*
X606523Y175612D01*
X605772Y174948D02*
X606151Y175280D01*
X605386Y174616D02*
X605772Y174948D01*
X604993Y174285D02*
X605386Y174616D01*
X604592Y173954D02*
X604993Y174285D01*
X604184Y173624D02*
X604592Y173954D01*
X603852Y173361D02*
X604184Y173624D01*
X603515Y173098D02*
X603852Y173361D01*
X603174Y172836D02*
X603515Y173098D01*
X602828Y172575D02*
X603174Y172836D01*
X602476Y172314D02*
X602828Y172575D01*
X602120Y172054D02*
X602476Y172314D01*
X601758Y171794D02*
X602120Y172054D01*
X601392Y171535D02*
X601758Y171794D01*
X601021Y171277D02*
X601392Y171535D01*
X600644Y171020D02*
X601021Y171277D01*
X600262Y170764D02*
X600644Y171020D01*
X599875Y170509D02*
X600262Y170764D01*
X599483Y170254D02*
X599875Y170509D01*
X599086Y170000D02*
X599483Y170254D01*
X598684Y169748D02*
X599086Y170000D01*
X598276Y169496D02*
X598684Y169748D01*
X597862Y169246D02*
X598276Y169496D01*
X597444Y168996D02*
X597862Y169246D01*
X597020Y168748D02*
X597444Y168996D01*
X596590Y168501D02*
X597020Y168748D01*
X596155Y168255D02*
X596590Y168501D01*
X595715Y168010D02*
X596155Y168255D01*
X595269Y167767D02*
X595715Y168010D01*
X594817Y167524D02*
X595269Y167767D01*
X594360Y167283D02*
X594817Y167524D01*
X593897Y167044D02*
X594360Y167283D01*
X593428Y166806D02*
X593897Y167044D01*
X593073Y166628D02*
X593428Y166806D01*
X592715Y166451D02*
X593073Y166628D01*
X592353Y166275D02*
X592715Y166451D01*
X591988Y166100D02*
X592353Y166275D01*
X591620Y165926D02*
X591988Y166100D01*
X591248Y165752D02*
X591620Y165926D01*
X590873Y165580D02*
X591248Y165752D01*
X590495Y165408D02*
X590873Y165580D01*
X590113Y165238D02*
X590495Y165408D01*
X589728Y165068D02*
X590113Y165238D01*
X589340Y164899D02*
X589728Y165068D01*
X588949Y164731D02*
X589340Y164899D01*
X588554Y164564D02*
X588949Y164731D01*
X588155Y164398D02*
X588554Y164564D01*
X587753Y164233D02*
X588155Y164398D01*
X587348Y164070D02*
X587753Y164233D01*
X586939Y163907D02*
X587348Y164070D01*
X586527Y163745D02*
X586939Y163907D01*
X586111Y163584D02*
X586527Y163745D01*
X585692Y163425D02*
X586111Y163584D01*
X585269Y163266D02*
X585692Y163425D01*
X584843Y163109D02*
X585269Y163266D01*
X584413Y162952D02*
X584843Y163109D01*
X583980Y162797D02*
X584413Y162952D01*
X583542Y162643D02*
X583980Y162797D01*
X583102Y162490D02*
X583542Y162643D01*
X582658Y162338D02*
X583102Y162490D01*
X582210Y162188D02*
X582658Y162338D01*
X581758Y162039D02*
X582210Y162188D01*
X581303Y161890D02*
X581758Y162039D01*
X580845Y161744D02*
X581303Y161890D01*
X580382Y161598D02*
X580845Y161744D01*
X579916Y161454D02*
X580382Y161598D01*
X579446Y161311D02*
X579916Y161454D01*
X578973Y161169D02*
X579446Y161311D01*
X578496Y161028D02*
X578973Y161169D01*
X578015Y160889D02*
X578496Y161028D01*
X577530Y160751D02*
X578015Y160889D01*
X577041Y160615D02*
X577530Y160751D01*
X576549Y160480D02*
X577041Y160615D01*
X576053Y160346D02*
X576549Y160480D01*
X575553Y160214D02*
X576053Y160346D01*
X575049Y160083D02*
X575553Y160214D01*
X574541Y159954D02*
X575049Y160083D01*
X574029Y159826D02*
X574541Y159954D01*
X573514Y159699D02*
X574029Y159826D01*
X572995Y159574D02*
X573514Y159699D01*
X572471Y159450D02*
X572995Y159574D01*
X571944Y159328D02*
X572471Y159450D01*
X571413Y159207D02*
X571944Y159328D01*
X570878Y159089D02*
X571413Y159207D01*
X570339Y158971D02*
X570878Y159089D01*
X569796Y158855D02*
X570339Y158971D01*
X569249Y158740D02*
X569796Y158855D01*
X568698Y158628D02*
X569249Y158740D01*
X568142Y158516D02*
X568698Y158628D01*
X567583Y158407D02*
X568142Y158516D01*
X567020Y158299D02*
X567583Y158407D01*
X566453Y158192D02*
X567020Y158299D01*
X565881Y158088D02*
X566453Y158192D01*
X565306Y157984D02*
X565881Y158088D01*
X564726Y157883D02*
X565306Y157984D01*
X564143Y157783D02*
X564726Y157883D01*
X563555Y157685D02*
X564143Y157783D01*
X562963Y157589D02*
X563555Y157685D01*
X562366Y157495D02*
X562963Y157589D01*
X561766Y157402D02*
X562366Y157495D01*
X561161Y157311D02*
X561766Y157402D01*
X560553Y157222D02*
X561161Y157311D01*
X559939Y157135D02*
X560553Y157222D01*
X559322Y157049D02*
X559939Y157135D01*
X558701Y156965D02*
X559322Y157049D01*
X538144Y100300D02*
Y121136D01*
X181443Y121133D02*
X186304Y126226D01*
X181443Y100300D02*
Y121133D01*
X558075Y156883D02*
X558701Y156965D01*
X557444Y156803D02*
X558075Y156883D01*
X556810Y156725D02*
X557444Y156803D01*
X556171Y156649D02*
X556810Y156725D01*
X555528Y156574D02*
X556171Y156649D01*
X554881Y156502D02*
X555528Y156574D01*
X554229Y156431D02*
X554881Y156502D01*
X553572Y156363D02*
X554229Y156431D01*
X552912Y156296D02*
X553572Y156363D01*
X552247Y156232D02*
X552912Y156296D01*
X551577Y156169D02*
X552247Y156232D01*
X550903Y156108D02*
X551577Y156169D01*
X550225Y156050D02*
X550903Y156108D01*
X549542Y155993D02*
X550225Y156050D01*
X548855Y155938D02*
X549542Y155993D01*
X548163Y155886D02*
X548855Y155938D01*
X547467Y155835D02*
X548163Y155886D01*
X546766Y155787D02*
X547467Y155835D01*
X546060Y155741D02*
X546766Y155787D01*
X545350Y155696D02*
X546060Y155741D01*
X544636Y155655D02*
X545350Y155696D01*
X543916Y155615D02*
X544636Y155655D01*
X543193Y155577D02*
X543916Y155615D01*
X542464Y155541D02*
X543193Y155577D01*
X541731Y155508D02*
X542464Y155541D01*
X540994Y155477D02*
X541731Y155508D01*
X540251Y155448D02*
X540994Y155477D01*
X539504Y155421D02*
X540251Y155448D01*
X538753Y155397D02*
X539504Y155421D01*
X537996Y155375D02*
X538753Y155397D01*
X537235Y155355D02*
X537996Y155375D01*
X536469Y155337D02*
X537235Y155355D01*
X535699Y155322D02*
X536469Y155337D01*
X534923Y155309D02*
X535699Y155322D01*
X534143Y155298D02*
X534923Y155309D01*
X533358Y155290D02*
X534143Y155298D01*
X532568Y155284D02*
X533358Y155290D01*
X531774Y155280D02*
X532568Y155284D01*
X530974Y155279D02*
X531774Y155280D01*
X533283Y126204D02*
X538144Y121136D01*
X530975Y126204D02*
X533283D01*
X530975D02*
Y155279D01*
X181443Y100300D02*
X538094D01*
X161513Y156134D02*
X162143Y156051D01*
X162778Y155970D01*
X141093Y160443D02*
X141574Y160299D01*
X142058Y160155D01*
X142547Y160014D01*
X143039Y159873D01*
X143535Y159734D01*
X144035Y159597D01*
X144539Y159461D01*
X145047Y159326D01*
X145559Y159193D01*
X146074Y159062D01*
X146593Y158931D01*
X147117Y158803D01*
X147644Y158676D01*
X148175Y158551D01*
X148710Y158427D01*
X149249Y158305D01*
X149792Y158184D01*
X150339Y158065D01*
X150890Y157948D01*
X151445Y157832D01*
X152005Y157718D01*
X152568Y157606D01*
X153135Y157495D01*
X153706Y157386D01*
X154282Y157279D01*
X154861Y157174D01*
X155445Y157070D01*
X156033Y156968D01*
X156625Y156868D01*
X157221Y156770D01*
X157822Y156674D01*
X158426Y156579D01*
X159035Y156486D01*
X159648Y156396D01*
X160266Y156307D01*
X160887Y156220D01*
X161513Y156134D01*
X162778Y155970D02*
X163416Y155891D01*
X164059Y155814D01*
X164707Y155738D01*
X165359Y155665D01*
X166015Y155594D01*
X166676Y155524D01*
X167341Y155457D01*
X168010Y155392D01*
X168684Y155329D01*
X169363Y155268D01*
X170045Y155209D01*
X170733Y155152D01*
X171425Y155097D01*
X172121Y155045D01*
X172822Y154995D01*
X173527Y154947D01*
X174237Y154901D01*
X174952Y154857D01*
X175671Y154816D01*
X176395Y154777D01*
X177123Y154739D01*
X177856Y154705D01*
X178594Y154673D01*
X179336Y154642D01*
X180083Y154615D01*
X180835Y154589D01*
X181591Y154566D01*
X182352Y154545D01*
X183118Y154527D01*
X183889Y154511D01*
X184664Y154498D01*
X185444Y154487D01*
X186229Y154478D01*
X187019Y154472D01*
X187813Y154468D01*
X188613Y154467D01*
Y126226D02*
Y154467D01*
X186304Y126226D02*
X188613D01*
D14*
X422500Y317000D02*
Y333000D01*
X304000Y317000D02*
X422500D01*
X304000D02*
Y333000D01*
X422500D01*
X544500Y583000D02*
X557500D01*
X544500Y561500D02*
Y583000D01*
Y561500D02*
X557500D01*
Y554000D02*
X573500D01*
X557500D02*
Y592000D01*
X573500D01*
Y554000D02*
Y592000D01*
X303000Y662000D02*
X419000D01*
X419500Y662500D01*
Y622500D02*
Y662500D01*
X303000Y622500D02*
X419500D01*
X303000D02*
Y662000D01*
X239500Y565000D02*
Y566500D01*
X149500D02*
X239500D01*
X149500Y428500D02*
X152000D01*
X149500D02*
Y566500D01*
X152000Y428500D02*
X239000D01*
X239500Y429000D01*
Y565000D01*
M02*
