G04 Layer_Physical_Order=2*
G04 Layer_Color=16711680*
%FSLAX25Y25*%
%MOIN*%
G70*
G01*
G75*
%ADD11R,0.03500X0.03500*%
%ADD13R,0.05906X0.03937*%
%ADD14C,0.01000*%
%ADD47C,0.03543*%
%ADD48C,0.09000*%
%ADD49C,0.07500*%
%ADD50C,0.05906*%
%ADD51R,0.05906X0.05906*%
%ADD52R,0.05906X0.05906*%
%ADD53R,0.03600X0.03600*%
%ADD54C,0.03600*%
%ADD55C,0.03100*%
%ADD56R,0.02362X0.04134*%
%ADD57R,0.05000X0.05000*%
%ADD58R,0.05000X0.05000*%
%ADD59R,0.12598X0.03937*%
%ADD60R,0.01969X0.02362*%
%ADD61R,0.03800X0.03800*%
%ADD62R,0.03500X0.03500*%
%ADD63R,0.10630X0.03150*%
%ADD64R,0.05906X0.02756*%
%ADD65R,0.06102X0.03937*%
%ADD66R,0.03937X0.06102*%
%ADD67R,0.05906X0.05118*%
%ADD68R,0.06890X0.02756*%
%ADD69R,0.05906X0.03150*%
%ADD70R,0.01969X0.01969*%
%ADD71R,0.01181X0.03937*%
%ADD72R,0.07874X0.05118*%
%ADD73C,0.01600*%
D11*
X560000Y489500D02*
D03*
Y495500D02*
D03*
X568000D02*
D03*
Y489500D02*
D03*
X176000Y437500D02*
D03*
Y431500D02*
D03*
X169000Y437500D02*
D03*
Y431500D02*
D03*
X565500Y445500D02*
D03*
Y439500D02*
D03*
X558000D02*
D03*
Y445500D02*
D03*
X234000Y414500D02*
D03*
Y420500D02*
D03*
X213000Y388000D02*
D03*
Y394000D02*
D03*
X213500Y346500D02*
D03*
Y352500D02*
D03*
X236000Y304500D02*
D03*
Y310500D02*
D03*
X488000Y307500D02*
D03*
Y313500D02*
D03*
X507000Y343500D02*
D03*
Y349500D02*
D03*
X507500Y387000D02*
D03*
Y393000D02*
D03*
X458000Y538000D02*
D03*
Y544000D02*
D03*
X406500Y538000D02*
D03*
Y544000D02*
D03*
X360500Y537500D02*
D03*
Y543500D02*
D03*
X315000Y537500D02*
D03*
Y543500D02*
D03*
X261500Y538000D02*
D03*
Y544000D02*
D03*
D13*
X224865Y420299D02*
D03*
Y407701D02*
D03*
X205573D02*
D03*
Y420299D02*
D03*
D14*
X575100Y638500D02*
G03*
X587000Y626600I11900J0D01*
G01*
X511855Y611823D02*
G03*
X510016Y612584I-1839J-1839D01*
G01*
X532650Y591000D02*
G03*
X529027Y594650I-3650J0D01*
G01*
X531889Y588769D02*
G03*
X532650Y591000I-2889J2231D01*
G01*
X511855Y611823D02*
G03*
X510016Y612584I-1839J-1839D01*
G01*
X510400Y593062D02*
G03*
X509786Y588769I2600J-2562D01*
G01*
X553650Y538500D02*
G03*
X547438Y541100I-3650J0D01*
G01*
Y535900D02*
G03*
X553650Y538500I2562J2600D01*
G01*
X573079Y515098D02*
G03*
X571240Y515860I-1839J-1839D01*
G01*
X573079Y515098D02*
G03*
X571240Y515860I-1839J-1839D01*
G01*
X576600Y510500D02*
G03*
X575839Y512338I-2600J0D01*
G01*
X576600Y510500D02*
G03*
X575839Y512338I-2600J0D01*
G01*
X571050Y500000D02*
G03*
X570881Y501000I-3050J0D01*
G01*
X565119D02*
G03*
X565218Y498750I2881J-1000D01*
G01*
X570782D02*
G03*
X571050Y500000I-2782J1250D01*
G01*
X575839Y489161D02*
G03*
X576600Y491000I-1839J1839D01*
G01*
X575839Y489161D02*
G03*
X576600Y491000I-1839J1839D01*
G01*
X572500Y486900D02*
G03*
X574338Y487662I0J2600D01*
G01*
X572500Y486900D02*
G03*
X574338Y487662I0J2600D01*
G01*
X545650Y507500D02*
G03*
X545624Y507932I-3650J0D01*
G01*
X552562Y498100D02*
G03*
X546600Y496828I-2562J-2600D01*
G01*
X546351Y495400D02*
G03*
X547400Y492938I3649J100D01*
G01*
X544600Y504938D02*
G03*
X545650Y507500I-2600J2562D01*
G01*
X538376Y507932D02*
G03*
X539400Y504938I3624J-432D01*
G01*
X546600Y496828D02*
G03*
X546351Y495400I3400J-1328D01*
G01*
X497044Y595634D02*
G03*
X495205Y596395I-1839J-1839D01*
G01*
X497044Y595634D02*
G03*
X495205Y596395I-1839J-1839D01*
G01*
X462857D02*
G03*
X462361Y590786I-2562J-2600D01*
G01*
Y590786D02*
G03*
X462463Y589600I3639J-286D01*
G01*
X501570Y583896D02*
G03*
X502831Y583569I1261J2274D01*
G01*
X501570Y583896D02*
G03*
X502831Y583569I1261J2274D01*
G01*
X465463Y584400D02*
G03*
X471562Y580900I3537J-900D01*
G01*
X451338Y592339D02*
G03*
X449500Y593100I-1839J-1839D01*
G01*
X451338Y592339D02*
G03*
X449500Y593100I-1839J-1839D01*
G01*
X437100Y588500D02*
G03*
X436339Y590339I-2600J0D01*
G01*
X446562Y593100D02*
G03*
X446562Y587900I-2562J-2600D01*
G01*
X437100Y588500D02*
G03*
X436339Y590339I-2600J0D01*
G01*
X451161Y585161D02*
G03*
X453000Y584400I1839J1839D01*
G01*
X451161Y585161D02*
G03*
X453000Y584400I1839J1839D01*
G01*
X419500Y619900D02*
G03*
X422100Y622500I0J2600D01*
G01*
X419500Y619900D02*
G03*
X422100Y622500I0J2600D01*
G01*
X427846Y598831D02*
G03*
X426008Y599592I-1839J-1839D01*
G01*
X427846Y598831D02*
G03*
X426008Y599592I-1839J-1839D01*
G01*
X424150Y579500D02*
G03*
X417938Y582100I-3650J0D01*
G01*
X404150Y586000D02*
G03*
X398850Y589256I-3650J0D01*
G01*
Y582744D02*
G03*
X404150Y586000I1650J3256D01*
G01*
X497146Y562677D02*
G03*
X498984Y561916I1839J1839D01*
G01*
X497146Y562677D02*
G03*
X498984Y561916I1839J1839D01*
G01*
X483338Y576338D02*
G03*
X481500Y577100I-1839J-1839D01*
G01*
X483338Y576338D02*
G03*
X481500Y577100I-1839J-1839D01*
G01*
X502662Y549661D02*
G03*
X504500Y548900I1839J1839D01*
G01*
X502662Y549661D02*
G03*
X504500Y548900I1839J1839D01*
G01*
X463062Y577100D02*
G03*
X463062Y571900I-2562J-2600D01*
G01*
X506039Y545138D02*
G03*
X504201Y545899I-1839J-1839D01*
G01*
X506039Y545138D02*
G03*
X504201Y545899I-1839J-1839D01*
G01*
X507162Y536661D02*
G03*
X509000Y535900I1839J1839D01*
G01*
X507162Y536661D02*
G03*
X509000Y535900I1839J1839D01*
G01*
X479696Y530701D02*
G03*
X479696Y530701I-3050J0D01*
G01*
X446062Y545899D02*
G03*
X440900Y540737I-2562J-2600D01*
G01*
X447150Y521000D02*
G03*
X446100Y523562I-3650J0D01*
G01*
X440900D02*
G03*
X447150Y521000I2600J-2562D01*
G01*
X417938Y576900D02*
G03*
X424150Y579500I2562J2600D01*
G01*
X426150Y570000D02*
G03*
X419938Y572600I-3650J0D01*
G01*
X416500Y582100D02*
G03*
X414662Y581339I0J-2600D01*
G01*
X419938Y567400D02*
G03*
X426150Y570000I2562J2600D01*
G01*
X416500Y582100D02*
G03*
X414662Y581339I0J-2600D01*
G01*
X406138Y574200D02*
G03*
X406150Y574500I-3638J300D01*
G01*
D02*
G03*
X399938Y577100I-3650J0D01*
G01*
X383616D02*
G03*
X384150Y579000I-3117J1900D01*
G01*
X410150Y549500D02*
G03*
X403244Y547850I-3650J0D01*
G01*
X426900Y533587D02*
G03*
X426900Y528815I-1900J-2386D01*
G01*
X409756Y547850D02*
G03*
X410150Y549500I-3256J1650D01*
G01*
X396100Y547500D02*
G03*
X395339Y549338I-2600J0D01*
G01*
X396100Y547500D02*
G03*
X395339Y549338I-2600J0D01*
G01*
Y504662D02*
G03*
X396100Y506500I-1839J1839D01*
G01*
X395339Y504662D02*
G03*
X396100Y506500I-1839J1839D01*
G01*
X573840Y438260D02*
G03*
X573078Y440098I-2600J0D01*
G01*
X573840Y438260D02*
G03*
X573078Y440098I-2600J0D01*
G01*
X571839Y441338D02*
G03*
X570000Y442100I-1839J-1839D01*
G01*
X571839Y441338D02*
G03*
X570000Y442100I-1839J-1839D01*
G01*
X573772Y423852D02*
G03*
X573078Y425099I-2532J-592D01*
G01*
X573772Y423852D02*
G03*
X573078Y425099I-2532J-592D01*
G01*
Y399902D02*
G03*
X573840Y401740I-1839J1839D01*
G01*
X573078Y399902D02*
G03*
X573840Y401740I-1839J1839D01*
G01*
X561228Y426148D02*
G03*
X561922Y424901I2532J592D01*
G01*
X561228Y426148D02*
G03*
X561922Y424901I2532J592D01*
G01*
X562650Y384500D02*
G03*
X561600Y387062I-3650J0D01*
G01*
Y381938D02*
G03*
X562650Y384500I-2600J2562D01*
G01*
X557162Y391338D02*
G03*
X556400Y389500I1839J-1839D01*
G01*
X557162Y391338D02*
G03*
X556400Y389500I1839J-1839D01*
G01*
Y387062D02*
G03*
X556400Y381938I2600J-2562D01*
G01*
X580871Y364406D02*
G03*
X575163Y367814I-3872J0D01*
G01*
X580871Y364406D02*
G03*
X575163Y367814I-3872J0D01*
G01*
X573164Y363880D02*
G03*
X580871Y364406I3836J526D01*
G01*
X573164Y363880D02*
G03*
X580871Y364406I3836J526D01*
G01*
Y352594D02*
G03*
X575163Y356002I-3872J0D01*
G01*
Y349186D02*
G03*
X580871Y352594I1837J3408D01*
G01*
D02*
G03*
X575163Y356002I-3872J0D01*
G01*
Y349186D02*
G03*
X580871Y352594I1837J3408D01*
G01*
X572161Y222059D02*
G03*
X573010Y224110I-2051J2051D01*
G01*
X572161Y222059D02*
G03*
X573010Y224110I-2051J2051D01*
G01*
X587000Y199900D02*
G03*
X575100Y188000I0J-11900D01*
G01*
X560114Y353709D02*
G03*
X561953Y352947I1839J1839D01*
G01*
X556400Y358500D02*
G03*
X557162Y356662I2600J0D01*
G01*
X556400Y358500D02*
G03*
X557162Y356662I2600J0D01*
G01*
X560114Y353709D02*
G03*
X561953Y352947I1839J1839D01*
G01*
X557650Y222500D02*
G03*
X557256Y224150I-3650J0D01*
G01*
X550744D02*
G03*
X557650Y222500I3256J-1650D01*
G01*
X506693Y401484D02*
G03*
X504854Y402246I-1839J-1839D01*
G01*
X506693Y401484D02*
G03*
X504854Y402246I-1839J-1839D01*
G01*
X509600Y397500D02*
G03*
X508839Y399339I-2600J0D01*
G01*
X502416Y402246D02*
G03*
X502416Y397046I-2562J-2600D01*
G01*
X509600Y397500D02*
G03*
X508839Y399339I-2600J0D01*
G01*
X522050Y387000D02*
G03*
X522050Y387000I-3050J0D01*
G01*
Y343500D02*
G03*
X522050Y343500I-3050J0D01*
G01*
X509600Y354000D02*
G03*
X508839Y355838I-2600J0D01*
G01*
X509600Y354000D02*
G03*
X508839Y355838I-2600J0D01*
G01*
X506693Y357984D02*
G03*
X504854Y358746I-1839J-1839D01*
G01*
X506693Y357984D02*
G03*
X504854Y358746I-1839J-1839D01*
G01*
X502416D02*
G03*
X502416Y353546I-2562J-2600D01*
G01*
X472953Y425500D02*
G03*
X472953Y425500I-4453J0D01*
G01*
X436339Y433662D02*
G03*
X437100Y435500I-1839J1839D01*
G01*
X436339Y433662D02*
G03*
X437100Y435500I-1839J1839D01*
G01*
X473553Y415500D02*
G03*
X463500Y416228I-5053J0D01*
G01*
D02*
G03*
X459527Y420447I-5000J-728D01*
G01*
X457473D02*
G03*
X463500Y414772I1027J-4947D01*
G01*
D02*
G03*
X473553Y415500I5000J728D01*
G01*
X421900Y420300D02*
G03*
X423738Y421062I0J2600D01*
G01*
X421900Y420300D02*
G03*
X423738Y421062I0J2600D01*
G01*
X502550Y308000D02*
G03*
X502550Y308000I-3050J0D01*
G01*
X490100Y318500D02*
G03*
X489338Y320339I-2600J0D01*
G01*
X487192Y322484D02*
G03*
X485354Y323246I-1839J-1839D01*
G01*
X487192Y322484D02*
G03*
X485354Y323246I-1839J-1839D01*
G01*
X490100Y318500D02*
G03*
X489338Y320339I-2600J0D01*
G01*
X482916Y323246D02*
G03*
X477792Y323246I-2562J-2600D01*
G01*
Y318046D02*
G03*
X482916Y318046I2562J2600D01*
G01*
X484150Y294500D02*
G03*
X477938Y297100I-3650J0D01*
G01*
Y291900D02*
G03*
X484150Y294500I2562J2600D01*
G01*
X538294Y237332D02*
G03*
X538294Y232132I-2562J-2600D01*
G01*
X538782Y226268D02*
G03*
X538782Y226268I-3050J0D01*
G01*
X466146Y323246D02*
G03*
X464307Y322484I0J-2600D01*
G01*
X466146Y323246D02*
G03*
X464307Y322484I0J-2600D01*
G01*
X471047Y258455D02*
G03*
X459600Y259176I-5929J-2900D01*
G01*
Y251934D02*
G03*
X471047Y252655I5518J3621D01*
G01*
X451661Y309839D02*
G03*
X450900Y308000I1839J-1839D01*
G01*
X425100Y329000D02*
G03*
X422500Y331600I-2600J0D01*
G01*
X425100Y329000D02*
G03*
X422500Y331600I-2600J0D01*
G01*
Y310400D02*
G03*
X425100Y313000I0J2600D01*
G01*
X422500Y310400D02*
G03*
X425100Y313000I0J2600D01*
G01*
X462500Y297100D02*
G03*
X460662Y296339I0J-2600D01*
G01*
X462500Y297100D02*
G03*
X460662Y296339I0J-2600D01*
G01*
X451661Y309839D02*
G03*
X450900Y308000I1839J-1839D01*
G01*
X471118Y205161D02*
G03*
X459600Y207517I-6000J0D01*
G01*
Y202805D02*
G03*
X471118Y205161I5518J2356D01*
G01*
X362550Y604000D02*
G03*
X362550Y604000I-3050J0D01*
G01*
X363338Y596339D02*
G03*
X361500Y597100I-1839J-1839D01*
G01*
X363338Y596339D02*
G03*
X361500Y597100I-1839J-1839D01*
G01*
X371355Y593795D02*
G03*
X364379Y595298I-3650J0D01*
G01*
X370985Y592194D02*
G03*
X371355Y593795I-3280J1602D01*
G01*
X361062Y597100D02*
G03*
X355274Y592794I-2562J-2600D01*
G01*
X384150Y579000D02*
G03*
X378280Y581897I-3650J0D01*
G01*
X378838Y565838D02*
G03*
X377000Y566600I-1839J-1839D01*
G01*
X378838Y565838D02*
G03*
X377000Y566600I-1839J-1839D01*
G01*
X368661Y568161D02*
G03*
X370500Y567400I1839J1839D01*
G01*
X368661Y568161D02*
G03*
X370500Y567400I1839J1839D01*
G01*
X346936Y581114D02*
G03*
X345534Y583680I-3050J0D01*
G01*
X342238D02*
G03*
X346936Y581114I1648J-2567D01*
G01*
X347782Y563618D02*
G03*
X348544Y561779I2600J0D01*
G01*
X347782Y563618D02*
G03*
X348544Y561779I2600J0D01*
G01*
X349062Y545899D02*
G03*
X343786Y545739I-2562J-2600D01*
G01*
D02*
G03*
X343338Y546339I-2286J-1239D01*
G01*
X343786Y545739D02*
G03*
X343338Y546339I-2286J-1239D01*
G01*
X327400Y551000D02*
G03*
X328162Y549161I2600J0D01*
G01*
X327400Y551000D02*
G03*
X328162Y549161I2600J0D01*
G01*
X370050Y530701D02*
G03*
X370050Y530701I-3050J0D01*
G01*
X378528Y530158D02*
G03*
X378212Y529889I1523J-2107D01*
G01*
X378528Y530158D02*
G03*
X378212Y529889I1523J-2107D01*
G01*
X349661Y501338D02*
G03*
X348900Y499500I1839J-1839D01*
G01*
X349661Y501338D02*
G03*
X348900Y499500I1839J-1839D01*
G01*
X353339Y483662D02*
G03*
X354100Y485500I-1839J1839D01*
G01*
X353339Y483662D02*
G03*
X354100Y485500I-1839J1839D01*
G01*
X347000Y478400D02*
G03*
X348838Y479162I0J2600D01*
G01*
X347000Y478400D02*
G03*
X348838Y479162I0J2600D01*
G01*
X350500Y452400D02*
G03*
X351479Y452591I0J2600D01*
G01*
X350500Y452400D02*
G03*
X351479Y452591I0J2600D01*
G01*
X344100Y540549D02*
G03*
X349062Y540699I2400J2750D01*
G01*
X343338Y516161D02*
G03*
X344100Y518000I-1839J1839D01*
G01*
X343338Y516161D02*
G03*
X344100Y518000I-1839J1839D01*
G01*
X336400Y532146D02*
G03*
X336400Y530256I-2900J-945D01*
G01*
X345400Y465500D02*
G03*
X346162Y463661I2600J0D01*
G01*
X345400Y465500D02*
G03*
X346162Y463661I2600J0D01*
G01*
X327162Y453161D02*
G03*
X329000Y452400I1839J1839D01*
G01*
X327162Y453161D02*
G03*
X329000Y452400I1839J1839D01*
G01*
X323424Y457650D02*
G03*
X324162Y456161I2576J350D01*
G01*
X323424Y457650D02*
G03*
X324162Y456161I2576J350D01*
G01*
X300400Y622500D02*
G03*
X302315Y619992I2600J0D01*
G01*
X300400Y622500D02*
G03*
X302315Y619992I2600J0D01*
G01*
X306344Y586667D02*
G03*
X309187Y584864I3156J1833D01*
G01*
X289161Y606839D02*
G03*
X288400Y605000I1839J-1839D01*
G01*
X289161Y606839D02*
G03*
X288400Y605000I1839J-1839D01*
G01*
X319062Y576401D02*
G03*
X320838Y577162I-62J2599D01*
G01*
X319062Y576401D02*
G03*
X320838Y577162I-62J2599D01*
G01*
X313750Y581400D02*
G03*
X319062Y576401I2750J-2400D01*
G01*
X307161Y582838D02*
G03*
X306400Y581000I1839J-1839D01*
G01*
X307161Y582838D02*
G03*
X306400Y581000I1839J-1839D01*
G01*
X281000Y591600D02*
G03*
X279162Y590838I0J-2600D01*
G01*
X281000Y591600D02*
G03*
X279162Y590838I0J-2600D01*
G01*
X276661Y588339D02*
G03*
X275900Y586500I1839J-1839D01*
G01*
X282889Y585100D02*
G03*
X283846Y581500I3111J-1100D01*
G01*
Y581500D02*
G03*
X283428Y576932I2154J-2500D01*
G01*
X276661Y588339D02*
G03*
X275900Y586500I1839J-1839D01*
G01*
X303838Y569662D02*
G03*
X304600Y571500I-1839J1839D01*
G01*
X303838Y569662D02*
G03*
X304600Y571500I-1839J1839D01*
G01*
X310839Y558161D02*
G03*
X311600Y560000I-1839J1839D01*
G01*
X310839Y558161D02*
G03*
X311600Y560000I-1839J1839D01*
G01*
X305000Y553400D02*
G03*
X306838Y554162I0J2600D01*
G01*
X305000Y553400D02*
G03*
X306838Y554162I0J2600D01*
G01*
X299500Y566400D02*
G03*
X301339Y567162I0J2600D01*
G01*
X299500Y566400D02*
G03*
X301339Y567162I0J2600D01*
G01*
X283428Y576932D02*
G03*
X283007Y571500I2572J-2932D01*
G01*
Y571500D02*
G03*
X288500Y566007I2993J-2500D01*
G01*
X292500Y558600D02*
G03*
X290662Y557838I0J-2600D01*
G01*
X292500Y558600D02*
G03*
X290662Y557838I0J-2600D01*
G01*
X288500Y566007D02*
G03*
X293907Y566400I2500J2993D01*
G01*
X285572Y552749D02*
G03*
X281100Y555537I-3572J-749D01*
G01*
X132500Y626600D02*
G03*
X144400Y638500I0J11900D01*
G01*
X275550Y577500D02*
G03*
X275550Y577500I-3050J0D01*
G01*
X251000Y554600D02*
G03*
X249162Y553838I0J-2600D01*
G01*
X251000Y554600D02*
G03*
X249162Y553838I0J-2600D01*
G01*
X242100Y566500D02*
G03*
X239500Y569100I-2600J0D01*
G01*
X242100Y566500D02*
G03*
X239500Y569100I-2600J0D01*
G01*
X149500D02*
G03*
X146900Y566500I0J-2600D01*
G01*
X149500Y569100D02*
G03*
X146900Y566500I0J-2600D01*
G01*
X300562Y546100D02*
G03*
X300562Y540900I-2562J-2600D01*
G01*
X279438Y549400D02*
G03*
X283900Y548883I2562J2600D01*
G01*
X290371Y513500D02*
G03*
X289100Y516368I-3872J0D01*
G01*
X283900D02*
G03*
X290371Y513500I2600J-2868D01*
G01*
X283050Y531201D02*
G03*
X283050Y531201I-3050J0D01*
G01*
X290662Y474338D02*
G03*
X289900Y472500I1839J-1839D01*
G01*
X290662Y474338D02*
G03*
X289900Y472500I1839J-1839D01*
G01*
X289772Y463500D02*
G03*
X289772Y463500I-3272J0D01*
G01*
X245661Y550339D02*
G03*
X244900Y548500I1839J-1839D01*
G01*
X245661Y550339D02*
G03*
X244900Y548500I1839J-1839D01*
G01*
Y546361D02*
G03*
X250062Y541199I2600J-2562D01*
G01*
X357729Y442079D02*
G03*
X356679Y444641I-3650J0D01*
G01*
X351479D02*
G03*
X357729Y442079I2600J-2562D01*
G01*
X299650Y448000D02*
G03*
X298600Y450562I-3650J0D01*
G01*
X296150Y439000D02*
G03*
X295100Y441562I-3650J0D01*
G01*
Y444463D02*
G03*
X299650Y448000I900J3537D01*
G01*
X287338Y441338D02*
G03*
X285500Y442100I-1839J-1839D01*
G01*
X287338Y441338D02*
G03*
X285500Y442100I-1839J-1839D01*
G01*
X289900Y441562D02*
G03*
X288928Y439749I2600J-2562D01*
G01*
X295617Y437100D02*
G03*
X296150Y439000I-3117J1900D01*
G01*
X299000Y416900D02*
G03*
X300838Y417662I0J2600D01*
G01*
X299000Y416900D02*
G03*
X300838Y417662I0J2600D01*
G01*
X262553Y444500D02*
G03*
X253054Y442100I-5053J0D01*
G01*
X271953Y444500D02*
G03*
X263749Y442100I-4453J0D01*
G01*
X271251D02*
G03*
X271953Y444500I-3751J2400D01*
G01*
X261946Y442100D02*
G03*
X262553Y444500I-4446J2400D01*
G01*
X248661Y427662D02*
G03*
X250500Y426900I1839J1839D01*
G01*
X241338Y427162D02*
G03*
X242098Y428900I-1839J1839D01*
G01*
X241338Y427162D02*
G03*
X242098Y428900I-1839J1839D01*
G01*
X248661Y427662D02*
G03*
X250500Y426900I1839J1839D01*
G01*
X239000Y425900D02*
G03*
X240839Y426661I0J2600D01*
G01*
X239000Y425900D02*
G03*
X240839Y426661I0J2600D01*
G01*
X263749Y416900D02*
G03*
X271953Y414500I3751J-2400D01*
G01*
D02*
G03*
X271251Y416900I-4453J0D01*
G01*
X253054Y426900D02*
G03*
X256473Y419553I4446J-2400D01*
G01*
X243039Y422137D02*
G03*
X241201Y422899I-1839J-1839D01*
G01*
X243039Y422137D02*
G03*
X241201Y422899I-1839J-1839D01*
G01*
X245162Y412662D02*
G03*
X247000Y411900I1839J1839D01*
G01*
X245162Y412662D02*
G03*
X247000Y411900I1839J1839D01*
G01*
X304000Y331600D02*
G03*
X301400Y329000I0J-2600D01*
G01*
X304000Y331600D02*
G03*
X301400Y329000I0J-2600D01*
G01*
Y313000D02*
G03*
X304000Y310400I2600J0D01*
G01*
X301400Y313000D02*
G03*
X304000Y310400I2600J0D01*
G01*
X251050Y304500D02*
G03*
X251050Y304500I-3050J0D01*
G01*
X252100Y273938D02*
G03*
X253150Y276500I-2600J2562D01*
G01*
D02*
G03*
X246900Y273938I-3650J0D01*
G01*
X251339Y209161D02*
G03*
X252100Y211000I-1839J1839D01*
G01*
X251339Y209161D02*
G03*
X252100Y211000I-1839J1839D01*
G01*
X255500Y188000D02*
G03*
X243500Y188000I-6000J0D01*
G01*
X235693Y318985D02*
G03*
X233854Y319746I-1839J-1839D01*
G01*
X235693Y318985D02*
G03*
X233854Y319746I-1839J-1839D01*
G01*
X238600Y315000D02*
G03*
X237839Y316839I-2600J0D01*
G01*
X238600Y315000D02*
G03*
X237839Y316839I-2600J0D01*
G01*
X240650Y233500D02*
G03*
X239950Y235650I-3650J0D01*
G01*
X234050D02*
G03*
X240650Y233500I2950J-2150D01*
G01*
X219062Y422600D02*
G03*
X219062Y417400I-2562J-2600D01*
G01*
X215600Y398500D02*
G03*
X214839Y400339I-2600J0D01*
G01*
X215600Y398500D02*
G03*
X214839Y400339I-2600J0D01*
G01*
X212692Y402485D02*
G03*
X210854Y403246I-1839J-1839D01*
G01*
X212692Y402485D02*
G03*
X210854Y403246I-1839J-1839D01*
G01*
X228050Y388000D02*
G03*
X228050Y388000I-3050J0D01*
G01*
X231416Y319746D02*
G03*
X231416Y314546I-2562J-2600D01*
G01*
X228050Y346500D02*
G03*
X228050Y346500I-3050J0D01*
G01*
X215600Y357000D02*
G03*
X214839Y358839I-2600J0D01*
G01*
X215600Y357000D02*
G03*
X214839Y358839I-2600J0D01*
G01*
X212692Y360984D02*
G03*
X210854Y361746I-1839J-1839D01*
G01*
X212692Y360984D02*
G03*
X210854Y361746I-1839J-1839D01*
G01*
X208416Y403246D02*
G03*
X206532Y404233I-2562J-2600D01*
G01*
X146900Y428500D02*
G03*
X149500Y425900I2600J0D01*
G01*
X146900Y428500D02*
G03*
X149500Y425900I2600J0D01*
G01*
X199562Y423100D02*
G03*
X199562Y417900I-2562J-2600D01*
G01*
X205176Y404233D02*
G03*
X208416Y398046I678J-3587D01*
G01*
Y361746D02*
G03*
X208416Y356546I-2562J-2600D01*
G01*
X221294Y248332D02*
G03*
X221294Y243132I-2562J-2600D01*
G01*
X216650Y254500D02*
G03*
X216256Y256150I-3650J0D01*
G01*
X209744D02*
G03*
X216650Y254500I3256J-1650D01*
G01*
X221782Y237268D02*
G03*
X221782Y237268I-3050J0D01*
G01*
X217150Y211500D02*
G03*
X216964Y212650I-3650J0D01*
G01*
X210036D02*
G03*
X217150Y211500I3464J-1150D01*
G01*
X197294Y269332D02*
G03*
X197294Y264132I-2562J-2600D01*
G01*
X197782Y258268D02*
G03*
X197782Y258268I-3050J0D01*
G01*
X174294Y247832D02*
G03*
X174294Y242632I-2562J-2600D01*
G01*
X193650Y233500D02*
G03*
X193464Y234650I-3650J0D01*
G01*
X186536D02*
G03*
X193650Y233500I3464J-1150D01*
G01*
X197794Y225832D02*
G03*
X197794Y220632I-2562J-2600D01*
G01*
X198282Y214768D02*
G03*
X198282Y214768I-3050J0D01*
G01*
X174282Y236768D02*
G03*
X174282Y236768I-3050J0D01*
G01*
X144400Y188000D02*
G03*
X132500Y199900I-11900J0D01*
G01*
X421173Y594590D02*
X432000Y583763D01*
Y440500D02*
Y583763D01*
X421000Y429500D02*
X432000Y440500D01*
X413500Y164799D02*
X428701D01*
X568000Y500000D02*
Y504500D01*
Y495500D02*
Y500000D01*
X319000Y591500D02*
X335319Y607819D01*
X307500Y591500D02*
X319000D01*
X302000Y586000D02*
X307500Y591500D01*
X315500Y595000D02*
Y601500D01*
X305500Y599500D02*
X318150Y612150D01*
X305500Y594500D02*
Y599500D01*
X584547Y599284D02*
X587000D01*
X585047Y595224D02*
X589000D01*
X585000Y599284D02*
Y626769D01*
X587000Y599284D02*
Y626600D01*
X582500Y588769D02*
Y627484D01*
X584547Y593978D02*
Y599284D01*
X577500Y588769D02*
Y631333D01*
X580000Y588769D02*
Y628877D01*
X563484Y597500D02*
X584547D01*
X575000Y588769D02*
Y638500D01*
X563484Y595000D02*
X584547D01*
X570000Y588769D02*
Y638500D01*
X572500Y588769D02*
Y638500D01*
X567500Y588769D02*
Y638500D01*
X583955Y589647D02*
Y593978D01*
X584547D01*
X583955Y588769D02*
Y589647D01*
Y588769D02*
Y589647D01*
X584555Y580986D02*
Y582691D01*
X585055Y581839D02*
X589500D01*
X583955Y582691D02*
Y583569D01*
Y582691D02*
X584555D01*
X583955Y580986D02*
X584555D01*
X556595Y592500D02*
X583955D01*
X556595Y590000D02*
X583955D01*
X572500Y580108D02*
Y583569D01*
X575000Y580108D02*
Y583569D01*
X570000Y580108D02*
Y583569D01*
X560000Y599075D02*
Y638500D01*
X562500Y599075D02*
Y638500D01*
X555000Y599075D02*
Y638500D01*
X557500Y599075D02*
Y638500D01*
X565000Y588769D02*
Y638500D01*
X563484Y592925D02*
Y599075D01*
X559031Y596000D02*
Y598575D01*
X554579Y599075D02*
X563484D01*
X549657Y599051D02*
X554579D01*
X550000D02*
Y638500D01*
X552500Y599051D02*
Y638500D01*
X549657Y589949D02*
Y599051D01*
X553126Y594500D02*
Y598551D01*
X547500Y588769D02*
Y638500D01*
X559031Y596000D02*
X562984D01*
X556595Y592925D02*
X563484D01*
X559031Y593425D02*
Y596000D01*
X562500Y588769D02*
Y592925D01*
X560000Y588769D02*
Y592925D01*
X565000Y580108D02*
Y583569D01*
X557500Y588769D02*
Y592925D01*
X556595Y589949D02*
Y592925D01*
X549657Y589949D02*
X556595D01*
X550157Y594500D02*
X553126D01*
Y590449D02*
Y594500D01*
X552500Y588769D02*
Y589949D01*
X555000Y588769D02*
Y589949D01*
X550000Y588769D02*
Y589949D01*
X583955Y580108D02*
Y580986D01*
Y561038D02*
Y561916D01*
X580000Y580108D02*
Y583569D01*
X582500Y580108D02*
Y583569D01*
X583955Y556707D02*
Y561038D01*
X585000Y554992D02*
Y556707D01*
X583955Y561038D02*
Y561916D01*
X577500Y580108D02*
Y583569D01*
X570000Y515860D02*
Y561916D01*
X567500Y580108D02*
Y583569D01*
X565000Y524021D02*
Y561916D01*
X572500Y515534D02*
Y561916D01*
X575000Y513177D02*
Y561916D01*
X567500Y515860D02*
Y561916D01*
X587000Y554992D02*
Y556707D01*
X585047Y550933D02*
X589000D01*
X583955Y556707D02*
X587000D01*
X584547Y554992D02*
X587000D01*
X584547Y546874D02*
Y554992D01*
Y546874D02*
X587000D01*
X563484Y546925D02*
Y553075D01*
X552128Y555000D02*
X587000D01*
X563484Y552500D02*
X584547D01*
X563484Y550000D02*
X584547D01*
X563484Y547500D02*
X584547D01*
X553328Y540000D02*
X587000D01*
X553510Y537500D02*
X587000D01*
X554579Y546925D02*
X563484D01*
X560000Y580108D02*
Y583569D01*
X562500Y580108D02*
Y583569D01*
X555000Y580108D02*
Y583569D01*
X557500Y580108D02*
Y583569D01*
X560000Y553075D02*
Y561916D01*
X562500Y553075D02*
Y561916D01*
X557500Y553075D02*
Y561916D01*
X552500Y580108D02*
Y583569D01*
X555000Y553075D02*
Y561916D01*
X550000Y580108D02*
Y583569D01*
Y555569D02*
Y561916D01*
X552500Y541159D02*
Y561916D01*
X554579Y546925D02*
Y553075D01*
X552128Y547432D02*
Y555569D01*
X559031Y550000D02*
Y552575D01*
Y550000D02*
X562984D01*
X555079D02*
X559031D01*
Y547425D02*
Y550000D01*
X560000Y523421D02*
Y546925D01*
X562500Y524021D02*
Y546925D01*
X557500Y524021D02*
Y546925D01*
X554579Y553075D02*
X563484D01*
X552128Y552500D02*
X554579D01*
X552128Y550000D02*
X554579D01*
X552128Y547500D02*
X554579D01*
X550000Y542150D02*
Y547432D01*
X555000Y524021D02*
Y546925D01*
X547500Y541159D02*
Y547432D01*
X422100Y635000D02*
X575626D01*
X422100Y632500D02*
X576723D01*
X422100Y638500D02*
X575100D01*
X422100Y637500D02*
X575142D01*
X542500Y588769D02*
Y638500D01*
X545000Y588769D02*
Y638500D01*
X540000Y588769D02*
Y638500D01*
X422100Y625000D02*
X587000D01*
X422100Y622500D02*
X587000D01*
X422100Y630000D02*
X578672D01*
X422100Y627500D02*
X582460D01*
X381015Y617500D02*
X587000D01*
X381015Y615000D02*
X587000D01*
X420214Y620000D02*
X587000D01*
X523677Y600000D02*
X587000D01*
X526177Y597500D02*
X549657D01*
X528677Y595000D02*
X549657D01*
X532328Y592500D02*
X549657D01*
X532510Y590000D02*
X549657D01*
X531889Y588769D02*
X583955D01*
X542500Y580108D02*
Y583569D01*
X516177Y607500D02*
X587000D01*
X518677Y605000D02*
X587000D01*
X510672Y612500D02*
X587000D01*
X513677Y610000D02*
X587000D01*
X521177Y602500D02*
X587000D01*
X502965Y582500D02*
X584555D01*
X502831Y583569D02*
X583955D01*
X527500Y596177D02*
Y638500D01*
X530000Y594510D02*
Y638500D01*
X522500Y601177D02*
Y638500D01*
X525000Y598677D02*
Y638500D01*
X535000Y588769D02*
Y638500D01*
X537500Y588769D02*
Y638500D01*
X532500Y592036D02*
Y638500D01*
X512500Y611177D02*
Y638500D01*
X510000Y612584D02*
Y638500D01*
X381015Y612584D02*
X510016D01*
X517500Y606177D02*
Y638500D01*
X520000Y603677D02*
Y638500D01*
X515000Y608677D02*
Y638500D01*
X535000Y580108D02*
Y583569D01*
X532500Y588769D02*
Y589964D01*
X530000Y580108D02*
Y583569D01*
X537500Y580108D02*
Y583569D01*
X527500Y580108D02*
Y583569D01*
X511855Y611823D02*
X529027Y594650D01*
X502935Y600888D02*
X510400Y593423D01*
Y593062D02*
Y593423D01*
X522500Y580108D02*
Y583569D01*
X525000Y580108D02*
Y583569D01*
X547500Y580108D02*
Y583569D01*
X541825Y555569D02*
X552128D01*
X545000Y580108D02*
Y583569D01*
X547500Y555569D02*
Y561916D01*
X542500Y555569D02*
Y561916D01*
X545000Y555569D02*
Y561916D01*
X541825Y554100D02*
Y555569D01*
X505357Y580108D02*
X583955D01*
X498984Y561916D02*
X583955D01*
X540000Y580108D02*
Y583569D01*
X499677Y560000D02*
X583955D01*
X540000Y554100D02*
Y561916D01*
X502177Y557500D02*
X583955D01*
X537500Y554100D02*
Y561916D01*
X545000Y541100D02*
Y547432D01*
X541825D02*
X552128D01*
X541825D02*
Y548900D01*
X542500Y541100D02*
Y547432D01*
X540000Y541100D02*
Y548900D01*
X504500D02*
X541825D01*
X461850Y547500D02*
X541825D01*
X504677Y555000D02*
X541825D01*
X505577Y554100D02*
X541825D01*
X506177Y545000D02*
X587000D01*
X508677Y542500D02*
X587000D01*
X510077Y541100D02*
X547438D01*
X532500Y580108D02*
Y583569D01*
Y554100D02*
Y561916D01*
X527500Y554100D02*
Y561916D01*
X530000Y554100D02*
Y561916D01*
X522500Y554100D02*
Y561916D01*
X525000Y554100D02*
Y561916D01*
X520000Y554100D02*
Y561916D01*
X517500Y580108D02*
Y583569D01*
X520000Y580108D02*
Y583569D01*
X512500Y580108D02*
Y583569D01*
X515000Y580108D02*
Y583569D01*
X512500Y554100D02*
Y561916D01*
X515000Y554100D02*
Y561916D01*
X510000Y554100D02*
Y561916D01*
X535000Y554100D02*
Y561916D01*
X537500Y541100D02*
Y548900D01*
X532500Y541100D02*
Y548900D01*
X535000Y541100D02*
Y548900D01*
X527500Y541100D02*
Y548900D01*
X530000Y541100D02*
Y548900D01*
X525000Y541100D02*
Y548900D01*
X520000Y541100D02*
Y548900D01*
X522500Y541100D02*
Y548900D01*
X517500Y554100D02*
Y561916D01*
Y541100D02*
Y548900D01*
X512500Y541100D02*
Y548900D01*
X515000Y541100D02*
Y548900D01*
X506039Y545138D02*
X510077Y541100D01*
X566824Y520000D02*
X587000D01*
X566824Y517500D02*
X587000D01*
X573177Y515000D02*
X587000D01*
X575677Y512500D02*
X587000D01*
X573079Y515098D02*
X575839Y512338D01*
X560656Y524021D02*
X566824D01*
Y522500D02*
X587000D01*
X566824Y517459D02*
Y524021D01*
X560656Y517459D02*
X566824D01*
Y515860D02*
Y516541D01*
Y515860D02*
X571240D01*
X560656Y516541D02*
X566824D01*
X576600Y510000D02*
X587000D01*
X570163Y510660D02*
X571400Y509423D01*
Y509000D02*
Y509423D01*
X576600Y505000D02*
X587000D01*
X576600Y502500D02*
X587000D01*
X576600Y507500D02*
X587000D01*
X566824Y510660D02*
X570163D01*
X566824Y510000D02*
X570823D01*
X566824Y509979D02*
Y510660D01*
X570000Y509000D02*
Y510660D01*
X567500Y509000D02*
Y510660D01*
X564600Y509000D02*
X571400D01*
X567500Y505000D02*
Y508500D01*
X560656Y523421D02*
Y524021D01*
Y517459D02*
Y518059D01*
X560000Y520740D02*
Y522921D01*
Y518559D02*
Y520740D01*
X562500Y516541D02*
Y517459D01*
X565000Y516541D02*
Y517459D01*
X560000Y516541D02*
Y518059D01*
X559344Y523421D02*
X560656D01*
X559344Y518059D02*
X560656D01*
X559344Y523421D02*
Y524021D01*
Y517500D02*
X560656D01*
X559344Y517459D02*
Y518059D01*
X557500Y516541D02*
Y517459D01*
X555000Y516541D02*
Y517459D01*
X562600Y509979D02*
X563084D01*
X566824D01*
X562600Y509600D02*
Y509979D01*
X563084D01*
X565000Y509000D02*
Y509979D01*
X562600Y509600D02*
X564600D01*
Y509000D02*
Y509600D01*
X559344Y516541D02*
X560656D01*
X563084D01*
X556916D02*
X559344D01*
X556916Y509979D02*
X557400D01*
Y509600D02*
Y509979D01*
X555400Y509600D02*
X557400D01*
X556916Y509979D02*
X557400D01*
X576600Y500000D02*
X587000D01*
X576600Y497500D02*
X587000D01*
X571050Y500000D02*
X571400D01*
X576600Y491000D02*
Y510500D01*
X571400Y493350D02*
Y501000D01*
X571250Y493350D02*
Y498750D01*
X570881Y501000D02*
X571400D01*
X570782Y498750D02*
X571250D01*
X565450Y500000D02*
X568000D01*
X570550D01*
X564750Y498750D02*
X565218D01*
X576600Y495000D02*
X587000D01*
X576600Y492500D02*
X587000D01*
X576400Y490000D02*
X587000D01*
X574161Y487500D02*
X587000D01*
X574338Y487662D02*
X575839Y489161D01*
X571850Y486900D02*
X572500D01*
X565250Y495500D02*
X568000D01*
X570750D01*
X564150Y485650D02*
X571850D01*
Y486900D01*
X565000Y500550D02*
Y501000D01*
X564600D02*
X565119D01*
X564600Y500400D02*
Y501000D01*
X562600Y500400D02*
X564600D01*
X565000Y498750D02*
Y499450D01*
X562600Y499350D02*
X563850D01*
X562600D02*
Y500400D01*
X555400D02*
X557400D01*
X562600Y500000D02*
X564950D01*
X555400Y500400D02*
Y509600D01*
X556150Y499350D02*
X557400D01*
Y500400D01*
X556150Y498100D02*
Y499350D01*
X555000Y498100D02*
Y509979D01*
X564750Y493350D02*
Y498750D01*
X563850Y495000D02*
X564750D01*
X563850Y493350D02*
Y499350D01*
X564150Y493350D02*
X564750D01*
X564150Y492100D02*
Y493350D01*
Y485650D02*
Y486900D01*
X563850Y492100D02*
Y493350D01*
Y497500D02*
X564750D01*
X563850Y492100D02*
Y493350D01*
X556150Y491650D02*
Y492900D01*
Y491650D02*
Y492900D01*
X563850Y485650D02*
Y486900D01*
X556150Y485650D02*
X563850D01*
X556150D02*
Y491650D01*
X551036Y535000D02*
X587000D01*
X553176Y524021D02*
X559344D01*
X552500Y523340D02*
Y535841D01*
X553176Y523340D02*
Y524021D01*
X552500Y515860D02*
Y518140D01*
X553176Y517459D02*
Y518140D01*
X550399Y523340D02*
Y524730D01*
X446100Y527500D02*
X587000D01*
X446100Y525000D02*
X587000D01*
X479109Y532500D02*
X587000D01*
X479614Y530000D02*
X587000D01*
X550399Y523340D02*
X553176D01*
X550399Y518140D02*
X553176D01*
X533601Y524730D02*
X550399D01*
X553176Y517459D02*
X559344D01*
X553176Y516541D02*
X559344D01*
X553176Y515860D02*
Y516541D01*
X550399Y515860D02*
X553176D01*
Y509979D02*
Y510660D01*
Y509979D02*
X556916D01*
X550399Y510000D02*
X553176D01*
X550399Y517500D02*
X553176D01*
X550399Y510660D02*
X553176D01*
X533601Y516593D02*
X550399D01*
X533601Y516069D02*
X550399D01*
Y507932D02*
Y510660D01*
X545650Y507500D02*
X555400D01*
X545624Y507932D02*
X550399D01*
X542500Y524730D02*
Y535900D01*
X545000Y524730D02*
Y535900D01*
X537500Y524730D02*
Y535900D01*
X540000Y524730D02*
Y535900D01*
X550000Y524730D02*
Y534850D01*
X550399Y516593D02*
Y518140D01*
X547500Y524730D02*
Y535841D01*
X509000Y535900D02*
X547438D01*
X461250Y535000D02*
X548964D01*
X535000Y524730D02*
Y535900D01*
X446828Y522500D02*
X533601D01*
Y516593D02*
Y524730D01*
X444536Y517500D02*
X533601D01*
X447010Y520000D02*
X533601D01*
X547500Y516069D02*
Y516593D01*
X550000Y516069D02*
Y516593D01*
X540000Y516069D02*
Y516593D01*
X545000Y516069D02*
Y516593D01*
X542500Y516069D02*
Y516593D01*
X537500Y516069D02*
Y516593D01*
X535000Y516069D02*
Y516593D01*
X437100Y515000D02*
X533601D01*
X437100Y512500D02*
X533601D01*
X437100Y510000D02*
X533601D01*
Y507932D02*
X538376D01*
X437100Y507500D02*
X538350D01*
X533601Y507932D02*
Y516069D01*
X552500Y498159D02*
Y510660D01*
X552562Y498100D02*
X556150D01*
X547500Y498159D02*
Y507932D01*
X550000Y499150D02*
Y507932D01*
X552600Y492500D02*
X556150D01*
X552600Y490000D02*
X556150D01*
X552600Y492900D02*
X556150D01*
X544659Y505000D02*
X555400D01*
X546600Y500000D02*
X557400D01*
X546600Y502500D02*
X555400D01*
X546000Y492500D02*
X547400D01*
X546000Y490000D02*
X547400D01*
X552600Y482500D02*
X587000D01*
X552600Y480000D02*
X587000D01*
X552600Y487500D02*
X556150D01*
X552600Y485000D02*
X587000D01*
X552600Y475000D02*
X587000D01*
X552600Y472500D02*
X587000D01*
X552600Y477500D02*
X587000D01*
X437100Y482500D02*
X547400D01*
X437100Y480000D02*
X547400D01*
X437100Y487500D02*
X547400D01*
X437100Y485000D02*
X547400D01*
X437100Y475000D02*
X547400D01*
X437100Y472500D02*
X547400D01*
X437100Y477500D02*
X547400D01*
X544600Y504600D02*
X546600D01*
X545000D02*
Y505421D01*
X539400Y504600D02*
Y504938D01*
X546600Y496828D02*
Y504600D01*
Y497500D02*
X546947D01*
X544600Y504600D02*
Y504938D01*
X537400Y504600D02*
X539400D01*
X537500D02*
Y507932D01*
X437100Y505000D02*
X539341D01*
X537400Y495400D02*
Y504600D01*
X437100Y500000D02*
X537400D01*
X437100Y502500D02*
X537400D01*
X546000Y495000D02*
X546384D01*
X546000Y495400D02*
X546351D01*
X538500Y492500D02*
X542000D01*
X546000Y488500D02*
Y495400D01*
X542000Y492500D02*
X545500D01*
X542000Y489000D02*
Y492500D01*
X437100Y495000D02*
X538000D01*
X437100Y492500D02*
X538000D01*
X437100Y497500D02*
X537400D01*
Y495400D02*
X538000D01*
X437100Y490000D02*
X538000D01*
Y488500D02*
X546000D01*
X538000D02*
Y495400D01*
X495000Y612584D02*
Y638500D01*
X497500Y612584D02*
Y638500D01*
X490000Y612584D02*
Y638500D01*
X492500Y612584D02*
Y638500D01*
X505000Y612584D02*
Y638500D01*
X507500Y612584D02*
Y638500D01*
X500000Y612584D02*
Y638500D01*
X502500Y612584D02*
Y638500D01*
X485000Y612584D02*
Y638500D01*
X487500Y612584D02*
Y638500D01*
X480000Y612584D02*
Y638500D01*
X482500Y612584D02*
Y638500D01*
X475000Y612584D02*
Y638500D01*
X477500Y612584D02*
Y638500D01*
X472500Y596395D02*
Y600888D01*
X495000Y596395D02*
Y600888D01*
X490000Y596395D02*
Y600888D01*
X492500Y596395D02*
Y600888D01*
X497500Y595177D02*
Y600888D01*
X497677Y595000D02*
X508823D01*
X480000Y596395D02*
Y600888D01*
X462857Y596395D02*
X495205D01*
X475000D02*
Y600888D01*
X477500Y596395D02*
Y600888D01*
X485000Y596395D02*
Y600888D01*
X487500Y596395D02*
Y600888D01*
X482500Y596395D02*
Y600888D01*
X462500Y612584D02*
Y638500D01*
X465000Y612584D02*
Y638500D01*
X457500Y612584D02*
Y638500D01*
X460000Y612584D02*
Y638500D01*
X470000Y612584D02*
Y638500D01*
X472500Y612584D02*
Y638500D01*
X467500Y612584D02*
Y638500D01*
X442500Y612584D02*
Y638500D01*
X447500Y612584D02*
Y638500D01*
X437500Y612584D02*
Y638500D01*
X440000Y612584D02*
Y638500D01*
X452500Y612584D02*
Y638500D01*
X455000Y612584D02*
Y638500D01*
X450000Y612584D02*
Y638500D01*
X467500Y596395D02*
Y600888D01*
X470000Y596395D02*
Y600888D01*
X460000Y597433D02*
Y600888D01*
X462500Y596704D02*
Y600888D01*
X457500Y596142D02*
Y600888D01*
X465000Y596395D02*
Y600888D01*
X447500Y593100D02*
Y600888D01*
X435000Y612584D02*
Y638500D01*
X445000Y612584D02*
Y638500D01*
X432500Y612584D02*
Y638500D01*
Y594177D02*
Y600888D01*
X445000Y594010D02*
Y600888D01*
X446562Y593100D02*
X449500D01*
X442500Y593827D02*
Y600888D01*
X510000Y592579D02*
Y593823D01*
X500177Y592500D02*
X509947D01*
X500000Y592677D02*
Y600888D01*
X502500Y590177D02*
Y600888D01*
X507500Y588769D02*
Y596323D01*
X502677Y590000D02*
X509384D01*
X505000Y588769D02*
Y598823D01*
X460000Y589600D02*
Y590157D01*
X453677Y590000D02*
X462384D01*
X497044Y595634D02*
X503908Y588769D01*
X454077Y589600D02*
X462463D01*
X457500D02*
Y591448D01*
X503908Y588769D02*
X509786D01*
X502500Y582965D02*
Y583590D01*
X507500Y580108D02*
Y583569D01*
X510000Y580108D02*
Y583569D01*
X505000Y580465D02*
Y583569D01*
X501570Y583896D02*
X505357Y580108D01*
X453000Y584400D02*
X465463D01*
X437100Y582500D02*
X465490D01*
X462500Y577553D02*
Y584400D01*
X465000Y577100D02*
Y584400D01*
X460000Y578116D02*
Y584400D01*
X451161Y592500D02*
X456882D01*
X450000Y593051D02*
Y600888D01*
X455000Y589600D02*
Y600888D01*
X451338Y592339D02*
X454077Y589600D01*
X452500Y591177D02*
Y600888D01*
X434177Y592500D02*
X440947D01*
X436624Y590000D02*
X440384D01*
X435000Y591677D02*
Y600888D01*
X440000Y544335D02*
Y600888D01*
X457500Y576579D02*
Y584400D01*
X448423Y587900D02*
X451161Y585161D01*
X452500Y545899D02*
Y584448D01*
X455000Y547850D02*
Y584400D01*
X450000Y545899D02*
Y586323D01*
X446079Y587500D02*
X448823D01*
X437100Y585000D02*
X451339D01*
X446562Y587900D02*
X448423D01*
X437100Y587500D02*
X441921D01*
X447500Y545899D02*
Y587900D01*
X445000Y546627D02*
Y586990D01*
X442500Y546809D02*
Y587173D01*
X427500Y612584D02*
Y638500D01*
X430000Y612584D02*
Y638500D01*
X422100Y622500D02*
Y638500D01*
X422500Y612584D02*
Y638500D01*
X425000Y612584D02*
Y638500D01*
X420000Y612584D02*
Y619948D01*
X381015Y619900D02*
X419500D01*
X415000Y612584D02*
Y619900D01*
X417500Y612584D02*
Y619900D01*
X410000Y612584D02*
Y619900D01*
X412500Y612584D02*
Y619900D01*
X405000Y612584D02*
Y619900D01*
X417500Y599592D02*
Y600888D01*
X420000Y599592D02*
Y600888D01*
X412500Y599592D02*
Y600888D01*
X415000Y599592D02*
Y600888D01*
X425000Y599592D02*
Y600888D01*
X427500Y599121D02*
Y600888D01*
X422500Y599592D02*
Y600888D01*
X381615D02*
X502935D01*
X381615Y600000D02*
X503823D01*
X407500Y612584D02*
Y619900D01*
X410000Y599592D02*
Y600888D01*
X407500Y599592D02*
Y600888D01*
X381615Y599592D02*
X426008D01*
X405000D02*
Y600888D01*
X392500Y612584D02*
Y619900D01*
X395000Y612584D02*
Y619900D01*
X387500Y612584D02*
Y619900D01*
X390000Y612584D02*
Y619900D01*
X400000Y612584D02*
Y619900D01*
X402500Y612584D02*
Y619900D01*
X397500Y612584D02*
Y619900D01*
X381015Y618327D02*
Y618964D01*
Y614635D02*
Y618327D01*
Y618964D02*
Y619900D01*
Y618327D02*
Y618964D01*
X382500Y612584D02*
Y619900D01*
X385000Y612584D02*
Y619900D01*
X381015Y613996D02*
Y614635D01*
X392500Y599592D02*
Y600888D01*
X395000Y599592D02*
Y600888D01*
X387500Y599592D02*
Y600888D01*
X390000Y599592D02*
Y600888D01*
X400000Y599592D02*
Y600888D01*
X402500Y599592D02*
Y600888D01*
X397500Y599592D02*
Y600888D01*
X381615Y600403D02*
Y600888D01*
Y600403D02*
Y600888D01*
X381015Y613996D02*
Y614635D01*
Y612584D02*
Y613996D01*
X382500Y599592D02*
Y600888D01*
X385000Y599592D02*
Y600888D01*
X381615Y599592D02*
Y600403D01*
X430000Y596677D02*
Y600888D01*
X429177Y597500D02*
X506323D01*
X427846Y598831D02*
X436339Y590339D01*
X431677Y595000D02*
X456850D01*
X419762Y590061D02*
X426900Y582923D01*
X417500Y582100D02*
Y590061D01*
X391079D02*
X419762D01*
X402500Y589053D02*
Y590061D01*
X415000Y581624D02*
Y590061D01*
X407500Y574200D02*
Y590061D01*
X412500Y579177D02*
Y590061D01*
X405000Y577159D02*
Y590061D01*
X422579Y582500D02*
X426900D01*
X420000Y583116D02*
Y589823D01*
X422500Y582553D02*
Y587323D01*
X425000Y572659D02*
Y584823D01*
X426900Y533587D02*
Y582923D01*
X410000Y576677D02*
Y590061D01*
X403827Y587500D02*
X422323D01*
X404010Y585000D02*
X424823D01*
X391124Y590000D02*
X419823D01*
X401536Y582500D02*
X418421D01*
X402500Y578150D02*
Y582947D01*
X400000Y589616D02*
Y590061D01*
X392850Y589850D02*
X398850D01*
X391222D02*
X392850D01*
X391222D02*
X392850D01*
X398850Y589256D02*
Y589850D01*
X385150Y582150D02*
Y587896D01*
X385000Y577100D02*
Y587896D01*
X381615D02*
X385150D01*
X381615Y587500D02*
X385150D01*
X381015Y587896D02*
X381615D01*
X381015Y587500D02*
X381615D01*
Y587411D02*
Y587896D01*
X382500Y582053D02*
Y587896D01*
X381015Y587411D02*
Y587896D01*
X398850Y582500D02*
X399464D01*
X400000Y577159D02*
Y582384D01*
X398850Y582150D02*
Y582744D01*
X391150Y582150D02*
X392850D01*
X395000Y577100D02*
Y582150D01*
X397500Y577100D02*
Y582150D01*
X392500Y577100D02*
Y582150D01*
X381015Y585000D02*
X385150D01*
X381536Y582500D02*
X385150D01*
X381015Y583680D02*
Y587411D01*
X381615D01*
X390000Y577100D02*
Y582150D01*
X385150D02*
X391150D01*
X387500Y577100D02*
Y582150D01*
X483338Y576338D02*
X505577Y554100D01*
X505000Y554677D02*
Y561916D01*
X487500Y545899D02*
Y564823D01*
X490000Y545899D02*
Y562323D01*
X485000Y545899D02*
Y567323D01*
X462579Y577500D02*
X482323D01*
X482500Y576900D02*
Y577323D01*
X478923Y580900D02*
X497146Y562677D01*
X480423Y571900D02*
X502662Y549661D01*
X437100Y565000D02*
X487323D01*
X507500Y554100D02*
Y561916D01*
X500000Y559677D02*
Y561916D01*
X502500Y557177D02*
Y561916D01*
Y545899D02*
Y549823D01*
X500000Y545899D02*
Y552323D01*
X437100Y552500D02*
X499823D01*
X437100Y550000D02*
X502323D01*
X437100Y557500D02*
X494823D01*
X437100Y555000D02*
X497323D01*
X497500Y545899D02*
Y554823D01*
X461850Y545899D02*
X504201D01*
X495000D02*
Y557323D01*
X470036Y580000D02*
X479823D01*
X480000Y577100D02*
Y579823D01*
X477500Y577100D02*
Y580900D01*
X471562D02*
X478923D01*
X475000Y577100D02*
Y580900D01*
Y545899D02*
Y571900D01*
X472500Y577100D02*
Y580900D01*
X470000Y577100D02*
Y579990D01*
X463062Y577100D02*
X481500D01*
X467500D02*
Y580172D01*
X437100Y580000D02*
X467964D01*
X457500Y547850D02*
Y572421D01*
X437100Y575000D02*
X456884D01*
X477500Y545899D02*
Y571900D01*
X463062D02*
X480423D01*
X470000Y545899D02*
Y571900D01*
X472500Y545899D02*
Y571900D01*
X465000Y545899D02*
Y571900D01*
X467500Y545899D02*
Y571900D01*
X462500Y545899D02*
Y571447D01*
X437100Y570000D02*
X482323D01*
X454150Y547850D02*
X461850D01*
X460000D02*
Y570884D01*
X437100Y547500D02*
X454150D01*
X461850Y545899D02*
Y547850D01*
X446062Y545899D02*
X454150D01*
Y547850D01*
X492500Y545899D02*
Y559823D01*
X505000Y545773D02*
Y548900D01*
X507500Y543677D02*
Y548900D01*
X510000Y541177D02*
Y548900D01*
X503124Y540699D02*
X507162Y536661D01*
X482500Y545899D02*
Y569823D01*
X461850Y540699D02*
X503124D01*
X480000Y545899D02*
Y571900D01*
X461250Y540699D02*
X461850D01*
X475000Y533269D02*
Y540699D01*
X477500Y533629D02*
Y540699D01*
X461850Y540150D02*
Y540699D01*
X476646Y530701D02*
Y533251D01*
Y530701D02*
X479196D01*
X476646Y528151D02*
Y530701D01*
X474096D02*
X476646D01*
X461250Y540000D02*
X503823D01*
X461250Y537500D02*
X506323D01*
X461250Y534750D02*
Y540150D01*
X461850D01*
X446100Y532500D02*
X474183D01*
X446100Y530000D02*
X473678D01*
X454750Y534750D02*
X461250D01*
X454150Y540699D02*
X454750D01*
X461250Y540150D02*
Y540699D01*
X454750Y540150D02*
Y540699D01*
X454150Y540150D02*
X454750D01*
Y534750D02*
Y540150D01*
X458000Y538000D02*
X460750D01*
X454150Y540150D02*
Y540699D01*
X446100D02*
X454150D01*
X446100Y540000D02*
X454750D01*
X437100D02*
X440900D01*
Y523562D02*
Y540737D01*
X446100Y523562D02*
Y540699D01*
X440000Y522036D02*
Y542263D01*
X455250Y538000D02*
X458000D01*
Y535250D02*
Y538000D01*
X446100Y537500D02*
X454750D01*
X446100Y535000D02*
X454750D01*
X437100D02*
X440900D01*
X437100Y530000D02*
X440900D01*
X437100Y527500D02*
X440900D01*
X437100Y537500D02*
X440900D01*
X437100Y532500D02*
X440900D01*
X437100Y525000D02*
X440900D01*
X437100Y522500D02*
X440172D01*
X437100Y520000D02*
X439990D01*
X424116Y580000D02*
X426900D01*
X437100Y577500D02*
X458421D01*
X423553D02*
X426900D01*
X422500Y573650D02*
Y576447D01*
X420000Y572659D02*
Y575884D01*
X416500Y582100D02*
X417938D01*
X415677Y575000D02*
X426900D01*
X417577Y576900D02*
X417938D01*
X413277Y572600D02*
X417577Y576900D01*
X413277Y572600D02*
X419938D01*
X417500D02*
Y576823D01*
X437100Y572500D02*
X457447D01*
X437100Y567500D02*
X484823D01*
X425159Y572500D02*
X426900D01*
X426150Y570000D02*
X426900D01*
X437100Y562500D02*
X489823D01*
X437100Y560000D02*
X492323D01*
X425159Y567500D02*
X426900D01*
X384677Y560000D02*
X426900D01*
X387177Y557500D02*
X426900D01*
X382177Y562500D02*
X426900D01*
X408579Y552500D02*
X426900D01*
X410116Y550000D02*
X426900D01*
X389677Y555000D02*
X426900D01*
X407523Y574200D02*
X414662Y581339D01*
X404579Y577500D02*
X410823D01*
X406116Y575000D02*
X408323D01*
X415000Y572600D02*
Y574323D01*
X406138Y574200D02*
X407523D01*
X384010Y580000D02*
X413323D01*
X383827Y577500D02*
X400421D01*
X391150Y582150D02*
X392850D01*
X398850D01*
X383616Y577100D02*
X399938D01*
X407500Y553010D02*
Y567400D01*
X410000Y550536D02*
Y567400D01*
X395000Y549677D02*
Y567400D01*
X405000Y552828D02*
Y567400D01*
X410000Y547850D02*
Y548464D01*
X402650Y547850D02*
X403244D01*
X387500Y557177D02*
Y567400D01*
X390000Y554677D02*
Y567400D01*
X382500Y562177D02*
Y567400D01*
X385000Y559677D02*
Y567400D01*
X392177Y552500D02*
X404421D01*
X394677Y550000D02*
X402884D01*
X392500Y552177D02*
Y567400D01*
X437100Y545000D02*
X440271D01*
X437100Y542500D02*
X439938D01*
X410350Y547500D02*
X426900D01*
X410350Y542500D02*
X426900D01*
X425000Y528651D02*
Y531201D01*
Y534251D02*
Y567341D01*
X409750Y537500D02*
X426900D01*
X409750Y535000D02*
X426900D01*
X410350Y545000D02*
X426900D01*
X409750Y540000D02*
X426900D01*
X396100Y525000D02*
X426900D01*
X396100Y522500D02*
X426900D01*
X396100Y527500D02*
X426900D01*
X396100Y520000D02*
X426900D01*
X437100Y517500D02*
X442464D01*
X396100D02*
X426900D01*
X396100Y515000D02*
X426900D01*
X396100Y510000D02*
X426900D01*
X396100Y507500D02*
X426900D01*
X396100Y512500D02*
X426900D01*
X390677Y500000D02*
X426900D01*
X388177Y497500D02*
X426900D01*
X395624Y505000D02*
X426900D01*
X393177Y502500D02*
X426900D01*
X383177Y492500D02*
X426900D01*
X380677Y490000D02*
X426900D01*
X385677Y495000D02*
X426900D01*
X410350Y540150D02*
Y547850D01*
X409756D02*
X410350D01*
X402650Y540150D02*
Y547850D01*
X422500Y532948D02*
Y566350D01*
X409750Y540150D02*
X410350D01*
X409750Y534750D02*
Y540150D01*
X396100Y547500D02*
X402650D01*
X396100Y545000D02*
X402650D01*
X396100Y542500D02*
X402650D01*
Y540150D02*
X403250D01*
X396100Y506500D02*
Y547500D01*
X406500Y538000D02*
X409250D01*
X403250Y534750D02*
X409750D01*
X406500Y535250D02*
Y538000D01*
X403750D02*
X406500D01*
X425000Y531201D02*
Y533751D01*
X422450Y531201D02*
X425000D01*
X403250Y534750D02*
Y540150D01*
X396100Y535000D02*
X403250D01*
X396100Y532500D02*
X422240D01*
X396100Y540000D02*
X403250D01*
X396100Y537500D02*
X403250D01*
X396100Y530000D02*
X422196D01*
X573172Y440000D02*
X587000D01*
X572500Y440677D02*
Y486900D01*
X573840Y437500D02*
X587000D01*
X573840Y435000D02*
X587000D01*
X573840Y434482D02*
Y438260D01*
Y434482D02*
X574521D01*
X568750Y447500D02*
X587000D01*
X568750Y445000D02*
X587000D01*
X569350Y442500D02*
X587000D01*
X569350Y442100D02*
X570000D01*
X571839Y441338D02*
X573078Y440098D01*
X574521Y432500D02*
X587000D01*
X574521Y430000D02*
X587000D01*
X574521Y426148D02*
Y434482D01*
Y427500D02*
X587000D01*
X574521Y420000D02*
X587000D01*
X574521Y417500D02*
X587000D01*
X574521Y422500D02*
X587000D01*
X572029Y426148D02*
X574521D01*
X573172Y425000D02*
X587000D01*
X572500Y425677D02*
Y426148D01*
X572029D02*
X573078Y425099D01*
X573772Y423852D02*
X574521D01*
X568750Y443350D02*
Y448750D01*
X565500Y445500D02*
X568250D01*
X567500Y448750D02*
Y485650D01*
X565500Y445500D02*
Y448250D01*
X570000Y442100D02*
Y485650D01*
X568750Y443350D02*
X569350D01*
Y442100D02*
Y443350D01*
X565000Y448750D02*
Y485650D01*
X562250Y448750D02*
X568750D01*
X562500D02*
Y485650D01*
X561850Y447500D02*
X562250D01*
Y443350D02*
Y448750D01*
X562750Y445500D02*
X565500D01*
X561850Y443350D02*
Y449350D01*
X568640Y434482D02*
Y435650D01*
X567959Y434482D02*
X568640D01*
X567959Y428100D02*
Y434482D01*
X567041Y428100D02*
X567959D01*
X567500D02*
Y435650D01*
Y416618D02*
Y419685D01*
X567041Y428100D02*
Y434482D01*
X565000D02*
Y435650D01*
X567041Y432500D02*
X567959D01*
X561850Y443350D02*
X562250D01*
X562500Y434482D02*
Y435650D01*
X567041Y430000D02*
X567959D01*
X561922Y424901D02*
X562971Y423852D01*
X562500D02*
Y424323D01*
X576100Y412500D02*
X587000D01*
X576100Y410000D02*
X587000D01*
X577500Y368245D02*
Y561916D01*
X580000Y366853D02*
Y561916D01*
X585000Y199731D02*
Y546874D01*
X587000Y199900D02*
Y546874D01*
X582500Y199016D02*
Y561916D01*
X575000Y414600D02*
Y488323D01*
X573840Y415000D02*
X587000D01*
X574521Y415518D02*
Y423852D01*
X573840Y415518D02*
X574521D01*
X573840Y414600D02*
X576100D01*
Y405400D02*
Y414600D01*
X573840D02*
Y415518D01*
X576100Y407500D02*
X587000D01*
X573840Y405000D02*
X587000D01*
X573840Y405400D02*
X576100D01*
X573840Y402500D02*
X587000D01*
X573172Y400000D02*
X587000D01*
X575163Y367814D02*
Y370836D01*
X575000D02*
Y405400D01*
X565677Y392500D02*
X587000D01*
X563177Y390000D02*
X587000D01*
X570677Y397500D02*
X587000D01*
X568177Y395000D02*
X587000D01*
X562616Y385000D02*
X587000D01*
X562053Y382500D02*
X587000D01*
X565057Y370836D02*
X575163D01*
X567041Y416118D02*
X567959D01*
Y415518D02*
X568640D01*
X567041D02*
Y416118D01*
X567959Y415518D02*
Y416118D01*
X568640Y414600D02*
Y415518D01*
X566900Y414600D02*
X568640D01*
X567500D02*
Y416118D01*
X565000Y414000D02*
Y415518D01*
X566900Y414000D02*
Y414600D01*
X562500Y414000D02*
Y415518D01*
X564000Y410000D02*
Y413500D01*
Y406500D02*
Y410000D01*
X565000Y399177D02*
Y406000D01*
X562500Y396677D02*
Y406000D01*
X573840Y401740D02*
Y405400D01*
X567500Y401677D02*
Y405400D01*
X568640Y402817D02*
Y405400D01*
X572500Y370836D02*
Y399323D01*
X570000Y370836D02*
Y396823D01*
X566900Y405400D02*
X568640D01*
X567500Y370836D02*
Y394323D01*
X566900Y405400D02*
Y406000D01*
X562500Y385536D02*
Y389323D01*
X565000Y358147D02*
Y391823D01*
X565057Y363880D02*
Y370836D01*
X562500Y358677D02*
Y383464D01*
X552600Y467500D02*
X587000D01*
X552600Y465000D02*
X587000D01*
X555000Y449350D02*
Y492900D01*
X554150Y449350D02*
X561850D01*
X560000D02*
Y485650D01*
X561850Y445000D02*
X562250D01*
X557500Y449350D02*
Y485650D01*
X552600Y460000D02*
X587000D01*
X552600Y457500D02*
X587000D01*
X552600Y470000D02*
X587000D01*
X552600Y462500D02*
X587000D01*
X552600Y452500D02*
X587000D01*
X552600Y450000D02*
X587000D01*
X552600Y455000D02*
X587000D01*
X561850Y435650D02*
X568640D01*
X560479Y434482D02*
X567041D01*
X557415Y426837D02*
Y434187D01*
Y432500D02*
X560479D01*
Y426148D02*
X561228D01*
X560479D02*
Y434482D01*
X554150Y435650D02*
X561650D01*
X552600Y435000D02*
X568640D01*
X552600Y434187D02*
X557415D01*
Y430000D02*
X560479D01*
X557415Y427500D02*
X560479D01*
X542500Y425000D02*
X561828D01*
X543100Y426837D02*
X557415D01*
X552600Y448100D02*
Y492900D01*
Y448100D02*
X554150D01*
X437100Y462500D02*
X547400D01*
X437100Y460000D02*
X547400D01*
Y445500D02*
Y492938D01*
X554150Y448100D02*
Y449350D01*
X547400Y434187D02*
Y445500D01*
X437100Y455000D02*
X547400D01*
X437100Y452500D02*
X547400D01*
X437100Y465000D02*
X547400D01*
X437100Y457500D02*
X547400D01*
X437100Y447500D02*
X547400D01*
X437100Y445000D02*
X547400D01*
X437100Y450000D02*
X547400D01*
X554150Y441650D02*
Y442900D01*
Y441650D02*
Y442900D01*
X552600D02*
X554150D01*
X552600Y442500D02*
X554150D01*
Y435650D02*
Y441650D01*
X555000Y434187D02*
Y435650D01*
X552600Y434187D02*
Y442900D01*
Y440000D02*
X554150D01*
X552600Y437500D02*
X554150D01*
X437100Y442500D02*
X547400D01*
X437100Y440000D02*
X547400D01*
X543100Y435000D02*
X547400D01*
X543100Y434187D02*
X547400D01*
X437100Y437500D02*
X547400D01*
X560479Y423852D02*
X562971D01*
X560479Y415518D02*
X567041D01*
X560479Y422285D02*
Y423852D01*
X560500Y410000D02*
X564000D01*
X560000Y406000D02*
X566900D01*
X560479Y415518D02*
Y417085D01*
X557415D02*
X560479D01*
X473528Y415000D02*
X568640D01*
X557415Y422500D02*
X560479D01*
X557415Y422285D02*
X560479D01*
X560000Y414000D02*
X566900D01*
X557162Y391338D02*
X568640Y402817D01*
X560000Y406000D02*
Y414000D01*
X561600Y388423D02*
X573078Y399902D01*
X561600Y387500D02*
X587000D01*
X561600Y387062D02*
Y388423D01*
Y375000D02*
X587000D01*
X561600Y372500D02*
X587000D01*
X502129Y402500D02*
X568323D01*
X508177Y400000D02*
X565823D01*
X509600Y397500D02*
X563323D01*
X511350Y395000D02*
X560823D01*
X561600Y380000D02*
X587000D01*
X561600Y377500D02*
X587000D01*
X561600Y359577D02*
Y381938D01*
X557500Y422285D02*
Y435650D01*
X560000Y422285D02*
Y435650D01*
X555000Y423163D02*
Y426837D01*
X557415Y422285D02*
Y423163D01*
X557500Y391677D02*
Y417085D01*
X560000Y414000D02*
Y417085D01*
X557415Y415813D02*
Y417085D01*
X552500Y423163D02*
Y426837D01*
X542585Y423163D02*
X557415D01*
X547500D02*
Y426837D01*
X550000Y423163D02*
Y426837D01*
Y258455D02*
Y415813D01*
X552500Y258455D02*
Y415813D01*
X547500Y258455D02*
Y415813D01*
X560000Y406000D02*
Y414000D01*
Y394177D02*
Y406000D01*
X556400Y358500D02*
Y381938D01*
Y387062D02*
Y389500D01*
X472566Y412500D02*
X560000D01*
X511350Y392500D02*
X558323D01*
X542585Y415813D02*
X557415D01*
X519550Y390000D02*
X556449D01*
X522009Y387500D02*
X556400D01*
X521303Y385000D02*
X555384D01*
X555000Y258455D02*
Y415813D01*
X579327Y367500D02*
X587000D01*
X580826Y365000D02*
X587000D01*
X580870Y352500D02*
X587000D01*
X579874Y350000D02*
X587000D01*
X580370Y362500D02*
X587000D01*
X580033Y355000D02*
X587000D01*
X575163Y370000D02*
X587000D01*
X561600Y360000D02*
X587000D01*
X575163Y357500D02*
X587000D01*
X573010Y345000D02*
X587000D01*
X573010Y342500D02*
X587000D01*
X575163Y347500D02*
X587000D01*
X573010Y317500D02*
X587000D01*
X573010Y315000D02*
X587000D01*
X573010Y322500D02*
X587000D01*
X573010Y320000D02*
X587000D01*
X573010Y310000D02*
X587000D01*
X573010Y307500D02*
X587000D01*
X573010Y312500D02*
X587000D01*
X573010Y335000D02*
X587000D01*
X573010Y332500D02*
X587000D01*
X573010Y340000D02*
X587000D01*
X573010Y337500D02*
X587000D01*
X573010Y327500D02*
X587000D01*
X573010Y325000D02*
X587000D01*
X573010Y330000D02*
X587000D01*
X575000Y359025D02*
Y361091D01*
X567500Y359025D02*
Y363880D01*
X570000Y359025D02*
Y363880D01*
X580000Y355041D02*
Y361959D01*
X577500Y356433D02*
Y360567D01*
X572500Y359025D02*
Y363880D01*
X561600Y365000D02*
X565057D01*
Y363880D02*
X573164D01*
X561600Y370000D02*
X565057D01*
X561600Y367500D02*
X565057D01*
X561600Y362500D02*
X573630D01*
X565057Y359025D02*
X575163D01*
X561600Y359577D02*
X563030Y358147D01*
X575163Y356002D02*
Y359025D01*
Y346164D02*
Y349186D01*
X573010Y346164D02*
X575163D01*
X561953Y352947D02*
X565057D01*
Y352069D02*
Y352947D01*
Y358147D02*
Y359025D01*
X563030Y358147D02*
X565057D01*
Y346164D02*
Y352069D01*
Y346164D02*
X567210D01*
X565057Y352069D02*
Y352947D01*
X573010Y282500D02*
X587000D01*
X573010Y280000D02*
X587000D01*
X573010Y287500D02*
X587000D01*
X573010Y285000D02*
X587000D01*
X573010Y275000D02*
X587000D01*
X573010Y272500D02*
X587000D01*
X573010Y277500D02*
X587000D01*
X573010Y300000D02*
X587000D01*
X573010Y297500D02*
X587000D01*
X573010Y305000D02*
X587000D01*
X573010Y302500D02*
X587000D01*
X573010Y292500D02*
X587000D01*
X573010Y290000D02*
X587000D01*
X573010Y295000D02*
X587000D01*
X573010Y265000D02*
X587000D01*
X573010Y262500D02*
X587000D01*
X573010Y270000D02*
X587000D01*
X573010Y267500D02*
X587000D01*
X573010Y257500D02*
X587000D01*
X573010Y255000D02*
X587000D01*
X573010Y260000D02*
X587000D01*
X573010Y247500D02*
X587000D01*
X573010Y245000D02*
X587000D01*
X573010Y252500D02*
X587000D01*
X573010Y250000D02*
X587000D01*
X573010Y240000D02*
X587000D01*
X562601Y212500D02*
X587000D01*
X573010Y242500D02*
X587000D01*
X573010Y235000D02*
X587000D01*
X573010Y232500D02*
X587000D01*
X573010Y224110D02*
Y346164D01*
Y230000D02*
X587000D01*
X580000Y197623D02*
Y350147D01*
X577500Y195167D02*
Y348755D01*
X575000Y188000D02*
Y346164D01*
X567210Y258455D02*
Y346164D01*
X573010Y237500D02*
X587000D01*
X562500Y258455D02*
Y352947D01*
X565000Y258455D02*
Y352947D01*
Y223101D02*
Y252655D01*
X567210Y225311D02*
Y252655D01*
X562500Y220601D02*
Y252655D01*
X573010Y227500D02*
X587000D01*
X573010Y225000D02*
X587000D01*
X572522Y222500D02*
X587000D01*
X572500Y188000D02*
Y222467D01*
X570101Y220000D02*
X587000D01*
X567601Y217500D02*
X587000D01*
X570000Y188000D02*
Y219899D01*
X565101Y215000D02*
X587000D01*
X567500Y188000D02*
Y217399D01*
X565000Y188000D02*
Y214899D01*
X562500Y188000D02*
Y212399D01*
X491850Y315000D02*
X567210D01*
X491850Y312500D02*
X567210D01*
X521656Y345000D02*
X567210D01*
X521881Y342500D02*
X567210D01*
X502509Y307500D02*
X567210D01*
X500050Y305000D02*
X567210D01*
X501803Y310000D02*
X567210D01*
X425100Y325000D02*
X567210D01*
X487177Y322500D02*
X567210D01*
X424900Y330000D02*
X567210D01*
X425100Y327500D02*
X567210D01*
X490100Y317500D02*
X567210D01*
X456100Y302500D02*
X567210D01*
X489624Y320000D02*
X567210D01*
X483553Y292500D02*
X567210D01*
X471047Y258455D02*
X567210D01*
X482579Y297500D02*
X567210D01*
X484116Y295000D02*
X567210D01*
X470968Y252500D02*
X567210D01*
X468682Y250000D02*
X567210D01*
X471047Y252655D02*
X567210D01*
X459600Y287500D02*
X567210D01*
X459600Y285000D02*
X567210D01*
X456100Y300000D02*
X567210D01*
X461677Y290000D02*
X567210D01*
X459600Y280000D02*
X567210D01*
X459600Y242500D02*
X567210D01*
X459600Y282500D02*
X567210D01*
X557162Y356662D02*
X560114Y353709D01*
X560000Y258455D02*
Y353823D01*
X557500Y258455D02*
Y356323D01*
X510850Y352500D02*
X565057D01*
X510850Y350000D02*
X565057D01*
X507177Y357500D02*
X556600D01*
X509400Y355000D02*
X558823D01*
X459600Y277500D02*
X567210D01*
X459600Y275000D02*
X567210D01*
X510850Y347500D02*
X565057D01*
X459600Y267500D02*
X567210D01*
X469997Y260000D02*
X567210D01*
X547500Y238850D02*
Y252655D01*
X550000Y238850D02*
Y252655D01*
X555000Y238850D02*
Y252655D01*
X550150Y238850D02*
X551850D01*
X550150D02*
X551850D01*
X459600Y265000D02*
X567210D01*
X459600Y262500D02*
X567210D01*
X459600Y272500D02*
X567210D01*
X459600Y270000D02*
X567210D01*
X459600Y245000D02*
X567210D01*
X459600Y240000D02*
X567210D01*
X459600Y247500D02*
X567210D01*
X557850Y237500D02*
X567210D01*
X557850Y235000D02*
X567210D01*
X557850Y231850D02*
Y238850D01*
Y232500D02*
X567210D01*
X560000Y218101D02*
Y252655D01*
X557850Y224150D02*
Y231150D01*
Y231850D01*
Y230000D02*
X567210D01*
X557850Y227500D02*
X567210D01*
X551850Y238850D02*
X557850D01*
Y225000D02*
X566899D01*
X529899Y188000D02*
X567210Y225311D01*
X557650Y222500D02*
X564399D01*
X557256Y224150D02*
X557850D01*
X557601Y207500D02*
X587000D01*
X555101Y205000D02*
X587000D01*
X556659Y220000D02*
X561899D01*
X560101Y210000D02*
X587000D01*
X552601Y202500D02*
X587000D01*
X550101Y200000D02*
X587000D01*
X560000Y188000D02*
Y209899D01*
X547601Y197500D02*
X579833D01*
X545101Y195000D02*
X577377D01*
X459600Y217500D02*
X559399D01*
X542601Y192500D02*
X575984D01*
X540101Y190000D02*
X575269D01*
X538101Y188000D02*
X575100D01*
X538101D02*
X572161Y222059D01*
X557500Y238850D02*
Y252655D01*
X557850Y231150D02*
Y231850D01*
X552500Y238850D02*
Y252655D01*
X550150Y224150D02*
Y224750D01*
X557500Y223536D02*
Y224150D01*
X544150Y238850D02*
X550150D01*
X544750Y224750D02*
X550150D01*
X548000Y225250D02*
Y228000D01*
X545250D02*
X548000D01*
X550000Y208101D02*
Y224750D01*
X550150Y224150D02*
X550744D01*
X547500Y205601D02*
Y224750D01*
X557500Y215601D02*
Y221464D01*
X555000Y213101D02*
Y218990D01*
X552500Y210601D02*
Y219173D01*
X550000Y188000D02*
Y199899D01*
X557500Y188000D02*
Y207399D01*
X555000Y188000D02*
Y204899D01*
X552500Y188000D02*
Y202399D01*
X459600Y215000D02*
X556899D01*
X459600Y212500D02*
X554399D01*
X459600Y222500D02*
X550350D01*
X459600Y220000D02*
X551341D01*
X468665Y210000D02*
X551899D01*
X470643Y207500D02*
X549399D01*
X547500Y188000D02*
Y197399D01*
X545000Y434187D02*
Y488500D01*
X543100Y434187D02*
Y435100D01*
X540000D02*
Y488500D01*
X542500Y435100D02*
Y488500D01*
X543100Y425900D02*
Y426837D01*
X545000Y423163D02*
Y426837D01*
X542500Y419000D02*
Y425900D01*
X543100D01*
X537500Y435100D02*
Y495400D01*
X533900Y435100D02*
X543100D01*
X535000D02*
Y507932D01*
X533900Y425900D02*
Y435100D01*
X520000Y389881D02*
Y535900D01*
X534500Y419000D02*
Y425900D01*
X517500Y389656D02*
Y535900D01*
X535000Y423000D02*
X538500D01*
X542000D01*
X533900Y425900D02*
X534500D01*
X538500Y419500D02*
Y423000D01*
X542585Y415813D02*
Y423163D01*
X534500Y419000D02*
X542500D01*
X519000Y384450D02*
Y387000D01*
X472925Y425000D02*
X534500D01*
X473140Y417500D02*
X542585D01*
X511350Y390000D02*
X518450D01*
X519000Y387000D02*
Y389550D01*
X516450Y387000D02*
X519000D01*
X521550D01*
X510750Y385000D02*
X516697D01*
X507500Y400677D02*
Y536376D01*
X505000Y402242D02*
Y538823D01*
X510000Y396850D02*
Y535900D01*
X506693Y401484D02*
X508839Y399339D01*
X497500Y402435D02*
Y540699D01*
X500000Y403293D02*
Y540699D01*
X472500Y427456D02*
Y540699D01*
Y418587D02*
Y423544D01*
X502500Y402246D02*
Y540699D01*
X502416Y402246D02*
X504854D01*
X509600Y396850D02*
X511350D01*
X510750Y389150D02*
X511350D01*
X509600Y396850D02*
Y397500D01*
X511350Y389150D02*
Y396850D01*
X510750Y387500D02*
X515991D01*
X507500Y384250D02*
Y387000D01*
X503650Y396850D02*
X503973D01*
X504400Y396423D01*
X502416Y397046D02*
X503777D01*
X503650Y389150D02*
Y396850D01*
X504750Y387000D02*
X507500D01*
X510250D01*
X503650Y389150D02*
X504250D01*
X535000Y258455D02*
Y419000D01*
X537500Y258455D02*
Y419000D01*
X530000Y258455D02*
Y535900D01*
X532500Y258455D02*
Y535900D01*
X542500Y258455D02*
Y425900D01*
X545000Y258455D02*
Y415813D01*
X540000Y258455D02*
Y419000D01*
X525000Y258455D02*
Y535900D01*
X527500Y258455D02*
Y535900D01*
X510750Y383750D02*
Y389150D01*
X515000Y258455D02*
Y535900D01*
X522500Y258455D02*
Y535900D01*
X512500Y258455D02*
Y535900D01*
X517500Y346156D02*
Y384344D01*
X520000Y346381D02*
Y384119D01*
X510000Y353350D02*
Y383750D01*
X510850Y345650D02*
Y353350D01*
X519000Y343500D02*
Y346050D01*
X510250Y340250D02*
Y345650D01*
X504250Y383750D02*
X510750D01*
X507500Y357177D02*
Y383750D01*
X506693Y357984D02*
X508839Y355838D01*
X509600Y353350D02*
X510850D01*
X509600D02*
Y354000D01*
X502500Y358746D02*
Y397046D01*
X504250Y383750D02*
Y389150D01*
X497500Y358935D02*
Y396856D01*
X500000Y359793D02*
Y395999D01*
X492500Y258455D02*
Y540699D01*
X495000Y258455D02*
Y540699D01*
X490000Y319214D02*
Y540699D01*
X482500Y323599D02*
Y540699D01*
X485000Y323246D02*
Y540699D01*
X480000Y324279D02*
Y540699D01*
X475000Y323246D02*
Y528133D01*
X487500Y322177D02*
Y540699D01*
X477500Y323246D02*
Y527773D01*
X472500Y323246D02*
Y412413D01*
X505000Y358742D02*
Y383750D01*
X503150Y353350D02*
X503973D01*
X503150Y345650D02*
X503750D01*
Y340250D02*
Y345650D01*
X503150D02*
Y353350D01*
X502416Y358746D02*
X504854D01*
X502416Y353546D02*
X503777D01*
X500025Y352500D02*
X503150D01*
X502500Y308550D02*
Y353546D01*
X500000Y311009D02*
Y352499D01*
X497500Y310303D02*
Y353357D01*
X462500Y430553D02*
Y540699D01*
X460000Y430553D02*
Y534750D01*
X455000Y430553D02*
Y534750D01*
X457500Y430553D02*
Y534750D01*
X467500Y429839D02*
Y540699D01*
X470000Y429693D02*
Y540699D01*
X465000Y428253D02*
Y540699D01*
X437100Y470000D02*
X547400D01*
X437100Y467500D02*
X547400D01*
X437100Y435500D02*
Y588500D01*
X437051Y435000D02*
X533900D01*
X435177Y432500D02*
X533900D01*
X453447Y430553D02*
X463553D01*
X432677Y430000D02*
X453447D01*
X472478Y427500D02*
X533900D01*
X468500Y425500D02*
X472453D01*
X468500D02*
Y429453D01*
X464547Y425500D02*
X468500D01*
X471790Y422500D02*
X534500D01*
X468500Y421547D02*
Y425500D01*
X463553Y430000D02*
X533900D01*
X463553Y427500D02*
X464522D01*
X430177D02*
X453447D01*
X463553Y425000D02*
X464075D01*
X425177Y422500D02*
X453447D01*
X463553D02*
X465210D01*
X427677Y425000D02*
X453447D01*
X426900Y446077D02*
Y528815D01*
X425000Y444177D02*
Y528151D01*
X420000Y439177D02*
Y567341D01*
X422500Y441677D02*
Y529454D01*
X415000Y437100D02*
Y567400D01*
X417500Y437100D02*
Y567400D01*
X412500Y437100D02*
Y567400D01*
X400000Y437100D02*
Y567400D01*
X402500Y437100D02*
Y567400D01*
X397500Y437100D02*
Y567400D01*
X395000Y437100D02*
Y504323D01*
X410000Y437100D02*
Y540150D01*
X407500Y437100D02*
Y534750D01*
X405000Y437100D02*
Y534750D01*
X392500Y437100D02*
Y501823D01*
X417923Y437100D02*
X426900Y446077D01*
X390000Y437100D02*
Y499323D01*
X387500Y437100D02*
Y496823D01*
X423738Y421062D02*
X436339Y433662D01*
X382950Y450000D02*
X426900D01*
X382950Y447500D02*
X426900D01*
X382500Y454729D02*
Y491823D01*
X382950Y452500D02*
X426900D01*
X385000Y437100D02*
Y494323D01*
X382950Y445411D02*
Y454729D01*
X382500Y437100D02*
Y445411D01*
X470000Y420325D02*
Y421308D01*
X467500Y420453D02*
Y421161D01*
X463553Y420447D02*
Y430553D01*
X459527Y420447D02*
X463553D01*
X465000Y419144D02*
Y422747D01*
X455000Y419144D02*
Y420447D01*
X452500Y310677D02*
Y540699D01*
X453447Y420447D02*
Y430553D01*
X447500Y188000D02*
Y540699D01*
X450000Y188000D02*
Y540699D01*
X445000Y188000D02*
Y517672D01*
X470798Y420000D02*
X534500D01*
X463140Y417500D02*
X463860D01*
X462566Y412500D02*
X464434D01*
X470000Y323246D02*
Y410675D01*
X467500Y323246D02*
Y410547D01*
X465000Y322980D02*
Y411856D01*
X460798Y420000D02*
X466202D01*
X462500Y320677D02*
Y412413D01*
X453447Y420447D02*
X457473D01*
X462500Y418587D02*
Y420447D01*
X460000Y318177D02*
Y410675D01*
X457500Y315677D02*
Y410547D01*
X455000Y313177D02*
Y411856D01*
X435000Y188000D02*
Y432323D01*
X432500Y188000D02*
Y429823D01*
X430000Y188000D02*
Y427323D01*
X427500Y188000D02*
Y424823D01*
X440000Y188000D02*
Y519964D01*
X442500Y188000D02*
Y517490D01*
X437500Y188000D02*
Y600888D01*
X422500Y331600D02*
Y420370D01*
X415000Y331600D02*
Y420300D01*
X425000Y329714D02*
Y422323D01*
X420000Y331600D02*
Y420300D01*
X417500Y331600D02*
Y420300D01*
X402500Y331600D02*
Y420300D01*
X405000Y331600D02*
Y420300D01*
X397500Y331600D02*
Y420300D01*
X400000Y331600D02*
Y420300D01*
X410000Y331600D02*
Y420300D01*
X412500Y331600D02*
Y420300D01*
X407500Y331600D02*
Y420300D01*
X385000Y331600D02*
Y420300D01*
X387500Y331600D02*
Y420300D01*
X380000Y331600D02*
Y420300D01*
X382500Y331600D02*
Y420300D01*
X392500Y331600D02*
Y420300D01*
X395000Y331600D02*
Y420300D01*
X390000Y331600D02*
Y420300D01*
X516450Y343500D02*
X519000D01*
X521550D01*
X510250Y345650D02*
X510850D01*
X510250Y345000D02*
X516344D01*
X519000Y340950D02*
Y343500D01*
X520000Y258455D02*
Y340619D01*
X517500Y258455D02*
Y340844D01*
X507000Y343500D02*
X509750D01*
X510250Y342500D02*
X516119D01*
X507000Y340750D02*
Y343500D01*
X504250D02*
X507000D01*
X510000Y258455D02*
Y340250D01*
X503750D02*
X510250D01*
X507500Y258455D02*
Y340250D01*
X499500Y308000D02*
Y310550D01*
Y308000D02*
X502050D01*
X496950D02*
X499500D01*
Y305450D02*
Y308000D01*
X505000Y258455D02*
Y340250D01*
X502500Y258455D02*
Y307450D01*
X490100Y317350D02*
X491850D01*
Y310000D02*
X497197D01*
X491850Y309650D02*
Y317350D01*
X491250Y309650D02*
X491850D01*
X491250Y307500D02*
X496491D01*
X491250Y305000D02*
X498950D01*
X484750Y304250D02*
X491250D01*
X487192Y322484D02*
X489338Y320339D01*
X490100Y317350D02*
Y318500D01*
X484277Y318046D02*
X484900Y317423D01*
X482916Y323246D02*
X485354D01*
X482205Y317500D02*
X484823D01*
X482916Y318046D02*
X484277D01*
X484150Y309650D02*
Y317350D01*
X482500Y297553D02*
Y317693D01*
X491250Y304250D02*
Y309650D01*
X488000Y307500D02*
X490750D01*
X488000Y304750D02*
Y307500D01*
X485250D02*
X488000D01*
X487500Y258455D02*
Y304250D01*
X490000Y258455D02*
Y304250D01*
X484750D02*
Y309650D01*
X484150Y317350D02*
X484900D01*
X484150Y309650D02*
X484750D01*
X480000Y298116D02*
Y317013D01*
X482500Y258455D02*
Y291447D01*
X480000Y258455D02*
Y290884D01*
X545000Y238850D02*
Y252655D01*
X544150Y237332D02*
Y238850D01*
X540000Y237332D02*
Y252655D01*
X542500Y237332D02*
Y252655D01*
Y200601D02*
Y232132D01*
X544150Y231150D02*
Y232132D01*
X540000Y198101D02*
Y232132D01*
X538294Y237332D02*
X544150D01*
X538294Y232132D02*
X544150D01*
X537500Y237925D02*
Y252655D01*
X538111Y237500D02*
X544150D01*
X537500Y228753D02*
Y231539D01*
X535000Y229229D02*
Y231156D01*
X544750Y224750D02*
Y231150D01*
X545000Y203101D02*
Y224750D01*
X544150Y231150D02*
X544750D01*
X538522Y227500D02*
X544750D01*
X545000Y188000D02*
Y194899D01*
X542500Y188000D02*
Y192399D01*
X540000Y188000D02*
Y189899D01*
X535732Y226268D02*
X538282D01*
X538506Y225000D02*
X544750D01*
X535732Y226268D02*
Y228818D01*
X533182Y226268D02*
X535732D01*
X537500Y195601D02*
Y223783D01*
X535732Y223718D02*
Y226268D01*
X532500Y236428D02*
Y252655D01*
X535000Y238308D02*
Y252655D01*
X527500Y188000D02*
Y252655D01*
X530000Y188101D02*
Y252655D01*
X522500Y188000D02*
Y252655D01*
X525000Y188000D02*
Y252655D01*
X520000Y188000D02*
Y252655D01*
X500000Y258455D02*
Y304991D01*
X510000Y188000D02*
Y252655D01*
X497500Y258455D02*
Y305697D01*
X485000Y258455D02*
Y304250D01*
X515000Y188000D02*
Y252655D01*
X517500Y188000D02*
Y252655D01*
X512500Y188000D02*
Y252655D01*
X532500Y190601D02*
Y233036D01*
X535000Y193101D02*
Y223307D01*
X505000Y188000D02*
Y252655D01*
X507500Y188000D02*
Y252655D01*
X500000Y188000D02*
Y252655D01*
X502500Y188000D02*
Y252655D01*
X497500Y188000D02*
Y252655D01*
X485000Y188000D02*
Y252655D01*
X487500Y188000D02*
Y252655D01*
X480000Y188000D02*
Y252655D01*
X482500Y188000D02*
Y252655D01*
X492500Y188000D02*
Y252655D01*
X495000Y188000D02*
Y252655D01*
X490000Y188000D02*
Y252655D01*
X467223Y318046D02*
X477792D01*
X466677Y317500D02*
X478503D01*
X475000Y297100D02*
Y318046D01*
X477500Y297100D02*
Y318046D01*
X470000Y297100D02*
Y318046D01*
X472500Y297100D02*
Y318046D01*
X467500Y297100D02*
Y318046D01*
X466146Y323246D02*
X477792D01*
X464177Y315000D02*
X484150D01*
X456100Y306923D02*
X467223Y318046D01*
X461677Y312500D02*
X484150D01*
X465000Y297100D02*
Y315823D01*
X470000Y259996D02*
Y291900D01*
X463577D02*
X477938D01*
X465000Y262154D02*
Y291900D01*
X467500Y261710D02*
Y291900D01*
X475000Y258455D02*
Y291900D01*
X477500Y258455D02*
Y291900D01*
X472500Y258455D02*
Y291900D01*
X456677Y307500D02*
X484750D01*
X456100Y305000D02*
X484750D01*
X459177Y310000D02*
X484150D01*
X456100Y297500D02*
X478421D01*
X462500Y297100D02*
X477938D01*
X425100Y322500D02*
X464323D01*
X451661Y309839D02*
X464307Y322484D01*
X425100Y313000D02*
Y329000D01*
Y320000D02*
X461823D01*
X462500Y297100D02*
Y313323D01*
X460000Y295677D02*
Y310823D01*
X425100Y317500D02*
X459323D01*
X425100Y315000D02*
X456823D01*
X425051Y312500D02*
X454323D01*
X459600Y287923D02*
X463577Y291900D01*
X462500Y261613D02*
Y290823D01*
X459600Y260000D02*
X460239D01*
X459600Y250000D02*
X461554D01*
X460000Y259722D02*
Y288323D01*
X457500Y293177D02*
Y308323D01*
X456100Y295000D02*
X459323D01*
X456100Y292500D02*
X456823D01*
X456100Y291777D02*
X460662Y296339D01*
X459600Y259176D02*
Y287923D01*
X456100Y291777D02*
Y306923D01*
X470000Y208649D02*
Y251114D01*
X467500Y210668D02*
Y249400D01*
X465000Y211160D02*
Y248956D01*
X465118Y205161D02*
Y210661D01*
X475000Y188000D02*
Y252655D01*
X477500Y188000D02*
Y252655D01*
X472500Y188000D02*
Y252655D01*
X459600Y237500D02*
X533353D01*
X459600Y230000D02*
X544750D01*
X459600Y235000D02*
X532092D01*
X459600Y232500D02*
X532844D01*
X459600Y227500D02*
X532942D01*
X459600Y225000D02*
X532958D01*
X471116Y205000D02*
X546899D01*
X470496Y202500D02*
X544399D01*
X465118Y205161D02*
X470618D01*
X468178Y200000D02*
X541899D01*
X470000Y188000D02*
Y201673D01*
X467500Y188000D02*
Y199654D01*
X465118Y199661D02*
Y205161D01*
X459600Y197500D02*
X539399D01*
X459600Y195000D02*
X536899D01*
X459677Y192500D02*
X534399D01*
X462177Y190000D02*
X531899D01*
X464177Y188000D02*
X529899D01*
X465000D02*
Y199162D01*
X415000Y188000D02*
Y310400D01*
X417500Y188000D02*
Y310400D01*
X410000Y188000D02*
Y310400D01*
X412500Y188000D02*
Y310400D01*
X425000Y188000D02*
Y312286D01*
X422500Y188000D02*
Y310400D01*
X420000Y188000D02*
Y310400D01*
X387500Y188000D02*
Y310400D01*
X390000Y188000D02*
Y310400D01*
X382500Y188000D02*
Y310400D01*
X385000Y188000D02*
Y310400D01*
X405000Y188000D02*
Y310400D01*
X407500Y188000D02*
Y310400D01*
X392500Y188000D02*
Y310400D01*
X462500Y210560D02*
Y249497D01*
X459600Y200000D02*
X462058D01*
X459600Y207517D02*
Y251934D01*
X460000Y208293D02*
Y251388D01*
X462500Y189677D02*
Y199762D01*
X459600Y192577D02*
X464177Y188000D01*
X460000Y192177D02*
Y202029D01*
X459600Y210000D02*
X461571D01*
X459600Y192577D02*
Y202805D01*
X402500Y188000D02*
Y310400D01*
X450900Y188000D02*
Y308000D01*
X397500Y188000D02*
Y310400D01*
X400000Y188000D02*
Y310400D01*
X395000Y188000D02*
Y310400D01*
X373004Y618646D02*
X374988D01*
X378531Y616480D02*
X380516D01*
X372503Y616799D02*
Y619900D01*
Y616161D02*
Y616799D01*
Y616161D02*
Y616799D01*
X373004Y614315D02*
X374988D01*
X372500Y613068D02*
Y619900D01*
X372503Y613068D02*
Y616161D01*
X370189Y619900D02*
X372503D01*
X371903Y613068D02*
X372503D01*
X371903Y608739D02*
Y613068D01*
Y606899D02*
Y608739D01*
Y604408D02*
Y606899D01*
X362381Y605000D02*
X371903D01*
Y606899D02*
Y608739D01*
Y600076D02*
Y602569D01*
Y598239D02*
Y600076D01*
Y602569D02*
Y604408D01*
Y602569D02*
Y604408D01*
Y595746D02*
Y598239D01*
Y593907D02*
Y595746D01*
Y598239D02*
Y600076D01*
Y593907D02*
Y595746D01*
X371150Y595000D02*
X371903D01*
X362156Y602500D02*
X371903D01*
X360579Y597500D02*
X371903D01*
Y592194D02*
Y593907D01*
X370985Y592194D02*
X371903D01*
X371117Y592500D02*
X371903D01*
X370189Y618327D02*
Y619900D01*
X365220Y618327D02*
X370189D01*
X362500Y604550D02*
Y619900D01*
X365220Y618327D02*
Y619900D01*
X367500Y597439D02*
Y618327D01*
X370000Y596633D02*
Y618327D01*
X365000Y596246D02*
Y619900D01*
X360000Y607009D02*
Y619900D01*
X357197D02*
X365220D01*
X357197Y618327D02*
Y619900D01*
X357500Y606303D02*
Y619900D01*
X359500Y604000D02*
Y606550D01*
X355000Y595536D02*
Y618327D01*
X362500Y596900D02*
Y603450D01*
X361062Y597100D02*
X361500D01*
X363338Y596339D02*
X364379Y595298D01*
X356950Y604000D02*
X359500D01*
X362050D01*
X359500Y601450D02*
Y604000D01*
X357500Y598010D02*
Y601697D01*
X360000Y597827D02*
Y600991D01*
X355000Y592794D02*
Y593464D01*
X378531Y586165D02*
X380516D01*
X377286Y583680D02*
X381015D01*
X378531Y584180D02*
Y586165D01*
X377286Y583080D02*
Y583680D01*
X380000Y582616D02*
Y583680D01*
X377500Y582677D02*
Y583680D01*
X374519Y589250D02*
X375447D01*
X376801Y583680D02*
X377286D01*
X374519Y589576D02*
X375447D01*
Y589250D02*
Y589576D01*
X376801Y583376D02*
X377097Y583080D01*
X378280Y581897D01*
X376801Y583376D02*
Y583680D01*
X380000Y564677D02*
Y567400D01*
X379677Y565000D02*
X426900D01*
X377677Y582500D02*
X379464D01*
X377500Y566551D02*
Y567400D01*
X378838Y565838D02*
X395339Y549338D01*
X379050Y530680D02*
Y541010D01*
X377500Y529177D02*
Y542560D01*
X370500Y567400D02*
X419938D01*
X367077Y566600D02*
X377000D01*
X371760Y548300D02*
X379050Y541010D01*
X364350Y542500D02*
X377560D01*
X364350Y545000D02*
X375060D01*
X374519Y589250D02*
Y589576D01*
X375000Y589250D02*
Y589576D01*
X366177Y567500D02*
X369786D01*
X370000Y566600D02*
Y567449D01*
X367500Y566600D02*
Y569323D01*
X361643Y572500D02*
X364323D01*
X363677Y570000D02*
X366823D01*
X361643Y572034D02*
Y575180D01*
X362500Y571177D02*
Y574323D01*
X361643Y575180D02*
X368661Y568161D01*
X361643Y572034D02*
X367077Y566600D01*
X365000Y568677D02*
Y571823D01*
X372500Y566600D02*
Y567400D01*
X375000Y566600D02*
Y567400D01*
X365000Y533004D02*
Y548300D01*
X367500Y533710D02*
Y548300D01*
X372500Y524177D02*
Y547560D01*
X375000Y526677D02*
Y545060D01*
X370000Y531251D02*
Y548300D01*
X362500Y547350D02*
Y548300D01*
X356650Y547350D02*
X364350D01*
X357500D02*
Y548300D01*
X360000Y547350D02*
Y548300D01*
X356650Y545899D02*
Y547350D01*
X364350Y539650D02*
Y547350D01*
X355000Y545899D02*
Y548300D01*
X352228Y618327D02*
X357197D01*
X350514Y617500D02*
X372503D01*
X350514Y619900D02*
X352228D01*
Y618327D02*
Y619900D01*
X352500Y592794D02*
Y618327D01*
X350514Y615561D02*
Y617400D01*
Y619900D01*
Y615000D02*
X372503D01*
X350514Y612500D02*
X371903D01*
X350514Y615561D02*
Y617400D01*
Y613068D02*
Y615561D01*
Y611231D02*
Y613068D01*
Y610000D02*
X371903D01*
X350514Y606899D02*
Y608739D01*
Y607500D02*
X371903D01*
X350514Y605000D02*
X356619D01*
X350514Y602569D02*
Y604408D01*
Y602569D02*
Y604408D01*
X351628Y592794D02*
X353467D01*
X355274D01*
X351628D02*
X353467D01*
X350514Y602500D02*
X356844D01*
X350514Y600000D02*
X371903D01*
X350514Y604408D02*
Y606899D01*
Y600076D02*
Y602569D01*
Y597500D02*
X356421D01*
X350514Y595000D02*
X354884D01*
X350514Y592794D02*
X351628D01*
X350514Y606899D02*
Y608739D01*
Y598239D02*
Y600076D01*
Y611231D02*
Y613068D01*
Y608739D02*
Y611231D01*
Y595746D02*
Y598239D01*
Y593907D02*
Y595746D01*
Y598239D02*
Y600076D01*
Y593907D02*
Y595746D01*
Y592794D02*
Y593907D01*
X340600Y585609D02*
X341402Y586411D01*
X341901Y586165D02*
X343886D01*
X341402Y583680D02*
Y586411D01*
X340600Y585000D02*
X341402D01*
X346371Y583680D02*
X347782D01*
X346603Y582500D02*
X347782D01*
X345732Y583680D02*
X346371D01*
X345732D02*
X346371D01*
X343886Y581114D02*
X346436D01*
X346725Y580000D02*
X347782D01*
X343886Y578564D02*
Y581114D01*
X341402Y583680D02*
X342238D01*
X341336Y581114D02*
X343886D01*
X326177Y582500D02*
X327400D01*
X340600D02*
X341169D01*
X340600Y580000D02*
X341047D01*
X323677D02*
X327400D01*
X347782Y563618D02*
Y583680D01*
X340600Y575000D02*
X347782D01*
X347500Y557600D02*
Y583680D01*
X348544Y561779D02*
X352723Y557600D01*
X345000D02*
Y578275D01*
X340600Y570000D02*
X347782D01*
X340600Y567500D02*
X347782D01*
X340600Y577500D02*
X347782D01*
X340600Y572500D02*
X347782D01*
X340600Y565000D02*
X347782D01*
X340600Y562500D02*
X348035D01*
X340600Y560577D02*
X343577Y557600D01*
X350000D02*
Y560323D01*
X352500Y545899D02*
Y548300D01*
X345000Y546627D02*
Y548300D01*
X347500Y546809D02*
Y548300D01*
X350000Y545899D02*
Y548300D01*
X349062Y545899D02*
X356650D01*
X341377Y548300D02*
X371760D01*
X342177Y547500D02*
X372560D01*
X341177Y560000D02*
X350323D01*
X343577Y557600D02*
X352723D01*
X341377Y548300D02*
X343338Y546339D01*
X340600Y560577D02*
Y585609D01*
X311600Y575000D02*
X327400D01*
X320838Y577162D02*
X327400Y583723D01*
X321177Y577500D02*
X327400D01*
Y551000D02*
Y583723D01*
X342500Y558677D02*
Y578397D01*
X325000Y508677D02*
Y581323D01*
X311600Y567500D02*
X327400D01*
X311600Y565000D02*
X327400D01*
X311600Y572500D02*
X327400D01*
X311600Y570000D02*
X327400D01*
X311600Y560000D02*
X327400D01*
X310177Y557500D02*
X327400D01*
X311600Y562500D02*
X327400D01*
X328162Y549161D02*
X336400Y540923D01*
X342500Y547177D02*
Y548300D01*
X332500Y534082D02*
Y544823D01*
X330000Y513677D02*
Y547323D01*
X335000Y533857D02*
Y542323D01*
X327500Y511177D02*
Y550286D01*
X290177Y550000D02*
X327600D01*
X307677Y555000D02*
X327400D01*
X292677Y552500D02*
X327400D01*
X318850Y545000D02*
X332323D01*
X318850Y542500D02*
X334823D01*
X289100Y547500D02*
X329823D01*
X364350Y540000D02*
X379050D01*
X369463Y532500D02*
X379050D01*
X363750Y534250D02*
Y539650D01*
X364350D01*
X367000Y528151D02*
Y530701D01*
Y533251D01*
X364450Y530701D02*
X367000D01*
X363750Y537500D02*
X379050D01*
X363750Y535000D02*
X379050D01*
X357750Y537500D02*
X360500D01*
X363250D01*
X362500Y514177D02*
Y534250D01*
X357250D02*
X363750D01*
X360500Y534750D02*
Y537500D01*
X378528Y530158D02*
X379050Y530680D01*
X378177Y487500D02*
X426900D01*
X373177Y482500D02*
X426900D01*
X370677Y480000D02*
X426900D01*
X375677Y485000D02*
X426900D01*
X370000Y521677D02*
Y530151D01*
X369968Y530000D02*
X378330D01*
X367000Y530701D02*
X369550D01*
X367500Y519177D02*
Y527692D01*
X349661Y501338D02*
X378212Y529889D01*
X370458Y479781D02*
X395339Y504662D01*
X365000Y516677D02*
Y528398D01*
X357250Y534250D02*
Y539650D01*
X360000Y511677D02*
Y534250D01*
X356650Y539650D02*
Y540699D01*
Y539650D02*
X357250D01*
X357500Y509177D02*
Y534250D01*
X354100Y498423D02*
X357384Y501707D01*
X355000Y506677D02*
Y540699D01*
X349062D02*
X356650D01*
X348062Y540000D02*
X356650D01*
X350000Y501677D02*
Y540699D01*
X352500Y504177D02*
Y540699D01*
X347500Y485177D02*
Y539789D01*
X354100Y495000D02*
X357384D01*
X354100Y492500D02*
X357384D01*
X355677Y500000D02*
X357384D01*
X354100Y497500D02*
X357384D01*
X354100Y490000D02*
X357384D01*
X354100Y487500D02*
X357384D01*
X354100Y485500D02*
Y498423D01*
X354051Y485000D02*
X357384D01*
X348900Y486577D02*
Y499500D01*
X352177Y482500D02*
X357384D01*
X349677Y480000D02*
X357384D01*
X348838Y479162D02*
X353339Y483662D01*
X370549Y462500D02*
X426900D01*
X370549Y460000D02*
X426900D01*
X377500Y454729D02*
Y486823D01*
X370549Y456632D02*
Y464769D01*
X380000Y454729D02*
Y489323D01*
X375000Y454729D02*
Y484323D01*
X372500Y454729D02*
Y481823D01*
X370458Y472500D02*
X426900D01*
X370458Y470000D02*
X426900D01*
X370458Y477500D02*
X426900D01*
X370458Y475000D02*
X426900D01*
X370458Y467500D02*
X426900D01*
X370458Y465000D02*
X426900D01*
X370458Y464769D02*
Y479781D01*
X370549Y457500D02*
X426900D01*
X368581Y456632D02*
X370549D01*
X365167D02*
X366612D01*
X368581D01*
X366612D02*
X368581D01*
X370876Y454729D02*
X382950D01*
X365167Y456632D02*
X366612D01*
X364644D02*
X365167D01*
X366612D01*
X363199D02*
X364644D01*
X365167D01*
X356679Y455000D02*
X426900D01*
X356679Y452500D02*
X370876D01*
X356679Y450000D02*
X370876D01*
X357384Y473850D02*
Y501707D01*
X351850Y473850D02*
X357384D01*
X355000D02*
Y499323D01*
X352500Y473850D02*
Y482823D01*
X361230Y456632D02*
X362674D01*
X361230D02*
X362674D01*
X359262D02*
X361230D01*
X350150Y473850D02*
X351850D01*
X350150D02*
X351850D01*
X350000D02*
Y480323D01*
X347500Y473850D02*
Y478448D01*
X347451Y457600D02*
Y462371D01*
X361230Y456632D02*
X362674D01*
X363199D01*
X358737D02*
X359262D01*
X361230D01*
X363199D02*
X364644D01*
X363199D02*
X364644D01*
X362674D02*
X363199D01*
X357294D02*
X358737D01*
X357294D02*
X358737D01*
X356769D02*
X357294D01*
X347124Y450000D02*
X351479D01*
X347124Y452400D02*
X350500D01*
X344100Y537500D02*
X357250D01*
X344100Y535000D02*
X357250D01*
X344100Y540000D02*
X344938D01*
X344100Y532500D02*
X364537D01*
X344100Y530000D02*
X364032D01*
X344100Y518000D02*
Y540549D01*
Y527500D02*
X375823D01*
X344100Y525000D02*
X373323D01*
X289100Y522500D02*
X336400D01*
X344100D02*
X370823D01*
X344100Y520000D02*
X368323D01*
X344052Y517500D02*
X365823D01*
X342177Y515000D02*
X363323D01*
X339677Y512500D02*
X360823D01*
X337177Y510000D02*
X358323D01*
X334677Y507500D02*
X355823D01*
X332177Y505000D02*
X353323D01*
X329677Y502500D02*
X350823D01*
X327177Y500000D02*
X348949D01*
X324677Y497500D02*
X348900D01*
X322177Y495000D02*
X348900D01*
X319677Y492500D02*
X348900D01*
X317177Y490000D02*
X348900D01*
X314677Y487500D02*
X348900D01*
X312177Y485000D02*
X347323D01*
X336400Y532146D02*
Y540923D01*
X333500Y531201D02*
Y533751D01*
X330950Y531201D02*
X333500D01*
Y528651D02*
Y531201D01*
X336400Y520077D02*
Y530256D01*
X335000Y518677D02*
Y528545D01*
X332500Y516177D02*
Y528320D01*
X318850Y540000D02*
X336400D01*
X318250Y537500D02*
X336400D01*
X318250Y535000D02*
X336400D01*
X289100Y532500D02*
X330740D01*
X289100Y527500D02*
X336400D01*
X289100Y530000D02*
X330696D01*
X328150Y484850D02*
X329850D01*
X335850D01*
X327500D02*
Y500323D01*
X328150Y484850D02*
X329850D01*
X335000D02*
Y507823D01*
X332500Y484850D02*
Y505323D01*
X330000Y484850D02*
Y502823D01*
X289100Y525000D02*
X336400D01*
X289100Y520000D02*
X336323D01*
X289100Y517500D02*
X333823D01*
X290069Y515000D02*
X331323D01*
X290240Y512500D02*
X328823D01*
X288155Y510000D02*
X326323D01*
X242100Y507500D02*
X323823D01*
X345000Y483600D02*
Y539971D01*
X345923Y483600D02*
X348900Y486577D01*
X342500Y483600D02*
Y515323D01*
X340000Y483600D02*
Y512823D01*
X345000Y473850D02*
Y478400D01*
X344150Y473850D02*
X350150D01*
X342500Y457600D02*
Y478400D01*
X335850Y477500D02*
X357384D01*
X330000Y475000D02*
X357384D01*
X335850Y483600D02*
X345923D01*
X335850Y478400D02*
X347000D01*
X298600Y471423D02*
X343338Y516161D01*
X340000Y457600D02*
Y478400D01*
X337500Y457600D02*
Y478400D01*
X344150Y466150D02*
X345400D01*
X344150D02*
Y473850D01*
X345400Y465500D02*
Y466150D01*
X346162Y463661D02*
X347451Y462371D01*
X345000Y457600D02*
Y466150D01*
X330000Y467500D02*
X344150D01*
X330000Y465000D02*
X345448D01*
X330000Y472500D02*
X344150D01*
X330000Y470000D02*
X344150D01*
X329850Y460000D02*
X347451D01*
X330077Y457600D02*
X347451D01*
X329850Y462500D02*
X347323D01*
X337500Y483600D02*
Y510323D01*
X335850Y483600D02*
Y484850D01*
Y477150D02*
Y478400D01*
X330000Y471500D02*
Y477150D01*
X332500Y457600D02*
Y477150D01*
X335000Y457600D02*
Y477150D01*
X330000Y471500D02*
Y477150D01*
X290662Y474338D02*
X336400Y520077D01*
X330000Y477150D02*
X335850D01*
X325000Y484850D02*
Y497823D01*
X322150Y484850D02*
X328150D01*
X330000Y463500D02*
Y471500D01*
Y463500D02*
Y471500D01*
X322000D02*
X330000D01*
Y457677D02*
Y463500D01*
X329850Y457827D02*
X330077Y457600D01*
X329850Y457827D02*
Y463500D01*
X324162Y456161D02*
X327162Y453161D01*
X329000Y452400D02*
X335050D01*
X322000Y471500D02*
X330000D01*
X298600Y457500D02*
X323448D01*
X298600Y452500D02*
X328286D01*
X299053Y450000D02*
X335050D01*
X298600Y455000D02*
X325323D01*
X300000Y617677D02*
Y638500D01*
X300400Y622500D02*
Y638500D01*
X304677Y585000D02*
X308464D01*
X304600Y584923D02*
X306344Y586667D01*
X307500Y583177D02*
Y585447D01*
X295000Y612677D02*
Y638500D01*
X297500Y615177D02*
Y638500D01*
X290000Y607677D02*
Y638500D01*
X292500Y610177D02*
Y638500D01*
X289161Y606839D02*
X302315Y619992D01*
X313077Y581400D02*
X313750D01*
X311600Y577500D02*
X313173D01*
X311600Y579923D02*
X313077Y581400D01*
X311677Y580000D02*
X312990D01*
X307161Y582838D02*
X309187Y584864D01*
X304600Y582500D02*
X306876D01*
X304600Y577500D02*
X306400D01*
X304600Y575000D02*
X306400D01*
X304600Y580000D02*
X306400D01*
X287500Y592900D02*
Y638500D01*
X288400Y592900D02*
Y605000D01*
X282500Y592900D02*
Y638500D01*
X285000Y592900D02*
Y638500D01*
X282100Y592900D02*
X288400D01*
X281000Y591600D02*
X282100D01*
Y592900D01*
X277500Y589177D02*
Y638500D01*
X280000Y591400D02*
Y638500D01*
X276661Y588339D02*
X279162Y590838D01*
X275000Y579247D02*
Y638500D01*
X283200Y584000D02*
X286000D01*
X282100Y585100D02*
Y586400D01*
Y585100D02*
X282889D01*
X283200Y579000D02*
X286000D01*
X282500Y575721D02*
Y585100D01*
X281100Y585000D02*
X282855D01*
X281100Y582500D02*
X283061D01*
X281100Y585423D02*
X282077Y586400D01*
X281100Y580000D02*
X282855D01*
X281100Y577500D02*
X283061D01*
X275550D02*
X275900D01*
X315000Y547350D02*
Y575672D01*
X317500Y547350D02*
Y575490D01*
X306400Y561077D02*
Y581000D01*
X311600Y560000D02*
Y579923D01*
X322500Y506177D02*
Y578823D01*
X320000Y503677D02*
Y576600D01*
X312500Y547350D02*
Y580823D01*
X304600Y572500D02*
X306400D01*
X304124Y570000D02*
X306400D01*
X304600Y571500D02*
Y584923D01*
X305000Y559677D02*
Y585323D01*
X301339Y567162D02*
X303838Y569662D01*
X306838Y554162D02*
X310839Y558161D01*
X310000Y546100D02*
Y557323D01*
X307500Y546100D02*
Y554823D01*
X301677Y567500D02*
X306400D01*
X281100Y565000D02*
X306400D01*
X281100Y562500D02*
X306400D01*
X281100Y560000D02*
X305323D01*
X303923Y558600D02*
X306400Y561077D01*
X292500Y558600D02*
X303923D01*
X302500D02*
Y568323D01*
X282500Y570720D02*
Y572280D01*
X300000Y558600D02*
Y566448D01*
X295000Y558600D02*
Y566400D01*
X282500Y555616D02*
Y567279D01*
X281100Y572500D02*
X282400D01*
X281100Y567500D02*
X282400D01*
X281100Y575000D02*
X282230D01*
X281100Y570000D02*
X282230D01*
X281100Y555537D02*
Y585423D01*
X275900Y554600D02*
Y586500D01*
X297500Y558600D02*
Y566400D01*
X293907D02*
X299500D01*
X292500Y558600D02*
Y565400D01*
X300000Y546553D02*
Y553400D01*
X290000Y557177D02*
Y565230D01*
X281100Y557500D02*
X290323D01*
X287500Y554677D02*
Y565400D01*
X284079Y555000D02*
X287823D01*
X285572Y552749D02*
X290662Y557838D01*
X285000Y554079D02*
Y565230D01*
X143874Y635000D02*
X300400D01*
X142777Y632500D02*
X300400D01*
X144400Y638500D02*
X300400D01*
X144358Y637500D02*
X300400D01*
X137040Y627500D02*
X300400D01*
X132500Y625000D02*
X300400D01*
X140828Y630000D02*
X300400D01*
X132500Y622500D02*
X300400D01*
X132500Y620000D02*
X302286D01*
X132500Y617500D02*
X299823D01*
X132500Y615000D02*
X297323D01*
X132500Y612500D02*
X294823D01*
X132500Y610000D02*
X292323D01*
X132500Y607500D02*
X289823D01*
X132500Y597500D02*
X288400D01*
X132500Y595000D02*
X288400D01*
X132500Y605000D02*
X288400D01*
X132500Y602500D02*
X288400D01*
X132500Y592500D02*
X282100D01*
X274247Y580000D02*
X275900D01*
X274247Y575000D02*
X275900D01*
X132500Y600000D02*
X288400D01*
X132500Y590000D02*
X278323D01*
X132500Y587500D02*
X276100D01*
X132500Y585000D02*
X275900D01*
X132500Y572500D02*
X275900D01*
X132500Y570000D02*
X275900D01*
X132500Y582500D02*
X275900D01*
X270000Y579247D02*
Y638500D01*
X272500Y580550D02*
Y638500D01*
X235000Y569100D02*
Y638500D01*
X237500Y569100D02*
Y638500D01*
X230000Y569100D02*
Y638500D01*
X232500Y569100D02*
Y638500D01*
X227500Y569100D02*
Y638500D01*
X200000Y569100D02*
Y638500D01*
X202500Y569100D02*
Y638500D01*
X197500Y569100D02*
Y638500D01*
X220000Y569100D02*
Y638500D01*
X225000Y569100D02*
Y638500D01*
X217500Y569100D02*
Y638500D01*
X269950Y577500D02*
X272500D01*
X275050D01*
X272500D02*
Y580050D01*
Y574950D02*
Y577500D01*
X215000Y569100D02*
Y638500D01*
X212500Y569100D02*
Y638500D01*
X132500Y580000D02*
X270753D01*
X132500Y575000D02*
X270753D01*
X207500Y569100D02*
Y638500D01*
X132500Y577500D02*
X269450D01*
X205000Y569100D02*
Y638500D01*
X210000Y569100D02*
Y638500D01*
X195000Y569100D02*
Y638500D01*
X265000Y554600D02*
Y638500D01*
X267500Y554600D02*
Y638500D01*
X260000Y554600D02*
Y638500D01*
X262500Y554600D02*
Y638500D01*
X275000Y554600D02*
Y575753D01*
X272500Y554600D02*
Y574450D01*
X270000Y554600D02*
Y575753D01*
X255000Y554600D02*
Y638500D01*
X257500Y554600D02*
Y638500D01*
X240000Y569052D02*
Y638500D01*
X252500Y554600D02*
Y638500D01*
X247500Y552177D02*
Y638500D01*
X250000Y554400D02*
Y638500D01*
X245000Y549214D02*
Y638500D01*
X242100Y565000D02*
X275900D01*
X242100Y562500D02*
X275900D01*
X242100Y565000D02*
Y566500D01*
X251000Y554600D02*
X275900D01*
X245661Y550339D02*
X249162Y553838D01*
X241900Y567500D02*
X275900D01*
X149500Y569100D02*
X239500D01*
X242100Y557500D02*
X275900D01*
X242100Y555000D02*
X275900D01*
X242100Y560000D02*
X275900D01*
X185000Y569100D02*
Y638500D01*
X187500Y569100D02*
Y638500D01*
X180000Y569100D02*
Y638500D01*
X182500Y569100D02*
Y638500D01*
X192500Y569100D02*
Y638500D01*
X222500Y569100D02*
Y638500D01*
X190000Y569100D02*
Y638500D01*
X167500Y569100D02*
Y638500D01*
X170000Y569100D02*
Y638500D01*
X162500Y569100D02*
Y638500D01*
X165000Y569100D02*
Y638500D01*
X175000Y569100D02*
Y638500D01*
X177500Y569100D02*
Y638500D01*
X172500Y569100D02*
Y638500D01*
X157500Y569100D02*
Y638500D01*
X160000Y569100D02*
Y638500D01*
X152500Y569100D02*
Y638500D01*
X155000Y569100D02*
Y638500D01*
X150000Y569100D02*
Y638500D01*
X147500Y568161D02*
Y638500D01*
X132500Y567500D02*
X147100D01*
X132500Y565000D02*
X146900D01*
X132500Y562500D02*
X146900D01*
X132500Y557500D02*
X146900D01*
X132500Y555000D02*
X146900D01*
X132500Y560000D02*
X146900D01*
X311150Y546100D02*
Y547350D01*
X318850D01*
X305000Y546100D02*
Y553400D01*
X311150Y539650D02*
Y540900D01*
X318850Y539650D02*
Y547350D01*
X310000Y493677D02*
Y540900D01*
X307500Y491177D02*
Y540900D01*
X293577Y553400D02*
X305000D01*
X300562Y546100D02*
X311150D01*
X297500Y547116D02*
Y553400D01*
X302500Y546100D02*
Y553400D01*
X300562Y540900D02*
X311150D01*
X289100Y540000D02*
X296964D01*
X318250Y534250D02*
Y539650D01*
X318850D01*
X315000Y534750D02*
Y537500D01*
X317750D01*
X315000Y498677D02*
Y534250D01*
X317500Y501177D02*
Y534250D01*
X312500Y496177D02*
Y534250D01*
X311150Y539650D02*
X311750D01*
X312250Y537500D02*
X315000D01*
X299036Y540000D02*
X311150D01*
X289100Y537500D02*
X311750D01*
Y534250D02*
Y539650D01*
Y534250D02*
X318250D01*
X289100Y535000D02*
X311750D01*
X295000Y545579D02*
Y553400D01*
X289100Y545000D02*
X294672D01*
X289100Y548923D02*
X293577Y553400D01*
X282500Y532948D02*
Y548384D01*
X290000Y515155D02*
Y549823D01*
X289100Y516368D02*
Y548923D01*
X283900Y516368D02*
Y548883D01*
X265350Y547500D02*
X283900D01*
X265000Y547850D02*
Y549400D01*
X278500D02*
X279438D01*
X277500Y532948D02*
Y549400D01*
X280000Y534251D02*
Y548947D01*
X265350Y540150D02*
Y547850D01*
X289100Y542500D02*
X294490D01*
X282759Y532500D02*
X283900D01*
X280000Y531201D02*
Y533751D01*
X282804Y530000D02*
X283900D01*
X280000Y528651D02*
Y531201D01*
X264750Y540000D02*
X283900D01*
X264750Y537500D02*
X283900D01*
X265350Y545000D02*
X283900D01*
X265350Y542500D02*
X283900D01*
X280000Y531201D02*
X282550D01*
X277450D02*
X280000D01*
X322500Y484850D02*
Y495323D01*
X322150Y479500D02*
Y484850D01*
X320000Y474900D02*
Y492823D01*
X321400Y472500D02*
X322000D01*
Y471500D02*
Y479500D01*
X321400Y468100D02*
Y474900D01*
X318000Y468600D02*
Y471500D01*
X309677Y482500D02*
X322150D01*
X307177Y480000D02*
X322150D01*
X304677Y477500D02*
X322000D01*
X302177Y475000D02*
X322000D01*
X314600Y474900D02*
X321400D01*
X318000Y471500D02*
Y474400D01*
X315100Y471500D02*
X318000D01*
X322000Y464750D02*
Y471500D01*
X321400Y470000D02*
X322000D01*
X320000Y464750D02*
Y468100D01*
Y461500D02*
Y464250D01*
X322150Y457650D02*
Y458250D01*
Y457650D02*
X323424D01*
X320000Y458750D02*
Y461500D01*
X298600Y467500D02*
X322000D01*
X298600Y465000D02*
X322000D01*
X318000Y471500D02*
X320900D01*
X314600Y468100D02*
X321400D01*
X316750Y464750D02*
X322000D01*
X316750Y458250D02*
X322150D01*
X317250Y461500D02*
X320000D01*
X302500Y486177D02*
Y540900D01*
X305000Y488677D02*
Y540900D01*
X300000Y483677D02*
Y540447D01*
X297500Y481177D02*
Y539884D01*
X317500Y474900D02*
Y490323D01*
X315000Y474900D02*
Y487823D01*
X314600Y468100D02*
Y474900D01*
X292500Y476177D02*
Y552323D01*
X295000Y478677D02*
Y541421D01*
X290000Y473214D02*
Y511845D01*
X285000Y466407D02*
Y509931D01*
X287500Y466615D02*
Y509760D01*
X267500Y448953D02*
Y549400D01*
X317500Y464750D02*
Y468100D01*
X298600Y462500D02*
X316750D01*
X299677Y472500D02*
X314600D01*
X298600Y470000D02*
X314600D01*
X316750Y458250D02*
Y464750D01*
X298600Y460000D02*
X316750D01*
X298600Y450562D02*
Y471423D01*
X289407Y465000D02*
X289900D01*
X283729Y463500D02*
X286500D01*
X289271D01*
X286500Y460729D02*
Y463500D01*
Y466271D01*
X262500Y547850D02*
Y549400D01*
X257650Y547850D02*
X265350D01*
X260000D02*
Y549400D01*
X257650Y546399D02*
Y547850D01*
X264750Y534750D02*
Y540150D01*
X265350D01*
X258250Y534750D02*
Y540150D01*
X252077Y549400D02*
X278500D01*
X250177Y547500D02*
X257650D01*
X250100Y546399D02*
X257650D01*
X250062Y541199D02*
X257650D01*
Y540150D02*
X258250D01*
X242100Y540000D02*
X258250D01*
X257650Y540150D02*
Y541199D01*
X258750Y538000D02*
X261500D01*
X264250D01*
X261500Y535250D02*
Y538000D01*
X242100Y537500D02*
X258250D01*
X264750Y535000D02*
X283900D01*
X242100Y522500D02*
X283900D01*
X258250Y534750D02*
X264750D01*
X242100Y532500D02*
X277240D01*
X242100Y527500D02*
X283900D01*
X242100Y535000D02*
X258250D01*
X242100Y530000D02*
X277196D01*
X242100Y520000D02*
X283900D01*
X242100Y517500D02*
X283900D01*
X242100Y525000D02*
X283900D01*
X250100Y547423D02*
X252077Y549400D01*
X250100Y546399D02*
Y547423D01*
X255000Y546399D02*
Y549400D01*
X257500Y546399D02*
Y549400D01*
X252500Y546399D02*
Y549400D01*
X242100Y552500D02*
X247823D01*
X242100Y550000D02*
X245376D01*
X132500Y552500D02*
X146900D01*
X132500Y550000D02*
X146900D01*
X244900Y546361D02*
Y548500D01*
X242100Y547500D02*
X244900D01*
X132500D02*
X146900D01*
X242100Y545000D02*
X244053D01*
X242100Y542500D02*
X244089D01*
X132500Y545000D02*
X146900D01*
X132500Y542500D02*
X146900D01*
X132500Y540000D02*
X146900D01*
X132500Y537500D02*
X146900D01*
X132500Y530000D02*
X146900D01*
X132500Y527500D02*
X146900D01*
X132500Y535000D02*
X146900D01*
X132500Y532500D02*
X146900D01*
X132500Y522500D02*
X146900D01*
X132500Y520000D02*
X146900D01*
X132500Y525000D02*
X146900D01*
X242100Y510000D02*
X284845D01*
X242100Y505000D02*
X321323D01*
X242100Y515000D02*
X282931D01*
X242100Y512500D02*
X282760D01*
X260000Y448891D02*
Y534750D01*
X242100Y502500D02*
X318823D01*
X257500Y449553D02*
Y541199D01*
X242100Y500000D02*
X316323D01*
X242100Y497500D02*
X313823D01*
X242100Y495000D02*
X311323D01*
X242100Y492500D02*
X308823D01*
X242100Y490000D02*
X306323D01*
X242100Y487500D02*
X303823D01*
X242100Y485000D02*
X301323D01*
X242100Y460000D02*
X289900D01*
X242100Y457500D02*
X289900D01*
X242100Y465000D02*
X283593D01*
X242100Y462500D02*
X283385D01*
X242100Y452500D02*
X289900D01*
X242100Y450000D02*
X289900D01*
X242100Y455000D02*
X289900D01*
X242100Y482500D02*
X298823D01*
X242100Y480000D02*
X296323D01*
X242100Y477500D02*
X293823D01*
X242100Y475000D02*
X291323D01*
X242100Y470000D02*
X289900D01*
X242100Y467500D02*
X289900D01*
X242100Y472500D02*
X289900D01*
X132500Y495000D02*
X146900D01*
X132500Y492500D02*
X146900D01*
X132500Y500000D02*
X146900D01*
X132500Y497500D02*
X146900D01*
X132500Y487500D02*
X146900D01*
X132500Y485000D02*
X146900D01*
X132500Y490000D02*
X146900D01*
X132500Y512500D02*
X146900D01*
X132500Y510000D02*
X146900D01*
X132500Y517500D02*
X146900D01*
X132500Y515000D02*
X146900D01*
X132500Y505000D02*
X146900D01*
X132500Y502500D02*
X146900D01*
X132500Y507500D02*
X146900D01*
X132500Y460000D02*
X146900D01*
X132500Y457500D02*
X146900D01*
X132500Y465000D02*
X146900D01*
X132500Y462500D02*
X146900D01*
X132500Y452500D02*
X146900D01*
X132500Y450000D02*
X146900D01*
X132500Y455000D02*
X146900D01*
X132500Y477500D02*
X146900D01*
X132500Y475000D02*
X146900D01*
X132500Y482500D02*
X146900D01*
X132500Y480000D02*
X146900D01*
X132500Y470000D02*
X146900D01*
X132500Y467500D02*
X146900D01*
X132500Y472500D02*
X146900D01*
X375000Y437100D02*
Y445411D01*
X377500Y437100D02*
Y445411D01*
X370876D02*
Y454729D01*
X372500Y437100D02*
Y445411D01*
X367500Y437100D02*
Y456632D01*
X370000Y437100D02*
Y456632D01*
X362500Y437100D02*
Y456632D01*
X365000Y437100D02*
Y456632D01*
X356679Y444641D02*
Y456632D01*
Y447500D02*
X370876D01*
X351479Y444641D02*
Y452591D01*
X347124Y447500D02*
X351479D01*
X357500Y443352D02*
Y456632D01*
X360000Y437100D02*
Y456632D01*
X350000Y437100D02*
Y452400D01*
X356679Y445000D02*
X425823D01*
X357705Y442500D02*
X423323D01*
X370876Y445411D02*
X382950D01*
X380000Y437100D02*
Y445411D01*
X357079Y440000D02*
X420823D01*
X357500Y437100D02*
Y440806D01*
X298079Y445000D02*
X351479D01*
X295100Y442500D02*
X350453D01*
X296010Y440000D02*
X351079D01*
X355000Y437100D02*
Y438547D01*
X295828Y437500D02*
X418323D01*
X352500Y437100D02*
Y438788D01*
X347124Y445411D02*
Y452400D01*
X347500Y437100D02*
Y452400D01*
X335000Y437100D02*
Y452400D01*
X335050Y445411D02*
Y452400D01*
X330000Y437100D02*
Y452400D01*
X332500Y437100D02*
Y452400D01*
X327500Y437100D02*
Y452876D01*
X289900Y441562D02*
Y472500D01*
X282500Y442100D02*
Y529454D01*
X285000Y442100D02*
Y460593D01*
X312500Y437100D02*
Y485323D01*
X315000Y437100D02*
Y468100D01*
X287500Y441177D02*
Y460385D01*
X342500Y437100D02*
Y445411D01*
X335050D02*
X347124D01*
X299616Y447500D02*
X335050D01*
X340000Y437100D02*
Y445411D01*
X345000Y437100D02*
Y445411D01*
X337500Y437100D02*
Y445411D01*
X295100Y441562D02*
Y444463D01*
X288677Y440000D02*
X288990D01*
X287338Y441338D02*
X288928Y439749D01*
X367500Y331600D02*
Y420300D01*
X370000Y331600D02*
Y420300D01*
X362500Y331600D02*
Y420300D01*
X365000Y331600D02*
Y420300D01*
X375000Y331600D02*
Y420300D01*
X377500Y331600D02*
Y420300D01*
X372500Y331600D02*
Y420300D01*
X295617Y437100D02*
X417923D01*
X303477Y420300D02*
X421900D01*
X322500Y437100D02*
Y457650D01*
X325000Y437100D02*
Y455323D01*
X357500Y331600D02*
Y420300D01*
X360000Y331600D02*
Y420300D01*
X355000Y331600D02*
Y420300D01*
X342500Y331600D02*
Y420300D01*
X345000Y331600D02*
Y420300D01*
X337500Y331600D02*
Y420300D01*
X340000Y331600D02*
Y420300D01*
X350000Y331600D02*
Y420300D01*
X352500Y331600D02*
Y420300D01*
X347500Y331600D02*
Y420300D01*
X303177Y420000D02*
X456202D01*
X300661Y417500D02*
X453860D01*
X332500Y331600D02*
Y420300D01*
X335000Y331600D02*
Y420300D01*
X327500Y331600D02*
Y420300D01*
X330000Y331600D02*
Y420300D01*
X325000Y331600D02*
Y420300D01*
X320000Y437100D02*
Y458250D01*
Y331600D02*
Y420300D01*
X310000Y437100D02*
Y482823D01*
X317500Y437100D02*
Y458250D01*
Y331600D02*
Y420300D01*
X322500Y331600D02*
Y420300D01*
X312500Y331600D02*
Y420300D01*
X302500Y437100D02*
Y475323D01*
X300000Y437100D02*
Y472823D01*
X297500Y437100D02*
Y444672D01*
X307500Y437100D02*
Y480323D01*
Y331600D02*
Y420300D01*
X305000Y437100D02*
Y477823D01*
Y331600D02*
Y420300D01*
X310000Y331600D02*
Y420300D01*
X300838Y417662D02*
X303477Y420300D01*
X315000Y331600D02*
Y420300D01*
X302500Y331124D02*
Y419323D01*
X300000Y188000D02*
Y417100D01*
X297500Y188000D02*
Y416900D01*
X292500Y188000D02*
Y416900D01*
X295000Y188000D02*
Y416900D01*
X287500Y188000D02*
Y416900D01*
X290000Y188000D02*
Y416900D01*
X285000Y188000D02*
Y416900D01*
X277500Y442100D02*
Y529454D01*
X270791Y447500D02*
X289900D01*
X270000Y448185D02*
Y549400D01*
X267500Y444500D02*
Y448453D01*
X275000Y442100D02*
Y549400D01*
X280000Y442100D02*
Y528151D01*
X272500Y442100D02*
Y549400D01*
X265000Y448185D02*
Y540150D01*
X261566Y447500D02*
X264210D01*
X255000Y448891D02*
Y541199D01*
X242100Y447500D02*
X253434D01*
X262500Y445228D02*
Y534750D01*
X271925Y445000D02*
X289900D01*
X267500Y444500D02*
X271453D01*
X262528Y445000D02*
X263075D01*
X263547Y444500D02*
X267500D01*
X271478Y442500D02*
X289900D01*
X271251Y442100D02*
X285500D01*
X262140Y442500D02*
X263522D01*
X261946Y442100D02*
X263749D01*
X262500D02*
Y443772D01*
X242100Y442500D02*
X252860D01*
X242100Y442100D02*
X253054D01*
X250500Y426900D02*
X253054D01*
X252500Y445228D02*
Y541199D01*
Y442100D02*
Y443772D01*
X245000Y442100D02*
Y541140D01*
X250000Y442100D02*
Y541140D01*
X247423Y428900D02*
X248661Y427662D01*
X247500Y442100D02*
Y540149D01*
X242100Y445000D02*
X252472D01*
X242098Y428900D02*
X247423D01*
X242500Y442100D02*
Y638500D01*
X242100Y442100D02*
Y565000D01*
X242500Y422551D02*
Y428900D01*
X241624Y427500D02*
X248839D01*
X240839Y426661D02*
X241338Y427162D01*
X252500Y425228D02*
Y426900D01*
X242585Y422500D02*
X252860D01*
X240000Y422899D02*
Y426100D01*
X132500Y425000D02*
X252472D01*
X237500Y424350D02*
Y425900D01*
X152000D02*
X239000D01*
X230150Y424350D02*
X237850D01*
Y422899D02*
X241201D01*
X237850D02*
Y424350D01*
X277500Y188000D02*
Y416900D01*
X271251D02*
X299000D01*
X275000Y188000D02*
Y416900D01*
X280000Y188000D02*
Y416900D01*
X272500Y188000D02*
Y416900D01*
X245177Y420000D02*
X255202D01*
X252500Y419553D02*
Y423772D01*
X255000Y419553D02*
Y420109D01*
X252447Y419553D02*
X256473D01*
X262553Y409447D02*
Y416900D01*
X248077Y417100D02*
X252447D01*
X271925Y415000D02*
X453472D01*
X271478Y412500D02*
X454434D01*
X267500Y410547D02*
Y414500D01*
X271453D01*
X282500Y188000D02*
Y416900D01*
X270000Y188000D02*
Y410815D01*
X267500Y188000D02*
Y410047D01*
X262553Y416900D02*
X263749D01*
X263547Y414500D02*
X267500D01*
X262553Y415000D02*
X263075D01*
X262553Y412500D02*
X263522D01*
X265000Y188000D02*
Y410815D01*
X262553Y410000D02*
X560000D01*
X252447Y409447D02*
Y411900D01*
X247500Y417677D02*
Y428823D01*
X247677Y417500D02*
X252447D01*
X245000Y420177D02*
Y428900D01*
X250000Y417100D02*
Y426948D01*
X252447Y417100D02*
Y419553D01*
X243039Y422137D02*
X248077Y417100D01*
X237850Y417500D02*
X240323D01*
X237850Y416650D02*
Y417699D01*
X240124D01*
X240000Y250350D02*
Y417699D01*
X240124D02*
X245162Y412662D01*
X237250Y411250D02*
Y416650D01*
X247500Y307509D02*
Y411900D01*
X247000D02*
X252447D01*
X245000Y305050D02*
Y412823D01*
X250000Y306803D02*
Y411900D01*
X242500Y207677D02*
Y415323D01*
X237250Y415000D02*
X242823D01*
X237250Y412500D02*
X245339D01*
X237250Y416650D02*
X237850D01*
X234000Y414500D02*
X236750D01*
X237500Y317177D02*
Y416650D01*
X229918Y410000D02*
X252447D01*
X230750Y411250D02*
X237250D01*
X252100Y272500D02*
X450900D01*
X252100Y270000D02*
X450900D01*
X253010Y277500D02*
X450900D01*
X252828Y275000D02*
X450900D01*
X252100Y255000D02*
X450900D01*
X252100Y252500D02*
X450900D01*
X252100Y267500D02*
X450900D01*
X252100Y265000D02*
X450900D01*
X250303Y302500D02*
X450900D01*
X250536Y280000D02*
X450900D01*
X248550Y307500D02*
X450900D01*
X251009Y305000D02*
X450900D01*
X252100Y260000D02*
X450900D01*
X252100Y257500D02*
X450900D01*
X252100Y262500D02*
X450900D01*
X252100Y222500D02*
X450900D01*
X252100Y220000D02*
X450900D01*
X252100Y227500D02*
X450900D01*
X252100Y225000D02*
X450900D01*
X252100Y215000D02*
X450900D01*
X252100Y212500D02*
X450900D01*
X252100Y217500D02*
X450900D01*
X252100Y245000D02*
X450900D01*
X252100Y237500D02*
X450900D01*
X252100Y250000D02*
X450900D01*
X252100Y247500D02*
X450900D01*
X252100Y232500D02*
X450900D01*
X252100Y230000D02*
X450900D01*
X252100Y235000D02*
X450900D01*
X304000Y331600D02*
X422500D01*
X301400Y313000D02*
Y329000D01*
X304000Y310400D02*
X422500D01*
X252447Y409447D02*
X262553D01*
X248000Y304500D02*
X250550D01*
X248000D02*
Y307050D01*
X245450Y304500D02*
X248000D01*
X252500Y278579D02*
Y409447D01*
X248000Y301950D02*
Y304500D01*
X252100Y242500D02*
X450900D01*
X250000Y280116D02*
Y302197D01*
X247500Y279553D02*
Y301491D01*
X252100Y211000D02*
Y273938D01*
Y240000D02*
X450900D01*
X246900Y212077D02*
Y273938D01*
X240850Y247500D02*
X246900D01*
X240850Y245000D02*
X246900D01*
X240850Y242650D02*
Y243350D01*
Y240000D02*
X246900D01*
X240850Y237500D02*
X246900D01*
X240850Y235650D02*
Y242650D01*
X370000Y188000D02*
Y310400D01*
X372500Y188000D02*
Y310400D01*
X365000Y188000D02*
Y310400D01*
X367500Y188000D02*
Y310400D01*
X377500Y188000D02*
Y310400D01*
X380000Y188000D02*
Y310400D01*
X375000Y188000D02*
Y310400D01*
X340000Y188000D02*
Y310400D01*
X342500Y188000D02*
Y310400D01*
X332500Y188000D02*
Y310400D01*
X337500Y188000D02*
Y310400D01*
X360000Y188000D02*
Y310400D01*
X362500Y188000D02*
Y310400D01*
X357500Y188000D02*
Y310400D01*
X347500Y188000D02*
Y310400D01*
X255500Y188000D02*
X450900D01*
X335000D02*
Y310400D01*
X345000Y188000D02*
Y310400D01*
X352500Y188000D02*
Y310400D01*
X355000Y188000D02*
Y310400D01*
X350000Y188000D02*
Y310400D01*
X247177Y205000D02*
X450900D01*
X244677Y202500D02*
X450900D01*
X251900Y210000D02*
X450900D01*
X249677Y207500D02*
X450900D01*
X253469Y192500D02*
X450900D01*
X255157Y190000D02*
X450900D01*
X242177Y200000D02*
X450900D01*
X320000Y188000D02*
Y310400D01*
X322500Y188000D02*
Y310400D01*
X315000Y188000D02*
Y310400D01*
X317500Y188000D02*
Y310400D01*
X327500Y188000D02*
Y310400D01*
X330000Y188000D02*
Y310400D01*
X325000Y188000D02*
Y310400D01*
X260000Y188000D02*
Y409447D01*
X262500Y188000D02*
Y409447D01*
X255000Y190398D02*
Y409447D01*
X257500Y188000D02*
Y409447D01*
X305000Y188000D02*
Y310400D01*
X312500Y188000D02*
Y310400D01*
X302500Y188000D02*
Y310876D01*
X252500Y193196D02*
Y274421D01*
X250000Y193979D02*
Y207823D01*
X307500Y188000D02*
Y310400D01*
X310000Y188000D02*
Y310400D01*
X249500Y188000D02*
Y193500D01*
X245000Y210177D02*
Y303950D01*
X247500Y193657D02*
Y205323D01*
X245000Y191969D02*
Y202823D01*
X242500Y188000D02*
Y200323D01*
X249500Y188000D02*
X255000D01*
X244000D02*
X249500D01*
X229918Y407500D02*
X560000D01*
X229918Y405000D02*
X568640D01*
X216850Y395000D02*
X503650D01*
X216850Y392500D02*
X503650D01*
X228009Y387500D02*
X504250D01*
X225550Y385000D02*
X504250D01*
X227303Y390000D02*
X503650D01*
X132500Y382500D02*
X555947D01*
X132500Y380000D02*
X556400D01*
X212677Y402500D02*
X497579D01*
X216850Y397500D02*
X496902D01*
X132500Y375000D02*
X556400D01*
X132500Y372500D02*
X556400D01*
X132500Y377500D02*
X556400D01*
X132500Y365000D02*
X556400D01*
X207294Y362500D02*
X556400D01*
X213677Y360000D02*
X556400D01*
X217350Y352500D02*
X499683D01*
X227881Y347500D02*
X503150D01*
X227656Y345000D02*
X503750D01*
X217350Y350000D02*
X503150D01*
X132500Y370000D02*
X556400D01*
X132500Y340000D02*
X567210D01*
X132500Y367500D02*
X556400D01*
X132500Y342500D02*
X503750D01*
X132500Y335000D02*
X567210D01*
X132500Y332500D02*
X567210D01*
X132500Y337500D02*
X567210D01*
X231129Y320000D02*
X301400D01*
X237177Y317500D02*
X301400D01*
X235693Y318985D02*
X237839Y316839D01*
X215551Y357500D02*
X496464D01*
X217350Y355000D02*
X496389D01*
X215124Y400000D02*
X496221D01*
X132500Y330000D02*
X301600D01*
X132500Y325000D02*
X301400D01*
X132500Y322500D02*
X301400D01*
X132500Y327500D02*
X301400D01*
X239850Y312500D02*
X301448D01*
X239850Y310000D02*
X451823D01*
X239850Y306650D02*
Y314350D01*
Y307500D02*
X247450D01*
X239250Y305000D02*
X244991D01*
X239250Y302500D02*
X245697D01*
X239250Y306650D02*
X239850D01*
X238600Y315000D02*
X301400D01*
X238600Y314350D02*
X239850D01*
X238600D02*
Y315000D01*
X236000Y304500D02*
X238750D01*
X239250Y301250D02*
Y306650D01*
X236000Y301750D02*
Y304500D01*
X233250D02*
X236000D01*
X132500Y282500D02*
X450900D01*
X132500Y280000D02*
X248464D01*
X132500Y272500D02*
X246900D01*
X216850Y270000D02*
X246900D01*
X216850Y265000D02*
X246900D01*
X216850Y262500D02*
X246900D01*
X216850Y267500D02*
X246900D01*
X132500Y295000D02*
X450900D01*
X132500Y292500D02*
X450900D01*
X132500Y300000D02*
X450900D01*
X132500Y297500D02*
X450900D01*
X132500Y287500D02*
X450900D01*
X132500Y285000D02*
X450900D01*
X132500Y290000D02*
X450900D01*
X240328Y235000D02*
X246900D01*
X240510Y232500D02*
X246900D01*
X240850Y250000D02*
X246900D01*
X240850Y242500D02*
X246900D01*
X239677Y197500D02*
X450900D01*
X237177Y195000D02*
X450900D01*
X230177Y188000D02*
X251339Y209161D01*
X216616Y255000D02*
X246900D01*
X216053Y252500D02*
X246900D01*
X216850Y260000D02*
X246900D01*
X216850Y257500D02*
X246900D01*
X217350Y217500D02*
X246900D01*
X217350Y215000D02*
X246900D01*
X217350Y220000D02*
X246900D01*
X240850Y243350D02*
Y250350D01*
Y242650D02*
Y243350D01*
X239950Y235650D02*
X240850D01*
X240000Y205177D02*
Y231421D01*
X238036Y230000D02*
X246900D01*
X237500Y202677D02*
Y229884D01*
X132500Y277500D02*
X245990D01*
X132500Y275000D02*
X246172D01*
X232750Y301250D02*
X239250D01*
X234850Y250350D02*
X240850D01*
X237500D02*
Y301250D01*
X191036Y230000D02*
X235964D01*
X217350Y222500D02*
X246900D01*
X234677Y192500D02*
X245531D01*
X237500Y188000D02*
Y195323D01*
X232177Y190000D02*
X243843D01*
X222823Y188000D02*
X246900Y212077D01*
X230177Y188000D02*
X243500D01*
X240000D02*
Y197823D01*
X132500Y227500D02*
X246900D01*
X217350Y225000D02*
X246900D01*
X217010Y212500D02*
X246900D01*
X216828Y210000D02*
X244823D01*
X132500Y207500D02*
X242323D01*
X132500Y205000D02*
X239823D01*
X132500Y202500D02*
X237323D01*
X232500Y424350D02*
Y425900D01*
X235000Y424350D02*
Y425900D01*
X229918Y422899D02*
Y424368D01*
X230150Y422899D02*
Y424350D01*
Y416650D02*
Y417699D01*
X230750Y411250D02*
Y416650D01*
X230000Y422899D02*
Y425900D01*
X229918Y416230D02*
Y417699D01*
X225000Y424368D02*
Y425900D01*
X227500Y424368D02*
Y425900D01*
X220000Y424368D02*
Y425900D01*
X222500Y424368D02*
Y425900D01*
X219812Y422600D02*
Y424368D01*
X229918D01*
X219062Y417400D02*
X219812D01*
X230150Y416650D02*
X230750D01*
X231250Y414500D02*
X234000D01*
X225000Y411769D02*
Y416230D01*
X227500Y411769D02*
Y416230D01*
X234000Y411750D02*
Y414500D01*
X229918Y403632D02*
Y411769D01*
X225000Y391050D02*
Y403632D01*
X219812Y416230D02*
X229918D01*
X219812Y411769D02*
X229918D01*
X220000D02*
Y416230D01*
X222500Y411769D02*
Y416230D01*
X219812Y403632D02*
X229918D01*
X216250Y390000D02*
X222697D01*
X222500Y389747D02*
Y403632D01*
X219062Y422600D02*
X219812D01*
X215000Y423327D02*
Y425900D01*
X217500Y423510D02*
Y425900D01*
X219812Y416230D02*
Y417400D01*
Y403632D02*
Y411769D01*
X215000Y400161D02*
Y416673D01*
X210626Y422500D02*
X213841D01*
X210626Y417500D02*
X213841D01*
X210000Y424368D02*
Y425900D01*
X210626Y420000D02*
X212850D01*
X212500Y402659D02*
Y425900D01*
X210626Y416230D02*
Y424368D01*
X210000Y411169D02*
Y416230D01*
X215600Y397850D02*
X216850D01*
X212692Y402485D02*
X214839Y400339D01*
X216850Y390150D02*
Y397850D01*
X216250Y390150D02*
X216850D01*
X215600Y397850D02*
Y398500D01*
X210026Y410000D02*
X219812D01*
X210026Y407500D02*
X219812D01*
X210026Y404233D02*
Y411169D01*
Y405000D02*
X219812D01*
X210000Y403246D02*
Y404233D01*
X227500Y389747D02*
Y403632D01*
X225000Y388000D02*
X227550D01*
X225000D02*
Y390550D01*
X227500Y348247D02*
Y386253D01*
X232500Y319746D02*
Y411250D01*
X235000Y319480D02*
Y411250D01*
X230000Y320611D02*
Y417699D01*
X222450Y388000D02*
X225000D01*
Y385450D02*
Y388000D01*
X216250Y387500D02*
X221991D01*
X220000Y249155D02*
Y403632D01*
X222500Y348247D02*
Y386253D01*
X217500Y249168D02*
Y416490D01*
X225000Y349550D02*
Y384950D01*
Y346500D02*
X227550D01*
X225000D02*
Y349050D01*
Y343950D02*
Y346500D01*
X227500Y320536D02*
Y344753D01*
X225000Y248332D02*
Y343450D01*
X216250Y385000D02*
X224450D01*
X222450Y346500D02*
X225000D01*
X215600Y356350D02*
X217350D01*
X216750Y347500D02*
X222119D01*
X222500Y248332D02*
Y344753D01*
X216750Y345000D02*
X222344D01*
X216250Y384750D02*
Y390150D01*
X213000Y388000D02*
X215750D01*
X213000Y385250D02*
Y388000D01*
X212692Y360984D02*
X214839Y358839D01*
X215000Y358661D02*
Y384750D01*
X210250Y388000D02*
X213000D01*
X209750Y384750D02*
X216250D01*
X209750D02*
Y390150D01*
X210000Y361746D02*
Y384750D01*
X212500Y361159D02*
Y384750D01*
X217350Y348650D02*
Y356350D01*
X216750Y348650D02*
X217350D01*
X215600Y356350D02*
Y357000D01*
X213500Y346500D02*
X216250D01*
X216750Y343250D02*
Y348650D01*
X215000Y270850D02*
Y343250D01*
X213500Y343750D02*
Y346500D01*
X210750D02*
X213500D01*
X210250Y343250D02*
X216750D01*
X209650Y356350D02*
X209973D01*
X210400Y355923D01*
X210250Y343250D02*
Y348650D01*
X212500Y270850D02*
Y343250D01*
X210000Y270850D02*
Y348650D01*
X207500Y424368D02*
Y425900D01*
Y411169D02*
Y416230D01*
X205000Y424368D02*
Y425900D01*
Y411169D02*
Y416230D01*
X205573Y407701D02*
Y410670D01*
Y407701D02*
X209526D01*
X205573Y404733D02*
Y407701D01*
X200520Y424368D02*
X210626D01*
X132500Y415000D02*
X230750D01*
X202500Y424368D02*
Y425900D01*
X200520Y416230D02*
X210626D01*
X132500Y412500D02*
X230750D01*
X201120Y411169D02*
X210026D01*
X202500D02*
Y416230D01*
X206532Y404233D02*
X210026D01*
X208416Y403246D02*
X210854D01*
X207500Y403904D02*
Y404233D01*
X208416Y398046D02*
X209777D01*
X209150Y397850D02*
X209973D01*
X207705Y397500D02*
X209150D01*
X201620Y407701D02*
X205573D01*
X201120Y404233D02*
X205176D01*
X132500Y407500D02*
X201120D01*
X132500Y402500D02*
X202710D01*
X202500Y402086D02*
Y404233D01*
X132500Y397500D02*
X204003D01*
X132500Y400000D02*
X202262D01*
X146900Y428500D02*
Y566500D01*
X132500Y442500D02*
X146900D01*
X132500Y440000D02*
X146900D01*
X195000Y423553D02*
Y425900D01*
X200000Y423100D02*
Y425900D01*
X132500Y437500D02*
X146900D01*
X132500Y435000D02*
X146900D01*
X132500Y447500D02*
X146900D01*
X132500Y445000D02*
X146900D01*
X132500Y430000D02*
X146900D01*
X132500Y427500D02*
X147100D01*
X132500Y432500D02*
X146900D01*
X200520Y423100D02*
Y424368D01*
X199562Y417900D02*
X200520D01*
X197500Y424116D02*
Y425900D01*
X199562Y423100D02*
X200520D01*
Y416230D02*
Y417900D01*
X201120Y404233D02*
Y411169D01*
X199079Y417500D02*
X200520D01*
X132500Y422500D02*
X193947D01*
X132500Y417500D02*
X194921D01*
X149500Y425900D02*
X152000D01*
X132500Y420000D02*
X193384D01*
X132500Y410000D02*
X201120D01*
X132500Y405000D02*
X201120D01*
X209150Y390150D02*
Y397850D01*
Y390150D02*
X209750D01*
X205000Y362695D02*
Y397097D01*
X207500Y362404D02*
Y397388D01*
X202500Y360586D02*
Y399206D01*
X132500Y390000D02*
X209750D01*
X132500Y387500D02*
X209750D01*
X132500Y395000D02*
X209150D01*
X132500Y392500D02*
X209150D01*
X132500Y385000D02*
X209750D01*
X132500Y362500D02*
X204414D01*
X200000Y269332D02*
Y417900D01*
X208416Y361746D02*
X210854D01*
X209650Y348650D02*
X210250D01*
X208416Y356546D02*
X209777D01*
X209650Y348650D02*
Y356350D01*
X207500Y270850D02*
Y355888D01*
X205000Y270850D02*
Y355597D01*
X202500Y269332D02*
Y357706D01*
X132500Y355000D02*
X209650D01*
X132500Y352500D02*
X209650D01*
X132500Y360000D02*
X202305D01*
X132500Y357500D02*
X202596D01*
X132500Y347500D02*
X210250D01*
X132500Y345000D02*
X210250D01*
X132500Y350000D02*
X209650D01*
X182500Y249350D02*
Y425900D01*
X190000Y249350D02*
Y425900D01*
X172500Y248800D02*
Y425900D01*
X180000Y247832D02*
Y425900D01*
X175000Y247832D02*
Y425900D01*
X177500Y247832D02*
Y425900D01*
X147500Y188000D02*
Y426839D01*
X137500Y198799D02*
Y627701D01*
X135000Y199634D02*
Y626866D01*
X132500Y199900D02*
Y626600D01*
Y199900D02*
Y626600D01*
X145000Y188000D02*
Y638500D01*
X142500Y194451D02*
Y632049D01*
X140000Y197239D02*
Y629261D01*
X195000Y270372D02*
Y417447D01*
X197500Y269332D02*
Y416884D01*
X187500Y249350D02*
Y425900D01*
X192500Y269620D02*
Y425900D01*
X170000Y248445D02*
Y425900D01*
X185000Y249350D02*
Y425900D01*
X167500Y188000D02*
Y425900D01*
X155000Y188000D02*
Y425900D01*
X157500Y188000D02*
Y425900D01*
X150000Y188000D02*
Y425900D01*
X152500Y188000D02*
Y425900D01*
X162500Y188000D02*
Y425900D01*
X165000Y188000D02*
Y425900D01*
X160000Y188000D02*
Y425900D01*
X232150Y314350D02*
X232973D01*
X233150Y250350D02*
X234850D01*
X232750Y301250D02*
Y306650D01*
X232150D02*
X232750D01*
X235000Y250350D02*
Y301250D01*
X233150Y250350D02*
X234850D01*
X232500D02*
Y306650D01*
X231416Y319746D02*
X233854D01*
X231416Y314546D02*
X232777D01*
X232150Y306650D02*
Y314350D01*
X230000Y250350D02*
Y313681D01*
X227500Y250350D02*
Y313756D01*
X227150Y250350D02*
X233150D01*
X227150Y248332D02*
Y250350D01*
Y242650D02*
X227750D01*
X228250Y239500D02*
X231000D01*
X227150Y242650D02*
Y243132D01*
X221773Y237500D02*
X227750D01*
X231000Y236750D02*
Y239500D01*
X227750Y236250D02*
X233150D01*
X227750D02*
Y242650D01*
X221294Y248332D02*
X227150D01*
X220428Y242500D02*
X227750D01*
X221294Y243132D02*
X227150D01*
X220088Y240000D02*
X227750D01*
X218732Y237268D02*
X221282D01*
X220000Y240042D02*
Y242309D01*
X216850Y263850D02*
Y270850D01*
X210850D02*
X216850D01*
X209150D02*
X210850D01*
X209150D02*
X210850D01*
X216850Y263150D02*
Y263850D01*
Y256150D02*
Y263150D01*
Y263850D01*
X203150Y269332D02*
Y270850D01*
X209150D01*
X197294Y269332D02*
X203150D01*
X197294Y264132D02*
X203150D01*
Y263150D02*
Y264132D01*
X203750Y256750D02*
Y263150D01*
X197500Y259549D02*
Y264132D01*
X216256Y256150D02*
X216850D01*
X209150D02*
Y256750D01*
X218732Y237268D02*
Y239818D01*
X216182Y237268D02*
X218732D01*
X217500Y240058D02*
Y242296D01*
X203150Y263150D02*
X203750D01*
X204250Y260000D02*
X207000D01*
X197242D02*
X203750D01*
X197684Y257500D02*
X203750D01*
Y256750D02*
X209150D01*
Y256150D02*
X209744D01*
X207000Y257250D02*
Y260000D01*
X233150Y235650D02*
Y236250D01*
Y235650D02*
X234050D01*
X230000Y195177D02*
Y236250D01*
X232500Y197677D02*
Y236250D01*
X225000Y190177D02*
Y243132D01*
X227500Y192677D02*
Y242650D01*
X222500Y188000D02*
Y243132D01*
X220771Y235000D02*
X233672D01*
X212500Y227350D02*
Y250884D01*
X218732Y234718D02*
Y237268D01*
X220000Y188000D02*
Y234494D01*
X217500Y188000D02*
Y234478D01*
X215000Y227350D02*
Y251447D01*
X217350Y219650D02*
Y220350D01*
Y212650D02*
Y219650D01*
Y220350D02*
Y227350D01*
Y219650D02*
Y220350D01*
X235000Y200177D02*
Y230447D01*
Y188000D02*
Y192823D01*
X232500Y188000D02*
Y190323D01*
X211350Y227350D02*
X217350D01*
X216964Y212650D02*
X217350D01*
X209650Y227350D02*
X211350D01*
X215000Y188000D02*
Y208172D01*
X212500Y188000D02*
Y207990D01*
X210000Y227350D02*
Y252421D01*
X209650Y227350D02*
X211350D01*
X205000D02*
Y256750D01*
X207500Y227350D02*
Y256750D01*
X203650Y225832D02*
Y227350D01*
X209650D01*
X203650Y219650D02*
Y220632D01*
X202500Y225832D02*
Y264132D01*
X197794Y225832D02*
X203650D01*
X200000D02*
Y264132D01*
X197500Y226092D02*
Y256987D01*
X202500Y188000D02*
Y220632D01*
X197794D02*
X203650D01*
X200000Y188000D02*
Y220632D01*
X209650Y212650D02*
Y213250D01*
Y212650D02*
X210036D01*
X207500Y213750D02*
Y216500D01*
X204750D02*
X207500D01*
Y188000D02*
Y213250D01*
X210000Y188000D02*
Y210464D01*
X205000Y188000D02*
Y213250D01*
X203650Y219650D02*
X204250D01*
Y213250D02*
X209650D01*
X197500Y216807D02*
Y220372D01*
X198273Y215000D02*
X204250D01*
Y213250D02*
Y219650D01*
X197271Y212500D02*
X209990D01*
X197500Y188000D02*
Y212729D01*
X132500Y315000D02*
X225902D01*
X132500Y312500D02*
X232150D01*
X196358Y270000D02*
X203150D01*
X195000Y261306D02*
Y263092D01*
X194732Y258268D02*
Y260818D01*
X132500Y310000D02*
X232150D01*
X132500Y307500D02*
X232150D01*
X132500Y320000D02*
X226579D01*
X132500Y317500D02*
X225221D01*
X132500Y305000D02*
X232750D01*
X132500Y302500D02*
X232750D01*
X132500Y262500D02*
X203750D01*
X193850Y247500D02*
X215539D01*
X193850Y245000D02*
X215156D01*
X194732Y255718D02*
Y258268D01*
X197282D01*
X193850Y240000D02*
X217376D01*
X193850Y237500D02*
X215691D01*
X193850Y242350D02*
Y249350D01*
X132500Y252500D02*
X209947D01*
X132500Y250000D02*
X227150D01*
X192182Y258268D02*
X194732D01*
X132500Y255000D02*
X209384D01*
X187850Y249350D02*
X193850D01*
Y242500D02*
X217036D01*
X193850Y241650D02*
Y242350D01*
X192500Y260347D02*
Y263844D01*
Y249350D02*
Y256189D01*
X186150Y249350D02*
X187850D01*
X186150D02*
X187850D01*
X180150D02*
X186150D01*
X174294Y247832D02*
X180150D01*
Y249350D01*
X132500Y270000D02*
X193106D01*
X132500Y260000D02*
X192221D01*
X132500Y267500D02*
X191164D01*
X132500Y265000D02*
X191519D01*
X132500Y257500D02*
X191780D01*
X132500Y247500D02*
X168872D01*
X180150Y241650D02*
Y242632D01*
X193850Y241650D02*
Y242350D01*
X174294Y242632D02*
X180150D01*
X174153Y242500D02*
X180150D01*
Y241650D02*
X180750D01*
X181250Y238500D02*
X184000D01*
X174193Y237500D02*
X180750D01*
X170000Y239558D02*
Y242019D01*
X132500Y240000D02*
X180750D01*
X132500Y245000D02*
X168089D01*
X132500Y242500D02*
X169311D01*
X172500Y239542D02*
Y241664D01*
X171232Y236768D02*
Y239318D01*
X132500Y237500D02*
X168271D01*
X193850Y235000D02*
X216693D01*
X193510Y232500D02*
X233490D01*
X193850Y234650D02*
Y241650D01*
X195000Y226875D02*
Y255230D01*
X196928Y220000D02*
X203650D01*
X195000Y217809D02*
Y219589D01*
X193464Y234650D02*
X193850D01*
X192500Y225653D02*
Y230841D01*
X132500Y220000D02*
X193536D01*
X132500Y217500D02*
X193876D01*
X196588D02*
X204250D01*
X195232Y214768D02*
X197782D01*
X195232D02*
Y217318D01*
X192682Y214768D02*
X195232D01*
Y212218D02*
Y214768D01*
X144400Y188000D02*
X222823D01*
X195000D02*
Y211727D01*
X132500Y200000D02*
X234823D01*
X139667Y197500D02*
X232323D01*
X132500Y212500D02*
X193193D01*
X132500Y210000D02*
X210173D01*
X142123Y195000D02*
X229823D01*
X143516Y192500D02*
X227323D01*
X144231Y190000D02*
X224823D01*
X186150Y234650D02*
Y235250D01*
X180750D02*
X186150D01*
X180750D02*
Y241650D01*
X184000Y235750D02*
Y238500D01*
X182500Y188000D02*
Y235250D01*
X185000Y188000D02*
Y235250D01*
X180000Y188000D02*
Y242632D01*
X168682Y236768D02*
X171232D01*
X173782D01*
X171232Y234218D02*
Y236768D01*
X132500Y235000D02*
X168747D01*
X175000Y188000D02*
Y242632D01*
X177500Y188000D02*
Y242632D01*
X192500Y216124D02*
Y220812D01*
Y188000D02*
Y213412D01*
X173717Y235000D02*
X186150D01*
Y234650D02*
X186536D01*
X187500Y188000D02*
Y230841D01*
X190000Y188000D02*
Y229850D01*
X172500Y188000D02*
Y233994D01*
X132500Y225000D02*
X192039D01*
X132500Y222500D02*
X191656D01*
X132500Y232500D02*
X186490D01*
X132500Y230000D02*
X188964D01*
X170000Y188000D02*
Y233978D01*
X132500Y215000D02*
X192191D01*
X299500Y569000D02*
X302000Y571500D01*
X291000Y569000D02*
X299500D01*
X539768Y226268D02*
X541500Y228000D01*
X548000D01*
X175768Y236768D02*
X177500Y238500D01*
X184000D01*
X199268Y214768D02*
X201000Y216500D01*
X207500D01*
X198768Y258268D02*
X200500Y260000D01*
X207000D01*
X237000Y233500D02*
Y238500D01*
X238000Y239500D01*
X213000Y254500D02*
Y259500D01*
X214000Y260500D01*
X190000Y233500D02*
Y238000D01*
X191000Y239000D01*
X213500Y211500D02*
Y216000D01*
X214500Y217000D01*
X554000Y222500D02*
Y227500D01*
X555000Y228500D01*
X554000Y228000D02*
Y235000D01*
X535732Y234732D02*
X547732D01*
X213500Y216500D02*
Y223500D01*
X195232Y223232D02*
X207232D01*
X237000Y239500D02*
Y246500D01*
X218732Y245732D02*
X230232D01*
X194732Y266732D02*
X206732D01*
X213000Y260500D02*
Y267000D01*
X171732Y245232D02*
X183732D01*
X190000Y238500D02*
Y245500D01*
X224865Y420299D02*
X241201D01*
X216500Y420000D02*
X224566D01*
X241201Y420299D02*
X247000Y414500D01*
X257500D01*
X460500Y574500D02*
X481500D01*
X504500Y551500D01*
X176000Y431500D02*
X248500D01*
X205000Y439500D02*
X285500D01*
X416500Y579500D02*
X420500D01*
X408600Y571600D02*
X416500Y579500D01*
X373400Y571600D02*
X408600D01*
X340100Y550900D02*
X372837D01*
X334400Y556600D02*
X340100Y550900D01*
X334400Y556600D02*
Y587612D01*
X341500Y518000D02*
Y544500D01*
X332000Y554000D02*
X341500Y544500D01*
X332000Y554000D02*
Y587474D01*
X339488Y603488D02*
X343886D01*
X320000Y584000D02*
X339488Y603488D01*
X312000Y584000D02*
X320000D01*
X338154Y605654D02*
X347429D01*
X321000Y588500D02*
X338154Y605654D01*
X309500Y588500D02*
X321000D01*
X323984Y609984D02*
X347429D01*
X315500Y601500D02*
X323984Y609984D01*
X335319Y607819D02*
X343886D01*
X309000Y581000D02*
X312000Y584000D01*
X316500Y579000D02*
X319000D01*
X341323Y601323D01*
X426008Y596992D02*
X434500Y588500D01*
Y435500D02*
Y588500D01*
X421900Y422900D02*
X434500Y435500D01*
X374988Y596992D02*
X426008D01*
X302400Y422900D02*
X421900D01*
X250500Y429500D02*
X421000D01*
X330000Y587737D02*
X341420Y599157D01*
X330000Y551000D02*
Y587737D01*
Y551000D02*
X339000Y542000D01*
X332000Y587474D02*
X341517Y596992D01*
X296000Y472500D02*
X341500Y518000D01*
X339000Y519000D02*
Y542000D01*
X292500Y472500D02*
X339000Y519000D01*
X292500Y439000D02*
Y472500D01*
X296000Y448000D02*
Y472500D01*
X341517Y596992D02*
X347429D01*
X341810Y590496D02*
X343886D01*
X338000Y586686D02*
X341810Y590496D01*
X338000Y559500D02*
Y586686D01*
X341712Y592661D02*
X347429D01*
X336000Y586949D02*
X341712Y592661D01*
X336000Y558500D02*
Y586949D01*
X341615Y594827D02*
X343886D01*
X334400Y587612D02*
X341615Y594827D01*
X341420Y599157D02*
X343886D01*
X341323Y601323D02*
X347429D01*
X285500Y439500D02*
X290500Y434500D01*
X419000D01*
X315000Y534000D02*
X317799Y531201D01*
X315000Y534000D02*
Y538000D01*
X317799Y531201D02*
X333500D01*
X336000Y558500D02*
X342000Y552500D01*
X338000Y559500D02*
X342500Y555000D01*
X550000Y445500D02*
Y495500D01*
Y430512D02*
Y445500D01*
X558000D01*
X197000Y420500D02*
X205372D01*
X419000Y434500D02*
X429500Y445000D01*
X354079Y442079D02*
Y460700D01*
X358016Y457148D02*
Y460700D01*
X477792Y143500D02*
X502000D01*
X253000D02*
X477792D01*
X502000D02*
X509000Y150500D01*
Y188000D01*
X477792Y143500D02*
Y152201D01*
X400792Y143708D02*
Y152201D01*
X327292Y143792D02*
Y152201D01*
X250292Y146208D02*
Y152201D01*
Y146208D02*
X253000Y143500D01*
X222000Y183500D02*
X249500Y211000D01*
X222000Y156000D02*
Y183500D01*
X443500Y543299D02*
X504201D01*
X298000Y543500D02*
X315000D01*
X278500Y552000D02*
X282000D01*
X305000Y556000D02*
X309000Y560000D01*
X292500Y556000D02*
X305000D01*
X286500Y550000D02*
X292500Y556000D01*
X286500Y513500D02*
Y550000D01*
X251000Y552000D02*
X278500D01*
Y586500D01*
X247500Y548500D02*
X251000Y552000D01*
X247500Y543799D02*
Y548500D01*
X257500Y424500D02*
X262500Y419500D01*
X299000D01*
X302400Y422900D01*
X429500Y445000D02*
Y584000D01*
X443500Y521000D02*
Y543299D01*
X509000Y538500D02*
X550000D01*
X504201Y543299D02*
X509000Y538500D01*
X559000Y384500D02*
Y389500D01*
Y358500D02*
Y384500D01*
X542000Y507500D02*
Y512000D01*
Y500000D02*
Y507500D01*
X550000Y495500D02*
X560000D01*
Y505000D01*
X568000Y489500D02*
X572500D01*
X560000D02*
X568000D01*
X572500D02*
X574000Y491000D01*
Y510500D01*
X571240Y513260D02*
X574000Y510500D01*
X563740Y513260D02*
X571240D01*
X560000Y505000D02*
Y513260D01*
X543260Y513260D02*
X556260D01*
X542079Y520740D02*
X556260D01*
X538500Y430500D02*
X549988D01*
X567500Y416500D02*
Y419685D01*
X564000Y413000D02*
X567500Y416500D01*
X564000Y410000D02*
Y413000D01*
X550197Y419685D02*
X563760D01*
X565500Y439500D02*
X570000D01*
X558000D02*
X565500D01*
X570000D02*
X571240Y438260D01*
Y430315D02*
Y438260D01*
Y401740D02*
Y419685D01*
X563760Y426740D02*
Y430315D01*
Y426740D02*
X565000Y425500D01*
X569000D01*
X571240Y423260D01*
Y419685D02*
Y423260D01*
X559000Y389500D02*
X571240Y401740D01*
X559000Y358500D02*
X561953Y355547D01*
X570110D01*
X589500Y581839D02*
X601339D01*
X559031Y596000D02*
X598000D01*
X559965Y550933D02*
X589000D01*
X598933D01*
X601500Y553500D01*
Y592500D01*
X598000Y596000D02*
X601500Y592500D01*
X374000Y574500D02*
X403500D01*
X369870Y578630D02*
X374000Y574500D01*
X480000Y583500D02*
X498984Y564516D01*
X469000Y583500D02*
X480000D01*
X498984Y564516D02*
X589500D01*
X453000Y587000D02*
X483500D01*
X444000Y590500D02*
X449500D01*
X453000Y587000D01*
X491288Y590500D02*
X504280Y577508D01*
X466000Y590500D02*
X491288D01*
X370500Y570000D02*
X422500D01*
X502831Y586169D02*
X589500D01*
X460295Y593795D02*
X495205D01*
X502831Y586169D01*
X510016Y609984D02*
X529000Y591000D01*
X374988Y609984D02*
X510016D01*
X537500Y573177D02*
X589500D01*
X501653Y568847D02*
X589500D01*
X483500Y587000D02*
X501653Y568847D01*
X504500Y551500D02*
X546976D01*
X490500Y164799D02*
Y177500D01*
X462500Y294500D02*
X480500D01*
X457000Y289000D02*
X462500Y294500D01*
X457000Y191500D02*
Y289000D01*
Y191500D02*
X465000Y183500D01*
X484500D01*
X490500Y177500D01*
X309000Y560000D02*
Y581000D01*
X354079Y460700D02*
X356047D01*
X354079D02*
Y469921D01*
X348000Y465500D02*
Y470000D01*
Y465500D02*
X350142Y463358D01*
Y460700D02*
Y463358D01*
X351500Y485500D02*
Y499500D01*
X347000Y481000D02*
X351500Y485500D01*
X332000Y481000D02*
X347000D01*
X326000Y475500D02*
Y481000D01*
Y461500D02*
Y467500D01*
Y458000D02*
Y461500D01*
Y458000D02*
X329000Y455000D01*
X350500D01*
X352110Y456610D01*
Y460700D01*
X351500Y499500D02*
X380051Y528051D01*
X380098D01*
X381650Y529603D01*
Y542087D01*
X372837Y550900D02*
X381650Y542087D01*
X376588Y561700D02*
X391250Y547038D01*
X383000Y503000D02*
X391250Y511250D01*
X375925Y560100D02*
X389650Y546376D01*
X377000Y507000D02*
X389650Y519650D01*
X375263Y558500D02*
X388050Y545713D01*
X365890Y503602D02*
X388050Y525762D01*
X374900Y556600D02*
X386450Y545050D01*
X363921Y503896D02*
X386450Y526425D01*
X374000Y555000D02*
X384850Y544150D01*
X361953Y504190D02*
X384850Y527087D01*
X373500Y552500D02*
X383250Y542750D01*
X359984Y504484D02*
X383250Y527750D01*
Y542750D01*
X384850Y527087D02*
Y544150D01*
X386450Y526425D02*
Y545050D01*
X388050Y525762D02*
Y545713D01*
X389650Y519650D02*
Y546376D01*
X391250Y511250D02*
Y547038D01*
X203000Y437500D02*
X205000Y439500D01*
X248500Y431500D02*
X250500Y429500D01*
X176000Y437500D02*
X203000D01*
X169000D02*
X176000D01*
X165000D02*
X169000D01*
X162500Y440000D02*
Y448000D01*
Y440000D02*
X165000Y437500D01*
X169000Y431500D02*
X176000D01*
X161500D02*
X169000D01*
X156000Y437000D02*
X161500Y431500D01*
X156000Y437000D02*
Y440000D01*
X278500Y586500D02*
X281000Y589000D01*
X286000D01*
X318150Y612150D02*
X343886D01*
X302000Y571500D02*
Y586000D01*
X377500Y579000D02*
X380500D01*
X374201Y582299D02*
X377500Y579000D01*
X369870Y578630D02*
Y586165D01*
X365539Y579461D02*
X373400Y571600D01*
X365539Y579461D02*
Y586165D01*
X361209Y579291D02*
X370500Y570000D01*
X361209Y579291D02*
Y586165D01*
X366000Y564000D02*
X377000D01*
X359043Y570957D02*
X366000Y564000D01*
X359043Y570957D02*
Y589709D01*
X393500Y506500D02*
Y547500D01*
X377000Y564000D02*
X393500Y547500D01*
X421173Y594590D02*
Y594827D01*
X420839Y592661D02*
X429500Y584000D01*
X389000Y586000D02*
Y588500D01*
X387004Y590496D02*
X389000Y588500D01*
X378531Y590496D02*
X387004D01*
X395000Y586000D02*
X400500D01*
X358500Y594500D02*
X361500D01*
X363374Y592626D01*
Y589709D02*
Y592626D01*
X367705Y589709D02*
Y593795D01*
X372035Y589709D02*
Y598465D01*
X359500Y604000D02*
X366500D01*
X372035Y598465D01*
X378531Y594827D02*
X421173D01*
X374988Y592661D02*
X420839D01*
X361800Y561700D02*
X376588D01*
X356878Y566622D02*
X361800Y561700D01*
X356878Y566622D02*
Y586165D01*
X367858Y480858D02*
X393500Y506500D01*
X406500Y544000D02*
Y549500D01*
X365890Y460700D02*
Y503602D01*
X363921Y460700D02*
Y503896D01*
X361953Y460700D02*
Y504190D01*
X359984Y460700D02*
Y504484D01*
X367858Y460700D02*
Y480858D01*
X360900Y560100D02*
X375925D01*
X354713Y566287D02*
X360900Y560100D01*
X354713Y566287D02*
Y589709D01*
X359000Y558500D02*
X375263D01*
X352547Y564953D02*
X359000Y558500D01*
X352547Y564953D02*
Y586165D01*
X357400Y556600D02*
X374900D01*
X350382Y563618D02*
X357400Y556600D01*
X350382Y563618D02*
Y589709D01*
X342500Y555000D02*
X374000D01*
X342000Y552500D02*
X373500D01*
X359500Y604000D02*
Y612000D01*
X363981Y616480D01*
X374988D01*
Y618646D01*
Y614315D02*
Y616480D01*
X374989Y616480D01*
X378531D01*
Y620811D01*
Y612150D02*
Y616480D01*
X367705Y620811D02*
X378531D01*
X354713D02*
X367705D01*
X343886D02*
X354713D01*
X374201Y582299D02*
Y586165D01*
X374987Y589709D02*
X378531Y586165D01*
X372035Y589709D02*
X374987D01*
X458146Y533500D02*
Y537500D01*
Y533500D02*
X460945Y530701D01*
X476646D01*
X409299Y531201D02*
X425000D01*
X406500Y534000D02*
X409299Y531201D01*
X406500Y534000D02*
Y538000D01*
X346500Y543299D02*
X360299D01*
X363299Y530701D02*
X367000D01*
X360500Y533500D02*
X363299Y530701D01*
X360500Y533500D02*
Y537500D01*
X261500Y534000D02*
Y538000D01*
Y534000D02*
X264299Y531201D01*
X280000D01*
X247500Y543799D02*
X261299D01*
X453500Y175500D02*
X455000D01*
X381500D02*
X453500D01*
X466146Y320646D02*
X480354D01*
X453500Y308000D02*
X466146Y320646D01*
X453500Y175500D02*
Y308000D01*
X499854Y399646D02*
X504854D01*
X507000Y397500D01*
Y393000D02*
Y397500D01*
Y387000D02*
X519000D01*
X499854Y356146D02*
X504854D01*
X507000Y354000D01*
Y349500D02*
Y354000D01*
Y343500D02*
X519000D01*
X480354Y320646D02*
X485354D01*
X487500Y318500D01*
Y314000D02*
Y318500D01*
Y308000D02*
X499500D01*
X228854Y317146D02*
X233854D01*
X236000Y315000D01*
Y310500D02*
Y315000D01*
Y304500D02*
X248000D01*
X205854Y359146D02*
X210854D01*
X213000Y357000D01*
Y352500D02*
Y357000D01*
Y346500D02*
X225000D01*
X213000Y388000D02*
X225000D01*
X213000Y394000D02*
Y398500D01*
X210854Y400646D02*
X213000Y398500D01*
X205854Y400646D02*
X210854D01*
X225000Y239500D02*
X231000D01*
X222768Y237268D02*
X225000Y239500D01*
X218732Y237268D02*
X222768D01*
X195232Y214768D02*
X199268D01*
X171732Y236768D02*
X175768D01*
X194732Y258268D02*
X198768D01*
X535732Y226268D02*
X539768D01*
X249500Y211000D02*
Y276500D01*
X508181Y607819D02*
X524500Y591500D01*
X513000Y590500D02*
Y594500D01*
X504012Y603488D02*
X513000Y594500D01*
X504280Y577508D02*
X589500D01*
X378531Y603488D02*
X504012D01*
X505346Y605654D02*
X519500Y591500D01*
X374988Y605654D02*
X505346D01*
X378531Y607819D02*
X508181D01*
X343886Y581114D02*
Y586165D01*
X348217D01*
X441299Y152201D02*
X457799D01*
X428701Y164799D02*
X441299Y152201D01*
X308000Y164799D02*
Y175000D01*
X234500Y175500D02*
X381500D01*
Y164799D02*
Y175500D01*
X366299Y152201D02*
X380799D01*
X353701Y164799D02*
X366299Y152201D01*
X340000Y164799D02*
X353701D01*
X222000Y156000D02*
X225799Y152201D01*
X231000D01*
X263000Y164799D02*
X276701D01*
X289299Y152201D01*
X307299D01*
X231000Y164799D02*
Y172000D01*
X234500Y175500D01*
X455000D02*
X458500Y172000D01*
Y164799D02*
Y172000D01*
Y164799D02*
X458799Y164500D01*
X296500Y585500D02*
Y605000D01*
X307980Y616480D01*
X343886D01*
X304646Y618646D02*
X347429D01*
X291000Y605000D02*
X304646Y618646D01*
X295000Y584000D02*
X296500Y585500D01*
X291000Y584000D02*
X295000D01*
X291000Y589000D02*
Y605000D01*
D47*
X286500Y513500D02*
D03*
Y463500D02*
D03*
X577000Y352594D02*
D03*
Y364406D02*
D03*
D48*
X465118Y255555D02*
D03*
Y205161D02*
D03*
X249500Y188000D02*
D03*
D49*
Y135000D02*
D03*
D50*
X468500Y415500D02*
D03*
Y425500D02*
D03*
X458500Y415500D02*
D03*
X267500Y444500D02*
D03*
X257500D02*
D03*
X267500Y434500D02*
D03*
X257500D02*
D03*
X267500Y424500D02*
D03*
X257500D02*
D03*
X267500Y414500D02*
D03*
D51*
X458500Y425500D02*
D03*
D52*
X257500Y414500D02*
D03*
D53*
X286000Y589000D02*
D03*
D54*
X291000D02*
D03*
X286000Y584000D02*
D03*
X291000Y584000D02*
D03*
X286000Y579000D02*
D03*
X291000D02*
D03*
X286000Y574000D02*
D03*
X291000D02*
D03*
X286000Y569000D02*
D03*
X291000Y569000D02*
D03*
D55*
X413500Y164799D02*
D03*
X577000Y500000D02*
D03*
X315500Y595000D02*
D03*
X305500Y594500D02*
D03*
X237000Y233500D02*
D03*
X213000Y254500D02*
D03*
X190000Y233500D02*
D03*
X213500Y211500D02*
D03*
X554000Y222500D02*
D03*
X216500Y420000D02*
D03*
X272500Y577500D02*
D03*
X460500Y574500D02*
D03*
X316500Y579000D02*
D03*
X296000Y448000D02*
D03*
X292500Y439000D02*
D03*
X354079Y442079D02*
D03*
X197000Y420500D02*
D03*
X298000Y543500D02*
D03*
X282000Y552000D02*
D03*
X550000Y538500D02*
D03*
X559000Y384500D02*
D03*
X542000Y507500D02*
D03*
X550000Y495500D02*
D03*
X568000Y500000D02*
D03*
X402500Y574500D02*
D03*
X469000Y583500D02*
D03*
X466000Y590500D02*
D03*
X420500Y579500D02*
D03*
X422500Y570000D02*
D03*
X444000Y590500D02*
D03*
X537500Y573177D02*
D03*
X524000Y591500D02*
D03*
X529000Y591000D02*
D03*
X460295Y593795D02*
D03*
X480500Y294500D02*
D03*
X367000Y530701D02*
D03*
X156000Y440000D02*
D03*
X162500Y448000D02*
D03*
X380500Y579000D02*
D03*
X400500Y586000D02*
D03*
X358500Y594500D02*
D03*
X367705Y593795D02*
D03*
X383000Y503000D02*
D03*
X377000Y507000D02*
D03*
X406500Y549500D02*
D03*
X359500Y604000D02*
D03*
X443500Y521000D02*
D03*
X476646Y530701D02*
D03*
X443500Y543299D02*
D03*
X425000Y531201D02*
D03*
X346500Y543299D02*
D03*
X333500Y531201D02*
D03*
X280000D02*
D03*
X247500Y543799D02*
D03*
X499854Y399646D02*
D03*
X519000Y387000D02*
D03*
X499854Y356146D02*
D03*
X519000Y343500D02*
D03*
X480354Y320646D02*
D03*
X499500Y308000D02*
D03*
X228854Y317146D02*
D03*
X248000Y304500D02*
D03*
X205854Y359146D02*
D03*
X225000Y346500D02*
D03*
Y388000D02*
D03*
X205854Y400646D02*
D03*
X218732Y245732D02*
D03*
X195232Y223232D02*
D03*
X171732Y245232D02*
D03*
X194732Y266732D02*
D03*
X535732Y234732D02*
D03*
X249500Y276500D02*
D03*
X535732Y226268D02*
D03*
X218732Y237268D02*
D03*
X194732Y258268D02*
D03*
X171232Y236768D02*
D03*
X195232Y214768D02*
D03*
X513000Y590500D02*
D03*
X519500Y591500D02*
D03*
X309500Y588500D02*
D03*
X343886Y581114D02*
D03*
X250292Y152201D02*
D03*
X327292D02*
D03*
X400792D02*
D03*
X477792D02*
D03*
X458500Y164799D02*
D03*
X381500D02*
D03*
X308000D02*
D03*
X231000D02*
D03*
X263000D02*
D03*
X231000Y152201D02*
D03*
X340000Y164799D02*
D03*
X307299Y152201D02*
D03*
X380799D02*
D03*
X457799D02*
D03*
X490500Y164799D02*
D03*
D56*
X571240Y430315D02*
D03*
X563760D02*
D03*
Y419685D02*
D03*
X567500D02*
D03*
X571240D02*
D03*
D57*
X542000Y492500D02*
D03*
X542000Y500000D02*
D03*
X538500Y430500D02*
D03*
X538500Y423000D02*
D03*
D58*
X567500Y505000D02*
D03*
X560000D02*
D03*
X571500Y410000D02*
D03*
X564000D02*
D03*
D59*
X542000Y512000D02*
D03*
X542000Y520661D02*
D03*
D60*
X556260Y513260D02*
D03*
X563740D02*
D03*
Y520740D02*
D03*
X560000Y520740D02*
D03*
X556260Y520740D02*
D03*
X560000Y513260D02*
D03*
D61*
X326000Y467500D02*
D03*
Y475500D02*
D03*
X318000Y471500D02*
D03*
D62*
X326000Y461500D02*
D03*
X320000D02*
D03*
X326000Y481500D02*
D03*
X332000D02*
D03*
X207000Y260000D02*
D03*
X213000D02*
D03*
X184000Y238500D02*
D03*
X190000D02*
D03*
X231000Y239500D02*
D03*
X237000D02*
D03*
X207500Y216500D02*
D03*
X213500D02*
D03*
X548000Y228000D02*
D03*
X554000D02*
D03*
X548000Y235000D02*
D03*
X554000D02*
D03*
X207500Y223500D02*
D03*
X213500D02*
D03*
X231000Y246500D02*
D03*
X237000D02*
D03*
X184000Y245500D02*
D03*
X190000D02*
D03*
X207000Y267000D02*
D03*
X213000D02*
D03*
X389000Y586000D02*
D03*
X395000D02*
D03*
X348000Y470000D02*
D03*
X354000D02*
D03*
D63*
X550000Y419488D02*
D03*
Y430512D02*
D03*
D64*
X570110Y355547D02*
D03*
Y349642D02*
D03*
Y367358D02*
D03*
D65*
X546976Y551500D02*
D03*
D66*
X553126Y594500D02*
D03*
D67*
X589000Y550933D02*
D03*
Y595224D02*
D03*
D68*
X589500Y590500D02*
D03*
Y564516D02*
D03*
Y568847D02*
D03*
Y573177D02*
D03*
Y577508D02*
D03*
Y581839D02*
D03*
Y586169D02*
D03*
Y560185D02*
D03*
D69*
X559031Y550000D02*
D03*
Y596000D02*
D03*
D70*
X367705Y620811D02*
D03*
X354713D02*
D03*
X343886D02*
D03*
X347429Y618646D02*
D03*
X343886Y616480D02*
D03*
X347429Y614315D02*
D03*
X343886Y612150D02*
D03*
X347429Y609984D02*
D03*
X343886Y607819D02*
D03*
X347429Y605654D02*
D03*
X343886Y603488D02*
D03*
X347429Y601323D02*
D03*
X343886Y599157D02*
D03*
X347429Y596992D02*
D03*
X343886Y594827D02*
D03*
X347429Y592661D02*
D03*
X343886Y586165D02*
D03*
Y590496D02*
D03*
X348217Y586165D02*
D03*
X350382Y589709D02*
D03*
X352547Y586165D02*
D03*
X354713Y589709D02*
D03*
X356878Y586165D02*
D03*
X359043Y589709D02*
D03*
X361209Y586165D02*
D03*
X363374Y589709D02*
D03*
X365539Y586165D02*
D03*
X367705Y589709D02*
D03*
X369870Y586165D02*
D03*
X372035Y589709D02*
D03*
X374201Y586165D02*
D03*
X378531Y590496D02*
D03*
X374988Y592661D02*
D03*
X378531Y594827D02*
D03*
X374988Y596992D02*
D03*
X378531Y599157D02*
D03*
X374988Y601323D02*
D03*
X378531Y603488D02*
D03*
X374988Y605654D02*
D03*
X378531Y607819D02*
D03*
X374988Y609984D02*
D03*
X378531Y612150D02*
D03*
X374988Y614315D02*
D03*
X378531Y616480D02*
D03*
X374988Y618646D02*
D03*
X378531Y620811D02*
D03*
Y586165D02*
D03*
D71*
X359984Y460700D02*
D03*
X361953D02*
D03*
X363921D02*
D03*
X365890D02*
D03*
X367858D02*
D03*
X350142D02*
D03*
X352110D02*
D03*
X354079D02*
D03*
X356047D02*
D03*
X358016D02*
D03*
D72*
X376913Y450070D02*
D03*
X341087D02*
D03*
D73*
X517500Y171500D02*
X570110Y224110D01*
Y349642D01*
X465118Y255555D02*
X570055D01*
X517500Y142500D02*
Y171500D01*
X510000Y135000D02*
X517500Y142500D01*
X249500Y135000D02*
X510000D01*
M02*
