G04 Layer_Color=11767835*
%FSLAX25Y25*%
%MOIN*%
G70*
G01*
G75*
%ADD11R,0.03500X0.03500*%
%ADD13R,0.05906X0.03937*%
%ADD49R,0.03600X0.03600*%
%ADD50C,0.03600*%
%ADD51C,0.03543*%
%ADD52C,0.09000*%
%ADD53C,0.07500*%
%ADD54C,0.05906*%
%ADD55R,0.05906X0.05906*%
%ADD56R,0.05906X0.05906*%
%ADD58R,0.03500X0.03500*%
%ADD59R,0.02362X0.04134*%
%ADD60R,0.05000X0.05000*%
%ADD61R,0.05000X0.05000*%
%ADD62R,0.12598X0.03937*%
%ADD63R,0.10630X0.03150*%
%ADD64R,0.05906X0.02756*%
%ADD65R,0.06102X0.03937*%
%ADD66R,0.03937X0.06102*%
%ADD67R,0.05906X0.05118*%
%ADD68R,0.06890X0.02756*%
%ADD69R,0.05906X0.03150*%
%ADD70R,0.01969X0.01969*%
%ADD71R,0.01181X0.03937*%
%ADD72R,0.07874X0.05118*%
%ADD73R,0.02362X0.04331*%
%ADD74O,0.02362X0.04331*%
%ADD75R,0.04724X0.02362*%
%ADD76C,0.04000*%
D11*
X294500Y524000D02*
D03*
Y530000D02*
D03*
X232000Y577500D02*
D03*
Y583500D02*
D03*
X286500Y524000D02*
D03*
Y530000D02*
D03*
X562500Y489500D02*
D03*
Y495500D02*
D03*
X570500D02*
D03*
Y489500D02*
D03*
X319000Y459500D02*
D03*
Y453500D02*
D03*
X326000Y482500D02*
D03*
Y488500D02*
D03*
X176000Y437500D02*
D03*
Y431500D02*
D03*
X169000Y437500D02*
D03*
Y431500D02*
D03*
X565500Y445500D02*
D03*
Y439500D02*
D03*
X558000D02*
D03*
Y445500D02*
D03*
X234000Y414500D02*
D03*
Y420500D02*
D03*
X213000Y388000D02*
D03*
Y394000D02*
D03*
X213500Y346500D02*
D03*
Y352500D02*
D03*
X236000Y304500D02*
D03*
Y310500D02*
D03*
X488000Y307500D02*
D03*
Y313500D02*
D03*
X507000Y343500D02*
D03*
Y349500D02*
D03*
X507500Y387000D02*
D03*
Y393000D02*
D03*
X458000Y538000D02*
D03*
Y544000D02*
D03*
X406500Y538000D02*
D03*
Y544000D02*
D03*
X360500Y537500D02*
D03*
Y543500D02*
D03*
X315000Y537500D02*
D03*
Y543500D02*
D03*
X261500Y538000D02*
D03*
Y544000D02*
D03*
X555000Y489500D02*
D03*
Y495500D02*
D03*
X550000Y459500D02*
D03*
Y453500D02*
D03*
D13*
X224865Y420299D02*
D03*
Y407701D02*
D03*
X205573D02*
D03*
Y420299D02*
D03*
D49*
X286000Y589000D02*
D03*
D50*
X291000D02*
D03*
X286000Y584000D02*
D03*
X291000Y584000D02*
D03*
X286000Y579000D02*
D03*
X291000D02*
D03*
X286000Y574000D02*
D03*
X291000D02*
D03*
X286000Y569000D02*
D03*
X291000Y569000D02*
D03*
D51*
X286500Y513500D02*
D03*
Y463500D02*
D03*
X577000Y352594D02*
D03*
Y364406D02*
D03*
D52*
X463118Y261055D02*
D03*
Y210661D02*
D03*
X249500Y188000D02*
D03*
D53*
Y135000D02*
D03*
D54*
X197500Y583500D02*
D03*
X465000Y480000D02*
D03*
Y490000D02*
D03*
X455000Y480000D02*
D03*
X267500Y444500D02*
D03*
X257500D02*
D03*
X267500Y434500D02*
D03*
X257500D02*
D03*
X267500Y424500D02*
D03*
X257500D02*
D03*
X267500Y414500D02*
D03*
X551000Y370000D02*
D03*
Y360000D02*
D03*
D55*
X207500Y583500D02*
D03*
X455000Y490000D02*
D03*
D56*
X257500Y414500D02*
D03*
X551000Y350000D02*
D03*
D58*
X562000Y538500D02*
D03*
X556000D02*
D03*
X218500Y583500D02*
D03*
X224500D02*
D03*
X207000Y260000D02*
D03*
X213000D02*
D03*
X184000Y238500D02*
D03*
X190000D02*
D03*
X231000Y239500D02*
D03*
X237000D02*
D03*
X207500Y216500D02*
D03*
X213500D02*
D03*
X548000Y228000D02*
D03*
X554000D02*
D03*
X548000Y235000D02*
D03*
X554000D02*
D03*
X207500Y223500D02*
D03*
X213500D02*
D03*
X231000Y246500D02*
D03*
X237000D02*
D03*
X184000Y245500D02*
D03*
X190000D02*
D03*
X207000Y267000D02*
D03*
X213000D02*
D03*
X389000Y586000D02*
D03*
X395000D02*
D03*
X348000Y490000D02*
D03*
X354000D02*
D03*
X478000Y470000D02*
D03*
X484000D02*
D03*
X478000Y498500D02*
D03*
X484000D02*
D03*
D59*
X571240Y430315D02*
D03*
X563760D02*
D03*
Y419685D02*
D03*
X567500D02*
D03*
X571240D02*
D03*
D60*
X542000Y492500D02*
D03*
X542000Y500000D02*
D03*
X538500Y430500D02*
D03*
X538500Y423000D02*
D03*
X445500Y458500D02*
D03*
Y466000D02*
D03*
D61*
X570000Y505000D02*
D03*
X562500D02*
D03*
X571500Y410000D02*
D03*
X564000D02*
D03*
D62*
X544500Y515500D02*
D03*
X544500Y524161D02*
D03*
D63*
X550000Y419488D02*
D03*
Y430512D02*
D03*
D64*
X570110Y355547D02*
D03*
Y349642D02*
D03*
Y367358D02*
D03*
D65*
X546976Y551500D02*
D03*
D66*
X553126Y594500D02*
D03*
D67*
X589000Y550933D02*
D03*
Y595224D02*
D03*
D68*
X589500Y590500D02*
D03*
Y564516D02*
D03*
Y568847D02*
D03*
Y573177D02*
D03*
Y577508D02*
D03*
Y581839D02*
D03*
Y586169D02*
D03*
Y560185D02*
D03*
D69*
X559031Y550000D02*
D03*
Y596000D02*
D03*
D70*
X367705Y620811D02*
D03*
X354713D02*
D03*
X343886D02*
D03*
X347429Y618646D02*
D03*
X343886Y616480D02*
D03*
X347429Y614315D02*
D03*
X343886Y612150D02*
D03*
X347429Y609984D02*
D03*
X343886Y607819D02*
D03*
X347429Y605654D02*
D03*
X343886Y603488D02*
D03*
X347429Y601323D02*
D03*
X343886Y599157D02*
D03*
X347429Y596992D02*
D03*
X343886Y594827D02*
D03*
X347429Y592661D02*
D03*
X343886Y586165D02*
D03*
Y590496D02*
D03*
X348217Y586165D02*
D03*
X350382Y589709D02*
D03*
X352547Y586165D02*
D03*
X354713Y589709D02*
D03*
X356878Y586165D02*
D03*
X359043Y589709D02*
D03*
X361209Y586165D02*
D03*
X363374Y589709D02*
D03*
X365539Y586165D02*
D03*
X367705Y589709D02*
D03*
X369870Y586165D02*
D03*
X372035Y589709D02*
D03*
X374201Y586165D02*
D03*
X378531Y590496D02*
D03*
X374988Y592661D02*
D03*
X378531Y594827D02*
D03*
X374988Y596992D02*
D03*
X378531Y599157D02*
D03*
X374988Y601323D02*
D03*
X378531Y603488D02*
D03*
X374988Y605654D02*
D03*
X378531Y607819D02*
D03*
X374988Y609984D02*
D03*
X378531Y612150D02*
D03*
X374988Y614315D02*
D03*
X378531Y616480D02*
D03*
X374988Y618646D02*
D03*
X378531Y620811D02*
D03*
Y586165D02*
D03*
D71*
X359984Y468700D02*
D03*
X361953D02*
D03*
X363921D02*
D03*
X365890D02*
D03*
X367858D02*
D03*
X350142D02*
D03*
X352110D02*
D03*
X354079D02*
D03*
X356047D02*
D03*
X358016D02*
D03*
D72*
X376913Y458070D02*
D03*
X341087D02*
D03*
D73*
X562240Y513476D02*
D03*
X558500Y513476D02*
D03*
X565980Y513476D02*
D03*
Y524500D02*
D03*
X562240D02*
D03*
X461240Y451476D02*
D03*
X457500Y451476D02*
D03*
X464980Y451476D02*
D03*
Y462500D02*
D03*
X461240D02*
D03*
D74*
X558500Y524500D02*
D03*
X457500Y462500D02*
D03*
D75*
X326000Y475500D02*
D03*
Y468020D02*
D03*
X318913Y471760D02*
D03*
D76*
X186000Y105000D02*
D03*
X528500Y658500D02*
D03*
X533500Y105000D02*
D03*
M02*
