G04 Layer_Color=7318015*
%FSLAX25Y25*%
%MOIN*%
G70*
G01*
G75*
%ADD11R,0.03500X0.03500*%
%ADD12R,0.04134X0.02559*%
%ADD13R,0.05906X0.03937*%
D11*
X267500Y152000D02*
D03*
Y158000D02*
D03*
X343500Y152000D02*
D03*
Y158000D02*
D03*
X418500Y152000D02*
D03*
Y158000D02*
D03*
X493500Y152000D02*
D03*
Y158000D02*
D03*
D12*
X540169Y226268D02*
D03*
X523831D02*
D03*
X540169Y234732D02*
D03*
X523831D02*
D03*
X223169Y237268D02*
D03*
X206831D02*
D03*
X223169Y245732D02*
D03*
X206831D02*
D03*
X176169Y236768D02*
D03*
X159831D02*
D03*
X176169Y245232D02*
D03*
X159831D02*
D03*
X199669Y214768D02*
D03*
X183331D02*
D03*
X199669Y223232D02*
D03*
X183331D02*
D03*
X199669Y258268D02*
D03*
X183331D02*
D03*
X199669Y266732D02*
D03*
X183331D02*
D03*
D13*
X228854Y310299D02*
D03*
Y297701D02*
D03*
X248146D02*
D03*
Y310299D02*
D03*
X205854Y352299D02*
D03*
Y339701D02*
D03*
X225146D02*
D03*
Y352299D02*
D03*
X205854Y393799D02*
D03*
Y381201D02*
D03*
X225146D02*
D03*
Y393799D02*
D03*
X465854Y164799D02*
D03*
Y152201D02*
D03*
X485146D02*
D03*
Y164799D02*
D03*
X388854D02*
D03*
Y152201D02*
D03*
X408146D02*
D03*
Y164799D02*
D03*
X315354D02*
D03*
Y152201D02*
D03*
X334646D02*
D03*
Y164799D02*
D03*
X238354D02*
D03*
Y152201D02*
D03*
X257646D02*
D03*
Y164799D02*
D03*
X450854Y543299D02*
D03*
Y530701D02*
D03*
X470146D02*
D03*
Y543299D02*
D03*
X499854Y392799D02*
D03*
Y380201D02*
D03*
X519146D02*
D03*
Y392799D02*
D03*
X499854Y349299D02*
D03*
Y336701D02*
D03*
X519146D02*
D03*
Y349299D02*
D03*
X480354Y313799D02*
D03*
Y301201D02*
D03*
X499646D02*
D03*
Y313799D02*
D03*
X254354Y543799D02*
D03*
Y531201D02*
D03*
X273646D02*
D03*
Y543799D02*
D03*
X307854D02*
D03*
Y531201D02*
D03*
X327146D02*
D03*
Y543799D02*
D03*
X353354Y543299D02*
D03*
Y530701D02*
D03*
X372646D02*
D03*
Y543299D02*
D03*
X399354Y543799D02*
D03*
Y531201D02*
D03*
X418646D02*
D03*
Y543799D02*
D03*
M02*
