M48
;Layer_Color=6321
;FILE_FORMAT=2:5
INCH,LZ
;TYPE=PLATED
T1F00S00C0.01600
T2F00S00C0.02000
T3F00S00C0.02362
T4F00S00C0.03000
T5F00S00C0.03543
T6F00S00C0.05000
T7F00S00C0.19600
;TYPE=NON_PLATED
T8F00S00C0.03543
%
T01
X0231Y0152201
X0250292
X0307299
X0327292
X0380799
X0400792
X0457799
X0477792
X04905Y0164799
X0535732Y0226268
Y0234732
X0554Y02225
X04995Y0308
X04805Y02945
X04585Y0164799
X04135
X03815
X034
X0308
X0263
X0231
X02135Y02115
X0195232Y0214768
Y0223232
X019Y02335
X0171232Y0236768
X0171732Y0245232
X0194732Y0258268
Y0266732
X0213Y02545
X0218732Y0245732
Y0237268
X0237Y02335
X02495Y02765
X0248Y03045
X0156Y044
X01625Y0448
X0197Y04205
X02165Y042
X0205854Y0400646
X0225Y0388
Y03465
X0205854Y0359146
X0228854Y0317146
X0354Y04415
X0499854Y0399646
X0519Y0387
X0559Y03845
X0519Y03435
X0499854Y0356146
X0480354Y0320646
X049Y0485
X0476646Y0530701
X04755Y0575
X0481Y05835
X0513Y05905
X05195Y05915
X0524
X0529Y0591
X05355Y0582
X055Y05385
Y04955
X05705Y05
X05795
X0532Y05105
X04435Y0521
Y0543299
X0425Y0531201
X04065Y05495
X04225Y057
X0422Y058
X04005Y0586
X0394Y05745
X03805Y0579
X0367705Y0593795
X03585Y05945
X03595Y0604
X0343886Y0581114
X0317Y05805
X03155Y0595
X03335Y0531201
X03465Y0543299
X0367Y0530701
X0375Y05045
X03765Y0498
X03145Y0503
X0444Y05905
X0460295Y0593795
X0466Y05905
X03095Y05885
X03055Y05945
X0298Y0574
Y05435
X02785Y0552
X02615
X028Y0531201
X0242Y05265
X0243Y05835
X02735Y0584
X031Y0507
X0312Y049
Y04835
T02
X0286Y0569
Y0574
Y0579
X0291
Y0584
X0291Y0589
X0286
Y0584
X0291Y0574
Y0569
T03
X02865Y04635
Y05135
T04
X02985Y0458
X0427
T05
X02575Y04145
Y04245
Y04345
Y04445
X02675
Y04345
Y04245
Y04145
X0551Y037
Y036
Y035
X0465Y048
Y049
X0455
Y048
T06
X02495Y0135
X0463118Y0210661
Y0261055
X02495Y0188
T07
X0587Y0188
X01325
Y06385
X0587
T08
X0577Y0352594
Y0364406
M30
